<svg width="32" height="32" viewBox="0 0 32 32" fill="none" xmlns="http://www.w3.org/2000/svg">
<path d="M26.0126 7.8013L18.0926 3.22797C16.7992 2.4813 15.1992 2.4813 13.8926 3.22797L5.98591 7.8013C4.69258 8.54797 3.89258 9.93463 3.89258 11.4413V20.5613C3.89258 22.0546 4.69258 23.4413 5.98591 24.2013L13.9059 28.7746C15.1992 29.5213 16.7992 29.5213 18.1059 28.7746L26.0259 24.2013C27.3192 23.4546 28.1192 22.068 28.1192 20.5613V11.4413C28.1059 9.93463 27.3059 8.5613 26.0126 7.8013ZM15.9992 9.78797C17.7192 9.78797 19.1059 11.1746 19.1059 12.8946C19.1059 14.6146 17.7192 16.0013 15.9992 16.0013C14.2792 16.0013 12.8926 14.6146 12.8926 12.8946C12.8926 11.188 14.2792 9.78797 15.9992 9.78797ZM19.5726 22.2146H12.4259C11.3459 22.2146 10.7192 21.0146 11.3192 20.1213C12.2259 18.7746 13.9859 17.868 15.9992 17.868C18.0126 17.868 19.7726 18.7746 20.6792 20.1213C21.2792 21.0013 20.6392 22.2146 19.5726 22.2146Z" fill="white"/>
</svg>
