<svg width="24" height="19" viewBox="0 0 24 19" fill="none" xmlns="http://www.w3.org/2000/svg">
<path d="M5.74016e-05 2.30742C5.74016e-05 1.03308 1.0744 0 2.40071 0H21.5993C22.9245 0 23.9999 1.0331 23.9999 2.30742V4.61483H0L5.74016e-05 2.30742Z" fill="white"/>
<path fill-rule="evenodd" clip-rule="evenodd" d="M5.74016e-05 6.92335H24V16.1541C24 17.4285 22.9245 18.4615 21.5993 18.4615H2.40077C1.07443 18.4615 0.000115078 17.4284 0.000115078 16.1541L5.74016e-05 6.92335ZM16.8002 12.6924C16.1365 12.6924 15.5999 13.2095 15.5999 13.8467C15.5999 14.4839 16.1365 14.9999 16.8002 14.9999H19.1998C19.8624 14.9999 20.4001 14.4839 20.4001 13.8467C20.4001 13.2095 19.8624 12.6924 19.1998 12.6924H16.8002Z" fill="white"/>
</svg>
