<svg width="24" height="24" viewBox="0 0 24 24" fill="none" xmlns="http://www.w3.org/2000/svg">
<path d="M7.23805 2.00391H5.33805C3.14805 2.00391 1.99805 3.15391 1.99805 5.33391V7.23391C1.99805 9.41391 3.14805 10.5639 5.32805 10.5639H7.22805C9.40805 10.5639 10.558 9.41391 10.558 7.23391V5.33391C10.568 3.15391 9.41805 2.00391 7.23805 2.00391Z" fill="white"/>
<path d="M18.6675 2.00391H16.7675C14.5875 2.00391 13.4375 3.15391 13.4375 5.33391V7.23391C13.4375 9.41391 14.5875 10.5639 16.7675 10.5639H18.6675C20.8475 10.5639 21.9975 9.41391 21.9975 7.23391V5.33391C21.9975 3.15391 20.8475 2.00391 18.6675 2.00391Z" fill="white"/>
<path d="M18.6675 13.4375H16.7675C14.5875 13.4375 13.4375 14.5875 13.4375 16.7675V18.6675C13.4375 20.8475 14.5875 21.9975 16.7675 21.9975H18.6675C20.8475 21.9975 21.9975 20.8475 21.9975 18.6675V16.7675C21.9975 14.5875 20.8475 13.4375 18.6675 13.4375Z" fill="white"/>
<path d="M7.23805 13.4375H5.33805C3.14805 13.4375 1.99805 14.5875 1.99805 16.7675V18.6675C1.99805 20.8575 3.14805 22.0075 5.32805 22.0075H7.22805C9.40805 22.0075 10.558 20.8575 10.558 18.6775V16.7775C10.568 14.5875 9.41805 13.4375 7.23805 13.4375Z" fill="white"/>
</svg>
