<svg width="29" height="29" viewBox="0 0 29 29" fill="none" xmlns="http://www.w3.org/2000/svg">
<path d="M10.9547 10.1031C10.7778 9.88665 10.5052 9.77381 10.226 9.79874C9.94813 9.82498 9.70041 9.989 9.56804 10.2357L0.100997 27.7614C-0.0693899 28.0763 -0.0208955 28.4647 0.221577 28.7284C0.384102 28.9055 0.609519 29 0.840232 29C0.95295 29 1.06698 28.9777 1.17445 28.9305L18.7218 21.2811C18.963 21.1761 19.1412 20.9636 19.2028 20.709C19.2644 20.4532 19.2028 20.1829 19.0364 19.9795L10.9547 10.1031Z" fill="white"/>
<path d="M12.678 6.42945C12.9113 7.35972 12.8694 8.37268 12.5601 9.27933C12.4107 9.71757 12.644 10.1952 13.083 10.3448C13.1722 10.3762 13.2639 10.3894 13.3543 10.3894C13.703 10.3894 14.0293 10.1702 14.1486 9.82123C14.5615 8.61147 14.6178 7.26134 14.3059 6.02023C13.9953 4.779 13.3085 3.6165 12.374 2.74394C12.0358 2.42772 11.5037 2.44609 11.1891 2.78592C10.8733 3.12444 10.8916 3.65717 11.2311 3.97204C11.9323 4.62546 12.4461 5.49933 12.6794 6.42828L12.678 6.42945Z" fill="white"/>
<path d="M19.9577 16.4459C19.4951 16.4669 19.1373 16.8605 19.1595 17.3237C19.1805 17.7868 19.5724 18.1463 20.0364 18.1227C21.8189 18.0414 23.6434 18.7394 24.9147 19.9938C25.0785 20.1552 25.2909 20.2352 25.5045 20.2352C25.7208 20.2352 25.937 20.1512 26.1021 19.9859C26.4272 19.6553 26.4246 19.1239 26.0943 18.7984C24.4966 17.22 22.2068 16.3383 19.9604 16.4445L19.9577 16.4459Z" fill="white"/>
<path d="M17.4963 9.00376C17.6431 9.10742 17.8121 9.15727 17.9786 9.15727C18.242 9.15727 18.5016 9.03394 18.6654 8.8017C19.8227 7.15634 20.5069 5.22608 20.6419 3.21877C20.6733 2.7556 20.3234 2.35541 19.8607 2.32522C19.3968 2.29241 18.9983 2.64406 18.9682 3.10722C18.8541 4.80769 18.2748 6.44256 17.2944 7.83596C17.027 8.21515 17.1188 8.73868 17.4963 9.00636L17.4963 9.00376Z" fill="white"/>
<path d="M21.5827 13.4174C21.643 13.4174 21.7059 13.4109 21.7675 13.3964C23.4871 13.0107 25.254 12.8611 27.0206 12.949C27.4898 12.9766 27.8778 12.6158 27.9014 12.1526C27.925 11.6894 27.5685 11.2945 27.1058 11.2709C25.187 11.1738 23.267 11.3365 21.3991 11.7563C20.9469 11.8587 20.6625 12.3074 20.7647 12.7601C20.8525 13.1511 21.1986 13.4161 21.5826 13.4161L21.5827 13.4174Z" fill="white"/>
<path d="M24.1163 4.08188H25.7481C26.2108 4.08188 26.587 4.54504 26.587 4.92162V6.55518C26.587 7.01835 26.2108 7.39492 25.7481 7.39492H24.1163C23.6537 7.39492 23.2775 6.93175 23.2775 6.55518V4.92162C23.2775 4.45845 23.6537 4.08188 24.1163 4.08188Z" fill="white"/>
<path d="M17.3939 10.821C17.1737 10.8039 16.9522 10.8734 16.7832 11.0178L15.5393 12.0753C15.1868 12.3758 15.1435 12.9059 15.4437 13.2588L16.5001 14.504C16.6665 14.6995 16.9024 14.8005 17.1397 14.8005C17.331 14.8005 17.525 14.7349 17.6823 14.6011L18.9261 13.5435C19.0952 13.3992 19.2013 13.1932 19.2197 12.9715C19.238 12.7497 19.1673 12.5293 19.0231 12.36L17.9667 11.1149C17.8225 10.9456 17.6167 10.8393 17.3952 10.821H17.3939Z" fill="white"/>
<path d="M29 16.1244C29 17.9614 26.2463 17.9614 26.2463 16.1244C26.2463 14.2862 29 14.2862 29 16.1244Z" fill="white"/>
<path d="M15.6901 2.75542C16.449 2.75542 17.0663 2.13744 17.0663 1.37771C17.0663 0.618015 16.449 0 15.6901 0C14.9312 0 14.3139 0.617982 14.3139 1.37771C14.3139 2.13741 14.9312 2.75542 15.6901 2.75542Z" fill="white"/>
</svg>
