<svg width="28" height="19" viewBox="0 0 28 19" fill="none" xmlns="http://www.w3.org/2000/svg">
<path d="M25.8988 5.1513C26.2208 5.32397 26.5953 5.35914 26.9592 5.276C27.3232 5.18967 27.6242 4.98182 27.8132 4.68765C28.1981 4.07052 27.9707 3.29031 27.2917 2.93857C27.0747 2.82346 26.8333 2.7659 26.5953 2.7659C26.1158 2.7659 25.6364 2.99293 25.3879 3.40222C25.1989 3.6964 25.1499 4.03854 25.2409 4.37109C25.3354 4.70683 25.5734 4.98182 25.8988 5.1513Z" fill="white"/>
<path d="M15.3997 1.28223C15.3997 0.578761 14.7767 0 13.9963 0C13.2264 0 12.6034 0.578761 12.6034 1.28223C12.6034 1.98569 13.2264 2.55486 13.9963 2.55486C14.7767 2.55806 15.3997 1.98569 15.3997 1.28223Z" fill="white"/>
<path d="M1.7578 2.80427C1.64231 2.7755 1.51982 2.7659 1.40433 2.7659C1.15585 2.7659 0.914373 2.82346 0.69739 2.93857C0.0324447 3.29031 -0.198536 4.07052 0.186432 4.68765C0.560902 5.26641 1.43583 5.50303 2.10078 5.1513C2.30726 5.02659 2.48574 4.8763 2.61173 4.68445C2.86021 4.28475 2.86021 3.79233 2.61173 3.40222C2.42625 3.10804 2.12177 2.89061 1.7578 2.80427Z" fill="white"/>
<path d="M10.1746 9.62151C10.1641 9.64069 10.1641 9.65988 10.1536 9.66947C10.1326 9.69825 10.1011 9.70784 10.0696 9.72703C10.0591 9.73662 10.0486 9.75581 10.0276 9.7654C9.96463 9.79418 9.90164 9.81336 9.83165 9.81336C9.77915 9.81336 9.72665 9.80377 9.67416 9.78458C9.65316 9.77499 9.64266 9.7654 9.63216 9.75581C9.62166 9.75581 9.61116 9.75581 9.60067 9.74621L3.0282 5.35274C2.87071 5.51582 2.69573 5.65651 2.48574 5.76203C2.28976 5.87715 2.07978 5.9347 1.8628 5.97947L4.09911 15.7225C10.6541 17.0143 17.314 17.0143 23.89 15.7225L26.1263 5.97947C25.9093 5.93151 25.6994 5.87395 25.5034 5.77163C25.2969 5.65651 25.1289 5.51582 24.9714 5.35274L18.3849 9.74302C18.3849 9.75261 18.3745 9.75261 18.364 9.75261C18.343 9.7622 18.3325 9.77179 18.3115 9.78139C18.2695 9.80057 18.217 9.81017 18.154 9.81017C18.091 9.81017 18.028 9.79098 17.965 9.7622C17.944 9.75261 17.9335 9.73342 17.9125 9.72383C17.8915 9.70465 17.86 9.69505 17.839 9.66627C17.8285 9.65668 17.8285 9.6375 17.818 9.61831C17.8075 9.60872 17.797 9.60872 17.797 9.59913L14.6857 3.1624C14.4688 3.22955 14.2378 3.26792 13.9893 3.26792C13.7513 3.26792 13.5203 3.22955 13.3034 3.1624L10.1921 9.59913C10.1851 9.61192 10.1746 9.61192 10.1746 9.62151Z" fill="white"/>
<path d="M23.7115 16.4739C20.4848 17.091 17.23 17.414 13.9823 17.414C10.7346 17.414 7.49034 17.091 4.2741 16.4739L4.64857 18.1079C10.8396 19.2974 17.125 19.2974 23.3335 18.1079L23.7115 16.4739Z" fill="white"/>
</svg>
