<svg width="24" height="20" viewBox="0 0 24 20" fill="none" xmlns="http://www.w3.org/2000/svg">
<path d="M5.74016e-05 3.07695C5.74016e-05 1.80261 1.0744 0.769531 2.40071 0.769531H21.5993C22.9245 0.769531 23.9999 1.80263 23.9999 3.07695V5.38436H0L5.74016e-05 3.07695Z" fill="white"/>
<path fill-rule="evenodd" clip-rule="evenodd" d="M5.74016e-05 7.69288H24V16.9237C24 18.198 22.9245 19.2311 21.5993 19.2311H2.40077C1.07443 19.2311 0.000115078 18.198 0.000115078 16.9237L5.74016e-05 7.69288ZM16.8002 13.462C16.1365 13.462 15.5999 13.9791 15.5999 14.6162C15.5999 15.2534 16.1365 15.7694 16.8002 15.7694H19.1998C19.8624 15.7694 20.4001 15.2534 20.4001 14.6162C20.4001 13.9791 19.8624 13.462 19.1998 13.462H16.8002Z" fill="white"/>
</svg>
