<svg width="30" height="30" viewBox="0 0 30 30" fill="none" xmlns="http://www.w3.org/2000/svg">
<path fill-rule="evenodd" clip-rule="evenodd" d="M6.63783 11.848V17.1192C6.63783 17.939 6.96242 18.7257 7.5446 19.3053C9.34268 21.1071 14.7215 26.4824 17.3336 29.0946C18.5392 30.3018 20.497 30.3018 21.7026 29.0946C23.6655 27.1337 27.1329 23.6657 29.0958 21.7047C30.3014 20.4971 30.3014 18.5402 29.0958 17.3325C26.4837 14.7204 21.1049 9.34501 19.3068 7.54327C18.7246 6.96364 17.9364 6.63802 17.1172 6.63802H11.8414C11.2696 5.56017 10.4401 4.43079 9.38905 3.37922C7.62188 1.61045 5.63318 0.470773 4.03603 0.12145C2.66042 -0.179956 1.52181 0.091052 0.805665 0.80773C0.0895242 1.52389 -0.178385 2.66151 0.120437 4.03716C0.470779 5.6323 1.60939 7.62158 3.38171 9.39035C4.43274 10.444 5.56105 11.2766 6.63783 11.848ZM18.4825 13.8558L16.2156 22.3014C16.0713 22.8506 16.3959 23.4163 16.9472 23.5632C17.4984 23.7105 18.06 23.3839 18.2094 22.8346L20.4712 14.3891C20.6206 13.8398 20.2909 13.2741 19.7448 13.1268C19.1935 12.9799 18.6268 13.3061 18.4825 13.8558ZM21.5738 18.2667C22.1869 17.9111 22.9751 18.1229 23.3306 18.7381C23.6861 19.3538 23.4749 20.1426 22.8618 20.4981C22.2435 20.8531 21.4553 20.6418 21.0998 20.0261C20.7443 19.411 20.9555 18.6222 21.5738 18.2667ZM13.8302 16.1924C14.4433 15.8368 15.2315 16.0481 15.587 16.6638C15.9425 17.2795 15.7313 18.0678 15.1182 18.4233C14.4999 18.7788 13.7117 18.5675 13.3562 17.9518C13.0007 17.3362 13.2119 16.5479 13.8302 16.1924ZM9.45088 6.65038C9.03356 6.04036 8.5235 5.42569 7.93101 4.83679C6.48842 3.39416 4.89643 2.41935 3.5981 2.13443C3.03652 2.01233 2.55738 1.97472 2.26371 2.26479C1.97519 2.55537 2.01126 3.03865 2.13491 3.59613C2.41827 4.89707 3.39202 6.49066 4.8346 7.93329C5.42709 8.52168 6.04019 9.03124 6.65329 9.44909C6.71512 8.73189 7.02939 8.05695 7.5446 7.54327C8.05981 7.02959 8.73474 6.7153 9.45088 6.65038Z" fill="white"/>
</svg>
