<svg width="32" height="17" viewBox="0 0 32 17" fill="none" xmlns="http://www.w3.org/2000/svg">
<path d="M15.6492 4.00138C16.288 4.10226 16.9269 4.23676 17.5322 4.43851C17.7339 4.50576 17.9357 4.40489 18.0029 4.23676L19.3816 0.907877C19.4824 0.672502 19.3479 0.437126 19.1126 0.369876C17.9693 0.1345 16.8261 0 15.6828 0C15.481 0 15.2793 0.168126 15.2793 0.403501V3.63151C15.3129 3.83326 15.481 4.00138 15.6492 4.00138Z" fill="white"/>
<path d="M24.5256 2.62541C23.4832 1.95291 22.3736 1.41491 21.1967 0.977779C20.995 0.910529 20.7932 1.0114 20.6924 1.21316L19.2465 4.74379C19.1792 4.94554 19.2465 5.14729 19.4146 5.24817C19.9862 5.55079 20.5579 5.88704 21.0622 6.25692C21.2304 6.35779 21.4321 6.35779 21.5666 6.22329L24.5592 3.23066C24.761 3.06253 24.7274 2.75991 24.5256 2.62541Z" fill="white"/>
<path d="M29.0636 6.89466C28.3911 5.95316 27.6177 5.07891 26.7434 4.30553C26.6089 4.17103 26.4408 4.03653 26.2727 3.90203C26.1046 3.76753 25.9028 3.80115 25.7683 3.93565L22.6412 7.06279C22.5067 7.19729 22.4731 7.46629 22.6412 7.60079C22.7757 7.73529 22.9102 7.86979 23.0447 8.03791C23.3809 8.40779 23.6499 8.81129 23.9189 9.21479C24.0198 9.38292 24.2216 9.45017 24.3897 9.34929L28.9291 7.46629C29.1308 7.36541 29.1981 7.09641 29.0636 6.89466Z" fill="white"/>
<path d="M31.9235 12.9478C31.5537 11.4683 30.982 10.0561 30.2423 8.74468C30.1414 8.57655 29.9396 8.5093 29.7379 8.57655L25.0304 10.5268C24.8286 10.5941 24.7278 10.8294 24.8286 11.0312C25.1313 11.7037 25.333 12.4098 25.5011 13.1159C25.5348 13.2841 25.7029 13.4186 25.871 13.4186H31.52C31.789 13.4186 31.9572 13.1832 31.9235 12.9478Z" fill="white"/>
<path d="M4.55172 4.9425C4.38359 4.77437 4.14822 4.77437 4.01372 4.9425C3.91284 5.04338 3.77834 5.17788 3.67747 5.27875C3.00496 6.0185 2.43334 6.82551 1.96259 7.63251C1.82809 7.83426 1.92896 8.10326 2.16434 8.17051L3.44209 8.70851C3.61022 8.77576 3.77834 8.74214 3.87922 8.60764C4.34997 8.03601 4.85434 7.49801 5.42597 6.99363C5.52685 6.89276 5.66135 6.79188 5.76222 6.72463C5.93035 6.59013 5.96397 6.32113 5.79585 6.153L4.55172 4.9425Z" fill="white"/>
<path d="M13.9994 3.50313V0.544126C13.9994 0.308751 13.7976 0.140625 13.5623 0.140625C12.4526 0.275125 11.3766 0.510501 10.3342 0.880377C10.1325 0.947627 10.0316 1.183 10.0989 1.38475L11.1076 3.83938C11.1749 4.00751 11.343 4.10838 11.5448 4.07476C12.2173 3.94026 12.9234 3.87301 13.5959 3.87301C13.8313 3.87301 13.9994 3.70488 13.9994 3.50313Z" fill="white"/>
<path d="M8.88906 1.91711C8.78818 1.71536 8.55281 1.61448 8.35106 1.71536C7.37593 2.21973 6.43443 2.82498 5.56017 3.49748C5.39205 3.63198 5.35842 3.90099 5.52655 4.06911L6.97243 5.51499C7.10693 5.64949 7.27505 5.64949 7.44318 5.58224C8.11568 5.17874 8.82181 4.87611 9.52793 4.60711C9.72968 4.53986 9.83056 4.30449 9.76331 4.10274L8.88906 1.91711Z" fill="white"/>
<path d="M2.50137 9.78809L1.49261 9.38459C1.29086 9.31734 1.05549 9.38459 0.988239 9.58634C0.517488 10.696 0.181237 11.8392 0.0131116 13.0161C-0.0541386 13.2515 0.147612 13.4869 0.382987 13.4869H1.08911C1.25724 13.4869 1.39174 13.386 1.45899 13.2179C1.76162 12.2091 2.19874 11.2676 2.70312 10.3597C2.80399 10.158 2.70312 9.88897 2.50137 9.78809Z" fill="white"/>
<path d="M20.3214 8.07463C18.9092 9.11701 17.0262 10.5629 15.6812 11.6053C15.3786 11.5044 15.0423 11.4035 14.7061 11.4035C13.1929 11.4035 11.9824 12.614 11.9824 14.1271C11.9824 15.6403 13.1929 16.8508 14.7061 16.8508C16.2192 16.8508 17.4297 15.6403 17.4297 14.1271C17.4297 13.7909 17.3624 13.4546 17.2279 13.152C18.2703 11.807 19.7162 9.89038 20.7586 8.51176C21.0276 8.20913 20.6241 7.83925 20.3214 8.07463Z" fill="white"/>
</svg>
