<svg width="31" height="31" viewBox="0 0 31 31" fill="none" xmlns="http://www.w3.org/2000/svg">
<g clip-path="url(#clip0_2002_273)">
<path d="M15.7451 -0.469116C9.23351 -0.469116 7.32913 -0.462447 6.95895 -0.431962C5.62266 -0.32169 4.79114 -0.112816 3.88525 0.334942C3.18712 0.679095 2.63653 1.07803 2.09314 1.63725C1.10352 2.65709 0.503754 3.91176 0.286638 5.40317C0.181078 6.12721 0.15037 6.27487 0.144133 9.97316C0.141734 11.2059 0.144133 12.8283 0.144133 15.0045C0.144133 21.4636 0.15133 23.3523 0.182518 23.7191C0.290476 25.0099 0.494398 25.8221 0.926232 26.7105C1.75151 28.411 3.32771 29.6876 5.18459 30.1639C5.82754 30.3283 6.53767 30.4188 7.44932 30.4616C7.83557 30.4783 11.7725 30.4902 15.7117 30.4902C19.651 30.4902 23.5903 30.4854 23.967 30.4664C25.0226 30.4171 25.6355 30.3354 26.3133 30.1615C28.1821 29.6828 29.7295 28.4253 30.5716 26.7009C30.9951 25.834 31.2098 24.9909 31.3069 23.7674C31.328 23.5007 31.3369 19.2477 31.3369 15.0004C31.3369 10.7524 31.3273 6.50732 31.3062 6.24057C31.2079 4.99733 30.9931 4.16136 30.556 3.27776C30.1974 2.55444 29.7991 2.01427 29.2209 1.46196C28.1891 0.483559 26.9272 -0.111863 25.4234 -0.327168C24.6948 -0.431724 24.5497 -0.462686 20.8215 -0.469116H15.7451Z" fill="url(#paint0_linear_2002_273)"/>
<path d="M15.396 0C9.03014 0 7.16836 0.00656713 6.80646 0.0365883C5.50007 0.14518 4.68715 0.350872 3.80153 0.791808C3.11902 1.13072 2.58075 1.52357 2.04951 2.07427C1.08204 3.07858 0.495685 4.31413 0.283426 5.78283C0.180228 6.49583 0.150207 6.64124 0.144109 10.2832C0.141763 11.4972 0.144109 13.0949 0.144109 15.2378C0.144109 21.5986 0.151145 23.4585 0.181635 23.8197C0.287178 25.0909 0.486538 25.8907 0.90871 26.7655C1.71553 28.4401 3.25646 29.6973 5.0718 30.1663C5.70037 30.3282 6.39461 30.4173 7.28586 30.4595C7.66347 30.4759 11.5123 30.4877 15.3634 30.4877C19.2146 30.4877 23.0657 30.483 23.434 30.4642C24.4659 30.4157 25.0652 30.3352 25.7278 30.164C27.5548 29.6926 29.0676 28.4542 29.8909 26.7561C30.3048 25.9024 30.5147 25.0721 30.6097 23.8673C30.6304 23.6046 30.639 19.4164 30.639 15.2339C30.639 11.0506 30.6297 6.87015 30.609 6.60747C30.5129 5.38317 30.3029 4.55993 29.8756 3.68979C29.525 2.97749 29.1356 2.44555 28.5704 1.90165C27.5616 0.938161 26.328 0.35181 24.8579 0.139786C24.1456 0.0368228 24.0037 0.00633259 20.3589 0H15.396Z" fill="url(#paint1_radial_2002_273)"/>
<path d="M15.8248 4.77612C13.0539 4.77612 12.7062 4.78824 11.6179 4.83776C10.5318 4.8875 9.79038 5.05946 9.14166 5.31175C8.47063 5.57234 7.90141 5.92093 7.33431 6.48823C6.76679 7.05532 6.4182 7.62453 6.15676 8.29535C5.90382 8.94427 5.73165 9.68587 5.68277 10.7716C5.63409 11.8598 5.62134 12.2078 5.62134 14.9786C5.62134 17.7495 5.63367 18.0961 5.68298 19.1844C5.73293 20.2705 5.90489 21.0119 6.15697 21.6606C6.41778 22.3317 6.76637 22.9009 7.33368 23.468C7.90056 24.0355 8.46978 24.3849 9.14039 24.6455C9.78953 24.8978 10.5311 25.0698 11.6171 25.1195C12.7053 25.169 13.0529 25.1811 15.8235 25.1811C18.5946 25.1811 18.9413 25.169 20.0295 25.1195C21.1157 25.0698 21.8579 24.8978 22.5071 24.6455C23.1779 24.3849 23.7463 24.0355 24.3132 23.468C24.8807 22.9009 25.2293 22.3317 25.4907 21.6608C25.7415 21.0119 25.9137 20.2703 25.9647 19.1846C26.0136 18.0963 26.0263 17.7495 26.0263 14.9786C26.0263 12.2078 26.0136 11.8601 25.9647 10.7718C25.9137 9.68565 25.7415 8.94427 25.4907 8.29556C25.2293 7.62453 24.8807 7.05532 24.3132 6.48823C23.7456 5.92072 23.1781 5.57213 22.5064 5.31175C21.856 5.05946 21.1142 4.8875 20.0281 4.83776C18.9398 4.78824 18.5933 4.77612 15.8216 4.77612H15.8248ZM14.9095 6.6147C15.1812 6.61427 15.4843 6.6147 15.8248 6.6147C18.5489 6.6147 18.8718 6.62448 19.9475 6.67336C20.9423 6.71885 21.4821 6.88507 21.8418 7.02471C22.3179 7.20963 22.6574 7.43069 23.0142 7.78777C23.3713 8.14486 23.5924 8.48495 23.7777 8.96106C23.9174 9.32028 24.0838 9.86016 24.1291 10.8549C24.178 11.9304 24.1886 12.2535 24.1886 14.9763C24.1886 17.6991 24.178 18.0222 24.1291 19.0977C24.0836 20.0924 23.9174 20.6323 23.7777 20.9915C23.5928 21.4676 23.3713 21.8067 23.0142 22.1635C22.6571 22.5206 22.3181 22.7417 21.8418 22.9266C21.4826 23.0669 20.9423 23.2327 19.9475 23.2781C18.872 23.327 18.5489 23.3377 15.8248 23.3377C13.1005 23.3377 12.7776 23.327 11.7021 23.2781C10.7073 23.2322 10.1675 23.066 9.8076 22.9264C9.33147 22.7415 8.99139 22.5204 8.6343 22.1633C8.2772 21.8062 8.05615 21.467 7.8708 20.9907C7.73115 20.6315 7.56472 20.0916 7.51945 19.0968C7.47056 18.0213 7.46078 17.6982 7.46078 14.9737C7.46078 12.2492 7.47056 11.9279 7.51945 10.8524C7.56494 9.85761 7.73115 9.31772 7.8708 8.95809C8.05572 8.48197 8.2772 8.14189 8.6343 7.7848C8.99139 7.42771 9.33147 7.20666 9.8076 7.02131C10.1672 6.88103 10.7073 6.71524 11.7021 6.66954C12.6433 6.62703 13.008 6.61427 14.9095 6.61215V6.6147ZM21.2709 8.30874C20.5949 8.30874 20.0466 8.85649 20.0466 9.53261C20.0466 10.2085 20.5949 10.7569 21.2709 10.7569C21.9468 10.7569 22.4952 10.2085 22.4952 9.53261C22.4952 8.8567 21.9468 8.30831 21.2709 8.30831V8.30874ZM15.8248 9.73922C12.9313 9.73922 10.5853 12.0852 10.5853 14.9786C10.5853 17.8721 12.9313 20.217 15.8248 20.217C18.7183 20.217 21.0634 17.8721 21.0634 14.9786C21.0634 12.0852 18.7183 9.73922 15.8248 9.73922ZM15.8248 11.5778C17.7029 11.5778 19.2257 13.1003 19.2257 14.9786C19.2257 16.8567 17.7029 18.3795 15.8248 18.3795C13.9465 18.3795 12.4239 16.8567 12.4239 14.9786C12.4239 13.1003 13.9465 11.5778 15.8248 11.5778Z" fill="white"/>
</g>
<defs>
<linearGradient id="paint0_linear_2002_273" x1="31.3369" y1="15.0105" x2="0.143066" y2="15.0105" gradientUnits="userSpaceOnUse">
<stop stop-color="#00EC9E"/>
<stop offset="1" stop-color="#8E6EFA"/>
</linearGradient>
<radialGradient id="paint1_radial_2002_273" cx="0" cy="0" r="1" gradientUnits="userSpaceOnUse" gradientTransform="translate(-4.96517 2.19628) rotate(78.6776) scale(13.5066 55.6888)">
<stop stop-color="#3771C8"/>
<stop offset="0.128" stop-color="#3771C8"/>
<stop offset="1" stop-color="#6600FF" stop-opacity="0"/>
</radialGradient>
<clipPath id="clip0_2002_273">
<rect x="0.845947" width="30.0212" height="30.0212" rx="15.0106" fill="white"/>
</clipPath>
</defs>
</svg>
