<svg width="80" height="26" viewBox="0 0 80 26" fill="none" xmlns="http://www.w3.org/2000/svg">
<path d="M34.4372 25.4446H27.9998L32.0262 0.453003H38.4634L34.4372 25.4446Z" fill="#313131"/>
<path d="M57.7755 1.06399C56.5058 0.558323 54.4919 0 52.0016 0C45.6444 0 41.1677 3.40294 41.1402 8.26812C41.0874 11.8576 44.3454 13.8513 46.7821 15.0482C49.2727 16.2712 50.1193 17.0695 50.1193 18.1596C50.094 19.8339 48.1068 20.6056 46.2534 20.6056C43.6833 20.6056 42.3061 20.2077 40.2134 19.2763L39.3657 18.877L38.4648 24.487C39.9747 25.1775 42.7564 25.7903 45.6444 25.8171C52.3991 25.8171 56.7966 22.4668 56.8487 17.2822C56.8744 14.4372 55.154 12.2573 51.4451 10.476C49.1935 9.33247 47.8146 8.56142 47.8146 7.39141C47.841 6.32777 48.9809 5.23834 51.5225 5.23834C53.6153 5.18498 55.153 5.68994 56.3178 6.19526L56.9001 6.46064L57.7755 1.06399Z" fill="#313131"/>
<path d="M66.327 16.591C66.8572 15.1553 68.8972 9.59854 68.8972 9.59854C68.8704 9.6519 69.4263 8.1363 69.7442 7.20588L70.194 9.35931C70.194 9.35931 71.4131 15.3415 71.6778 16.591C70.6717 16.591 67.5986 16.591 66.327 16.591ZM74.2733 0.453003H69.2939C67.7584 0.453003 66.5918 0.904608 65.9292 2.52657L56.3672 25.4443H63.1218C63.1218 25.4443 64.2339 22.3597 64.4729 21.6954C65.2139 21.6954 71.7848 21.6954 72.7381 21.6954C72.9229 22.5728 73.5062 25.4443 73.5062 25.4443H79.4667L74.2733 0.453003Z" fill="#313131"/>
<path d="M22.6202 0.453003L16.3157 17.4949L15.6268 14.0386C14.4613 10.0505 10.8058 5.71749 6.72656 3.563L12.5012 25.4181H19.3087L29.4273 0.453003H22.6202Z" fill="#313131"/>
<path d="M10.4632 0.453003H0.105959L0 0.957966C8.07933 3.03189 13.4301 8.03099 15.6285 14.0397L13.377 2.55378C13.0063 0.957613 11.8671 0.505655 10.4632 0.453003Z" fill="#313131"/>
</svg>
