<svg width="66" height="37" viewBox="0 0 66 37" fill="none" xmlns="http://www.w3.org/2000/svg">
<g opacity="0.5" clip-path="url(#clip0_2120_31903)">
<mask id="mask0_2120_31903" style="mask-type:luminance" maskUnits="userSpaceOnUse" x="0" y="0" width="66" height="37">
<path d="M65.3594 0H0.609375V37H65.3594V0Z" fill="white"/>
</mask>
<g mask="url(#mask0_2120_31903)">
<mask id="mask1_2120_31903" style="mask-type:luminance" maskUnits="userSpaceOnUse" x="0" y="0" width="66" height="38">
<path d="M65.3594 0.233643H0.609375V37.2336H65.3594V0.233643Z" fill="white"/>
</mask>
<g mask="url(#mask1_2120_31903)">
<path d="M57.8646 18.0425C57.5399 18.2685 56.9988 18.3815 56.3494 18.3815H56.0247H55.7001L56.133 15.444H56.4576H56.6741C57.2152 15.444 57.6481 15.557 57.9728 15.67C58.1892 15.8959 58.4057 16.1219 58.4057 16.7998C58.4057 17.4776 58.1892 17.8166 57.8646 18.0425ZM16.9525 21.7709H11.6491L11.9738 19.7372H15.329L15.6537 17.5906H12.4067L12.7315 15.67H18.0348L16.9525 21.7709ZM60.7866 13.9753C59.9208 13.4104 58.7304 13.1844 57.2152 13.1844H53.2104L51.6953 21.7709H46.3918L46.7165 19.7372H49.8554L50.2884 17.5906H47.0411L47.474 15.67H50.7212L51.1542 13.1844H44.4436L43.0366 21.3189H40.5473L42.0625 13.1844H38.4909L37.0838 21.3189H34.7027L36.1097 13.1844H32.6463L31.131 21.7709H25.8276L26.1523 19.7372H29.291L29.724 17.5906H26.477L26.8017 15.67H30.1569L30.5898 13.1844H9.70092L8.51036 19.9632L6.23749 13.1844H2.55756L0.609375 24.2564H4.07282L5.26337 17.2517L7.53628 24.2564H19.983L21.4983 15.67H23.4465L21.9312 24.2564H54.6174L55.5918 18.8334L57.107 24.2564H60.5702L58.9468 19.8502L59.3797 19.7372C60.1373 19.5113 60.7866 19.1723 61.2195 18.6074C61.6524 18.0425 61.8689 17.2517 61.8689 16.3479C61.8689 15.3311 61.5442 14.5402 60.7866 13.9753Z" fill="white"/>
<path d="M63.776 20.9795C64.6502 20.9795 65.3592 21.7192 65.3592 22.6316C65.3592 23.5441 64.6502 24.2838 63.776 24.2838C62.9019 24.2838 62.1934 23.5441 62.1934 22.6316C62.1934 21.7192 62.9019 20.9795 63.776 20.9795ZM63.776 21.3184C63.0814 21.3184 62.518 21.9064 62.518 22.6316C62.518 23.3569 63.0814 23.9449 63.776 23.9449C64.4712 23.9449 65.0345 23.3569 65.0345 22.6316C65.0345 21.9064 64.4712 21.3184 63.776 21.3184ZM64.0054 21.7671C64.1137 21.7671 64.4601 21.9297 64.4601 22.2444C64.4601 22.6006 64.2089 22.715 64.1007 22.7564C64.1715 22.7564 64.2385 22.8969 64.3176 23.0099C64.3699 23.0852 64.4781 23.2358 64.6423 23.4618H64.3176C64.0656 23.0678 63.924 22.8456 63.8917 22.7951L63.887 22.788C63.8852 22.7853 63.8843 22.7839 63.8843 22.7839H63.3431V23.4962H63.1267V21.7671H64.0054ZM63.9809 21.9931H63.3431V22.558H63.9809C64.0891 22.558 64.2066 22.4288 64.2066 22.2444C64.2066 22.0601 64.0262 21.9931 63.9809 21.9931Z" fill="white"/>
</g>
</g>
</g>
<defs>
<clipPath id="clip0_2120_31903">
<rect width="64.75" height="37" fill="white" transform="translate(0.609375)"/>
</clipPath>
</defs>
</svg>
