<svg width="61" height="25" viewBox="0 0 61 25" fill="none" xmlns="http://www.w3.org/2000/svg">
<g opacity="0.5" clip-path="url(#clip0_2085_4557)">
<path d="M6.86825 8.5104H6.76748C3.58113 8.5104 0.988281 5.90566 0.988281 2.70278V0.5H11.3959C15.8149 0.5 19.7191 3.57154 20.6779 7.8046C20.8605 8.61166 20.9361 9.41714 20.9077 10.2084C20.0718 8.65123 18.8517 7.32511 17.3735 6.35034C17.3735 6.35034 17.3703 6.34874 17.3703 6.34717C17.2538 6.25697 17.1373 6.17151 17.0177 6.08606C16.6383 5.55437 16.177 5.07329 15.6465 4.66186C14.4248 3.71397 12.9135 3.19334 11.3959 3.19334H3.70865C3.94322 4.67769 5.22625 5.81546 6.76748 5.81546H6.86825V8.5104Z" fill="white"/>
<path d="M6.45579 24.5H0.988281V22.2972C0.988281 20.7448 1.58966 19.2874 2.68221 18.1907C3.77319 17.0925 5.22468 16.4896 6.76748 16.4896H11.3975C12.1988 16.4896 12.9828 16.3551 13.729 16.0924C14.9538 15.6588 16.0274 14.8866 16.8177 13.8817C16.9216 14.2916 16.9752 14.7188 16.9752 15.1588C16.9752 16.162 16.6902 17.102 16.1927 17.9075C15.6937 18.1955 15.1663 18.4392 14.6169 18.6338C13.5841 18.9994 12.5026 19.1845 11.3975 19.1845H6.76905C5.94099 19.1845 5.16328 19.5073 4.57765 20.096C4.11008 20.566 3.8094 21.161 3.70865 21.8067H6.45736" fill="white"/>
<path d="M58.094 13.878V10.0279C58.094 8.44544 56.8171 7.16207 55.2429 7.16207H54.8351V13.878H47.3714L54.3346 0.780026H52.776C51.5291 0.780026 50.3831 1.47156 49.796 2.5777L43.428 14.5332V16.9907L56.4914 16.9986C56.6614 16.9986 56.718 17.2281 56.5669 17.3072L54.8351 18.2124V20.9468C54.8351 22.6543 56.2126 24.0406 57.9129 24.0406H58.0954V16.9907H60.7026V16.5001C60.7026 15.0522 59.536 13.8796 58.0954 13.8796L58.094 13.878ZM38.5429 15.3908C40.5203 13.8179 41.5089 11.6784 41.5089 8.96924C41.5089 6.61138 40.7263 4.65704 39.1617 3.10465C37.6189 1.55385 35.6526 0.778442 33.2629 0.778442C30.8729 0.778442 28.9067 1.55385 27.3639 3.10465C25.799 4.65547 25.0166 6.60978 25.0166 8.96924H25.1315C26.6617 8.96924 28.0959 8.1147 28.7398 6.71898C28.9681 6.22527 29.2798 5.77427 29.6766 5.36598C30.632 4.42758 31.8269 3.95758 33.2611 3.95758C34.6954 3.95758 35.8903 4.42758 36.8457 5.36598C37.7794 6.32653 38.2469 7.52761 38.2469 8.96924C38.2469 10.4108 37.7794 11.6119 36.8457 12.5725L25.7644 21.6463V24.0374H41.4711C41.4711 22.3188 40.084 20.9247 38.3746 20.9247H33.3037L30.7737 22.1289C30.618 22.2002 30.4731 22.0134 30.5786 21.8789L38.5397 15.3877L38.5429 15.3908Z" fill="white"/>
<path d="M11.6103 5.81872C11.541 5.81712 11.4701 5.81555 11.3993 5.81555H6.76932V8.50889H11.3993C15.165 8.50889 18.2286 11.4918 18.2286 15.1568C18.2286 18.8218 15.165 21.8031 11.3993 21.8031H3.97026L0.991699 24.498H11.3993C16.6417 24.498 20.908 20.3077 20.908 15.1568C20.908 10.0059 16.7566 5.92789 11.6087 5.81712L11.6103 5.81872Z" fill="white"/>
</g>
<defs>
<clipPath id="clip0_2085_4557">
<rect width="59.7143" height="24" fill="white" transform="translate(0.988281 0.5)"/>
</clipPath>
</defs>
</svg>
