<svg width="74" height="37" viewBox="0 0 74 37" fill="none" xmlns="http://www.w3.org/2000/svg">
<g opacity="0.5">
<mask id="mask0_2120_31869" style="mask-type:luminance" maskUnits="userSpaceOnUse" x="0" y="0" width="75" height="37">
<path d="M74.0054 0H0V37H74.0054V0Z" fill="white"/>
</mask>
<g mask="url(#mask0_2120_31869)">
<mask id="mask1_2120_31869" style="mask-type:luminance" maskUnits="userSpaceOnUse" x="0" y="0" width="75" height="38">
<path d="M74.2359 0.231201H0.230469V37.2312H74.2359V0.231201Z" fill="white"/>
</mask>
<g mask="url(#mask1_2120_31869)">
<mask id="mask2_2120_31869" style="mask-type:luminance" maskUnits="userSpaceOnUse" x="1" y="7" width="22" height="9">
<path d="M1.70703 7.6311H22.805V15.0484H1.70703V7.6311Z" fill="white"/>
</mask>
<g mask="url(#mask2_2120_31869)">
<path fill-rule="evenodd" clip-rule="evenodd" d="M12.2206 7.63062C15.7571 9.0985 19.2607 10.6538 22.7932 12.131C22.8122 13.1027 22.8025 14.0744 22.8025 15.0481C15.7777 15.0445 8.75086 15.0463 1.72414 15.0463C1.71279 14.0818 1.72786 13.1194 1.70703 12.1552C5.20549 10.639 8.70729 9.11334 12.2206 7.63062Z" fill="white"/>
</g>
<path fill-rule="evenodd" clip-rule="evenodd" d="M40.2498 14.3079C40.7111 14.3079 41.1738 14.3061 41.6368 14.3043C42.4809 15.7365 43.2774 17.1951 44.135 18.62C44.1257 17.18 44.1331 15.7422 44.1273 14.3041C44.518 14.3059 44.9071 14.3077 45.2959 14.3077C45.3052 16.3576 45.294 18.4075 45.3035 20.4571C44.8558 20.4553 44.408 20.4516 43.9623 20.4478C43.1332 18.9763 42.2777 17.5179 41.4242 16.0591C41.4431 17.5252 41.426 18.9892 41.4411 20.4553H40.2422C40.2519 18.4075 40.2403 16.3576 40.2498 14.3079ZM46.5327 14.3079C46.967 14.3079 47.4013 14.3061 47.8379 14.3061C47.8323 15.1675 47.8342 16.0313 47.8342 16.8929C48.6287 16.022 49.4501 15.1752 50.2586 14.3155C50.8145 14.3079 51.3709 14.3041 51.9273 14.3041C51.0892 15.1361 50.112 15.9081 49.3683 16.8165C50.2184 18.0287 51.1309 19.2038 52.0055 20.4012C51.4685 20.3675 50.8062 20.4664 50.3039 20.3152C49.6361 19.4704 49.0593 18.5472 48.4336 17.6724C48.2153 17.8796 47.997 18.0885 47.7787 18.2955C47.7717 18.9936 47.7708 19.6918 47.7773 20.39C47.3615 20.3882 46.9462 20.3863 46.5327 20.3863C46.5345 18.3608 46.5308 16.3335 46.5327 14.3079Z" fill="white"/>
<path fill-rule="evenodd" clip-rule="evenodd" d="M2.91992 15.8165C4.44908 15.8313 5.97824 15.8129 7.50534 15.8275C7.50723 16.1876 7.50723 16.5476 7.50908 16.9093L6.70094 16.9261C6.69331 19.6567 6.69724 22.3855 6.69909 25.1158L7.5033 25.127L7.5089 26.1397C5.98009 26.1565 4.44908 26.1378 2.92011 26.151C2.92197 25.8022 2.92197 25.4514 2.92197 25.1009C3.20473 25.1102 3.48731 25.1177 3.76803 25.1252C3.77175 22.3873 3.76989 19.6492 3.76989 16.9113L2.92197 16.9223C2.92197 16.5532 2.92178 16.1858 2.91992 15.8165ZM9.99238 15.837C11.5044 15.7922 13.0221 15.8425 14.5358 15.8164C14.5358 16.184 14.5378 16.5532 14.5378 16.9207C14.2798 16.9188 14.0197 16.915 13.7621 16.9132C13.7506 19.651 13.7693 22.3889 13.7506 25.1268L14.5378 25.099V26.1528C13.0161 26.1435 11.4968 26.1453 9.9773 26.151C9.9773 25.8077 9.9773 25.4646 9.97508 25.1214C10.2352 25.1195 10.4932 25.1177 10.7532 25.1177C10.7588 22.3871 10.7473 19.6547 10.7588 16.9241C10.4989 16.9223 10.2409 16.9186 9.98086 16.9168C9.97712 16.5569 9.9656 16.1951 9.99238 15.837ZM16.9527 15.8221C18.4971 15.8184 20.0394 15.8295 21.5816 15.8147C21.5835 16.184 21.5835 16.5532 21.5835 16.9225C21.3104 16.9207 21.0392 16.917 20.7661 16.9152C20.7661 19.6512 20.764 22.3873 20.7661 25.1252L21.5853 25.1029C21.5835 25.4535 21.5835 25.804 21.5816 26.1528C20.0387 26.1429 18.4956 26.1423 16.9527 26.151L16.9471 25.1067L17.8047 25.1232C17.7935 22.3853 17.8028 19.6492 17.7989 16.9132C17.5161 16.915 17.2315 16.9186 16.9489 16.9225C16.9489 16.5551 16.9508 16.1895 16.9527 15.8221Z" fill="white"/>
<path fill-rule="evenodd" clip-rule="evenodd" d="M35.6276 18.1149C35.844 17.5049 36.0618 16.895 36.2689 16.2816C36.3409 16.0672 36.4147 15.8525 36.4869 15.6379C36.7639 16.4606 37.0124 17.2924 37.2895 18.1149H35.6276ZM37.2022 14.3063C36.7185 14.3045 36.227 14.284 35.7473 14.3306C34.9561 16.3187 34.288 18.3817 33.5428 20.3902C33.9867 20.3884 34.4303 20.3829 34.8742 20.3772C35.0091 19.9688 35.1438 19.5603 35.2764 19.1519C36.06 19.1482 36.8417 19.1482 37.625 19.1445C37.7467 19.5828 37.8682 20.0191 37.9934 20.4573C38.456 20.4555 38.9207 20.4537 39.3858 20.4555C38.638 18.4134 37.9268 16.3562 37.2022 14.3063ZM30.9741 19.2695C30.3119 19.4615 29.5417 19.3609 28.8551 19.3719C28.8514 18.8013 28.8495 18.2325 28.8514 17.6637C29.6139 17.6935 30.6099 17.5554 31.2983 17.9228C31.6723 18.3239 31.511 19.0736 30.9741 19.2695ZM30.9779 15.4368C31.5147 15.6139 31.4634 16.4738 30.9512 16.6303C30.2853 16.7946 29.5397 16.7236 28.8569 16.7291C28.8531 16.2772 28.8512 15.8253 28.8514 15.3733C29.5471 15.3901 30.2949 15.2949 30.9779 15.4368ZM31.9074 17.1358C32.4748 16.6713 32.6928 16.3319 32.5865 15.5747C32.4767 14.7169 31.6189 14.3252 30.8299 14.2616C29.7616 14.2001 28.686 14.256 27.6143 14.2374C27.639 16.2873 27.6237 18.3369 27.6237 20.3866C28.7468 20.3738 29.8737 20.4184 30.9946 20.3681C31.4958 20.3474 31.9472 20.1964 32.2736 19.8085C32.9866 19.027 32.9242 17.6487 31.9074 17.1358ZM56.0936 22.0672C56.6417 22.4364 56.7652 22.9736 56.9109 23.5724C56.5071 23.5742 56.1029 23.5742 55.6991 23.5705C55.5071 23.2477 55.4123 22.914 55.0233 22.774C54.608 22.6528 54.1015 22.6341 53.6875 22.7722C53.2518 22.9606 53.0446 23.4473 53.3406 23.8483C54.2874 24.3575 55.5261 24.35 56.4632 24.8722C57.1177 25.2769 57.1653 26.0957 57.002 26.7653C56.799 27.4162 56.2315 27.7986 55.5904 27.972C54.5737 28.235 53.3522 28.1287 52.5002 27.4778C52.0127 27.0936 51.9558 26.5826 51.8439 26.0193C52.2629 26.0174 52.6824 26.0174 53.0996 26.0229C53.2495 26.3344 53.3004 26.7466 53.6649 26.8884C54.2019 27.0244 54.8735 27.0804 55.4026 26.8847C55.86 26.6664 56.033 26.0659 55.5774 25.7544C54.7102 25.2658 53.2648 25.3907 52.4452 24.7193C51.6218 24.0012 51.8799 22.4346 52.8702 21.9589C53.7884 21.4591 55.2301 21.4497 56.0936 22.0672ZM27.4037 21.735C29.1129 21.6977 30.8242 21.7259 32.5353 21.7202C32.5353 22.082 32.5353 22.4437 32.5373 22.8057C31.9054 22.7982 31.2757 22.7963 30.6439 22.7963C30.6421 24.4954 30.6458 26.1945 30.6439 27.8936H29.2837C29.2818 26.1945 29.2837 24.4954 29.2837 22.7945C28.6501 22.7982 28.0164 22.7982 27.3828 22.7982C27.3903 22.4437 27.396 22.0895 27.4037 21.735ZM45.8944 21.72C46.3559 21.7182 46.8166 21.7182 47.2759 21.7164C48.101 23.147 48.9035 24.5905 49.7537 26.0061C49.7759 24.5775 49.7555 23.147 49.7648 21.7182H50.941C50.9447 23.7774 50.9447 25.8345 50.9428 27.8936C50.5025 27.8936 50.0645 27.8936 49.626 27.8954C48.7745 26.4313 47.9415 24.9579 47.0765 23.5012C47.052 24.9655 47.0613 26.4295 47.071 27.8936H45.889C45.902 25.8364 45.8907 23.779 45.8944 21.72ZM58.0358 21.72C59.5062 21.7146 60.9743 21.72 62.4447 21.7164C62.4507 22.0781 62.4544 22.4401 62.4599 22.8018C61.4035 22.7945 60.3466 22.7982 59.292 22.7963C59.2902 23.2682 59.2902 23.7382 59.2883 24.2083C60.2023 24.2101 61.1167 24.2101 62.0312 24.2065C62.0312 24.555 62.0293 24.902 62.0293 25.2507C61.1186 25.2303 60.2083 25.2321 59.2976 25.2453C59.2883 26.103 59.2902 26.963 59.292 27.8209C58.8707 27.8209 58.4512 27.8209 58.0321 27.8227C58.0413 25.7879 58.0321 23.7547 58.0358 21.72ZM63.3933 21.72C64.909 21.7164 66.4266 21.72 67.9428 21.7164C67.9447 22.0781 67.9447 22.4382 67.9465 22.8C66.8424 22.7963 65.7361 22.7963 64.6301 22.8C64.632 23.2477 64.632 23.6935 64.632 24.141C65.6459 24.1326 66.6597 24.1308 67.6736 24.1355V25.1743C66.6584 25.1743 65.6431 25.1706 64.6283 25.1761C64.6301 25.7096 64.6301 26.2448 64.6283 26.7783C65.7837 26.7728 66.9391 26.7746 68.0945 26.7746C68.0964 27.1477 68.0964 27.5206 68.0982 27.8936H63.3878C63.3952 25.8364 63.3878 23.7772 63.3933 21.72ZM36.616 24.4433C35.9597 24.5607 35.252 24.4786 34.5842 24.4936C34.5861 23.9303 34.5879 23.3651 34.5879 22.8018C35.2178 22.8073 35.8797 22.744 36.5003 22.8523C37.0677 23.1468 37.2401 24.117 36.616 24.4433ZM37.9952 25.5081C37.8416 25.2937 37.5852 25.1426 37.3767 24.9803C38.35 24.5364 38.5888 23.3483 38.0103 22.5035C37.629 21.9141 36.9955 21.7723 36.3293 21.7332C35.3315 21.6902 34.3299 21.7314 33.3303 21.7164C33.298 23.7755 33.3378 25.8345 33.3075 27.8936H34.5974C34.5844 27.0822 34.5844 26.2709 34.5898 25.4596C35.1739 25.5268 36.3939 25.2358 36.7431 25.8102C36.9458 26.4481 36.8417 27.224 36.9101 27.8936C37.4107 27.8917 37.9115 27.8936 38.4125 27.9049C37.9969 27.1102 38.3651 26.2859 37.9952 25.5081ZM72.4766 24.4601C71.8258 24.5439 71.1505 24.4861 70.4941 24.4936C70.4923 23.9303 70.4923 23.367 70.4941 22.8036C71.1408 22.8113 71.8827 22.7181 72.5034 22.9213C73.0191 23.1938 73.1084 24.2642 72.4766 24.4601ZM73.9127 25.6163C73.8179 25.2844 73.4858 25.1204 73.2337 24.9113C73.5103 24.7101 73.8124 24.5552 73.9752 24.2456C74.3642 23.5126 74.1042 22.496 73.3947 22.0428C72.8406 21.7127 72.2435 21.6716 71.6098 21.6679C70.7749 21.6679 69.9423 21.6754 69.1075 21.6716C69.1075 23.7214 69.1167 25.7731 69.1019 27.8227L70.3596 27.8173C70.3508 27.0016 70.3494 26.1859 70.3554 25.3702C70.9682 25.4187 71.9187 25.2248 72.4294 25.6034C72.7726 26.217 72.5941 27.1252 72.731 27.8191C73.2333 27.8191 73.7342 27.8227 74.237 27.8378C73.9035 27.1047 74.1236 26.3604 73.9127 25.6163ZM41.2771 25.5435C41.5711 24.7714 41.7893 23.9712 42.1137 23.2104C42.5254 23.8986 42.6372 24.7975 42.935 25.5454C42.3813 25.5435 41.8293 25.5435 41.2771 25.5435ZM42.8154 21.7109C42.3602 21.7127 41.8992 21.6959 41.4461 21.7387C41.2865 21.9104 41.2201 22.1734 41.1328 22.388C40.4955 24.2287 39.8524 26.0677 39.1732 27.8954C39.6191 27.8936 40.0648 27.8936 40.5107 27.8936C40.6529 27.474 40.7972 27.0561 40.9432 26.6365C41.7208 26.6347 42.4988 26.6347 43.2766 26.6365C43.3961 27.0543 43.5157 27.4722 43.6353 27.8917C44.1 27.8936 44.5646 27.8936 45.0295 27.8954C44.2668 25.842 43.5837 23.7624 42.8154 21.7109Z" fill="white"/>
<path fill-rule="evenodd" clip-rule="evenodd" d="M1.7168 26.9857C8.74553 26.9948 15.7743 26.9875 22.8029 26.9894C22.8029 27.3363 22.8029 27.6851 22.8049 28.0318C15.776 28.0263 8.74738 28.03 1.71866 28.03C1.7168 27.6812 1.7168 27.3343 1.7168 26.9857Z" fill="white"/>
<mask id="mask3_2120_31869" style="mask-type:luminance" maskUnits="userSpaceOnUse" x="0" y="28" width="25" height="2">
<path d="M0.230469 28.8036H24.2779V29.8314H0.230469V28.8036Z" fill="white"/>
</mask>
<g mask="url(#mask3_2120_31869)">
<path fill-rule="evenodd" clip-rule="evenodd" d="M0.234189 28.8057C8.24946 28.8039 16.2647 28.8021 24.2779 28.8057V29.8297C16.2629 29.8297 8.24572 29.8222 0.230469 29.8315C0.232329 29.4903 0.234189 29.147 0.234189 28.8057Z" fill="white"/>
</g>
</g>
</g>
</g>
</svg>
