<svg width="114" height="114" viewBox="0 0 114 114" fill="none" xmlns="http://www.w3.org/2000/svg">
<mask id="mask0_4003_2627" style="mask-type:alpha" maskUnits="userSpaceOnUse" x="10" y="10" width="93" height="93">
<path d="M101.62 62.9492C98.0337 87.8711 74.9233 105.167 50.0014 101.581C25.0795 97.9944 7.78359 74.8839 11.3699 49.962C14.9562 25.0402 38.0666 7.74425 62.9885 11.3305C87.9104 14.9168 105.206 38.0273 101.62 62.9492Z" fill="#D9D9D9" stroke="url(#paint0_linear_4003_2627)" stroke-width="0.544369"/>
</mask>
<g mask="url(#mask0_4003_2627)">
<path d="M103.203 62.8111C99.4667 88.7772 75.388 106.798 49.4219 103.061C23.4559 99.3246 5.43532 75.2459 9.17187 49.2799C12.9084 23.3138 36.9871 5.29324 62.9532 9.02979C88.9193 12.7663 106.94 36.8451 103.203 62.8111Z" fill="#6EA644"/>
<path d="M61.4223 28.0052L96.1509 61.7963L53.3036 84.4241L18.575 50.633L61.4223 28.0052Z" fill="#FFDB44"/>
<path d="M73.8185 58.5826C72.5107 67.6707 64.0831 73.9779 54.995 72.6701C45.9069 71.3623 39.5997 62.9348 40.9075 53.8467C42.2153 44.7585 50.6428 38.4513 59.7309 39.7591C68.8191 41.0669 75.1263 49.4945 73.8185 58.5826Z" fill="#0051B5"/>
<path d="M43.5059 47.0222C42.1829 49.0135 41.2706 51.3229 40.9075 53.8467C58.2391 53.4613 66.8585 63.1798 69.0018 68.0872C70.9851 66.1458 72.4967 63.6975 73.3135 60.9094C65.2635 50.1532 50.0876 47.1695 43.5059 47.0222Z" fill="white"/>
</g>
<path d="M103.864 63.4115C100.109 89.5078 75.9094 107.619 49.8131 103.863C23.7168 100.108 5.60581 75.9087 9.36111 49.8124C13.1164 23.7161 37.3159 5.6051 63.4122 9.3604C89.5085 13.1157 107.619 37.3152 103.864 63.4115Z" stroke="url(#paint1_linear_4003_2627)" stroke-width="4.52349"/>
<defs>
<linearGradient id="paint0_linear_4003_2627" x1="11.0534" y1="49.9013" x2="101.911" y2="62.9758" gradientUnits="userSpaceOnUse">
<stop stop-color="#FFF8C1"/>
<stop offset="0.0001" stop-color="#C2E8FD"/>
<stop offset="0.3123" stop-color="#919191"/>
<stop offset="0.7592" stop-color="#DDDDDD"/>
<stop offset="1" stop-color="white"/>
</linearGradient>
<linearGradient id="paint1_linear_4003_2627" x1="7.07109" y1="49.4662" x2="106.127" y2="63.7204" gradientUnits="userSpaceOnUse">
<stop stop-color="#FFF8C1"/>
<stop offset="0.0001" stop-color="#C2E8FD"/>
<stop offset="0.3123" stop-color="#919191"/>
<stop offset="0.7592" stop-color="#DDDDDD"/>
<stop offset="1" stop-color="white"/>
</linearGradient>
</defs>
</svg>
