<svg width="118" height="118" viewBox="0 0 118 118" fill="none" xmlns="http://www.w3.org/2000/svg">
<mask id="mask0_2120_29231" style="mask-type:alpha" maskUnits="userSpaceOnUse" x="12" y="12" width="93" height="93">
<path d="M103.521 67.794C98.5539 92.4778 74.5171 108.461 49.8333 103.494C25.1495 98.5268 9.16608 74.49 14.1333 49.8062C19.1005 25.1224 43.1374 9.13899 67.8211 14.1062C92.5049 19.0734 108.488 43.1103 103.521 67.794Z" fill="#D9D9D9" stroke="url(#paint0_linear_2120_29231)" stroke-width="0.544369"/>
</mask>
<g mask="url(#mask0_2120_29231)">
<path d="M90.783 25.6559C84.7355 19.8956 76.9692 15.6694 68.0855 13.8817C59.2018 12.094 50.4053 12.9872 42.6003 15.96L27.2383 92.2994C33.2859 98.0597 41.0522 102.286 49.9358 104.074C58.8195 105.861 67.616 104.968 75.421 101.995L90.783 25.6559Z" fill="#F9F9F9"/>
<path d="M90.7812 25.6558L75.4192 101.995C89.6427 96.7107 100.984 83.9527 104.195 67.9922C107.407 52.0317 101.823 36.1812 90.7812 25.6558Z" fill="#D90026"/>
<path d="M42.5995 15.96C28.3456 21.3951 17.0048 34.1531 13.8234 49.963C10.6419 65.773 16.165 81.9246 27.2071 92.45L42.5995 15.96Z" fill="#D90026"/>
<path d="M75.5282 61.7531C74.9865 61.3308 74.9571 60.6982 75.1683 60.4274L77.7648 55.3098L72.2827 55.3033C72.1321 55.273 71.5299 55.1518 71.5914 54.0675L71.5033 52.1698L67.0412 55.6586C67.0412 55.6586 64.1169 57.7335 65.6576 53.9701L68.8298 45.9917L65.666 46.9217C65.5154 46.8914 64.8828 46.9208 64.4329 45.2636L62.9337 39.4785L59.2236 43.902C58.1677 45.2562 57.5957 44.9844 57.4452 44.9541L54.8873 42.8727L54.7265 51.4571C54.6916 55.5234 52.7975 52.4789 52.7975 52.4789L50.0322 47.5357L49.2169 49.2517C48.7037 50.2451 48.252 50.1542 48.1014 50.1239L43.0435 48.0094L43.4584 53.733C43.3675 54.1847 43.2766 54.6364 42.6138 54.8163L40.9262 55.4167C40.9262 55.4167 45.9795 61.447 47.6036 63.4972C47.9947 63.8892 48.7163 64.9745 48.2031 65.9678L47.0261 67.9243L55.5498 68.3863C56.0016 68.4772 56.905 68.659 56.4817 69.9838L54.3029 78.4754L55.8086 78.7784L57.084 70.105C57.3567 68.7499 58.2601 68.9317 58.5613 68.9923L66.6003 71.8633L66.2716 69.6038C66.1826 68.4892 67.2678 67.7676 67.7801 67.5574C70.0708 66.295 77.0633 62.6887 77.0633 62.6887L75.5282 61.7531Z" fill="#D90026"/>
</g>
<path d="M105.682 68.2991C100.481 94.146 75.3112 110.883 49.4642 105.681C23.6172 100.48 6.8806 75.3105 12.0819 49.4636C17.2831 23.6166 42.4527 6.87995 68.2997 12.0812C94.1467 17.2825 110.883 42.4521 105.682 68.2991Z" stroke="url(#paint1_linear_2120_29231)" stroke-width="4.52349"/>
<defs>
<linearGradient id="paint0_linear_2120_29231" x1="13.8207" y1="49.7279" x2="103.81" y2="67.8368" gradientUnits="userSpaceOnUse">
<stop stop-color="#FFF8C1"/>
<stop offset="0.0001" stop-color="#C2E8FD"/>
<stop offset="0.3123" stop-color="#919191"/>
<stop offset="0.7592" stop-color="#DDDDDD"/>
<stop offset="1" stop-color="white"/>
</linearGradient>
<linearGradient id="paint1_linear_2120_29231" x1="9.81466" y1="48.9906" x2="107.924" y2="68.7334" gradientUnits="userSpaceOnUse">
<stop stop-color="#FFF8C1"/>
<stop offset="0.0001" stop-color="#C2E8FD"/>
<stop offset="0.3123" stop-color="#919191"/>
<stop offset="0.7592" stop-color="#DDDDDD"/>
<stop offset="1" stop-color="white"/>
</linearGradient>
</defs>
</svg>
