<svg width="69" height="21" viewBox="0 0 69 21" fill="none" xmlns="http://www.w3.org/2000/svg">
<g opacity="0.5">
<path d="M8.73505 0.45026C8.52992 1.06648 8.31574 1.68169 8.09754 2.29388C7.49423 2.11305 6.81751 1.96253 6.18705 2.0191C5.74663 2.05648 5.33537 2.27468 5.13326 2.6828C4.80747 3.33539 4.89093 3.99708 4.88389 4.70018C5.78886 4.70119 6.69283 4.70018 7.59679 4.70018C7.5988 5.31539 7.5978 5.92959 7.5978 6.5448C6.69283 6.5448 5.78785 6.54379 4.88389 6.5448C4.88188 9.68451 4.88389 12.8252 4.88288 15.9649C4.07846 15.9649 3.27404 15.9649 2.46962 15.9649C2.46862 12.8252 2.47063 9.68451 2.46862 6.5448C1.84922 6.54379 1.22881 6.5448 0.609404 6.54379C0.608398 6.16598 0.608398 5.78715 0.608398 5.40833C1.22981 5.16487 1.84922 4.91535 2.46962 4.66785C2.46057 3.66068 2.43041 2.73938 2.85172 1.79787C3.19863 1.01496 3.88741 0.456321 4.70691 0.234077C6.00102 -0.129595 7.4701 0.0360775 8.73505 0.45026Z" fill="white"/>
<path d="M9.68404 0.131015C10.4885 0.130005 11.2929 0.130005 12.0973 0.130005C12.0973 5.4083 12.0973 10.6866 12.0973 15.9639C11.2929 15.9649 10.4885 15.9649 9.68404 15.9639C9.68404 10.6866 9.68304 5.40831 9.68404 0.131015Z" fill="white"/>
<path d="M56.0122 0.470454C56.4817 0.325995 57.1062 0.352261 57.5003 0.677545C57.9448 1.04425 57.9941 1.77058 57.8322 2.28579C57.6663 2.78381 57.1896 3.06162 56.6808 3.06364C56.172 3.08991 55.6632 2.9606 55.3928 2.49086C55.0368 1.81705 55.1876 0.715933 56.0122 0.470454Z" fill="white"/>
<path d="M18.1598 4.5025C18.8214 4.52069 19.468 4.60049 20.0894 4.84193C21.2417 5.27228 22.1487 6.23702 22.558 7.39673C22.9773 8.54937 22.9029 9.66261 22.9079 10.8637C20.4162 10.8658 17.9235 10.8627 15.4318 10.8647C15.4901 11.6679 15.6128 12.4215 16.0904 13.0902C16.5258 13.7176 17.2166 14.0944 17.9617 14.2045C19.4861 14.3863 20.9652 14.058 22.3548 13.4337C22.3538 14.0934 22.3559 14.753 22.3538 15.4137C20.9019 16.1188 19.3413 16.2451 17.7516 16.14C16.5298 16.0279 15.3634 15.5864 14.4906 14.6985C13.5575 13.765 13.1111 12.5174 13.0015 11.2173C12.9281 10.0566 12.9773 8.91809 13.3574 7.8099C13.7144 6.7401 14.4172 5.78849 15.3775 5.1955C16.2171 4.68131 17.1864 4.50553 18.1598 4.5025ZM19.5575 6.78051C18.6183 6.12489 17.1291 6.21075 16.3177 7.04316C15.7636 7.62301 15.5806 8.3443 15.4781 9.11912C17.1684 9.12316 18.8596 9.12215 20.5509 9.12013C20.4966 8.216 20.3237 7.35127 19.5575 6.78051Z" fill="white"/>
<path d="M50.8901 4.61438C51.9157 4.8245 52.7986 5.48214 53.3416 6.37415C54.0786 7.54901 54.2576 8.94612 54.2777 10.3079C54.2626 11.3049 54.1751 12.2667 53.8403 13.2122C53.5437 14.081 52.9916 14.9205 52.2395 15.4548C51.5367 15.9569 50.688 16.1812 49.8313 16.1711C48.9374 16.1903 48.0565 15.9802 47.3215 15.4579C46.9605 15.2195 46.7202 14.877 46.3884 14.6043C46.4055 15.2296 46.5131 15.8428 46.5131 16.4701C46.511 17.9682 46.5131 19.4674 46.511 20.9665C45.7076 20.9655 44.9032 20.9655 44.0998 20.9665C44.0978 18.5289 44.0988 16.0913 44.0998 13.6537L44.0989 12.152L44.0988 10.6503C44.0998 8.6663 44.0978 6.68327 44.0998 4.70025C44.7514 4.70126 45.403 4.70025 46.0555 4.70126C46.1802 5.22353 46.2848 5.74985 46.4105 6.27111C46.8127 5.77409 47.1868 5.30536 47.7609 4.99725C48.684 4.47396 49.8695 4.40325 50.8901 4.61438ZM50.6709 6.93784C50.0646 6.44789 49.2069 6.40547 48.4718 6.54689C47.959 6.65196 47.4804 6.89137 47.1596 7.31768C46.6981 7.91673 46.5643 8.76226 46.5231 9.49971C46.496 10.2725 46.497 11.0665 46.6247 11.8302C46.7252 12.4131 46.9213 13.0778 47.3426 13.5102C47.7056 13.9012 48.2023 14.0981 48.7222 14.1699C49.3305 14.2396 49.9379 14.2204 50.4668 13.8739C51.1244 13.4678 51.4874 12.6566 51.6503 11.9262C51.8534 10.9352 51.8634 9.89874 51.6955 8.90268C51.5558 8.14705 51.2853 7.43082 50.6709 6.93784Z" fill="white"/>
<path d="M65.8483 4.62744C66.6125 4.78806 67.3315 5.14466 67.8171 5.773C68.3863 6.50237 68.5934 7.47317 68.6085 8.38235C68.6075 10.9099 68.6085 13.4374 68.6085 15.9639C67.8041 15.9649 66.9997 15.9649 66.1952 15.9639C66.1942 13.5728 66.1962 11.1766 66.1942 8.78643C66.1761 8.10051 65.9911 7.29942 65.42 6.86301C64.8348 6.4266 63.961 6.41852 63.2752 6.54783C62.5784 6.67107 61.9549 7.0802 61.6281 7.71966C61.2169 8.5157 61.1646 9.52691 61.1445 10.4058C61.1405 12.2585 61.1445 14.1112 61.1435 15.9639C60.3471 15.9659 59.5507 15.9649 58.7544 15.9639C58.7544 12.21 58.7533 8.45509 58.7544 4.70118C59.3818 4.70017 60.0082 4.70017 60.6357 4.70118C60.7523 5.21537 60.8639 5.73058 60.9906 6.24275C61.3546 5.75987 61.7538 5.33054 62.2958 5.04768C63.3757 4.46479 64.6618 4.39509 65.8483 4.62744Z" fill="white"/>
<path d="M23.2452 4.70011C24.1612 4.70011 25.0783 4.70213 25.9943 4.6991C26.847 6.00428 27.6906 7.31552 28.5413 8.62171C29.4 7.31754 30.2467 6.00428 31.1084 4.70112C32.0164 4.70011 32.9254 4.70011 33.8334 4.70112C32.5835 6.54675 31.3155 8.37825 30.0606 10.2198C31.3799 12.1352 32.6971 14.0515 34.0204 15.9638C33.1084 15.9659 32.1964 15.9649 31.2844 15.9649C30.3703 14.5738 29.4623 13.1787 28.5413 11.7927C27.6232 13.1797 26.7183 14.5738 25.8073 15.9649C24.8963 15.9649 23.9853 15.9649 23.0732 15.9649C24.3875 14.0495 25.7007 12.1342 27.0129 10.2178C25.754 8.38128 24.5001 6.53968 23.2452 4.70011Z" fill="white"/>
<path d="M41.0624 5.4759C41.8387 6.17799 42.1172 7.34679 41.8286 8.34184C41.6517 8.93584 41.3289 9.49246 40.9719 9.99453C40.0297 11.3169 38.5305 12.1594 36.9981 12.5978C37.2605 12.9958 37.4888 13.3888 37.9724 13.5393C38.5054 13.6868 39.1298 13.5626 39.6527 13.4151C41.3631 12.8665 42.7879 11.8573 44.0991 10.6501C44.0991 11.6513 44.0991 12.6524 44.1001 13.6535C43.3037 14.3172 42.442 14.9203 41.5189 15.393C40.252 16.0285 38.8714 16.4022 37.4496 16.186C36.4028 16.0285 35.4496 15.4244 34.8422 14.5566C34.4089 13.9303 34.1122 13.1928 34.0288 12.4332C33.9192 11.133 33.9996 9.84502 34.4722 8.61864C34.8131 7.64076 35.2424 6.73057 35.9604 5.97191C36.6502 5.24456 37.5551 4.73946 38.5667 4.68188C39.4737 4.61723 40.3827 4.84756 41.0624 5.4759ZM39.2525 6.96393C38.3968 6.84068 37.6617 7.39629 37.339 8.16405C37.0142 8.99847 36.6713 9.76218 36.7256 10.6825C37.7331 10.5522 38.6401 9.9814 39.2484 9.17223C39.532 8.79643 39.8773 8.34331 39.8009 7.84225C39.8009 7.50531 39.5903 7.08515 39.2525 6.96393Z" fill="white"/>
<path d="M55.3616 4.70007C56.165 4.70108 56.9694 4.70108 57.7729 4.70007C57.7749 8.45499 57.7739 12.2099 57.7739 15.9648C56.9694 15.9648 56.165 15.9648 55.3606 15.9648C55.3606 12.2099 55.3596 8.45499 55.3616 4.70007Z" fill="white"/>
</g>
</svg>
