<svg width="63" height="25" viewBox="0 0 63 25" fill="none" xmlns="http://www.w3.org/2000/svg">
<g opacity="0.5">
<path d="M29.7745 12.2139V19.5421H27.4497V1.44464H33.6155C34.3515 1.42926 35.0832 1.55979 35.7685 1.8287C36.4538 2.0976 37.079 2.49956 37.6081 3.01136C38.1426 3.49209 38.5679 4.08166 38.8556 4.74043C39.1433 5.39921 39.2866 6.11193 39.2759 6.8307C39.2912 7.55331 39.1501 8.27069 38.8623 8.93366C38.5744 9.59663 38.1466 10.1895 37.6081 10.6717C36.53 11.6998 35.1991 12.2134 33.6155 12.2124H29.7745V12.2139ZM29.7745 3.6727V9.99014H33.6733C34.1007 10.0028 34.5261 9.92613 34.9221 9.76501C35.3182 9.60389 35.6763 9.36187 35.9735 9.05444C36.2692 8.76699 36.5042 8.42318 36.6647 8.04334C36.8252 7.66349 36.9079 7.25533 36.9079 6.84297C36.9079 6.43062 36.8252 6.02245 36.6647 5.64261C36.5042 5.26276 36.2692 4.91895 35.9735 4.63151C35.6801 4.3176 35.3232 4.06965 34.9266 3.9041C34.5301 3.73855 34.1028 3.65919 33.6733 3.67126H29.7745V3.6727Z" fill="white"/>
<path d="M44.6325 6.75549C46.3508 6.75549 47.7072 7.21468 48.7016 8.13305C49.6961 9.05143 50.1928 10.3106 50.1918 11.9105V19.542H47.9681V17.8236H47.867C46.9043 19.2387 45.624 19.9463 44.026 19.9463C42.6619 19.9463 41.5207 19.542 40.6023 18.7333C40.1616 18.3622 39.8092 17.8974 39.5709 17.3728C39.3326 16.8482 39.2143 16.2771 39.2248 15.701C39.2248 14.4197 39.709 13.4007 40.6774 12.6441C41.6458 11.8874 42.9387 11.5081 44.5559 11.5062C45.9364 11.5062 47.0733 11.7589 47.9666 12.2643V11.7329C47.9693 11.3402 47.8845 10.9518 47.7184 10.5959C47.5523 10.24 47.3091 9.92548 47.0064 9.67523C46.3916 9.12056 45.5904 8.81792 44.7624 8.82761C43.4638 8.82761 42.4362 9.37536 41.6795 10.4709L39.632 9.18139C40.7583 7.56413 42.4251 6.75549 44.6325 6.75549ZM41.6247 15.7515C41.6231 16.0474 41.6923 16.3394 41.8264 16.6031C41.9605 16.8668 42.1557 17.0947 42.3957 17.2677C42.9099 17.6722 43.5481 17.8864 44.2022 17.8742C45.1832 17.8725 46.1236 17.4821 46.8172 16.7883C47.5874 16.0634 47.9724 15.2129 47.9724 14.2368C47.2475 13.6592 46.2367 13.3704 44.94 13.3704C43.9957 13.3704 43.2082 13.5981 42.5777 14.0534C41.9409 14.5155 41.6247 15.0772 41.6247 15.7515Z" fill="white"/>
<path d="M62.9568 7.15912L55.1939 24.9995H52.794L55.6748 18.7572L50.5703 7.15912H53.0973L56.7867 16.0541H56.8372L60.4255 7.15912H62.9568Z" fill="white"/>
<path fill-rule="evenodd" clip-rule="evenodd" d="M14.3847 5.67597C13.3117 4.65244 11.879 4.09224 10.3964 4.11647C7.68457 4.11647 5.38286 5.94455 4.55978 8.40799L4.55958 8.40783C4.1245 9.69865 4.12452 11.0965 4.55963 12.3873L4.55787 12.3887H4.55978C5.38286 14.8521 7.68457 16.6802 10.3964 16.6802C11.8013 16.6802 13.0026 16.3192 13.9354 15.6868V15.6833C14.4769 15.3241 14.94 14.859 15.2969 14.316C15.6538 13.773 15.897 13.1633 16.0119 12.5238H10.3962V8.51965H20.2009C20.3209 9.2179 20.3808 9.92516 20.3799 10.6336C20.3799 13.7974 19.2493 16.4731 17.2869 18.2824H17.2826L17.2871 18.2859C15.5644 19.8743 13.202 20.7956 10.3964 20.7956C8.46925 20.7955 6.58007 20.2598 4.93976 19.2482C3.29944 18.2367 1.97255 16.7892 1.10722 15.0673V15.0658L1.10706 15.0659C0.379115 13.6174 0 12.0187 0 10.3975C0 8.77634 0.379115 7.17764 1.10706 5.7291H1.10737C1.9727 4.00731 3.29954 2.55989 4.93976 1.54843C6.58007 0.536907 8.46925 0.0011972 10.3964 0.00110937C12.9777 -0.0290397 15.4704 0.941253 17.352 2.70858L14.3847 5.67597Z" fill="white"/>
</g>
</svg>
