<svg width="248" height="87" viewBox="0 0 248 87" fill="none" xmlns="http://www.w3.org/2000/svg">
<path d="M12.3503 18.9888C10.6468 18.9888 9.26576 20.3695 9.26576 22.0727C9.26576 23.7759 10.6468 25.1567 12.3503 25.1567H29.6574C31.6311 25.1567 33.4461 25.2998 34.8103 26.295C36.0133 27.1726 37.0594 28.5031 37.0594 30.4388C37.0594 32.3596 35.3493 35.2882 31.9085 35.2882H12.3055C10.6267 35.2882 9.26576 36.6489 9.26576 38.3273C9.26576 40.0057 10.6267 41.3664 12.3055 41.3664H26.8074C28.7291 41.3664 30.701 41.4492 32.4101 41.9202C34.1046 42.3872 35.4662 43.2143 36.2811 44.6576C36.7531 45.4935 37.0594 46.4591 37.0594 47.5451C37.0594 48.2681 36.6059 49.6229 35.5954 50.7737C34.8215 51.655 33.754 52.1141 32.476 52.3453C31.2489 52.5673 29.9092 52.5667 28.5516 52.5661L12.3503 52.566C10.6468 52.566 9.26576 53.9467 9.26576 55.65C9.26576 57.3532 10.6468 58.7339 12.3503 58.7339H32.5675C34.2531 58.7339 36.7904 58.2301 38.981 56.5697C41.2029 54.8857 42.9969 52.0644 43.2276 47.5846L43.2286 47.5649V47.5451C43.2286 46.3507 43.0264 44.5432 42.4168 42.7851C41.9092 41.3211 41.0928 39.818 39.8062 38.7631C41.3307 37.1088 43.2286 34.0912 43.2286 30.4388C43.2286 28.4584 42.7104 25.6262 41.1189 23.2642C39.4993 20.8605 36.7926 18.9888 32.5675 18.9888H12.3503Z" fill="#8A6FF2"/>
<path d="M5.15075 27.0937C2.30607 27.0937 0 29.3993 0 32.2434V61.6891C0 64.5332 2.30607 66.8388 5.15074 66.8388H30.8782C32.5818 66.8388 33.9628 65.4581 33.9628 63.7548C33.9628 62.0516 32.5818 60.6709 30.8782 60.6709H8.32225C7.13312 60.6709 6.16914 59.7071 6.16914 58.5182V52.2029C6.16914 51.014 7.13312 50.0502 8.32225 50.0502H30.8782C32.5818 50.0502 33.9628 48.6694 33.9628 46.9662C33.9628 45.263 32.5818 43.8823 30.8782 43.8823H8.32225C7.13312 43.8823 6.16914 42.9185 6.16914 41.7296V35.4142C6.16914 34.2253 7.13312 33.2616 8.32225 33.2616H30.8782C32.5818 33.2616 33.9628 31.8808 33.9628 30.1776C33.9628 28.4744 32.5818 27.0937 30.8782 27.0937H5.15075Z" fill="#02E8A4"/>
<path d="M61.8832 55.9826C60.1155 55.9826 58.7336 55.5221 57.7377 54.601C56.7667 53.6551 56.2812 52.3482 56.2812 50.6804V35.0351C56.2812 33.4171 56.7542 32.1475 57.7004 31.2265C58.6465 30.3054 59.9661 29.8449 61.6591 29.8449H73.2741C73.9214 29.8449 74.4194 29.9943 74.768 30.293C75.1165 30.5668 75.2908 30.9776 75.2908 31.5252C75.2908 32.048 75.1165 32.4587 74.768 32.7574C74.4194 33.0312 73.9214 33.1681 73.2741 33.1681H62.2567C61.7089 33.1681 61.2857 33.3424 60.9869 33.6909C60.6881 34.0394 60.5387 34.5124 60.5387 35.1098V40.9721H70.4357C71.0831 40.9721 71.581 41.1215 71.9296 41.4202C72.2782 41.694 72.4524 42.1047 72.4524 42.6524C72.4524 43.1751 72.2782 43.5859 71.9296 43.8846C71.581 44.1584 71.0831 44.2953 70.4357 44.2953H60.5387V50.7177C60.5387 51.3152 60.6881 51.7881 60.9869 52.1366C61.2857 52.4851 61.7089 52.6594 62.2567 52.6594H74.0957C74.7431 52.6594 75.241 52.8087 75.5896 53.1075C75.9382 53.3813 76.1125 53.792 76.1125 54.3397C76.1125 54.8624 75.9382 55.2732 75.5896 55.5719C75.241 55.8457 74.7431 55.9826 74.0957 55.9826H61.8832Z" fill="url(#paint0_linear_2120_26176)"/>
<path d="M80.2787 35.0725C80.2787 33.4544 80.7518 32.1849 81.6979 31.2638C82.644 30.3179 83.9761 29.8449 85.694 29.8449H92.4538C96.0641 29.8449 98.778 30.5668 100.596 32.0106C102.438 33.4544 103.359 35.5828 103.359 38.3957C103.359 41.0592 102.55 43.1254 100.932 44.594C99.3133 46.0627 97.0724 46.7971 94.2092 46.7971L100.409 53.0701C100.807 53.4684 101.006 53.904 101.006 54.377C101.006 54.8998 100.757 55.3727 100.259 55.7959C99.7863 56.1444 99.3257 56.3187 98.8776 56.3187C98.2551 56.3187 97.6575 56.0199 97.0849 55.4225L88.8685 46.9091H84.6483V54.3397C84.6483 54.962 84.4367 55.4599 84.0134 55.8333C83.615 56.1818 83.0922 56.356 82.4448 56.356C81.7726 56.356 81.2373 56.1818 80.8389 55.8333C80.4654 55.4599 80.2787 54.962 80.2787 54.3397V35.0725ZM92.4165 43.4739C94.8067 43.4739 96.4873 43.1005 97.4584 42.3537C98.4543 41.582 98.9522 40.2627 98.9522 38.3957C98.9522 36.5785 98.4169 35.2716 97.3463 34.475C96.2757 33.6785 94.6324 33.2802 92.4165 33.2802H86.3289C85.8061 33.2802 85.3952 33.4544 85.0965 33.8029C84.7977 34.1265 84.6483 34.5871 84.6483 35.1845V43.4739H92.4165Z" fill="url(#paint1_linear_2120_26176)"/>
<path d="M109.392 56.3187C108.745 56.3187 108.234 56.1444 107.861 55.7959C107.488 55.4474 107.301 54.962 107.301 54.3397V40.7481C107.301 37.2133 108.309 34.4501 110.326 32.4587C112.343 30.4673 115.144 29.4715 118.729 29.4715C121.069 29.4715 123.099 29.9321 124.817 30.8531C126.535 31.7492 127.842 33.0437 128.738 34.7364C129.659 36.4291 130.12 38.433 130.12 40.7481V54.3397C130.12 54.962 129.933 55.4474 129.56 55.7959C129.186 56.1444 128.676 56.3187 128.028 56.3187C127.381 56.3187 126.858 56.1444 126.46 55.7959C126.061 55.4225 125.862 54.9371 125.862 54.3397V47.4692H111.558V54.3397C111.558 54.9371 111.359 55.4225 110.961 55.7959C110.562 56.1444 110.04 56.3187 109.392 56.3187ZM125.862 44.146V40.6361C125.862 38.097 125.252 36.1678 124.032 34.8484C122.837 33.5291 121.069 32.8694 118.729 32.8694C116.364 32.8694 114.571 33.5291 113.351 34.8484C112.156 36.1429 111.558 38.0721 111.558 40.6361V44.146H125.862Z" fill="url(#paint2_linear_2120_26176)"/>
<path d="M140.298 55.9826C138.53 55.9826 137.148 55.5221 136.152 54.601C135.181 53.6551 134.695 52.3482 134.695 50.6804V35.0351C134.695 33.4171 135.169 32.1475 136.115 31.2265C137.061 30.3054 138.38 29.8449 140.073 29.8449H148.775C151.539 29.8449 153.68 30.4673 155.199 31.7119C156.718 32.9317 157.477 34.6866 157.477 36.9768C157.477 38.1716 157.141 39.2545 156.469 40.2253C155.797 41.1961 154.9 41.9305 153.78 42.4284V42.503C155.025 42.976 156.021 43.7228 156.768 44.7434C157.539 45.764 157.925 46.8967 157.925 48.1413C157.925 50.5808 157.153 52.4976 155.61 53.8916C154.066 55.2856 151.937 55.9826 149.223 55.9826H140.298ZM148.887 40.9348C150.207 40.9348 151.253 40.5863 152.024 39.8893C152.796 39.1923 153.182 38.2339 153.182 37.0141C153.182 34.4501 151.713 33.1681 148.775 33.1681H140.634C140.086 33.1681 139.65 33.3424 139.326 33.6909C139.028 34.0394 138.878 34.5124 138.878 35.1098V40.9348H148.887ZM148.887 52.6594C152.049 52.6594 153.63 51.1783 153.63 48.216C153.63 46.9464 153.207 45.9632 152.361 45.2662C151.514 44.5443 150.356 44.1833 148.887 44.1833H138.878V50.7177C138.878 51.3152 139.028 51.7881 139.326 52.1366C139.65 52.4851 140.086 52.6594 140.634 52.6594H148.887Z" fill="url(#paint3_linear_2120_26176)"/>
<path d="M167.761 55.9826C165.993 55.9826 164.611 55.5221 163.615 54.601C162.644 53.6551 162.159 52.3482 162.159 50.6804V35.0351C162.159 33.4171 162.632 32.1475 163.578 31.2265C164.524 30.3054 165.844 29.8449 167.537 29.8449H179.152C179.799 29.8449 180.297 29.9943 180.645 30.293C180.994 30.5668 181.168 30.9776 181.168 31.5252C181.168 32.048 180.994 32.4587 180.645 32.7574C180.297 33.0312 179.799 33.1681 179.152 33.1681H168.134C167.586 33.1681 167.163 33.3424 166.864 33.6909C166.566 34.0394 166.416 34.5124 166.416 35.1098V40.9721H176.313C176.961 40.9721 177.459 41.1215 177.807 41.4202C178.156 41.694 178.33 42.1047 178.33 42.6524C178.33 43.1751 178.156 43.5859 177.807 43.8846C177.459 44.1584 176.961 44.2953 176.313 44.2953H166.416V50.7177C166.416 51.3152 166.566 51.7881 166.864 52.1366C167.163 52.4851 167.586 52.6594 168.134 52.6594H179.973C180.621 52.6594 181.119 52.8087 181.467 53.1075C181.816 53.3813 181.99 53.792 181.99 54.3397C181.99 54.8624 181.816 55.2732 181.467 55.5719C181.119 55.8457 180.621 55.9826 179.973 55.9826H167.761Z" fill="url(#paint4_linear_2120_26176)"/>
<path d="M196.8 56.356C196.153 56.356 195.63 56.1818 195.232 55.8333C194.858 55.4847 194.671 54.9993 194.671 54.377V33.1681H187.015C186.368 33.1681 185.87 33.0312 185.521 32.7574C185.173 32.4587 184.998 32.048 184.998 31.5252C184.998 30.9776 185.173 30.5668 185.521 30.293C185.87 29.9943 186.368 29.8449 187.015 29.8449H206.585C207.232 29.8449 207.73 29.9943 208.079 30.293C208.452 30.5668 208.639 30.9776 208.639 31.5252C208.639 32.048 208.452 32.4587 208.079 32.7574C207.73 33.0312 207.232 33.1681 206.585 33.1681H198.929V54.377C198.929 54.9744 198.73 55.4599 198.331 55.8333C197.958 56.1818 197.447 56.356 196.8 56.356Z" fill="url(#paint5_linear_2120_26176)"/>
<path d="M211.004 55.9826C210.232 55.9826 209.573 55.7337 209.025 55.2358C208.502 54.7131 208.241 54.1032 208.241 53.4062C208.241 52.6843 208.502 52.062 209.025 51.5392C209.548 51.0164 210.208 50.7551 211.004 50.7551C211.751 50.7551 212.386 51.0164 212.909 51.5392C213.432 52.062 213.693 52.6843 213.693 53.4062C213.693 54.1032 213.432 54.7131 212.909 55.2358C212.386 55.7337 211.751 55.9826 211.004 55.9826Z" fill="url(#paint6_linear_2120_26176)"/>
<path d="M220.058 34.4377C219.261 34.4377 218.601 34.2137 218.079 33.7656C217.581 33.2926 217.332 32.6952 217.332 31.9733C217.332 31.2514 217.581 30.6664 218.079 30.2183C218.601 29.7454 219.261 29.5089 220.058 29.5089C220.855 29.5089 221.515 29.7454 222.037 30.2183C222.56 30.6664 222.822 31.2514 222.822 31.9733C222.822 32.6952 222.56 33.2926 222.037 33.7656C221.515 34.2137 220.855 34.4377 220.058 34.4377ZM220.058 56.356C219.411 56.356 218.9 56.1818 218.527 55.8333C218.178 55.4847 218.004 54.9993 218.004 54.377V39.2918C218.004 38.6695 218.178 38.1841 218.527 37.8356C218.9 37.4871 219.411 37.3128 220.058 37.3128C220.705 37.3128 221.216 37.4871 221.589 37.8356C221.988 38.1841 222.187 38.6695 222.187 39.2918V54.377C222.187 54.9993 221.988 55.4847 221.589 55.8333C221.216 56.1818 220.705 56.356 220.058 56.356Z" fill="url(#paint7_linear_2120_26176)"/>
<path d="M237.121 56.356C234.955 56.356 233.05 55.9577 231.407 55.1611C229.764 54.3397 228.494 53.207 227.598 51.7632C226.726 50.3194 226.291 48.6765 226.291 46.8344C226.291 44.9923 226.726 43.3494 227.598 41.9056C228.494 40.4618 229.764 39.3416 231.407 38.545C233.05 37.7236 234.955 37.3128 237.121 37.3128C239.287 37.3128 241.192 37.7236 242.835 38.545C244.479 39.3416 245.736 40.4618 246.607 41.9056C247.504 43.3494 247.952 44.9923 247.952 46.8344C247.952 48.6765 247.504 50.3194 246.607 51.7632C245.736 53.207 244.479 54.3397 242.835 55.1611C241.192 55.9577 239.287 56.356 237.121 56.356ZM237.121 52.9954C239.138 52.9954 240.744 52.4478 241.939 51.3525C243.134 50.2572 243.732 48.7512 243.732 46.8344C243.732 44.9177 243.134 43.4116 241.939 42.3163C240.744 41.221 239.138 40.6734 237.121 40.6734C235.08 40.6734 233.461 41.221 232.266 42.3163C231.096 43.4116 230.511 44.9177 230.511 46.8344C230.511 48.7512 231.096 50.2572 232.266 51.3525C233.461 52.4478 235.08 52.9954 237.121 52.9954Z" fill="url(#paint8_linear_2120_26176)"/>
<defs>
<linearGradient id="paint0_linear_2120_26176" x1="243.76" y1="33.9829" x2="2.63195" y2="51.0713" gradientUnits="userSpaceOnUse">
<stop stop-color="#8A6FF2"/>
<stop offset="1" stop-color="#02E8A4"/>
</linearGradient>
<linearGradient id="paint1_linear_2120_26176" x1="243.76" y1="33.9829" x2="2.63195" y2="51.0713" gradientUnits="userSpaceOnUse">
<stop stop-color="#8A6FF2"/>
<stop offset="1" stop-color="#02E8A4"/>
</linearGradient>
<linearGradient id="paint2_linear_2120_26176" x1="243.76" y1="33.9829" x2="2.63195" y2="51.0713" gradientUnits="userSpaceOnUse">
<stop stop-color="#8A6FF2"/>
<stop offset="1" stop-color="#02E8A4"/>
</linearGradient>
<linearGradient id="paint3_linear_2120_26176" x1="243.76" y1="33.9829" x2="2.63195" y2="51.0713" gradientUnits="userSpaceOnUse">
<stop stop-color="#8A6FF2"/>
<stop offset="1" stop-color="#02E8A4"/>
</linearGradient>
<linearGradient id="paint4_linear_2120_26176" x1="243.76" y1="33.9829" x2="2.63195" y2="51.0713" gradientUnits="userSpaceOnUse">
<stop stop-color="#8A6FF2"/>
<stop offset="1" stop-color="#02E8A4"/>
</linearGradient>
<linearGradient id="paint5_linear_2120_26176" x1="243.76" y1="33.9829" x2="2.63195" y2="51.0713" gradientUnits="userSpaceOnUse">
<stop stop-color="#8A6FF2"/>
<stop offset="1" stop-color="#02E8A4"/>
</linearGradient>
<linearGradient id="paint6_linear_2120_26176" x1="243.76" y1="33.9829" x2="2.63195" y2="51.0713" gradientUnits="userSpaceOnUse">
<stop stop-color="#8A6FF2"/>
<stop offset="1" stop-color="#02E8A4"/>
</linearGradient>
<linearGradient id="paint7_linear_2120_26176" x1="243.76" y1="33.9829" x2="2.63195" y2="51.0713" gradientUnits="userSpaceOnUse">
<stop stop-color="#8A6FF2"/>
<stop offset="1" stop-color="#02E8A4"/>
</linearGradient>
<linearGradient id="paint8_linear_2120_26176" x1="243.76" y1="33.9829" x2="2.63195" y2="51.0713" gradientUnits="userSpaceOnUse">
<stop stop-color="#8A6FF2"/>
<stop offset="1" stop-color="#02E8A4"/>
</linearGradient>
</defs>
</svg>
