<svg width="102" height="13" viewBox="0 0 102 13" fill="none" xmlns="http://www.w3.org/2000/svg">
<g opacity="0.5">
<path fill-rule="evenodd" clip-rule="evenodd" d="M28.8521 1.92023C28.1841 0.775637 27.0907 0.207989 25.7352 0.138548C23.5304 0.0193794 20.6305 1.21095 17.7354 3.38029L17.7196 3.39215C17.4704 2.9967 17.2097 2.63602 16.8569 2.27358C12.7217 -1.73939 6.99951 -0.0468008 3.27386 4.29802C2.85744 4.76353 2.47977 5.26233 2.14465 5.78943C2.0377 5.94982 1.93332 6.11272 1.83164 6.27803C1.84828 6.25813 1.86806 6.23466 1.89096 6.20793C1.84413 6.28903 1.79829 6.37073 1.75343 6.45303C1.69626 6.56021 1.64053 6.6674 1.58622 6.77458C1.53799 6.93499 1.49822 7.09731 1.46692 7.26088C1.49873 7.09115 1.53965 6.92274 1.58967 6.75638C0.946557 8.05975 0.766486 9.34812 1.17593 10.45C2.24779 13.3611 7.03683 13.852 11.8602 11.5454C13.2096 10.9016 14.4183 10.1031 15.4365 9.22561L15.4932 9.17785L15.5507 9.12617C15.6269 9.05908 15.7021 8.99156 15.7761 8.92363L16.1602 8.5784C16.8149 9.12282 17.5727 9.64255 18.4774 10.1033C21.963 11.8826 27.1658 11.0679 29.2881 8.40117L29.2859 8.4036C30.5386 6.83488 30.7217 4.62297 28.8521 1.92023ZM9.61955 2.86183C6.33763 2.45046 3.83242 4.29877 2.60513 5.46561C2.02783 6.46272 1.57825 7.61449 1.56907 8.59673C1.57387 9.28511 1.74166 9.96178 2.05773 10.5717C2.08324 10.6123 2.10943 10.6524 2.13631 10.6922L2.152 10.7187C2.1662 10.7428 2.1807 10.7674 2.19634 10.7908C3.58331 12.8595 8.13012 11.7041 12.3489 8.21838C12.9487 7.72468 13.5206 7.19859 14.062 6.64257C14.0927 6.60959 14.1224 6.57736 14.1509 6.54593C13.9165 6.26935 13.6946 5.99702 13.4797 5.73322C12.2891 4.27221 11.3117 3.07281 9.61955 2.86183ZM29.1915 2.98953C27.8944 1.41372 24.6768 2.20397 21.4059 4.44872L21.4098 4.45526C20.9988 4.72209 20.2942 5.27308 19.5729 5.85864C19.5091 5.91317 19.4455 5.96819 19.382 6.02371C19.544 6.24643 19.7223 6.48144 19.9202 6.73035C20.1827 7.01742 20.4601 7.27429 20.7486 7.502C20.5548 7.34249 20.3663 7.16945 20.1843 6.98257C23.8008 10.5407 29.8298 8.80966 29.4372 4.20898C29.4024 3.82222 29.3222 3.41526 29.1915 2.98953ZM46.5858 0.482811C46.5269 0.458716 46.4659 0.440061 46.4036 0.427075C45.9105 0.300597 44.6886 0.259865 44.2942 0.581421L44.2727 0.600715C44.2075 0.661693 44.1545 0.734422 44.1162 0.815086C42.9706 2.3357 41.9113 3.91954 40.9436 5.55911L37.9917 0.823661L37.981 0.80008C37.9418 0.718864 37.8872 0.646053 37.8202 0.585709L37.7987 0.568559C37.4557 0.283446 36.4289 0.292022 35.8694 0.388489C35.7366 0.402448 35.6062 0.433429 35.4814 0.480668C35.373 0.526956 35.2804 0.603592 35.2146 0.701342C35.1488 0.799092 35.1126 0.913786 35.1105 1.0316V11.0234C35.1105 11.2228 35.2027 11.5722 35.8201 11.6665C36.0254 11.6942 36.2325 11.7071 36.4396 11.7051C36.8684 11.7051 37.7709 11.7051 37.7709 11.0234V5.26114C37.9638 5.56554 38.3304 6.16149 38.7355 6.90964C39.2986 7.95149 39.6766 8.63247 39.8696 8.9526L39.9832 9.16697C40.0846 9.32116 40.214 9.45496 40.3648 9.56141C40.6873 9.75276 41.0711 9.81263 41.4366 9.72862C41.527 9.7043 41.6116 9.66202 41.6853 9.60429C41.8503 9.4938 41.9952 9.35607 42.114 9.19698L42.3713 8.7468C42.4956 8.52814 42.7871 7.98721 43.2459 7.12401C43.7047 6.26082 44.0541 5.63128 44.2942 5.23541V6.38015V11.0298C44.2942 11.7115 45.1924 11.7115 45.6233 11.7115C46.0542 11.7115 46.9545 11.7115 46.9545 11.0298V1.03374C46.9526 0.916167 46.9168 0.801645 46.8514 0.70392C46.786 0.606195 46.6938 0.529419 46.5858 0.482811ZM49.8177 11.829C49.3889 11.829 48.4864 11.829 48.4864 11.1473V4.76758C48.4864 4.08588 49.3846 4.08588 49.8177 4.08588C50.2507 4.08588 51.1467 4.08588 51.1467 4.76758V11.1473C51.1467 11.829 50.2485 11.829 49.8177 11.829ZM54.0587 11.8277C53.63 11.8277 52.7339 11.8277 52.7339 11.146V1.152C52.7339 0.512291 53.4699 0.489819 53.9609 0.47483L53.9687 0.474592H59.5423C59.9432 0.474592 60.4127 0.80258 60.4127 1.72652C60.4127 2.65046 59.9432 2.97844 59.5423 2.97844H55.3814V4.87991H58.9893C59.3901 4.87991 59.8596 5.2079 59.8596 6.13184C59.8596 7.05577 59.3901 7.38376 58.9893 7.38376H55.3814V11.146C55.3814 11.8277 54.4875 11.8277 54.0587 11.8277ZM74.0366 11.8277C73.2027 11.8277 72.9647 11.6262 72.8554 11.4761L68.9689 5.73311V11.1331C68.9689 11.8255 68.0749 11.8255 67.6462 11.8255C67.2175 11.8255 66.3214 11.8255 66.3214 11.1331V1.16487C66.3232 1.04021 66.3629 0.919063 66.4353 0.817567C66.5077 0.716071 66.6093 0.639052 66.7266 0.596783C67.0009 0.483167 68.3986 0.343827 68.7974 0.740413L68.8638 0.821873L72.7439 6.56272V1.16487C72.7439 0.474592 73.6722 0.474592 74.0687 0.474592C74.4653 0.474592 75.3914 0.474592 75.3914 1.16487V11.1331C75.3867 11.2727 75.3367 11.4071 75.2489 11.5157C75.1611 11.6244 75.0403 11.7016 74.9048 11.7355C74.6205 11.8029 74.3287 11.8339 74.0366 11.8277ZM78.521 11.8263C78.0923 11.8263 77.1919 11.8263 77.1919 11.1446V1.15065C77.1919 0.46895 78.0902 0.468949 78.521 0.468949C78.9519 0.468949 79.8523 0.46895 79.8523 1.15065V11.1446C79.8523 11.8263 78.9541 11.8263 78.521 11.8263ZM63.142 11.8263C62.7133 11.8263 61.8129 11.8263 61.8129 11.1446V1.15065C61.8129 0.46895 62.7111 0.468949 63.142 0.468949C63.5729 0.468949 64.4711 0.46895 64.4711 1.15065V11.1446C64.4668 11.8263 63.5729 11.8263 63.142 11.8263ZM85.866 11.8277C85.4373 11.8277 84.5434 11.8277 84.5434 11.146V3.12207H81.9709C81.2871 3.12207 81.2871 2.226 81.2871 1.79726C81.2871 1.36852 81.2871 0.474592 81.9709 0.474592H89.7612C90.4429 0.474592 90.4429 1.36852 90.4429 1.79726C90.4429 2.226 90.4429 3.12207 89.7612 3.12207H87.1887V11.146C87.1887 11.8277 86.2969 11.8277 85.866 11.8277ZM96.4991 11.8372C96.1689 11.8372 95.17 11.8372 95.17 11.1105V7.03742L91.5257 1.35446V1.19582C91.5284 1.05346 91.5783 0.916034 91.6675 0.805079C91.7567 0.694124 91.8803 0.615917 92.0187 0.582721C92.3703 0.464817 93.9588 0.340483 94.3618 0.878553L94.3768 0.89999L96.5012 4.19487L98.6449 0.86569C99.0737 0.336194 100.673 0.471249 101.003 0.589153C101.137 0.62526 101.256 0.703887 101.342 0.813257C101.428 0.922627 101.476 1.05685 101.479 1.19582V1.3566L97.8346 7.03957V11.1126C97.8282 11.8372 96.8378 11.8372 96.4991 11.8372ZM49.4119 0.564874H50.1258C50.7023 0.564874 51.1697 1.03228 51.1697 1.60886V2.34201C51.1697 2.91859 50.7023 3.38599 50.1258 3.38599H49.4119C48.8353 3.38599 48.3679 2.91859 48.3679 2.34201V1.60886C48.3679 1.03228 48.8353 0.564874 49.4119 0.564874Z" fill="white"/>
</g>
</svg>
