<svg width="645" height="646" viewBox="0 0 645 646" fill="none" xmlns="http://www.w3.org/2000/svg">
<path d="M324.286 321.801L446.725 25.4342C465.422 32.5734 483.224 42.8737 496.434 51.4563C503.142 55.8147 508.657 59.725 512.495 62.5446C514.413 63.9543 515.912 65.0911 516.93 65.8746C517.439 66.2663 517.827 66.5697 518.088 66.7747C518.219 66.8772 518.317 66.9551 518.383 67.0071L518.456 67.0656L518.474 67.08L518.479 67.0835L518.48 67.0843C518.48 67.0844 518.48 67.0844 519.107 66.3012L518.48 67.0844L518.501 67.1013L518.523 67.117C535.056 78.9544 549.893 93.8018 560.607 105.706C565.961 111.656 570.279 116.863 573.257 120.582C574.746 122.441 575.9 123.927 576.681 124.948C577.071 125.459 577.369 125.852 577.568 126.118C577.667 126.251 577.742 126.352 577.792 126.419L577.848 126.495L577.862 126.513L577.865 126.518L577.866 126.519C577.866 126.519 577.866 126.519 578.675 125.925L577.866 126.519L577.882 126.541L577.899 126.561C590.813 142.287 601.309 160.476 608.581 174.753C612.215 181.888 615.041 188.037 616.956 192.401C617.914 194.583 618.645 196.318 619.135 197.506C619.282 197.86 619.406 198.166 619.51 198.421L324.286 321.801Z" fill="#8A6FF2" stroke="#0F172B" stroke-width="2.00678"/>
<path d="M321.916 324.176L198.943 619.159C198.69 619.056 198.387 618.932 198.036 618.787C196.851 618.297 195.122 617.567 192.947 616.61C188.597 614.695 182.468 611.872 175.357 608.241C161.126 600.974 142.996 590.487 127.322 577.583L127.301 577.566L127.28 577.55L126.684 578.358C127.28 577.55 127.28 577.55 127.279 577.55L127.278 577.549L127.274 577.546L127.255 577.532L127.18 577.477C127.113 577.427 127.013 577.352 126.88 577.252C126.616 577.053 126.223 576.756 125.714 576.366C124.697 575.586 123.216 574.433 121.363 572.945C117.657 569.969 112.467 565.654 106.538 560.304C94.6728 549.599 79.8737 534.774 68.0709 518.254L68.0552 518.232L68.0384 518.211L67.2544 518.837C68.0384 518.211 68.0384 518.211 68.0383 518.211L68.0375 518.21L68.0341 518.205L68.0197 518.187L67.9614 518.114C67.9095 518.048 67.8319 517.95 67.7297 517.82C67.5254 517.559 67.223 517.17 66.8325 516.662C66.0516 515.645 64.9185 514.147 63.5134 512.23C60.7029 508.396 56.8053 502.885 52.4611 496.182C43.9063 482.983 33.6393 465.194 26.5233 446.512L321.113 324.507L321.916 324.176Z" fill="#8A6FF2" stroke="#0F172B" stroke-width="2.00678"/>
<path d="M443.784 24.9053C444.137 25.0513 444.44 25.1782 444.693 25.2845L322.886 320.862L200.149 25.3641C218.429 17.1891 238.31 11.8754 253.725 8.5954C261.553 6.92975 268.22 5.79047 272.928 5.06782C275.282 4.70652 277.146 4.44944 278.42 4.28284C279.057 4.19954 279.547 4.13886 279.876 4.09909C280.041 4.07921 280.166 4.06455 280.249 4.05491L280.343 4.04417L280.366 4.04157L280.371 4.04096L280.372 4.04082C280.372 4.0408 280.372 4.04079 280.261 3.04357L280.372 4.04079L280.399 4.03782L280.426 4.03341C300.498 0.700805 321.494 0.688828 337.489 1.51474C345.483 1.92748 352.219 2.54894 356.954 3.06698C359.322 3.32598 361.189 3.55907 362.463 3.72721C363.1 3.81128 363.589 3.8791 363.917 3.9258C364.082 3.94915 364.206 3.96721 364.289 3.97938L364.382 3.99315L364.405 3.99657L364.41 3.9974L364.411 3.99758C364.412 3.99761 364.412 3.99762 364.562 3.00555L364.412 3.99762L364.438 4.00164L364.465 4.00424C384.716 5.97127 404.998 11.3844 420.235 16.3152C427.849 18.7793 434.194 21.1201 438.634 22.8441C440.854 23.7061 442.597 24.4137 443.784 24.9053Z" fill="#0F172A" stroke="url(#paint0_linear_4003_2079)" stroke-width="2.00678"/>
<path d="M200.149 620.45L322.885 324.964L323.196 325.724L323.197 325.716L444.693 620.537C444.44 620.643 444.137 620.77 443.784 620.916C442.597 621.408 440.854 622.115 438.634 622.977C434.194 624.701 427.848 627.042 420.234 629.506C405.702 634.209 386.58 639.35 367.274 641.522L367.437 641.358L364.417 641.816L364.544 642.654C364.417 641.816 364.417 641.816 364.417 641.816L364.415 641.816L364.41 641.817L364.387 641.82L364.294 641.834C364.211 641.846 364.087 641.864 363.922 641.888C363.594 641.935 363.105 642.002 362.468 642.086C361.194 642.255 359.326 642.488 356.958 642.747C352.222 643.265 345.485 643.886 337.491 644.299C321.494 645.125 300.498 645.113 280.428 641.78L280.402 641.776L280.375 641.773L280.374 641.773L280.368 641.772L280.345 641.769L280.252 641.759C280.225 641.756 280.194 641.752 280.159 641.748C280.084 641.739 279.991 641.728 279.879 641.715C279.549 641.675 279.06 641.614 278.423 641.531C277.149 641.364 275.285 641.107 272.93 640.746C268.222 640.023 261.554 638.884 253.726 637.218C238.311 633.938 218.43 628.624 200.149 620.45Z" fill="#0F172B" stroke="url(#paint1_linear_4003_2079)" stroke-width="2.00678"/>
<path d="M198.945 26.6555L321.926 321.643L26.5213 199.303C33.6375 180.62 43.9048 162.832 52.4597 149.632C56.8041 142.93 60.7018 137.418 63.5124 133.584C64.9175 131.667 66.0506 130.17 66.8316 129.153C67.222 128.644 67.5244 128.256 67.7288 127.995C67.831 127.865 67.9086 127.766 67.9605 127.701L68.0188 127.627L68.0332 127.609L68.0366 127.605L68.0374 127.604C68.0375 127.604 68.0375 127.604 67.2535 126.977L68.0375 127.604L68.0544 127.583L68.07 127.561C79.8693 111.041 94.6687 96.2154 106.535 85.5102C112.465 80.1604 117.656 75.8457 121.362 72.8696C123.215 71.3817 124.697 70.2286 125.715 69.4484C126.223 69.0583 126.616 68.7614 126.881 68.5624C127.013 68.463 127.114 68.388 127.181 68.3381L127.256 68.2822L127.275 68.2685L127.279 68.2652L127.28 68.2645C127.28 68.2643 127.28 68.2643 126.685 67.4565L127.28 68.2643L127.302 68.2483L127.323 68.2312C142.997 55.3277 161.128 44.8404 175.359 37.5737C182.47 33.9423 188.6 31.1193 192.949 29.2049C195.124 28.2478 196.853 27.5179 198.038 27.0279C198.389 26.8826 198.693 26.7583 198.945 26.6555Z" fill="#8A6FF2" stroke="#0F172B" stroke-width="2.00678"/>
<path d="M324.295 324.018L619.51 447.394C619.406 447.648 619.282 447.954 619.135 448.309C618.645 449.497 617.914 451.232 616.957 453.414C615.041 457.778 612.216 463.927 608.581 471.062C601.309 485.339 590.814 503.528 577.9 519.253L577.883 519.274L577.867 519.296L578.075 519.448C577.867 519.296 577.867 519.296 577.867 519.296L577.866 519.297L577.863 519.301L577.849 519.32L577.793 519.396C577.743 519.463 577.668 519.564 577.569 519.696C577.37 519.962 577.073 520.356 576.682 520.866C575.901 521.887 574.747 523.373 573.258 525.232C570.28 528.95 565.962 534.157 560.608 540.105C549.895 552.009 535.058 566.856 518.525 578.698L518.503 578.713L518.482 578.73L519.11 579.513C518.482 578.73 518.482 578.73 518.482 578.73L518.481 578.731L518.477 578.735L518.459 578.749L518.385 578.808C518.32 578.86 518.221 578.937 518.091 579.04C517.83 579.245 517.441 579.548 516.932 579.94C515.914 580.724 514.416 581.86 512.497 583.27C508.66 586.09 503.145 590 496.437 594.358C483.228 602.941 465.426 613.241 446.729 620.38L324.295 324.018Z" fill="#8A6FF2" stroke="#0F172B" stroke-width="2.00678"/>
<path d="M25.3258 201.337L321.954 323.511L25.3259 445.683C25.2195 445.431 25.0923 445.127 24.9461 444.774C24.4541 443.587 23.746 441.843 22.8834 439.623C21.1581 435.182 18.8155 428.835 16.3495 421.219C11.415 405.979 5.99768 385.692 4.02918 365.436L4.02658 365.409L4.02255 365.383L3.03049 365.533C4.02255 365.383 4.02255 365.383 4.02252 365.383L4.02234 365.381L4.02152 365.376L4.0181 365.353L4.00434 365.26C3.99219 365.178 3.97415 365.054 3.95084 364.89C3.90421 364.562 3.83649 364.074 3.7525 363.438C3.5846 362.167 3.35175 360.303 3.09299 357.94C2.57538 353.213 1.95416 346.489 1.54065 338.508C0.713167 322.538 0.719453 301.572 4.03568 281.514L4.04111 281.481L4.04434 281.448C6.02423 261.215 11.4378 240.962 16.3657 225.75C18.8283 218.149 21.1668 211.815 22.8889 207.383C23.7499 205.167 24.4567 203.427 24.9477 202.243C25.0932 201.891 25.2198 201.589 25.3258 201.337Z" fill="#0F172B" stroke="url(#paint2_linear_4003_2079)" stroke-width="2.00678"/>
<path d="M324.803 322.348L324.702 322.307L324.734 322.294L324.724 322.293L619.418 200.127C627.594 218.375 632.909 238.22 636.189 253.608C637.855 261.422 638.995 268.077 639.718 272.777C640.079 275.127 640.336 276.988 640.503 278.26C640.586 278.895 640.647 279.384 640.686 279.713C640.706 279.877 640.721 280.002 640.731 280.085L640.741 280.178L640.744 280.201L640.745 280.207L640.745 280.208C640.745 280.208 640.745 280.208 641.742 280.097L640.745 280.208L640.748 280.235L640.752 280.262C647.357 319.981 641.598 363.51 641.485 364.36L641.485 364.362C641.275 365.964 635.608 408.362 619.411 444.484L324.803 322.348Z" fill="#0F172B" stroke="url(#paint3_linear_4003_2079)" stroke-width="2.00678"/>
<path d="M470.38 345.809L470.38 317.561L463.9 321.521L463.9 315.137L470.38 311.249L476.284 311.249L476.284 345.809L470.38 345.809ZM495.674 346.529C493.914 346.529 492.274 346.169 490.754 345.449C489.234 344.713 487.922 343.705 486.818 342.425C485.73 341.145 484.946 339.657 484.466 337.961L490.034 336.473C490.258 337.401 490.666 338.201 491.258 338.873C491.866 339.545 492.57 340.065 493.37 340.433C494.186 340.801 495.026 340.985 495.89 340.985C497.01 340.985 498.034 340.713 498.962 340.169C499.89 339.625 500.626 338.897 501.17 337.985C501.714 337.057 501.986 336.033 501.986 334.913C501.986 333.793 501.706 332.777 501.146 331.865C500.602 330.937 499.866 330.209 498.938 329.681C498.01 329.137 496.994 328.865 495.89 328.865C494.562 328.865 493.458 329.105 492.578 329.585C491.714 330.065 491.05 330.577 490.586 331.121L485.642 329.537L486.698 311.249L505.466 311.249L505.466 316.673L489.794 316.673L491.954 314.633L491.186 327.353L490.13 326.057C491.026 325.241 492.066 324.633 493.25 324.233C494.434 323.833 495.578 323.633 496.682 323.633C498.842 323.633 500.754 324.129 502.418 325.121C504.098 326.097 505.41 327.433 506.354 329.129C507.314 330.825 507.794 332.753 507.794 334.913C507.794 337.073 507.234 339.033 506.114 340.793C504.994 342.537 503.514 343.929 501.674 344.969C499.85 346.009 497.85 346.529 495.674 346.529ZM525.983 346.529C523.535 346.529 521.375 346.009 519.503 344.969C517.631 343.913 516.167 342.449 515.111 340.577C514.071 338.705 513.551 336.545 513.551 334.097L513.551 322.961C513.551 320.513 514.071 318.353 515.111 316.481C516.167 314.609 517.631 313.153 519.503 312.113C521.375 311.057 523.535 310.529 525.983 310.529C528.431 310.529 530.583 311.057 532.439 312.113C534.311 313.153 535.775 314.609 536.831 316.481C537.887 318.353 538.415 320.513 538.415 322.961L538.415 334.097C538.415 336.545 537.887 338.705 536.831 340.577C535.775 342.449 534.311 343.913 532.439 344.969C530.583 346.009 528.431 346.529 525.983 346.529ZM525.983 341.033C527.199 341.033 528.303 340.745 529.295 340.169C530.287 339.577 531.071 338.793 531.647 337.817C532.223 336.825 532.511 335.721 532.511 334.505L532.511 322.529C532.511 321.297 532.223 320.193 531.647 319.217C531.071 318.225 530.287 317.441 529.295 316.865C528.303 316.273 527.199 315.977 525.983 315.977C524.767 315.977 523.663 316.273 522.671 316.865C521.679 317.441 520.895 318.225 520.319 319.217C519.743 320.193 519.455 321.297 519.455 322.529L519.455 334.505C519.455 335.721 519.743 336.825 520.319 337.817C520.895 338.793 521.679 339.577 522.671 340.169C523.663 340.745 524.767 341.033 525.983 341.033ZM549.945 345.809L546.105 341.969L576.849 311.249L580.689 315.113L549.945 345.809ZM573.489 346.529C571.905 346.529 570.457 346.145 569.145 345.377C567.849 344.593 566.809 343.553 566.025 342.257C565.241 340.945 564.849 339.489 564.849 337.889C564.849 336.321 565.249 334.881 566.049 333.569C566.849 332.257 567.905 331.209 569.217 330.425C570.529 329.641 571.953 329.249 573.489 329.249C575.073 329.249 576.521 329.641 577.833 330.425C579.145 331.193 580.185 332.233 580.953 333.545C581.737 334.841 582.129 336.289 582.129 337.889C582.129 339.489 581.737 340.945 580.953 342.257C580.185 343.553 579.145 344.593 577.833 345.377C576.521 346.145 575.073 346.529 573.489 346.529ZM573.489 341.585C574.145 341.585 574.753 341.417 575.313 341.081C575.889 340.745 576.345 340.297 576.681 339.737C577.017 339.177 577.185 338.561 577.185 337.889C577.185 337.217 577.017 336.601 576.681 336.041C576.345 335.481 575.889 335.033 575.313 334.697C574.753 334.361 574.145 334.193 573.489 334.193C572.817 334.193 572.201 334.361 571.641 334.697C571.081 335.033 570.625 335.481 570.273 336.041C569.937 336.601 569.769 337.217 569.769 337.889C569.769 338.561 569.937 339.177 570.273 339.737C570.625 340.297 571.081 340.745 571.641 341.081C572.201 341.417 572.817 341.585 573.489 341.585ZM553.305 327.809C551.721 327.809 550.273 327.425 548.961 326.657C547.649 325.873 546.601 324.833 545.817 323.537C545.049 322.225 544.665 320.769 544.665 319.169C544.665 317.601 545.065 316.161 545.865 314.849C546.665 313.537 547.721 312.489 549.033 311.705C550.345 310.921 551.769 310.529 553.305 310.529C554.889 310.529 556.329 310.921 557.625 311.705C558.937 312.473 559.985 313.513 560.769 314.825C561.553 316.121 561.945 317.569 561.945 319.169C561.945 320.769 561.553 322.225 560.769 323.537C559.985 324.833 558.937 325.873 557.625 326.657C556.329 327.425 554.889 327.809 553.305 327.809ZM553.305 322.865C553.977 322.865 554.593 322.697 555.153 322.361C555.713 322.025 556.161 321.577 556.497 321.017C556.833 320.457 557.001 319.841 557.001 319.169C557.001 318.497 556.833 317.881 556.497 317.321C556.161 316.761 555.713 316.313 555.153 315.977C554.593 315.641 553.977 315.473 553.305 315.473C552.633 315.473 552.017 315.641 551.457 315.977C550.897 316.313 550.449 316.761 550.113 317.321C549.777 317.881 549.609 318.497 549.609 319.169C549.609 319.841 549.777 320.457 550.113 321.017C550.449 321.577 550.897 322.025 551.457 322.361C552.017 322.697 552.633 322.865 553.305 322.865Z" fill="white"/>
<path d="M426.033 461.894C424.684 460.764 423.659 459.434 422.957 457.906C422.266 456.366 421.908 454.751 421.886 453.062C421.875 451.382 422.231 449.739 422.954 448.132L428.178 450.57C427.753 451.425 427.551 452.299 427.572 453.194C427.606 454.1 427.811 454.95 428.187 455.746C428.576 456.552 429.101 457.233 429.763 457.788C430.622 458.507 431.581 458.957 432.642 459.137C433.703 459.316 434.735 459.232 435.739 458.883C436.752 458.521 437.619 457.912 438.34 457.054C439.06 456.197 439.499 455.239 439.656 454.181C439.836 453.12 439.74 452.09 439.369 451.089C439.007 450.077 438.404 449.216 437.558 448.506C436.54 447.653 435.54 447.127 434.557 446.93C433.586 446.742 432.748 446.708 432.042 446.826L429.273 442.437L441.842 429.11L456.224 441.168L452.736 445.322L440.727 435.253L443.694 435.079L434.925 444.326L434.95 442.655C436.161 442.606 437.349 442.808 438.513 443.263C439.678 443.717 440.683 444.299 441.529 445.008C443.184 446.396 444.331 448.004 444.968 449.833C445.627 451.66 445.774 453.526 445.406 455.431C445.051 457.347 444.179 459.132 442.79 460.786C441.401 462.44 439.712 463.581 437.721 464.209C435.742 464.825 433.712 464.941 431.634 464.555C429.567 464.179 427.7 463.293 426.033 461.894ZM449.258 481.368C447.382 479.795 446.062 478.009 445.296 476.01C444.54 473.998 444.36 471.937 444.755 469.825C445.162 467.723 446.152 465.735 447.726 463.86L454.888 455.332C456.462 453.457 458.25 452.137 460.25 451.372C462.264 450.617 464.322 450.442 466.425 450.849C468.539 451.243 470.533 452.226 472.409 453.799C474.285 455.372 475.595 457.159 476.338 459.16C477.103 461.159 477.289 463.215 476.894 465.327C476.5 467.439 475.515 469.432 473.941 471.307L466.78 479.835C465.205 481.709 463.412 483.024 461.399 483.779C459.386 484.535 457.322 484.715 455.209 484.321C453.118 483.925 451.134 482.941 449.258 481.368ZM452.793 477.159C453.724 477.94 454.756 478.429 455.886 478.625C457.027 478.809 458.132 478.713 459.201 478.335C460.28 477.946 461.211 477.285 461.993 476.354L469.695 467.183C470.487 466.239 470.976 465.209 471.162 464.091C471.359 462.962 471.262 461.858 470.873 460.779C470.493 459.688 469.838 458.752 468.906 457.971C467.974 457.19 466.938 456.707 465.797 456.523C464.666 456.327 463.561 456.424 462.482 456.813C461.413 457.191 460.482 457.851 459.69 458.794L451.988 467.966C451.206 468.897 450.717 469.927 450.52 471.057C450.334 472.175 450.431 473.279 450.81 474.369C451.2 475.448 451.861 476.378 452.793 477.159ZM468.083 496.212L467.61 490.804L510.924 487.031L511.382 492.458L468.083 496.212ZM485.662 511.89C484.448 510.872 483.585 509.648 483.074 508.217C482.585 506.784 482.457 505.319 482.689 503.823C482.932 502.314 483.568 500.947 484.597 499.722C485.605 498.521 486.838 497.676 488.295 497.185C489.751 496.694 491.235 496.57 492.744 496.813C494.254 497.055 495.597 497.67 496.774 498.657C497.988 499.675 498.845 500.905 499.347 502.348C499.858 503.78 499.986 505.244 499.731 506.742C499.498 508.238 498.867 509.599 497.839 510.824C496.81 512.05 495.573 512.913 494.128 513.414C492.706 513.913 491.241 514.041 489.731 513.799C488.232 513.544 486.875 512.908 485.662 511.89ZM488.841 508.104C489.344 508.525 489.918 508.787 490.563 508.89C491.22 509.002 491.858 508.952 492.475 508.739C493.093 508.526 493.618 508.163 494.05 507.648C494.482 507.133 494.75 506.554 494.852 505.909C494.955 505.264 494.894 504.628 494.668 504.001C494.455 503.384 494.097 502.864 493.595 502.443C493.08 502.011 492.5 501.744 491.854 501.642C491.209 501.539 490.572 501.589 489.942 501.792C489.324 502.005 488.799 502.369 488.367 502.883C487.935 503.398 487.668 503.978 487.565 504.622C487.475 505.277 487.536 505.913 487.749 506.53C487.962 507.148 488.326 507.672 488.841 508.104ZM482.233 484.586C481.019 483.568 480.157 482.344 479.645 480.913C479.144 479.47 479.01 478 479.242 476.504C479.498 475.005 480.14 473.644 481.169 472.418C482.177 471.218 483.41 470.372 484.866 469.881C486.323 469.39 487.806 469.266 489.316 469.509C490.825 469.752 492.169 470.366 493.346 471.353C494.559 472.371 495.411 473.596 495.9 475.029C496.411 476.46 496.546 477.93 496.303 479.439C496.07 480.935 495.439 482.295 494.41 483.521C493.381 484.746 492.145 485.609 490.7 486.11C489.266 486.599 487.794 486.722 486.284 486.479C484.797 486.235 483.447 485.604 482.233 484.586ZM485.413 480.8C485.928 481.232 486.508 481.499 487.153 481.601C487.798 481.704 488.429 481.649 489.047 481.436C489.665 481.223 490.19 480.859 490.622 480.344C491.054 479.83 491.321 479.25 491.424 478.605C491.527 477.96 491.471 477.33 491.258 476.712C491.045 476.095 490.681 475.571 490.166 475.139C489.651 474.707 489.071 474.44 488.426 474.338C487.781 474.235 487.149 474.291 486.532 474.504C485.914 474.717 485.389 475.08 484.957 475.595C484.525 476.11 484.258 476.689 484.155 477.334C484.052 477.979 484.108 478.61 484.321 479.227C484.534 479.844 484.898 480.368 485.413 480.8Z" fill="white"/>
<path d="M219.592 182.139L199.61 202.106L206.995 203.887L202.479 208.4L195.145 206.568L190.969 202.394L215.416 177.966L219.592 182.139ZM202.208 163.751C203.453 164.995 204.359 166.409 204.925 167.992C205.479 169.587 205.694 171.227 205.57 172.912C205.434 174.586 204.936 176.192 204.076 177.73L199.085 174.846C199.583 174.032 199.86 173.178 199.916 172.284C199.962 171.379 199.832 170.514 199.526 169.689C199.209 168.852 198.745 168.128 198.134 167.517C197.342 166.726 196.425 166.194 195.383 165.923C194.342 165.651 193.307 165.646 192.277 165.906C191.235 166.177 190.319 166.709 189.526 167.5C188.734 168.292 188.213 169.208 187.964 170.249C187.693 171.289 187.698 172.324 187.981 173.353C188.253 174.393 188.779 175.304 189.56 176.084C190.5 177.023 191.45 177.634 192.412 177.916C193.363 178.188 194.195 178.295 194.908 178.239L197.285 182.853L183.601 195.033L170.325 181.767L174.162 177.933L185.248 189.011L182.277 188.926L191.818 180.478L191.648 182.14C190.437 182.084 189.272 181.778 188.151 181.224C187.031 180.67 186.08 180.003 185.299 179.222C183.771 177.696 182.769 175.994 182.294 174.116C181.796 172.239 181.813 170.367 182.345 168.501C182.866 166.624 183.89 164.922 185.418 163.395C186.946 161.868 188.728 160.879 190.766 160.426C192.792 159.985 194.823 160.048 196.861 160.613C198.886 161.167 200.669 162.213 202.208 163.751ZM185.658 148.232L185.658 153.66L142.179 153.643L142.196 148.198L185.658 148.232ZM169.512 131.081C170.633 132.201 171.385 133.496 171.77 134.966C172.132 136.436 172.132 137.906 171.77 139.376C171.397 140.858 170.644 142.164 169.512 143.295C168.403 144.403 167.102 145.138 165.608 145.5C164.114 145.862 162.625 145.857 161.143 145.483C159.66 145.11 158.375 144.381 157.289 143.295C156.168 142.175 155.421 140.875 155.048 139.393C154.663 137.923 154.663 136.453 155.048 134.983C155.41 133.512 156.157 132.212 157.289 131.081C158.421 129.95 159.728 129.198 161.21 128.825C162.671 128.452 164.142 128.452 165.625 128.825C167.096 129.209 168.392 129.961 169.512 131.081ZM166.015 134.576C165.551 134.112 165.002 133.801 164.368 133.643C163.723 133.473 163.084 133.467 162.45 133.626C161.816 133.784 161.261 134.101 160.786 134.576C160.311 135.051 159.994 135.605 159.835 136.238C159.677 136.871 159.683 137.51 159.852 138.155C160.011 138.788 160.322 139.337 160.786 139.8C161.261 140.275 161.816 140.592 162.45 140.75C163.084 140.909 163.723 140.914 164.368 140.767C165.002 140.609 165.557 140.292 166.032 139.817C166.507 139.342 166.824 138.788 166.983 138.155C167.13 137.51 167.124 136.871 166.966 136.238C166.807 135.605 166.49 135.051 166.015 134.576ZM170.548 158.58C171.668 159.699 172.421 160.994 172.806 162.464C173.179 163.946 173.185 165.422 172.823 166.892C172.438 168.362 171.68 169.663 170.548 170.794C169.439 171.902 168.137 172.637 166.643 172.999C165.149 173.361 163.661 173.355 162.178 172.982C160.696 172.609 159.411 171.879 158.324 170.794C157.204 169.674 156.463 168.379 156.1 166.909C155.716 165.439 155.71 163.963 156.083 162.481C156.446 161.011 157.193 159.71 158.324 158.58C159.456 157.449 160.763 156.697 162.246 156.323C163.717 155.961 165.194 155.967 166.677 156.34C168.137 156.713 169.427 157.46 170.548 158.58ZM167.051 162.074C166.575 161.599 166.021 161.282 165.387 161.124C164.753 160.966 164.119 160.966 163.485 161.124C162.852 161.282 162.297 161.599 161.822 162.074C161.346 162.549 161.029 163.103 160.871 163.737C160.712 164.37 160.712 165.003 160.871 165.636C161.029 166.27 161.346 166.824 161.822 167.299C162.297 167.774 162.852 168.091 163.485 168.249C164.119 168.407 164.753 168.407 165.387 168.249C166.021 168.091 166.575 167.774 167.051 167.299C167.526 166.824 167.843 166.27 168.001 165.636C168.16 165.003 168.16 164.37 168.001 163.737C167.843 163.103 167.526 162.549 167.051 162.074Z" fill="white"/>
<path d="M198.632 414.188L216.798 435.82L219.217 428.624L223.322 433.513L220.857 440.654L216.333 444.447L194.108 417.981L198.632 414.188ZM177.112 431.291C178.988 429.718 180.977 428.729 183.081 428.322C185.194 427.928 187.258 428.109 189.271 428.864C191.272 429.629 193.059 430.949 194.633 432.824L201.795 441.352C203.369 443.227 204.36 445.215 204.766 447.317C205.161 449.429 204.976 451.484 204.21 453.483C203.454 455.495 202.139 457.287 200.263 458.86C198.387 460.433 196.398 461.411 194.297 461.795C192.194 462.201 190.136 462.027 188.123 461.272C186.11 460.516 184.316 459.202 182.742 457.327L175.58 448.799C174.006 446.924 173.021 444.931 172.627 442.819C172.232 440.707 172.413 438.645 173.168 436.634C173.921 434.645 175.236 432.864 177.112 431.291ZM180.646 435.5C179.715 436.281 179.054 437.211 178.664 438.29C178.285 439.38 178.188 440.484 178.374 441.602C178.571 442.732 179.06 443.762 179.842 444.693L187.544 453.864C188.336 454.808 189.267 455.468 190.336 455.846C191.415 456.235 192.52 456.332 193.65 456.136C194.791 455.952 195.828 455.469 196.759 454.688C197.691 453.907 198.347 452.971 198.726 451.88C199.116 450.801 199.213 449.697 199.016 448.568C198.83 447.45 198.341 446.42 197.548 445.476L189.847 436.305C189.065 435.374 188.134 434.713 187.055 434.324C185.986 433.946 184.881 433.85 183.74 434.034C182.609 434.23 181.578 434.719 180.646 435.5ZM152.902 451.59C154.778 450.017 156.767 449.028 158.871 448.621C160.984 448.227 163.048 448.408 165.061 449.163C167.061 449.928 168.849 451.248 170.423 453.123L177.585 461.651C179.159 463.525 180.149 465.514 180.556 467.615C180.951 469.727 180.766 471.783 180 473.782C179.244 475.794 177.929 477.586 176.053 479.159C174.177 480.731 172.188 481.71 170.087 482.094C167.984 482.5 165.926 482.325 163.913 481.57C161.899 480.815 160.106 479.5 158.532 477.626L151.37 469.098C149.796 467.223 148.811 465.23 148.417 463.118C148.022 461.006 148.203 458.944 148.958 456.932C149.711 454.944 151.026 453.163 152.902 451.59ZM156.436 455.799C155.504 456.58 154.844 457.51 154.454 458.588C154.074 459.679 153.978 460.783 154.164 461.901C154.361 463.03 154.85 464.061 155.632 464.992L163.334 474.163C164.126 475.107 165.056 475.767 166.126 476.144C167.205 476.534 168.31 476.631 169.44 476.434C170.581 476.25 171.618 475.768 172.549 474.987C173.481 474.205 174.137 473.269 174.516 472.179C174.906 471.1 175.003 469.996 174.806 468.866C174.62 467.749 174.131 466.718 173.338 465.775L165.637 456.604C164.855 455.672 163.924 455.012 162.845 454.622C161.776 454.245 160.671 454.148 159.53 454.332C158.399 454.529 157.368 455.017 156.436 455.799ZM135.003 467.537L140.415 468.01L136.612 511.288L131.184 510.796L135.003 467.537ZM116.499 482.112C117.712 481.094 119.069 480.458 120.568 480.203C122.066 479.971 123.531 480.099 124.965 480.588C126.41 481.089 127.647 481.952 128.676 483.177C129.684 484.378 130.303 485.738 130.534 487.257C130.765 488.775 130.63 490.256 130.128 491.7C129.627 493.143 128.788 494.358 127.611 495.345C126.397 496.363 125.036 496.993 123.526 497.235C122.027 497.49 120.561 497.362 119.129 496.851C117.695 496.362 116.463 495.505 115.434 494.28C114.405 493.054 113.769 491.687 113.526 490.179C113.281 488.693 113.409 487.229 113.911 485.785C114.422 484.354 115.285 483.13 116.499 482.112ZM119.678 485.898C119.175 486.32 118.817 486.839 118.604 487.456C118.379 488.083 118.318 488.719 118.42 489.364C118.523 490.009 118.79 490.589 119.223 491.103C119.655 491.618 120.18 491.982 120.797 492.195C121.415 492.407 122.052 492.458 122.71 492.345C123.355 492.242 123.929 491.98 124.432 491.559C124.947 491.127 125.311 490.603 125.524 489.986C125.737 489.368 125.798 488.732 125.708 488.077C125.605 487.433 125.338 486.853 124.905 486.338C124.473 485.824 123.948 485.46 123.331 485.247C122.701 485.044 122.063 484.994 121.418 485.097C120.773 485.199 120.193 485.466 119.678 485.898ZM144.004 483.48C145.218 482.462 146.574 481.826 148.074 481.571C149.583 481.328 151.055 481.451 152.489 481.94C153.921 482.451 155.152 483.32 156.181 484.545C157.189 485.746 157.809 487.106 158.04 488.624C158.27 490.143 158.135 491.624 157.634 493.067C157.133 494.511 156.293 495.726 155.116 496.713C153.903 497.73 152.547 498.355 151.05 498.588C149.551 498.842 148.079 498.719 146.634 498.218C145.2 497.73 143.968 496.873 142.939 495.647C141.911 494.422 141.275 493.055 141.032 491.547C140.799 490.051 140.933 488.581 141.434 487.137C141.934 485.717 142.79 484.497 144.004 483.48ZM147.183 487.266C146.668 487.697 146.304 488.222 146.091 488.839C145.878 489.456 145.823 490.087 145.926 490.732C146.028 491.376 146.296 491.956 146.728 492.471C147.16 492.985 147.685 493.349 148.303 493.562C148.92 493.775 149.552 493.83 150.197 493.728C150.842 493.625 151.422 493.358 151.937 492.927C152.452 492.495 152.816 491.97 153.029 491.353C153.242 490.736 153.297 490.105 153.195 489.46C153.092 488.816 152.825 488.236 152.392 487.721C151.96 487.207 151.435 486.843 150.818 486.63C150.2 486.417 149.569 486.362 148.924 486.464C148.278 486.567 147.698 486.834 147.183 487.266Z" fill="white"/>
<path d="M444.332 235.702L424.35 215.735L422.568 223.115L418.052 218.602L419.885 211.274L424.062 207.101L448.509 231.529L444.332 235.702ZM464.28 216.788C462.548 218.518 460.652 219.677 458.593 220.266C456.521 220.842 454.45 220.842 452.379 220.266C450.319 219.677 448.423 218.518 446.691 216.788L438.814 208.917C437.082 207.186 435.922 205.292 435.334 203.234C434.757 201.164 434.762 199.1 435.351 197.042C435.928 194.972 437.082 193.072 438.814 191.342C440.546 189.612 442.442 188.464 444.501 187.898C446.561 187.31 448.627 187.305 450.698 187.881C452.769 188.458 454.671 189.612 456.402 191.342L464.28 199.213C466.012 200.944 467.166 202.844 467.743 204.913C468.32 206.983 468.32 209.052 467.743 211.122C467.166 213.169 466.012 215.058 464.28 216.788ZM460.392 212.903C461.252 212.044 461.829 211.06 462.124 209.951C462.407 208.832 462.407 207.724 462.124 206.627C461.829 205.518 461.252 204.534 460.392 203.675L451.92 195.21C451.049 194.339 450.064 193.762 448.966 193.48C447.857 193.185 446.748 193.185 445.639 193.48C444.518 193.762 443.528 194.333 442.668 195.193C441.808 196.052 441.236 197.042 440.953 198.162C440.659 199.27 440.659 200.378 440.953 201.487C441.236 202.584 441.813 203.567 442.685 204.438L451.156 212.903C452.017 213.763 453.001 214.339 454.111 214.634C455.208 214.916 456.318 214.916 457.438 214.634C458.547 214.339 459.532 213.763 460.392 212.903ZM486.629 194.457C484.897 196.187 483.001 197.346 480.941 197.934C478.87 198.511 476.799 198.511 474.728 197.934C472.668 197.346 470.772 196.187 469.04 194.457L461.163 186.585C459.431 184.855 458.271 182.961 457.683 180.902C457.105 178.833 457.111 176.769 457.7 174.711C458.277 172.641 459.431 170.741 461.163 169.011C462.895 167.28 464.79 166.132 466.85 165.567C468.91 164.979 470.976 164.973 473.047 165.55C475.118 166.127 477.02 167.28 478.751 169.011L486.629 176.882C488.36 178.612 489.515 180.512 490.092 182.582C490.669 184.651 490.669 186.721 490.092 188.791C489.515 190.838 488.36 192.726 486.629 194.457ZM482.741 190.572C483.601 189.712 484.178 188.728 484.473 187.62C484.756 186.5 484.756 185.392 484.473 184.295C484.178 183.187 483.601 182.203 482.741 181.343L474.269 172.878C473.398 172.008 472.413 171.431 471.315 171.148C470.206 170.854 469.097 170.854 467.988 171.148C466.867 171.431 465.877 172.002 465.017 172.861C464.157 173.721 463.585 174.711 463.302 175.83C463.008 176.938 463.008 178.047 463.302 179.155C463.585 180.252 464.162 181.236 465.034 182.107L473.505 190.572C474.366 191.431 475.35 192.008 476.459 192.302C477.557 192.585 478.666 192.585 479.787 192.302C480.896 192.008 481.881 191.431 482.741 190.572ZM503.07 177.011L497.637 177.011L497.654 133.566L503.104 133.583L503.07 177.011ZM520.234 160.878C519.113 161.998 517.817 162.75 516.346 163.134C514.874 163.496 513.403 163.496 511.932 163.134C510.449 162.761 509.142 162.009 508.01 160.878C506.901 159.77 506.165 158.469 505.803 156.976C505.441 155.484 505.446 153.996 505.82 152.515C506.193 151.033 506.923 149.75 508.01 148.664C509.13 147.544 510.432 146.798 511.915 146.425C513.386 146.04 514.857 146.04 516.329 146.425C517.8 146.787 519.102 147.533 520.234 148.664C521.365 149.795 522.118 151.101 522.492 152.583C522.865 154.042 522.865 155.512 522.492 156.993C522.107 158.464 521.354 159.758 520.234 160.878ZM516.736 157.384C517.2 156.92 517.512 156.371 517.67 155.738C517.84 155.093 517.845 154.454 517.687 153.821C517.529 153.188 517.212 152.634 516.736 152.159C516.261 151.684 515.706 151.367 515.073 151.209C514.439 151.05 513.799 151.056 513.154 151.226C512.52 151.384 511.971 151.695 511.507 152.159C511.032 152.634 510.715 153.188 510.557 153.821C510.398 154.454 510.392 155.093 510.54 155.738C510.698 156.371 511.015 156.925 511.49 157.4C511.966 157.875 512.52 158.192 513.154 158.35C513.799 158.497 514.439 158.492 515.073 158.333C515.706 158.175 516.261 157.859 516.736 157.384ZM492.714 161.913C491.593 163.032 490.297 163.785 488.826 164.169C487.343 164.542 485.866 164.548 484.395 164.186C482.923 163.802 481.622 163.044 480.49 161.913C479.381 160.805 478.645 159.504 478.283 158.011C477.921 156.518 477.926 155.031 478.3 153.55C478.673 152.068 479.403 150.785 480.49 149.699C481.61 148.579 482.906 147.838 484.378 147.477C485.849 147.092 487.326 147.086 488.809 147.46C490.28 147.822 491.582 148.568 492.714 149.699C493.845 150.83 494.598 152.136 494.971 153.618C495.334 155.088 495.328 156.564 494.955 158.045C494.581 159.504 493.834 160.793 492.714 161.913ZM489.216 158.418C489.692 157.943 490.008 157.389 490.167 156.756C490.325 156.123 490.325 155.489 490.167 154.856C490.008 154.223 489.692 153.668 489.216 153.193C488.741 152.718 488.186 152.402 487.552 152.243C486.919 152.085 486.285 152.085 485.651 152.243C485.017 152.402 484.463 152.718 483.987 153.193C483.512 153.668 483.195 154.223 483.037 154.856C482.878 155.489 482.878 156.123 483.037 156.756C483.195 157.389 483.512 157.943 483.987 158.418C484.463 158.893 485.017 159.21 485.651 159.368C486.285 159.527 486.919 159.527 487.552 159.368C488.186 159.21 488.741 158.893 489.216 158.418Z" fill="white"/>
<path d="M340.085 157.354C340.085 159.642 339.621 161.674 338.693 163.45C337.765 165.226 336.477 166.618 334.829 167.626C333.181 168.634 331.293 169.138 329.165 169.138C327.261 169.138 325.493 168.698 323.861 167.818C322.229 166.938 320.925 165.65 319.949 163.954L321.797 164.074C320.789 165.402 319.629 166.434 318.317 167.17C316.989 167.89 315.501 168.25 313.853 168.25C311.869 168.25 310.149 167.786 308.693 166.858C307.237 165.914 306.109 164.626 305.309 162.994C304.493 161.362 304.085 159.482 304.085 157.354C304.085 155.226 304.493 153.346 305.309 151.714C306.109 150.066 307.237 148.778 308.693 147.85C310.149 146.906 311.869 146.434 313.853 146.434C315.501 146.434 316.981 146.786 318.293 147.49C319.605 148.178 320.789 149.226 321.845 150.634L319.973 150.658C320.917 148.994 322.213 147.722 323.861 146.842C325.493 145.946 327.261 145.498 329.165 145.498C331.293 145.498 333.181 146.01 334.829 147.034C336.477 148.042 337.765 149.442 338.693 151.234C339.621 153.01 340.085 155.05 340.085 157.354ZM334.637 157.354C334.637 155.658 334.173 154.282 333.245 153.226C332.317 152.154 330.957 151.618 329.165 151.618C327.373 151.618 326.013 152.146 325.085 153.202C324.141 154.258 323.669 155.642 323.669 157.354C323.669 159.05 324.141 160.418 325.085 161.458C326.013 162.498 327.373 163.018 329.165 163.018C330.957 163.018 332.317 162.498 333.245 161.458C334.173 160.418 334.637 159.05 334.637 157.354ZM318.173 157.354C318.173 155.93 317.821 154.778 317.117 153.898C316.397 153.002 315.309 152.554 313.853 152.554C312.397 152.554 311.317 153.002 310.613 153.898C309.893 154.778 309.533 155.93 309.533 157.354C309.533 158.762 309.893 159.914 310.613 160.81C311.317 161.69 312.397 162.13 313.853 162.13C315.309 162.13 316.397 161.69 317.117 160.81C317.821 159.914 318.173 158.762 318.173 157.354ZM340.085 126.835C340.085 129.283 339.565 131.443 338.525 133.315C337.469 135.187 336.005 136.651 334.133 137.707C332.261 138.747 330.101 139.267 327.653 139.267L316.517 139.267C314.069 139.267 311.909 138.747 310.037 137.707C308.165 136.651 306.709 135.187 305.669 133.315C304.613 131.443 304.085 129.283 304.085 126.835C304.085 124.387 304.613 122.235 305.669 120.379C306.709 118.507 308.165 117.043 310.037 115.987C311.909 114.931 314.069 114.403 316.517 114.403L327.653 114.403C330.101 114.403 332.261 114.931 334.133 115.987C336.005 117.043 337.469 118.507 338.525 120.379C339.565 122.235 340.085 124.387 340.085 126.835ZM334.589 126.835C334.589 125.619 334.301 124.515 333.725 123.523C333.133 122.531 332.349 121.747 331.373 121.171C330.381 120.595 329.277 120.307 328.061 120.307L316.085 120.307C314.853 120.307 313.749 120.595 312.773 121.171C311.781 121.747 310.997 122.531 310.421 123.523C309.829 124.515 309.533 125.619 309.533 126.835C309.533 128.051 309.829 129.155 310.421 130.147C310.997 131.139 311.781 131.923 312.773 132.499C313.749 133.075 314.853 133.363 316.085 133.363L328.061 133.363C329.277 133.363 330.381 133.075 331.373 132.499C332.349 131.923 333.133 131.139 333.725 130.147C334.301 129.155 334.589 128.051 334.589 126.835ZM339.365 102.873L335.525 106.713L304.805 75.9692L308.669 72.1292L339.365 102.873ZM340.085 79.3292C340.085 80.9132 339.701 82.3612 338.933 83.6732C338.149 84.9692 337.109 86.0092 335.813 86.7932C334.501 87.5772 333.045 87.9692 331.445 87.9692C329.877 87.9692 328.437 87.5692 327.125 86.7692C325.813 85.9692 324.765 84.9132 323.981 83.6012C323.197 82.2892 322.805 80.8652 322.805 79.3292C322.805 77.7452 323.197 76.2972 323.981 74.9852C324.749 73.6732 325.789 72.6332 327.101 71.8652C328.397 71.0812 329.845 70.6892 331.445 70.6892C333.045 70.6892 334.501 71.0812 335.813 71.8652C337.109 72.6332 338.149 73.6732 338.933 74.9852C339.701 76.2972 340.085 77.7452 340.085 79.3292ZM335.141 79.3292C335.141 78.6732 334.973 78.0652 334.637 77.5052C334.301 76.9292 333.853 76.4732 333.293 76.1372C332.733 75.8012 332.117 75.6332 331.445 75.6332C330.773 75.6332 330.157 75.8012 329.597 76.1372C329.037 76.4732 328.589 76.9292 328.253 77.5052C327.917 78.0652 327.749 78.6732 327.749 79.3292C327.749 80.0012 327.917 80.6172 328.253 81.1772C328.589 81.7372 329.037 82.1932 329.597 82.5452C330.157 82.8812 330.773 83.0492 331.445 83.0492C332.117 83.0492 332.733 82.8812 333.293 82.5452C333.853 82.1932 334.301 81.7372 334.637 81.1772C334.973 80.6172 335.141 80.0012 335.141 79.3292ZM321.365 99.5132C321.365 101.097 320.981 102.545 320.213 103.857C319.429 105.169 318.389 106.217 317.093 107.001C315.781 107.769 314.325 108.153 312.725 108.153C311.157 108.153 309.717 107.753 308.405 106.953C307.093 106.153 306.045 105.097 305.261 103.785C304.477 102.473 304.085 101.049 304.085 99.5132C304.085 97.9292 304.477 96.4892 305.261 95.1932C306.029 93.8812 307.069 92.8332 308.381 92.0492C309.677 91.2652 311.125 90.8732 312.725 90.8732C314.325 90.8732 315.781 91.2652 317.093 92.0492C318.389 92.8332 319.429 93.8812 320.213 95.1932C320.981 96.4892 321.365 97.9292 321.365 99.5132ZM316.421 99.5132C316.421 98.8412 316.253 98.2252 315.917 97.6652C315.581 97.1052 315.133 96.6572 314.573 96.3212C314.013 95.9852 313.397 95.8172 312.725 95.8172C312.053 95.8172 311.437 95.9852 310.877 96.3212C310.317 96.6572 309.869 97.1052 309.533 97.6652C309.197 98.2252 309.029 98.8412 309.029 99.5132C309.029 100.185 309.197 100.801 309.533 101.361C309.869 101.921 310.317 102.369 310.877 102.705C311.437 103.041 312.053 103.209 312.725 103.209C313.397 103.209 314.013 103.041 314.573 102.705C315.133 102.369 315.581 101.921 315.917 101.361C316.253 100.801 316.421 100.185 316.421 99.5132Z" fill="white"/>
<path d="M137.293 333.335C139.189 333.356 140.895 333.706 142.411 334.383C143.915 335.06 145.153 336.016 146.123 337.252C147.08 338.499 147.682 339.97 147.926 341.664L143.419 342.297C143.052 340.757 142.28 339.56 141.102 338.706C139.911 337.853 138.536 337.417 136.976 337.399C136.052 337.389 135.181 337.523 134.362 337.801C133.542 338.08 132.878 338.493 132.367 339.039C131.845 339.585 131.579 340.26 131.57 341.064C131.566 341.424 131.622 341.754 131.739 342.056C131.855 342.369 132.032 342.647 132.269 342.89C132.495 343.132 132.792 343.352 133.162 343.548C133.52 343.756 133.938 343.935 134.416 344.084L141.089 346.141C141.663 346.315 142.284 346.544 142.953 346.828C143.61 347.124 144.235 347.521 144.83 348.02C145.412 348.53 145.891 349.172 146.266 349.944C146.629 350.728 146.804 351.69 146.791 352.83C146.772 354.498 146.336 355.891 145.483 357.01C144.618 358.14 143.468 358.979 142.034 359.526C140.588 360.074 138.989 360.332 137.237 360.3C135.461 360.267 133.881 359.943 132.496 359.328C131.111 358.724 129.956 357.852 129.033 356.714C128.11 355.575 127.466 354.206 127.1 352.605L131.771 351.849C131.953 352.763 132.316 353.541 132.861 354.183C133.393 354.837 134.053 355.337 134.842 355.682C135.618 356.027 136.45 356.216 137.337 356.251C138.201 356.272 139.006 356.15 139.754 355.882C140.489 355.626 141.087 355.249 141.549 354.751C141.998 354.252 142.227 353.666 142.235 352.994C142.242 352.358 142.056 351.834 141.677 351.422C141.297 351.021 140.827 350.698 140.266 350.452C139.692 350.217 139.112 350.018 138.526 349.856L133.897 348.507C133.263 348.332 132.552 348.095 131.763 347.798C130.975 347.501 130.217 347.091 129.491 346.566C128.765 346.042 128.173 345.357 127.715 344.512C127.244 343.667 127.016 342.596 127.031 341.3C127.047 339.956 127.342 338.777 127.918 337.764C128.481 336.762 129.241 335.931 130.196 335.27C131.152 334.609 132.243 334.117 133.471 333.795C134.687 333.473 135.961 333.319 137.293 333.335ZM123.221 333.714L122.926 359.632L106.187 359.441L106.233 355.374L118.634 355.515L118.707 349.125L108.466 349.009L108.512 344.941L118.754 345.058L118.837 337.732L106.436 337.591L106.482 333.523L123.221 333.714ZM102.164 333.474L101.868 359.392L97.9626 359.347L89.2087 340.886L80.0357 359.143L76.13 359.098L76.4258 333.18L80.4755 333.226L80.2859 349.839L88.431 333.317L90.1589 333.337L97.9068 350.04L98.0964 333.427L102.164 333.474ZM171.678 285.264L171.382 311.182L161.105 311.065C159.353 311.045 157.923 310.675 156.815 309.954C155.695 309.245 154.871 308.342 154.344 307.243C153.804 306.145 153.541 305.014 153.555 303.85C153.571 302.422 153.927 301.214 154.622 300.226C155.305 299.238 156.231 298.576 157.399 298.242L157.389 299.142C155.761 298.751 154.534 297.963 153.707 296.778C152.869 295.592 152.458 294.249 152.475 292.749C152.493 291.213 152.802 289.873 153.403 288.728C154.004 287.582 154.89 286.692 156.062 286.058C157.221 285.423 158.653 285.115 160.357 285.135L171.678 285.264ZM167.24 289.299L160.85 289.227C160.094 289.218 159.414 289.36 158.811 289.653C158.207 289.958 157.735 290.385 157.392 290.933C157.038 291.493 156.856 292.157 156.847 292.925C156.84 293.621 156.982 294.247 157.276 294.802C157.57 295.358 158.003 295.8 158.575 296.131C159.147 296.474 159.835 296.649 160.639 296.659L167.155 296.733L167.24 289.299ZM167.108 300.783L161.277 300.716C160.653 300.709 160.094 300.823 159.599 301.057C159.104 301.291 158.71 301.641 158.417 302.106C158.123 302.57 157.973 303.145 157.965 303.829C157.955 304.729 158.234 305.482 158.803 306.088C159.372 306.695 160.173 307.004 161.205 307.016L167.037 307.082L167.108 300.783ZM144.465 313.665L139.487 319.279L135.851 319.237L131.002 313.511L135.052 313.558L137.697 316.792L140.415 313.619L144.465 313.665ZM138.013 284.34C140.605 284.369 142.819 284.958 144.654 286.107C146.488 287.269 147.892 288.869 148.865 290.908C149.826 292.947 150.291 295.304 150.26 297.98C150.23 300.656 149.711 303.002 148.704 305.019C147.685 307.035 146.245 308.597 144.384 309.704C142.523 310.823 140.297 311.367 137.705 311.338C135.113 311.308 132.9 310.713 131.065 309.552C129.218 308.403 127.814 306.809 126.853 304.77C125.881 302.73 125.409 300.373 125.44 297.697C125.471 295.021 125.995 292.675 127.014 290.658C128.022 288.642 129.462 287.074 131.334 285.955C133.195 284.849 135.421 284.31 138.013 284.34ZM137.967 288.425C136.227 288.393 134.777 288.761 133.616 289.528C132.443 290.294 131.56 291.382 130.968 292.792C130.364 294.201 130.051 295.853 130.03 297.749C130.008 299.645 130.283 301.292 130.855 302.691C131.415 304.102 132.273 305.203 133.428 305.997C134.571 306.79 136.012 307.208 137.752 307.252C139.492 307.284 140.942 306.916 142.103 306.15C143.263 305.383 144.146 304.295 144.75 302.886C145.342 301.476 145.649 299.824 145.671 297.928C145.692 296.032 145.423 294.379 144.863 292.968C144.303 291.57 143.452 290.474 142.309 289.681C141.154 288.888 139.706 288.469 137.967 288.425ZM122.005 284.697L121.709 310.615L117.318 310.565L105.503 292.159L105.295 310.428L100.903 310.378L101.199 284.459L105.59 284.51L117.405 302.916L117.614 284.647L122.005 284.697ZM85.734 283.743C87.7979 283.766 89.611 284.207 91.1733 285.065C92.7236 285.923 93.934 287.119 94.8046 288.653C95.6631 290.187 96.0807 291.98 96.0572 294.031L95.8717 310.284L91.4796 310.27L91.6643 294.089C91.6754 293.117 91.5233 292.246 91.2081 291.474C90.8809 290.702 90.4384 290.043 89.8806 289.497C89.3227 288.962 88.6793 288.553 87.9505 288.268C87.2217 287.984 86.4673 287.838 85.6874 287.829C84.8834 287.819 84.1199 287.949 83.3968 288.217C82.6615 288.496 82.0089 288.897 81.4389 289.418C80.8688 289.952 80.4174 290.601 80.0846 291.365C79.7519 292.129 79.58 292.991 79.5691 293.951L79.3844 310.132L74.9927 310.082L75.1786 293.793C75.202 291.741 75.6664 289.958 76.5717 288.445C77.4651 286.931 78.7025 285.763 80.284 284.941C81.8535 284.119 83.6701 283.719 85.734 283.743ZM61.7612 283.469C63.6571 283.491 65.3632 283.84 66.8796 284.518C68.384 285.195 69.6211 286.151 70.5911 287.386C71.5489 288.633 72.1502 290.104 72.3949 291.799L67.8874 292.432C67.5209 290.891 66.7485 289.695 65.5702 288.841C64.3799 287.987 63.0047 287.552 61.4448 287.534C60.5209 287.523 59.6493 287.657 58.8301 287.936C58.0108 288.215 57.3461 288.627 56.8358 289.173C56.3136 289.72 56.0478 290.395 56.0387 291.198C56.0346 291.558 56.0908 291.889 56.2073 292.19C56.3238 292.504 56.5006 292.782 56.7379 293.025C56.9631 293.267 57.2606 293.487 57.6304 293.683C57.9881 293.891 58.406 294.07 58.8844 294.219L65.5573 296.275C66.1314 296.45 66.7528 296.679 67.4216 296.963C68.0783 297.258 68.7038 297.655 69.2981 298.154C69.8803 298.665 70.3591 299.306 70.7343 300.079C71.0973 300.863 71.2724 301.825 71.2594 302.965C71.2403 304.633 70.8044 306.026 69.9516 307.144C69.0866 308.274 67.937 309.113 66.5026 309.661C65.0563 310.209 63.4572 310.466 61.7055 310.434C59.9297 310.402 58.3493 310.078 56.9643 309.462C55.5791 308.858 54.4249 307.987 53.5019 306.849C52.5788 305.71 51.9344 304.34 51.5686 302.74L56.2396 301.983C56.4212 302.898 56.7843 303.676 57.329 304.318C57.8616 304.972 58.5219 305.472 59.31 305.817C60.0862 306.162 60.918 306.351 61.8057 306.385C62.6695 306.407 63.475 306.284 64.2221 306.017C64.957 305.761 65.5554 305.384 66.0171 304.885C66.4668 304.386 66.6955 303.801 66.7032 303.129C66.7105 302.493 66.5244 301.969 66.1451 301.556C65.7656 301.156 65.2953 300.833 64.7341 300.586C64.1607 300.352 63.581 300.153 62.9948 299.99L58.3659 298.642C57.7318 298.466 57.0205 298.23 56.2318 297.933C55.4431 297.636 54.6858 297.225 53.9597 296.701C53.2337 296.177 52.6414 295.492 52.1831 294.647C51.7127 293.801 51.4849 292.731 51.4997 291.435C51.515 290.091 51.8105 288.912 52.3861 287.899C52.9496 286.897 53.7091 286.066 54.6647 285.404C55.6203 284.743 56.712 284.252 57.9397 283.93C59.1555 283.608 60.4293 283.454 61.7612 283.469Z" fill="white"/>
<path d="M332.97 476.476L338.01 476.476L351.186 491.26C352.21 492.412 353.178 493.212 354.09 493.66C355.002 494.108 355.882 494.332 356.73 494.332C357.882 494.332 358.906 494.084 359.802 493.588C360.714 493.092 361.434 492.404 361.962 491.524C362.49 490.66 362.754 489.66 362.754 488.524C362.754 487.324 362.474 486.26 361.914 485.332C361.37 484.42 360.642 483.708 359.73 483.196C358.818 482.684 357.834 482.444 356.778 482.476L356.778 476.524C359.082 476.524 361.09 477.036 362.802 478.06C364.514 479.1 365.842 480.524 366.786 482.332C367.73 484.156 368.202 486.26 368.202 488.644C368.202 490.852 367.706 492.836 366.714 494.596C365.738 496.356 364.378 497.74 362.634 498.748C360.906 499.756 358.914 500.26 356.658 500.26C355.01 500.26 353.626 500.036 352.506 499.588C351.386 499.14 350.354 498.468 349.41 497.572C348.466 496.692 347.418 495.596 346.266 494.284L336.978 483.796L338.418 483.268L338.418 500.26L332.97 500.26L332.97 476.476ZM332.922 507.781L362.01 519.685L362.01 504.589L367.482 504.589L367.482 525.877L362.01 525.877L332.922 514.021L332.922 507.781ZM332.202 541.871C332.202 540.111 332.562 538.471 333.282 536.951C334.018 535.431 335.026 534.119 336.306 533.015C337.586 531.927 339.074 531.143 340.77 530.663L342.258 536.231C341.33 536.455 340.53 536.863 339.858 537.455C339.186 538.063 338.666 538.767 338.298 539.567C337.93 540.383 337.746 541.223 337.746 542.087C337.746 543.207 338.018 544.231 338.562 545.159C339.106 546.087 339.834 546.823 340.746 547.367C341.674 547.911 342.698 548.183 343.818 548.183C344.938 548.183 345.954 547.903 346.866 547.343C347.794 546.799 348.522 546.063 349.05 545.135C349.594 544.207 349.866 543.191 349.866 542.087C349.866 540.759 349.626 539.655 349.146 538.775C348.666 537.911 348.154 537.247 347.61 536.783L349.194 531.839L367.482 532.895L367.482 551.663L362.058 551.663L362.058 535.991L364.098 538.151L351.378 537.383L352.674 536.327C353.49 537.223 354.098 538.263 354.498 539.447C354.898 540.631 355.098 541.775 355.098 542.879C355.098 545.039 354.602 546.951 353.61 548.615C352.634 550.295 351.298 551.607 349.602 552.551C347.906 553.511 345.978 553.991 343.818 553.991C341.658 553.991 339.698 553.431 337.938 552.311C336.194 551.191 334.802 549.711 333.762 547.871C332.722 546.047 332.202 544.047 332.202 541.871ZM332.922 564.548L336.762 560.708L367.482 591.452L363.618 595.292L332.922 564.548ZM332.202 588.092C332.202 586.508 332.586 585.06 333.354 583.748C334.138 582.452 335.178 581.412 336.474 580.628C337.786 579.844 339.242 579.452 340.842 579.452C342.41 579.452 343.85 579.852 345.162 580.652C346.474 581.452 347.522 582.508 348.306 583.82C349.09 585.132 349.482 586.556 349.482 588.092C349.482 589.676 349.09 591.124 348.306 592.436C347.538 593.748 346.498 594.788 345.186 595.556C343.89 596.34 342.442 596.732 340.842 596.732C339.242 596.732 337.786 596.34 336.474 595.556C335.178 594.788 334.138 593.748 333.354 592.436C332.586 591.124 332.202 589.676 332.202 588.092ZM337.146 588.092C337.146 588.748 337.314 589.356 337.65 589.916C337.986 590.492 338.434 590.948 338.994 591.284C339.554 591.62 340.17 591.788 340.842 591.788C341.514 591.788 342.13 591.62 342.69 591.284C343.25 590.948 343.698 590.492 344.034 589.916C344.37 589.356 344.538 588.748 344.538 588.092C344.538 587.42 344.37 586.804 344.034 586.244C343.698 585.684 343.25 585.228 342.69 584.876C342.13 584.54 341.514 584.372 340.842 584.372C340.17 584.372 339.554 584.54 338.994 584.876C338.434 585.228 337.986 585.684 337.65 586.244C337.314 586.804 337.146 587.42 337.146 588.092ZM350.922 567.908C350.922 566.324 351.306 564.876 352.074 563.564C352.858 562.252 353.898 561.204 355.194 560.42C356.506 559.652 357.962 559.268 359.562 559.268C361.13 559.268 362.57 559.668 363.882 560.468C365.194 561.268 366.242 562.324 367.026 563.636C367.81 564.948 368.202 566.372 368.202 567.908C368.202 569.492 367.81 570.932 367.026 572.228C366.258 573.54 365.218 574.588 363.906 575.372C362.61 576.156 361.162 576.548 359.562 576.548C357.962 576.548 356.506 576.156 355.194 575.372C353.898 574.588 352.858 573.54 352.074 572.228C351.306 570.932 350.922 569.492 350.922 567.908ZM355.866 567.908C355.866 568.58 356.034 569.196 356.37 569.756C356.706 570.316 357.154 570.764 357.714 571.1C358.274 571.436 358.89 571.604 359.562 571.604C360.234 571.604 360.85 571.436 361.41 571.1C361.97 570.764 362.418 570.316 362.754 569.756C363.09 569.196 363.258 568.58 363.258 567.908C363.258 567.236 363.09 566.62 362.754 566.06C362.418 565.5 361.97 565.052 361.41 564.716C360.85 564.38 360.234 564.212 359.562 564.212C358.89 564.212 358.274 564.38 357.714 564.716C357.154 565.052 356.706 565.5 356.37 566.06C356.034 566.62 355.866 567.236 355.866 567.908Z" fill="white"/>
<path d="M288.354 443.548L296.946 443.548L296.946 434.956L301.482 434.956L301.482 443.548L310.05 443.548L310.05 448.084L301.482 448.084L301.482 456.628L296.946 456.628L296.946 448.084L288.354 448.084L288.354 443.548ZM281.922 478.467L310.17 478.467L306.21 471.987L312.594 471.987L316.482 478.467L316.482 484.371L281.922 484.371L281.922 478.467ZM281.202 505.946C281.202 503.498 281.722 501.338 282.762 499.466C283.818 497.594 285.282 496.13 287.154 495.074C289.026 494.034 291.186 493.514 293.634 493.514L304.77 493.514C307.218 493.514 309.378 494.034 311.25 495.074C313.122 496.13 314.578 497.594 315.618 499.466C316.674 501.338 317.202 503.498 317.202 505.946C317.202 508.394 316.674 510.546 315.618 512.402C314.578 514.274 313.122 515.738 311.25 516.794C309.378 517.85 307.218 518.378 304.77 518.378L293.634 518.378C291.186 518.378 289.026 517.85 287.154 516.794C285.282 515.738 283.818 514.274 282.762 512.402C281.722 510.546 281.202 508.394 281.202 505.946ZM286.698 505.946C286.698 507.162 286.986 508.266 287.562 509.258C288.154 510.25 288.938 511.034 289.914 511.61C290.906 512.186 292.01 512.474 293.226 512.474L305.202 512.474C306.434 512.474 307.538 512.186 308.514 511.61C309.506 511.034 310.29 510.25 310.866 509.258C311.458 508.266 311.754 507.162 311.754 505.946C311.754 504.73 311.458 503.626 310.866 502.634C310.29 501.642 309.506 500.858 308.514 500.282C307.538 499.706 306.434 499.418 305.202 499.418L293.226 499.418C292.01 499.418 290.906 499.706 289.914 500.282C288.938 500.858 288.154 501.642 287.562 502.634C286.986 503.626 286.698 504.73 286.698 505.946ZM281.202 537.54C281.202 535.092 281.722 532.932 282.762 531.06C283.818 529.188 285.282 527.724 287.154 526.668C289.026 525.628 291.186 525.108 293.634 525.108L304.77 525.108C307.218 525.108 309.378 525.628 311.25 526.668C313.122 527.724 314.578 529.188 315.618 531.06C316.674 532.932 317.202 535.092 317.202 537.54C317.202 539.988 316.674 542.14 315.618 543.996C314.578 545.868 313.122 547.332 311.25 548.388C309.378 549.444 307.218 549.972 304.77 549.972L293.634 549.972C291.186 549.972 289.026 549.444 287.154 548.388C285.282 547.332 283.818 545.868 282.762 543.996C281.722 542.14 281.202 539.988 281.202 537.54ZM286.698 537.54C286.698 538.756 286.986 539.86 287.562 540.852C288.154 541.844 288.938 542.628 289.914 543.204C290.906 543.78 292.01 544.068 293.226 544.068L305.202 544.068C306.434 544.068 307.538 543.78 308.514 543.204C309.506 542.628 310.29 541.844 310.866 540.852C311.458 539.86 311.754 538.756 311.754 537.54C311.754 536.324 311.458 535.22 310.866 534.228C310.29 533.236 309.506 532.452 308.514 531.876C307.538 531.3 306.434 531.012 305.202 531.012L293.226 531.012C292.01 531.012 290.906 531.3 289.914 531.876C288.938 532.452 288.154 533.236 287.562 534.228C286.986 535.22 286.698 536.324 286.698 537.54ZM281.922 556.702L316.482 556.702L316.482 577.51L310.698 577.51L310.698 562.486L302.082 562.486L302.082 574.63L296.322 574.63L296.322 562.486L281.922 562.486L281.922 556.702ZM281.202 594.619C281.202 592.091 281.642 589.811 282.522 587.779C283.402 585.763 284.658 584.099 286.29 582.787C287.938 581.491 289.89 580.667 292.146 580.315L293.058 586.315C291.01 586.827 289.426 587.875 288.306 589.459C287.186 591.059 286.626 592.899 286.626 594.979C286.626 596.211 286.818 597.371 287.202 598.459C287.586 599.547 288.146 600.427 288.882 601.099C289.618 601.787 290.522 602.131 291.594 602.131C292.074 602.131 292.514 602.051 292.914 601.891C293.33 601.731 293.698 601.491 294.018 601.171C294.338 600.867 294.626 600.467 294.882 599.971C295.154 599.491 295.386 598.931 295.578 598.291L298.218 589.363C298.442 588.595 298.738 587.763 299.106 586.867C299.49 585.987 300.01 585.147 300.666 584.347C301.338 583.563 302.186 582.915 303.21 582.403C304.25 581.907 305.53 581.659 307.05 581.659C309.274 581.659 311.138 582.219 312.642 583.339C314.162 584.475 315.298 585.995 316.05 587.899C316.802 589.819 317.17 591.947 317.154 594.283C317.138 596.651 316.73 598.763 315.93 600.619C315.146 602.475 314.002 604.027 312.498 605.275C310.994 606.523 309.178 607.403 307.05 607.915L305.97 601.699C307.186 601.443 308.218 600.947 309.066 600.211C309.93 599.491 310.586 598.603 311.034 597.547C311.482 596.507 311.722 595.395 311.754 594.211C311.77 593.059 311.594 591.987 311.226 590.995C310.874 590.019 310.362 589.227 309.69 588.619C309.018 588.027 308.234 587.731 307.338 587.731C306.49 587.731 305.794 587.987 305.25 588.499C304.722 589.011 304.298 589.643 303.978 590.395C303.674 591.163 303.418 591.939 303.21 592.723L301.482 598.915C301.258 599.763 300.954 600.715 300.57 601.771C300.186 602.827 299.65 603.843 298.962 604.819C298.274 605.795 297.37 606.595 296.25 607.219C295.13 607.859 293.706 608.179 291.978 608.179C290.186 608.179 288.61 607.803 287.25 607.051C285.906 606.315 284.786 605.315 283.89 604.051C282.994 602.787 282.322 601.339 281.874 599.707C281.426 598.091 281.202 596.395 281.202 594.619Z" fill="white"/>
<defs>
<linearGradient id="paint0_linear_4003_2079" x1="322.464" y1="-0.119746" x2="322.464" y2="325.386" gradientUnits="userSpaceOnUse">
<stop stop-color="#FFF8C1"/>
<stop offset="0.0001" stop-color="#C2E8FD"/>
<stop offset="0.3123" stop-color="#919191"/>
<stop offset="0.7592" stop-color="#DDDDDD"/>
<stop offset="1" stop-color="white"/>
</linearGradient>
<linearGradient id="paint1_linear_4003_2079" x1="322.464" y1="320.321" x2="322.464" y2="645.827" gradientUnits="userSpaceOnUse">
<stop stop-color="#FFF8C1"/>
<stop offset="0.0001" stop-color="#C2E8FD"/>
<stop offset="0.3123" stop-color="#919191"/>
<stop offset="0.7592" stop-color="#DDDDDD"/>
<stop offset="1" stop-color="white"/>
</linearGradient>
<linearGradient id="paint2_linear_4003_2079" x1="162.89" y1="199.898" x2="162.89" y2="447.042" gradientUnits="userSpaceOnUse">
<stop stop-color="#FFF8C1"/>
<stop offset="0.0001" stop-color="#C2E8FD"/>
<stop offset="0.3123" stop-color="#919191"/>
<stop offset="0.7592" stop-color="#DDDDDD"/>
<stop offset="1" stop-color="white"/>
</linearGradient>
<linearGradient id="paint3_linear_4003_2079" x1="482.218" y1="198.694" x2="482.218" y2="445.837" gradientUnits="userSpaceOnUse">
<stop stop-color="#FFF8C1"/>
<stop offset="0.0001" stop-color="#C2E8FD"/>
<stop offset="0.3123" stop-color="#919191"/>
<stop offset="0.7592" stop-color="#DDDDDD"/>
<stop offset="1" stop-color="white"/>
</linearGradient>
</defs>
</svg>
