<?xml version="1.0" standalone="no"?>
<!DOCTYPE svg PUBLIC "-//W3C//DTD SVG 20010904//EN"
 "http://www.w3.org/TR/2001/REC-SVG-20010904/DTD/svg10.dtd">
<svg version="1.0" xmlns="http://www.w3.org/2000/svg"
 width="1088.000000pt" height="1088.000000pt" viewBox="0 0 1088.000000 1088.000000"
 preserveAspectRatio="xMidYMid meet">
<metadata>
Created by potrace 1.14, written by Peter Selinger 2001-2017
</metadata>
<g transform="translate(0.000000,1088.000000) scale(0.100000,-0.100000)"
fill="#000000" stroke="none">
<path d="M488 8620 c-100 -21 -242 -66 -275 -88 -13 -8 -23 -10 -23 -6 0 5 -4
4 -8 -2 -4 -6 -20 -18 -37 -27 -37 -19 -82 -61 -115 -107 -20 -28 -25 -47 -25
-99 0 -43 4 -66 13 -68 6 -3 12 -11 12 -20 0 -8 6 -20 13 -27 6 -7 25 -31 42
-52 16 -21 51 -61 77 -89 79 -84 130 -140 186 -201 29 -33 71 -79 93 -104 57
-63 204 -252 223 -286 22 -40 39 -66 51 -79 6 -7 35 -61 65 -121 30 -60 60
-112 65 -116 6 -4 7 -8 3 -8 -4 0 3 -21 16 -47 44 -89 120 -286 141 -363 1 -3
4 -12 8 -20 8 -19 58 -189 62 -209 2 -9 4 -16 5 -16 1 0 3 -7 5 -15 2 -13 23
-88 31 -115 2 -5 8 -28 13 -50 5 -22 23 -98 41 -170 17 -71 33 -139 35 -150 6
-28 10 -44 23 -90 6 -22 13 -53 16 -70 11 -62 76 -246 111 -316 45 -91 77
-132 179 -235 117 -118 248 -200 351 -220 91 -17 120 -20 195 -19 86 2 212 12
240 20 8 2 33 6 55 10 34 5 116 19 230 40 17 3 62 8 100 10 63 4 73 2 100 -19
l30 -24 -31 -28 c-17 -16 -55 -42 -85 -57 -160 -85 -343 -189 -401 -228 -32
-21 -62 -39 -67 -39 -5 0 -11 -3 -13 -7 -1 -5 -37 -35 -78 -68 -111 -89 -300
-286 -300 -313 0 -6 -4 -12 -9 -14 -17 -6 -88 -134 -118 -213 -33 -86 -44
-133 -60 -265 -12 -101 -5 -312 12 -352 3 -9 8 -29 9 -45 2 -15 6 -37 11 -48
42 -114 63 -159 97 -210 49 -73 167 -190 245 -243 93 -63 434 -272 444 -272 5
0 9 -3 9 -7 0 -5 10 -13 23 -19 12 -6 99 -57 192 -114 94 -56 189 -112 213
-123 23 -12 42 -25 42 -29 0 -4 9 -8 19 -8 11 0 22 -4 25 -9 10 -15 113 -62
179 -80 76 -22 291 -22 347 -1 3 1 10 3 15 4 37 5 190 69 205 86 3 3 21 13 40
23 63 32 211 168 260 237 13 19 30 41 38 49 19 20 82 120 82 131 0 6 3 10 8
10 4 0 16 19 27 43 11 23 22 44 25 47 6 6 80 157 80 164 0 17 221 470 234 478
6 4 7 8 3 8 -7 0 64 139 84 166 5 6 6 14 2 17 -3 4 -1 7 5 7 7 0 12 4 12 10 0
9 69 136 170 315 78 137 249 404 277 433 7 8 18 22 23 33 20 36 36 20 55 -53
9 -40 19 -83 20 -95 2 -11 6 -29 9 -40 15 -51 32 -295 41 -588 10 -367 18
-526 30 -625 14 -119 41 -177 114 -243 l41 -37 29 21 c36 27 86 94 111 152 27
61 34 146 45 517 15 506 27 708 51 840 2 14 7 40 10 58 8 49 33 102 47 102 13
0 87 -101 168 -230 30 -47 57 -86 61 -88 5 -2 8 -7 8 -12 0 -4 18 -38 41 -75
41 -69 62 -104 107 -185 13 -25 28 -49 32 -55 33 -45 280 -541 280 -563 0 -4
6 -14 12 -20 7 -7 13 -16 13 -20 1 -4 17 -42 38 -85 20 -44 37 -81 37 -84 0
-8 142 -298 149 -303 4 -3 12 -18 19 -34 47 -106 218 -300 332 -376 12 -8 29
-21 36 -28 28 -27 188 -101 242 -113 58 -12 280 -15 340 -5 17 3 44 8 60 11
64 11 192 70 303 140 21 13 199 123 247 153 20 12 44 25 52 29 8 4 38 21 65
38 28 18 80 48 118 68 37 21 97 54 135 74 68 37 237 145 281 179 79 63 194
206 207 262 4 12 10 22 14 22 7 0 10 7 20 48 1 4 7 16 13 27 6 11 12 25 13 30
1 6 9 35 17 65 27 94 39 214 34 327 -3 59 -8 119 -11 133 -3 14 -7 36 -9 50
-13 73 -86 273 -106 290 -4 3 -12 16 -19 30 -13 27 -34 62 -42 70 -3 3 -23 28
-45 55 -83 104 -185 197 -380 343 -28 21 -206 132 -212 132 -3 0 -14 6 -22 14
-9 7 -41 26 -71 42 -30 16 -57 31 -60 34 -3 4 -22 14 -42 23 -39 18 -128 82
-140 101 -15 23 19 38 88 39 77 1 147 -8 269 -34 166 -35 264 -46 385 -43 109
2 149 6 195 21 11 4 25 8 30 9 28 5 143 68 203 110 95 68 220 199 267 279 43
74 81 175 122 325 14 52 26 100 27 105 1 6 6 21 11 35 4 14 9 32 10 40 1 8 4
26 8 40 6 27 36 152 43 182 2 10 6 27 9 39 2 11 7 29 10 39 3 10 8 28 10 39 7
28 11 46 29 113 8 31 17 68 20 82 3 14 8 31 13 38 4 7 9 21 10 31 2 10 13 48
25 85 12 37 20 67 19 67 -3 0 21 67 39 110 5 11 16 43 26 70 9 28 25 68 35 91
11 22 19 44 19 48 0 10 122 259 130 266 4 3 17 27 29 53 13 26 28 53 35 60 6
7 29 39 50 72 36 54 122 173 136 185 3 3 25 30 50 60 47 59 98 115 195 214
104 107 187 199 203 226 9 14 19 27 22 30 24 23 41 76 37 113 -6 44 -28 102
-49 127 -69 82 -255 173 -403 196 -16 2 -41 7 -55 11 -46 11 -75 13 -265 16
-115 3 -230 -1 -290 -8 -151 -19 -206 -26 -229 -31 -12 -2 -55 -11 -96 -19
-41 -8 -129 -28 -195 -45 -151 -38 -150 -38 -150 -40 0 -1 -12 -5 -45 -13
-251 -61 -845 -315 -1187 -509 -56 -32 -105 -58 -108 -58 -3 0 -11 -5 -18 -10
-7 -6 -61 -40 -122 -76 -60 -36 -155 -96 -210 -132 -55 -37 -104 -69 -110 -72
-15 -7 -99 -64 -105 -70 -3 -3 -30 -23 -60 -45 -79 -56 -204 -148 -210 -155
-3 -3 -32 -25 -65 -50 -53 -39 -243 -195 -334 -275 -145 -127 -496 -474 -636
-630 -112 -124 -155 -165 -175 -165 -25 0 -52 28 -80 84 -13 27 -46 71 -72 99
l-47 50 26 46 c15 25 36 64 47 86 12 22 24 42 27 45 3 3 14 21 25 40 10 19 21
37 24 40 3 3 13 21 23 40 34 63 52 95 58 100 3 3 20 32 39 65 19 33 37 62 40
65 4 3 24 34 46 70 21 36 44 72 51 80 6 8 40 53 75 100 90 120 94 125 285 320
95 96 173 176 173 177 0 2 15 18 33 37 51 55 77 87 77 96 0 4 6 13 14 19 21
17 30 87 16 120 -45 109 -218 14 -370 -204 -19 -27 -39 -54 -43 -60 -16 -20
-137 -207 -137 -212 0 -2 -13 -23 -28 -46 -28 -41 -161 -272 -237 -412 -21
-38 -99 -189 -173 -335 -74 -145 -142 -270 -151 -277 -35 -27 -125 -8 -136 29
-4 10 -10 18 -13 18 -4 0 -28 39 -52 87 -25 49 -48 90 -51 93 -3 3 -35 64 -72
135 -36 72 -78 153 -94 181 -15 29 -45 85 -67 125 -21 41 -42 79 -46 84 -7 9
-34 56 -74 130 -6 11 -13 22 -16 25 -7 7 -70 111 -70 115 0 4 -83 134 -133
209 -39 58 -151 204 -187 242 -133 142 -282 141 -256 -1 9 -45 69 -120 210
-261 235 -235 396 -437 569 -709 31 -49 60 -95 64 -101 8 -11 29 -45 48 -79
10 -19 48 -80 83 -135 9 -14 17 -27 17 -30 1 -7 42 -73 53 -86 6 -6 17 -25 26
-43 l17 -31 -49 -53 c-50 -53 -112 -139 -112 -154 0 -15 -40 -34 -54 -26 -23
13 -92 81 -224 221 -226 239 -395 403 -637 617 -37 33 -77 66 -88 74 -12 8
-28 22 -38 30 -27 26 -110 94 -158 130 -25 19 -48 38 -51 41 -3 3 -34 27 -70
53 -36 27 -72 54 -80 60 -30 24 -217 153 -305 211 -49 33 -108 71 -130 86 -22
14 -47 29 -55 33 -16 8 -25 13 -116 70 -34 20 -67 37 -73 37 -6 0 -11 4 -11 9
0 5 -8 11 -17 14 -10 3 -43 20 -73 38 -74 43 -438 228 -520 264 -36 15 -91 40
-122 56 -32 15 -58 25 -58 23 0 -2 -18 5 -39 16 -22 10 -56 26 -78 33 -75 28
-238 89 -258 97 -24 10 -117 40 -127 40 -4 1 -26 7 -49 15 -23 9 -51 17 -63
20 -40 8 -111 27 -126 32 -8 3 -24 8 -35 10 -11 2 -65 12 -120 22 -114 22
-146 27 -230 37 -33 3 -69 8 -80 11 -11 2 -128 6 -260 8 -204 3 -253 1 -327
-15z"/>
</g>
</svg>
