<svg width="36" height="36" viewBox="0 0 36 36" fill="none" xmlns="http://www.w3.org/2000/svg">
<circle cx="17.6049" cy="17.6049" r="16.7666" stroke="url(#paint0_linear_2127_485)" stroke-width="1.67666"/>
<mask id="path-2-outside-1_2127_485" maskUnits="userSpaceOnUse" x="9.22266" y="13.7366" width="19" height="10" fill="black">
<rect fill="white" x="9.22266" y="13.7366" width="19" height="10"/>
<path d="M11.6974 22.7366V16.0803L12.1213 16.3323L10.0477 17.8331V16.0459L11.8464 14.7169H13.3014V22.7366H11.6974ZM17.9335 22.8855C17.269 22.8855 16.6886 22.79 16.1921 22.5991C15.7033 22.4005 15.3252 22.1217 15.0579 21.7628C14.7906 21.4038 14.6569 20.9875 14.6569 20.514C14.6569 20.0404 14.7906 19.6318 15.0579 19.2881C15.3252 18.9444 15.6918 18.7077 16.1577 18.5778V18.5205C15.7148 18.3678 15.3825 18.1501 15.161 17.8675C14.9472 17.5773 14.8402 17.2221 14.8402 16.802C14.8402 16.3591 14.9624 15.9695 15.2068 15.6335C15.4589 15.2974 15.8179 15.0377 16.2838 14.8544C16.7573 14.6635 17.3072 14.568 17.9335 14.568C18.5675 14.568 19.1174 14.6635 19.5833 14.8544C20.0492 15.0377 20.4081 15.3012 20.6602 15.6449C20.9122 15.981 21.0383 16.3667 21.0383 16.802C21.0383 17.2221 20.9275 17.5773 20.706 17.8675C20.4922 18.1501 20.1637 18.3678 19.7208 18.5205V18.5778C20.1867 18.7077 20.5533 18.9444 20.8206 19.2881C21.0879 19.6318 21.2216 20.0404 21.2216 20.514C21.2216 20.9875 21.0841 21.4038 20.8091 21.7628C20.5418 22.1217 20.1599 22.4005 19.6635 22.5991C19.1747 22.79 18.598 22.8855 17.9335 22.8855ZM17.9335 21.442C18.4682 21.442 18.873 21.3503 19.1479 21.167C19.4229 20.9837 19.5604 20.7164 19.5604 20.3651C19.5604 20.0214 19.4229 19.7579 19.1479 19.5745C18.873 19.3836 18.4682 19.2881 17.9335 19.2881C17.3989 19.2881 16.9941 19.3836 16.7191 19.5745C16.4518 19.7579 16.3181 20.0214 16.3181 20.3651C16.3181 20.7164 16.4518 20.9837 16.7191 21.167C16.9941 21.3503 17.3989 21.442 17.9335 21.442ZM17.9335 17.9363C18.43 17.9363 18.7966 17.8522 19.0334 17.6842C19.2778 17.5162 19.4 17.2756 19.4 16.9624C19.4 16.6417 19.2778 16.3972 19.0334 16.2292C18.7966 16.0612 18.43 15.9772 17.9335 15.9772C17.4371 15.9772 17.0705 16.0612 16.8337 16.2292C16.5969 16.3972 16.4785 16.6417 16.4785 16.9624C16.4785 17.2756 16.5969 17.5162 16.8337 17.6842C17.0705 17.8522 17.4371 17.9363 17.9335 17.9363ZM24.6177 21.2128V16.023H25.8665V21.2128H24.6177ZM22.6472 19.2423V17.9935H27.837V19.2423H22.6472Z"/>
</mask>
<path d="M11.6974 22.7366V16.0803L12.1213 16.3323L10.0477 17.8331V16.0459L11.8464 14.7169H13.3014V22.7366H11.6974ZM17.9335 22.8855C17.269 22.8855 16.6886 22.79 16.1921 22.5991C15.7033 22.4005 15.3252 22.1217 15.0579 21.7628C14.7906 21.4038 14.6569 20.9875 14.6569 20.514C14.6569 20.0404 14.7906 19.6318 15.0579 19.2881C15.3252 18.9444 15.6918 18.7077 16.1577 18.5778V18.5205C15.7148 18.3678 15.3825 18.1501 15.161 17.8675C14.9472 17.5773 14.8402 17.2221 14.8402 16.802C14.8402 16.3591 14.9624 15.9695 15.2068 15.6335C15.4589 15.2974 15.8179 15.0377 16.2838 14.8544C16.7573 14.6635 17.3072 14.568 17.9335 14.568C18.5675 14.568 19.1174 14.6635 19.5833 14.8544C20.0492 15.0377 20.4081 15.3012 20.6602 15.6449C20.9122 15.981 21.0383 16.3667 21.0383 16.802C21.0383 17.2221 20.9275 17.5773 20.706 17.8675C20.4922 18.1501 20.1637 18.3678 19.7208 18.5205V18.5778C20.1867 18.7077 20.5533 18.9444 20.8206 19.2881C21.0879 19.6318 21.2216 20.0404 21.2216 20.514C21.2216 20.9875 21.0841 21.4038 20.8091 21.7628C20.5418 22.1217 20.1599 22.4005 19.6635 22.5991C19.1747 22.79 18.598 22.8855 17.9335 22.8855ZM17.9335 21.442C18.4682 21.442 18.873 21.3503 19.1479 21.167C19.4229 20.9837 19.5604 20.7164 19.5604 20.3651C19.5604 20.0214 19.4229 19.7579 19.1479 19.5745C18.873 19.3836 18.4682 19.2881 17.9335 19.2881C17.3989 19.2881 16.9941 19.3836 16.7191 19.5745C16.4518 19.7579 16.3181 20.0214 16.3181 20.3651C16.3181 20.7164 16.4518 20.9837 16.7191 21.167C16.9941 21.3503 17.3989 21.442 17.9335 21.442ZM17.9335 17.9363C18.43 17.9363 18.7966 17.8522 19.0334 17.6842C19.2778 17.5162 19.4 17.2756 19.4 16.9624C19.4 16.6417 19.2778 16.3972 19.0334 16.2292C18.7966 16.0612 18.43 15.9772 17.9335 15.9772C17.4371 15.9772 17.0705 16.0612 16.8337 16.2292C16.5969 16.3972 16.4785 16.6417 16.4785 16.9624C16.4785 17.2756 16.5969 17.5162 16.8337 17.6842C17.0705 17.8522 17.4371 17.9363 17.9335 17.9363ZM24.6177 21.2128V16.023H25.8665V21.2128H24.6177ZM22.6472 19.2423V17.9935H27.837V19.2423H22.6472Z" fill="url(#paint1_linear_2127_485)"/>
<path d="M11.6974 22.7366H11.4213V23.0127H11.6974V22.7366ZM11.6974 16.0803L11.8386 15.843L11.4213 15.5949V16.0803H11.6974ZM12.1213 16.3323L12.2832 16.556L12.6235 16.3097L12.2625 16.095L12.1213 16.3323ZM10.0477 17.8331H9.7716V18.3738L10.2096 18.0568L10.0477 17.8331ZM10.0477 16.0459L9.88362 15.8238L9.7716 15.9066V16.0459H10.0477ZM11.8464 14.7169V14.4408H11.7555L11.6823 14.4949L11.8464 14.7169ZM13.3014 14.7169H13.5775V14.4408H13.3014V14.7169ZM13.3014 22.7366V23.0127H13.5775V22.7366H13.3014ZM11.9736 22.7366V16.0803H11.4213V22.7366H11.9736ZM11.5563 16.3176L11.9802 16.5696L12.2625 16.095L11.8386 15.843L11.5563 16.3176ZM11.9595 16.1087L9.88582 17.6095L10.2096 18.0568L12.2832 16.556L11.9595 16.1087ZM10.3238 17.8331V16.0459H9.7716V17.8331H10.3238ZM10.2118 16.268L12.0105 14.939L11.6823 14.4949L9.88362 15.8238L10.2118 16.268ZM11.8464 14.993H13.3014V14.4408H11.8464V14.993ZM13.0253 14.7169V22.7366H13.5775V14.7169H13.0253ZM13.3014 22.4605H11.6974V23.0127H13.3014V22.4605ZM16.1921 22.5991L16.0882 22.8549L16.093 22.8568L16.1921 22.5991ZM15.0579 21.7628L15.2794 21.5979L15.0579 21.7628ZM15.0579 19.2881L14.84 19.1186L15.0579 19.2881ZM16.1577 18.5778L16.2319 18.8438L16.4338 18.7875V18.5778H16.1577ZM16.1577 18.5205H16.4338V18.3237L16.2477 18.2595L16.1577 18.5205ZM15.161 17.8675L14.9386 18.0314L14.9437 18.0378L15.161 17.8675ZM15.2068 15.6335L14.9859 15.4678L14.9836 15.4711L15.2068 15.6335ZM16.2838 14.8544L16.3849 15.1114L16.387 15.1105L16.2838 14.8544ZM19.5833 14.8544L19.4786 15.1099L19.4822 15.1114L19.5833 14.8544ZM20.6602 15.6449L20.4375 15.8082L20.4393 15.8106L20.6602 15.6449ZM20.706 17.8675L20.4865 17.7L20.4859 17.7009L20.706 17.8675ZM19.7208 18.5205L19.6307 18.2595L19.4446 18.3237V18.5205H19.7208ZM19.7208 18.5778H19.4446V18.7875L19.6466 18.8438L19.7208 18.5778ZM20.8206 19.2881L21.0385 19.1186V19.1186L20.8206 19.2881ZM20.8091 21.7628L20.5899 21.5949L20.5877 21.5979L20.8091 21.7628ZM19.6635 22.5991L19.7639 22.8563L19.766 22.8554L19.6635 22.5991ZM19.1479 21.167L18.9948 20.9373L19.1479 21.167ZM19.1479 19.5745L18.9904 19.8014L18.9948 19.8043L19.1479 19.5745ZM16.7191 19.5745L16.8753 19.8023L16.8766 19.8013L16.7191 19.5745ZM16.7191 21.167L16.563 21.3947L16.566 21.3967L16.7191 21.167ZM19.0334 17.6842L18.8769 17.4567L18.8736 17.459L19.0334 17.6842ZM19.0334 16.2292L18.8735 16.4544L18.8769 16.4567L19.0334 16.2292ZM16.8337 16.2292L16.9935 16.4544L16.8337 16.2292ZM16.8337 17.6842L16.6739 17.9094L16.8337 17.6842ZM17.9335 22.6094C17.2948 22.6094 16.7493 22.5176 16.2912 22.3414L16.093 22.8568C16.6279 23.0625 17.2433 23.1616 17.9335 23.1616V22.6094ZM16.296 22.3433C15.8455 22.1603 15.5115 21.9096 15.2794 21.5979L14.8365 21.9277C15.1389 22.3338 15.5611 22.6408 16.0882 22.8549L16.296 22.3433ZM15.2794 21.5979C15.0497 21.2894 14.933 20.9318 14.933 20.514H14.3808C14.3808 21.0433 14.5315 21.5182 14.8365 21.9277L15.2794 21.5979ZM14.933 20.514C14.933 20.0961 15.0496 19.7485 15.2758 19.4576L14.84 19.1186C14.5316 19.5151 14.3808 19.9848 14.3808 20.514H14.933ZM15.2758 19.4576C15.5028 19.1658 15.8164 18.9596 16.2319 18.8438L16.0836 18.3119C15.5673 18.4557 15.1477 18.723 14.84 19.1186L15.2758 19.4576ZM16.4338 18.5778V18.5205H15.8816V18.5778H16.4338ZM16.2477 18.2595C15.8399 18.1189 15.5584 17.9269 15.3783 17.6972L14.9437 18.0378C15.2066 18.3733 15.5896 18.6167 16.0677 18.7816L16.2477 18.2595ZM15.3833 17.7037C15.2099 17.4685 15.1163 17.1733 15.1163 16.802H14.5641C14.5641 17.271 14.6844 17.6861 14.9387 18.0313L15.3833 17.7037ZM15.1163 16.802C15.1163 16.4133 15.2224 16.0815 15.4301 15.7959L14.9836 15.4711C14.7025 15.8575 14.5641 16.3048 14.5641 16.802H15.1163ZM15.4277 15.7991C15.6436 15.5113 15.9573 15.2795 16.3849 15.1114L16.1827 14.5975C15.6784 14.7959 15.2742 15.0836 14.986 15.4678L15.4277 15.7991ZM16.387 15.1105C16.8212 14.9354 17.3348 14.8441 17.9335 14.8441V14.2919C17.2796 14.2919 16.6934 14.3915 16.1805 14.5984L16.387 15.1105ZM17.9335 14.8441C18.5405 14.8441 19.0533 14.9356 19.4786 15.1099L19.688 14.5989C19.1815 14.3914 18.5944 14.2919 17.9335 14.2919V14.8441ZM19.4822 15.1114C19.9081 15.2789 20.2214 15.5135 20.4375 15.8082L20.8828 15.4817C20.5949 15.089 20.1902 14.7965 19.6844 14.5975L19.4822 15.1114ZM20.4393 15.8106C20.6541 16.097 20.7622 16.4241 20.7622 16.802H21.3144C21.3144 16.3093 21.1703 15.865 20.8811 15.4793L20.4393 15.8106ZM20.7622 16.802C20.7622 17.1711 20.6659 17.4649 20.4865 17.7L20.9255 18.035C21.1891 17.6896 21.3144 17.2731 21.3144 16.802H20.7622ZM20.4859 17.7009C20.3142 17.9278 20.0384 18.119 19.6307 18.2595L19.8108 18.7816C20.2891 18.6166 20.6701 18.3725 20.9262 18.0341L20.4859 17.7009ZM19.4446 18.5205V18.5778H19.9969V18.5205H19.4446ZM19.6466 18.8438C20.0621 18.9596 20.3757 19.1658 20.6026 19.4576L21.0385 19.1186C20.7308 18.723 20.3112 18.4557 19.7949 18.3119L19.6466 18.8438ZM20.6026 19.4576C20.8289 19.7485 20.9455 20.0961 20.9455 20.514H21.4977C21.4977 19.9848 21.3469 19.5151 21.0385 19.1186L20.6026 19.4576ZM20.9455 20.514C20.9455 20.9299 20.8262 21.2865 20.5899 21.5949L21.0283 21.9307C21.342 21.5211 21.4977 21.0452 21.4977 20.514H20.9455ZM20.5877 21.5979C20.3563 21.9086 20.0193 22.1594 19.5609 22.3427L19.766 22.8554C20.3005 22.6417 20.7274 22.3348 21.0306 21.9277L20.5877 21.5979ZM19.563 22.3419C19.1135 22.5175 18.5724 22.6094 17.9335 22.6094V23.1616C18.6236 23.1616 19.2358 23.0626 19.7639 22.8563L19.563 22.3419ZM17.9335 21.7181C18.492 21.7181 18.9606 21.6237 19.3011 21.3967L18.9948 20.9373C18.7853 21.0769 18.4443 21.1659 17.9335 21.1659V21.7181ZM19.3011 21.3967C19.6584 21.1585 19.8365 20.8018 19.8365 20.3651H19.2843C19.2843 20.631 19.1873 20.8089 18.9948 20.9373L19.3011 21.3967ZM19.8365 20.3651C19.8365 19.9335 19.6565 19.5817 19.3011 19.3448L18.9948 19.8043C19.1893 19.934 19.2843 20.1092 19.2843 20.3651H19.8365ZM19.3054 19.3478C18.9641 19.1107 18.4936 19.012 17.9335 19.012V19.5642C18.4427 19.5642 18.7819 19.6565 18.9904 19.8013L19.3054 19.3478ZM17.9335 19.012C17.3735 19.012 16.903 19.1107 16.5616 19.3478L16.8766 19.8013C17.0852 19.6565 17.4243 19.5642 17.9335 19.5642V19.012ZM16.563 19.3468C16.2154 19.5852 16.042 19.9368 16.042 20.3651H16.5942C16.5942 20.1059 16.6882 19.9305 16.8753 19.8023L16.563 19.3468ZM16.042 20.3651C16.042 20.7984 16.2134 21.155 16.563 21.3947L16.8753 20.9393C16.6902 20.8124 16.5942 20.6344 16.5942 20.3651H16.042ZM16.566 21.3967C16.9064 21.6237 17.375 21.7181 17.9335 21.7181V21.1659C17.4227 21.1659 17.0818 21.0769 16.8723 20.9373L16.566 21.3967ZM17.9335 18.2124C18.4509 18.2124 18.8869 18.1267 19.1931 17.9094L18.8736 17.459C18.7063 17.5778 18.4091 17.6601 17.9335 17.6601V18.2124ZM19.1898 17.9117C19.5139 17.6889 19.6761 17.3605 19.6761 16.9624H19.1239C19.1239 17.1907 19.0416 17.3435 18.8769 17.4567L19.1898 17.9117ZM19.6761 16.9624C19.6761 16.5595 19.516 16.226 19.1898 16.0017L18.8769 16.4567C19.0395 16.5685 19.1239 16.7238 19.1239 16.9624H19.6761ZM19.1931 16.0041C18.8869 15.7867 18.4509 15.7011 17.9335 15.7011V16.2533C18.4091 16.2533 18.7063 16.3357 18.8736 16.4544L19.1931 16.0041ZM17.9335 15.7011C17.4162 15.7011 16.9801 15.7867 16.6739 16.0041L16.9935 16.4544C17.1608 16.3357 17.458 16.2533 17.9335 16.2533V15.7011ZM16.6739 16.0041C16.3557 16.2299 16.2024 16.5631 16.2024 16.9624H16.7546C16.7546 16.7202 16.8381 16.5646 16.9935 16.4544L16.6739 16.0041ZM16.2024 16.9624C16.2024 17.3568 16.3577 17.685 16.6739 17.9094L16.9935 17.459C16.8361 17.3474 16.7546 17.1944 16.7546 16.9624H16.2024ZM16.6739 17.9094C16.9801 18.1267 17.4162 18.2124 17.9335 18.2124V17.6601C17.458 17.6601 17.1608 17.5778 16.9935 17.459L16.6739 17.9094ZM24.6177 21.2128H24.3416V21.4889H24.6177V21.2128ZM24.6177 16.023V15.7469H24.3416V16.023H24.6177ZM25.8665 16.023H26.1426V15.7469H25.8665V16.023ZM25.8665 21.2128V21.4889H26.1426V21.2128H25.8665ZM22.6472 19.2423H22.3711V19.5184H22.6472V19.2423ZM22.6472 17.9935V17.7174H22.3711V17.9935H22.6472ZM27.837 17.9935H28.1131V17.7174H27.837V17.9935ZM27.837 19.2423V19.5184H28.1131V19.2423H27.837ZM24.8938 21.2128V16.023H24.3416V21.2128H24.8938ZM24.6177 16.2991H25.8665V15.7469H24.6177V16.2991ZM25.5904 16.023V21.2128H26.1426V16.023H25.5904ZM25.8665 20.9367H24.6177V21.4889H25.8665V20.9367ZM22.9233 19.2423V17.9935H22.3711V19.2423H22.9233ZM22.6472 18.2696H27.837V17.7174H22.6472V18.2696ZM27.5609 17.9935V19.2423H28.1131V17.9935H27.5609ZM27.837 18.9662H22.6472V19.5184H27.837V18.9662Z" fill="url(#paint2_linear_2127_485)" mask="url(#path-2-outside-1_2127_485)"/>
<defs>
<linearGradient id="paint0_linear_2127_485" x1="35.2098" y1="17.6049" x2="0" y2="17.6049" gradientUnits="userSpaceOnUse">
<stop stop-color="#00EC9E"/>
<stop offset="1" stop-color="#8E6EFA"/>
</linearGradient>
<linearGradient id="paint1_linear_2127_485" x1="29.2227" y1="18.2366" x2="9.22266" y2="18.2366" gradientUnits="userSpaceOnUse">
<stop stop-color="#00EC9E"/>
<stop offset="1" stop-color="#8E6EFA"/>
</linearGradient>
<linearGradient id="paint2_linear_2127_485" x1="29.2227" y1="18.2366" x2="9.22266" y2="18.2366" gradientUnits="userSpaceOnUse">
<stop stop-color="#00EC9E"/>
<stop offset="1" stop-color="#8E6EFA"/>
</linearGradient>
</defs>
</svg>
