<svg width="42" height="42" viewBox="0 0 42 42" fill="none" xmlns="http://www.w3.org/2000/svg">
<circle cx="21" cy="21" r="21" fill="#00DC82"/>
<path d="M12.0202 27.5559V17.678L12.6492 18.052L9.57195 20.2792V17.627L12.2412 15.6548H14.4004V27.5559H12.0202ZM21.2744 27.7769C20.2883 27.7769 19.4269 27.6352 18.6902 27.3519C17.9648 27.0572 17.4038 26.6435 17.0071 26.1108C16.6104 25.578 16.412 24.9603 16.412 24.2576C16.412 23.5549 16.6104 22.9485 17.0071 22.4384C17.4038 21.9284 17.9478 21.577 18.6392 21.3843V21.2993C17.9818 21.0726 17.4888 20.7496 17.1601 20.3302C16.8427 19.8995 16.684 19.3725 16.684 18.7491C16.684 18.0917 16.8654 17.5137 17.2281 17.0149C17.6021 16.5162 18.1348 16.1309 18.8262 15.8588C19.5289 15.5755 20.345 15.4338 21.2744 15.4338C22.2152 15.4338 23.0313 15.5755 23.7226 15.8588C24.414 16.1309 24.9468 16.5219 25.3208 17.0319C25.6948 17.5307 25.8818 18.103 25.8818 18.7491C25.8818 19.3725 25.7175 19.8995 25.3888 20.3302C25.0714 20.7496 24.5841 21.0726 23.9267 21.2993V21.3843C24.6181 21.577 25.1621 21.9284 25.5588 22.4384C25.9555 22.9485 26.1539 23.5549 26.1539 24.2576C26.1539 24.9603 25.9498 25.578 25.5418 26.1108C25.1451 26.6435 24.5784 27.0572 23.8417 27.3519C23.1163 27.6352 22.2605 27.7769 21.2744 27.7769ZM21.2744 25.6347C22.0678 25.6347 22.6686 25.4987 23.0766 25.2267C23.4846 24.9546 23.6886 24.5579 23.6886 24.0366C23.6886 23.5265 23.4846 23.1355 23.0766 22.8635C22.6686 22.5801 22.0678 22.4384 21.2744 22.4384C20.481 22.4384 19.8803 22.5801 19.4723 22.8635C19.0756 23.1355 18.8772 23.5265 18.8772 24.0366C18.8772 24.5579 19.0756 24.9546 19.4723 25.2267C19.8803 25.4987 20.481 25.6347 21.2744 25.6347ZM21.2744 20.4322C22.0112 20.4322 22.5552 20.3076 22.9066 20.0582C23.2693 19.8089 23.4506 19.4518 23.4506 18.9871C23.4506 18.5111 23.2693 18.1484 22.9066 17.899C22.5552 17.6497 22.0112 17.525 21.2744 17.525C20.5377 17.525 19.9937 17.6497 19.6423 17.899C19.2909 18.1484 19.1152 18.5111 19.1152 18.9871C19.1152 19.4518 19.2909 19.8089 19.6423 20.0582C19.9937 20.3076 20.5377 20.4322 21.2744 20.4322ZM31.1937 25.2947V17.593H33.0469V25.2947H31.1937ZM28.2695 22.3704V20.5173H35.9712V22.3704H28.2695Z" fill="white"/>
</svg>
