<svg width="40" height="28" viewBox="0 0 40 28" fill="none" xmlns="http://www.w3.org/2000/svg">
<path fill-rule="evenodd" clip-rule="evenodd" d="M38.5148 5.84401C38.854 5.84401 39.1288 5.56919 39.1288 5.22996V2.84039C39.1288 1.2742 37.8547 0 36.2885 0H3.07859C1.51241 7.59584e-05 0.238281 1.2742 0.238281 2.84046V24.3614C0.238281 25.9277 1.51241 27.2019 3.07859 27.2019H36.2887C37.8548 27.2019 39.129 25.9277 39.1288 24.3614V7.22235C39.1288 6.88312 38.854 6.6083 38.5148 6.6083C38.1755 6.6083 37.9007 6.88312 37.9007 7.22235V24.3614C37.9007 25.2505 37.1774 25.9737 36.2885 25.9737H3.07859C2.18965 25.9737 1.46638 25.2505 1.46638 24.3614V2.84046C1.46638 1.95145 2.18965 1.22817 3.07859 1.22817H36.2885C37.1774 1.22817 37.9007 1.95145 37.9007 2.84046V5.23004C37.9007 5.56919 38.1755 5.84401 38.5148 5.84401ZM13.1671 9.17213H14.3737C14.7003 9.17213 15.0103 9.31456 15.0103 9.75018C15.0103 10.1774 14.6418 10.3199 14.3737 10.3199H13.1671V9.17213ZM13.1671 11.3251H14.4155C14.8846 11.3251 15.2533 11.5011 15.2533 12.0289C15.2533 12.5233 14.9098 12.6992 14.4155 12.6992V12.699H13.1671V11.3251ZM20.0779 9.62447H20.0612L19.3826 11.7191H20.7398L20.0779 9.62447ZM9.24006 16.0544H10.0938C10.3938 16.0544 10.6361 16.1931 10.6361 16.4988C10.6361 16.8103 10.463 16.9833 10.1399 16.9833H9.24006V16.0544ZM13.996 16.3371H13.9845L13.5172 17.7796H14.4519L13.996 16.3371ZM33.0654 16.0544H33.9192C34.2193 16.0544 34.4615 16.1931 34.4615 16.4988C34.4615 16.8103 34.2885 16.9833 33.9655 16.9833H33.0654V16.0544ZM36.7251 18.3884C36.7341 18.5481 36.744 18.6665 36.7545 18.7421C36.9239 19.0636 36.9448 19.4502 36.7977 19.7953C36.6046 20.2482 36.1599 20.5423 35.6677 20.5423H34.6061C34.3235 20.5423 34.0537 20.4451 33.8388 20.2731C33.6285 20.4416 33.3618 20.5423 33.0714 20.5423H31.9982C31.8924 20.5423 31.7903 20.5275 31.6924 20.5023C31.5945 20.5275 31.4925 20.5423 31.3866 20.5423H28.0461C27.3816 20.5423 26.842 20.0144 26.82 19.3554C26.7981 20.0144 26.2582 20.5423 25.594 20.5423H24.5207C24.2525 20.5423 24.0053 20.4554 23.8033 20.3095C23.3537 20.5181 22.8163 20.6289 22.2244 20.6289C21.6364 20.6289 21.1116 20.5123 20.6705 20.2996C20.4662 20.4515 20.2138 20.5424 19.9397 20.5424H18.8378C18.574 20.5424 18.3229 20.4579 18.1166 20.3083C17.914 20.4555 17.6648 20.5424 17.3953 20.5424H16.3855C16.3355 20.5424 16.2866 20.5386 16.2381 20.5327C16.1877 20.539 16.1369 20.5424 16.0854 20.5424H14.966C14.5767 20.5424 14.2193 20.3588 13.9913 20.0612C13.763 20.3588 13.4055 20.5424 13.0162 20.5424H11.9141C11.9089 20.5424 11.9038 20.5419 11.8987 20.5414C11.8944 20.541 11.8901 20.5406 11.8857 20.5405C11.8812 20.5407 11.8768 20.541 11.8724 20.5412C11.8613 20.5418 11.8503 20.5424 11.8393 20.5424H10.7775C10.4949 20.5424 10.2251 20.4453 10.0102 20.2732C9.79994 20.4416 9.53318 20.5424 9.24294 20.5424H8.16965C7.83885 20.5424 7.53935 20.411 7.31854 20.1984C7.09772 20.4109 6.79814 20.5424 6.46742 20.5424H5.39443C4.71628 20.5424 4.16634 19.9925 4.16634 19.3143V17.346H4.1655C3.48719 17.346 2.93741 16.7962 2.93741 16.1179V15.1948C2.93741 14.9669 3.00061 14.7541 3.10885 14.5712C3.00053 14.3883 2.93741 14.1755 2.93741 13.9476V12.647C2.93741 12.4608 2.9801 12.285 3.05416 12.1268C2.97994 11.9686 2.93741 11.7927 2.93741 11.6065V10.3059C2.93741 10.1197 2.9801 9.94381 3.05416 9.78566C2.97994 9.62744 2.93741 9.4516 2.93741 9.26543V7.96479C2.93741 7.28656 3.48719 6.7367 4.1655 6.7367H10.6611C10.8305 6.7367 10.9921 6.7711 11.1391 6.83316C11.2855 6.77148 11.4463 6.73738 11.6153 6.73738H14.4042C14.4366 6.73685 14.4691 6.73662 14.5015 6.73662H14.5017C15.3113 6.73662 15.9914 6.89013 16.5232 7.19282C17.1247 7.53509 17.528 8.05708 17.7034 8.69976L18.1388 7.53525C18.3184 7.05542 18.7769 6.7373 19.2893 6.7373H20.8725C21.385 6.7373 21.8434 7.05534 22.023 7.53525L22.3166 8.32058V7.9654C22.3166 7.28717 22.8665 6.7373 23.5447 6.7373H25.1451C25.5733 6.7373 25.9696 6.96032 26.1922 7.3237C26.4082 6.97186 26.7965 6.7373 27.2395 6.7373H28.7058C28.8966 6.7373 29.0765 6.78204 29.2375 6.85967C29.3986 6.78212 29.5785 6.7373 29.7693 6.7373H31.3276C31.7294 6.7373 32.0863 6.93031 32.3103 7.22883L32.3643 7.16586C32.5976 6.89385 32.9381 6.7373 33.2965 6.7373H35.2319H35.2322C35.9105 6.7373 36.4601 7.28717 36.4601 7.9654C36.4601 8.29582 36.3296 8.59562 36.1174 8.81636L34.5918 10.4403L36.5211 13.2529C36.7788 13.6287 36.8073 14.1165 36.5948 14.5198C36.5155 14.6706 36.4072 14.8004 36.279 14.9037C36.592 15.2951 36.769 15.7905 36.769 16.3545C36.769 16.7386 36.6839 17.1027 36.5287 17.4241C36.6211 17.6612 36.6887 17.9429 36.7181 18.278C36.7185 18.2823 36.7189 18.2866 36.7192 18.291C36.7195 18.2947 36.7198 18.2984 36.72 18.3022C36.7216 18.3251 36.7232 18.3544 36.7251 18.3884ZM4.1655 7.96487V9.07781V9.2655H10.661V7.96487H10.387H4.1655ZM4.1655 10.4937V11.4188V11.6065H10.661V10.3059H4.1655V10.4937ZM4.1655 12.6468V12.8346V13.9473H10.387H10.661V12.6468H4.1655ZM6.9414 16.1179H7.6965V15.1948H6.9414H4.1655V16.1179H5.39443V19.3143H6.46742V16.1179H6.9414ZM10.7774 19.3143V19.3144H11.8391C11.7103 19.1802 11.6826 18.6824 11.67 18.4544C11.6685 18.4272 11.6672 18.4039 11.6659 18.3854C11.6378 18.0673 11.549 17.6849 11.2826 17.496L11.2825 17.496C11.2811 17.495 11.2796 17.4941 11.2782 17.4932C11.2763 17.492 11.2744 17.4908 11.2725 17.4896C11.257 17.4791 11.241 17.4692 11.2244 17.46C11.2174 17.4562 11.2102 17.4527 11.203 17.4491C11.1884 17.4418 11.1734 17.4351 11.158 17.4289L11.1556 17.4279C11.1493 17.4254 11.143 17.4228 11.1365 17.4204C11.1139 17.4123 11.0906 17.4048 11.0659 17.399V17.3876C11.0969 17.3757 11.1263 17.3621 11.155 17.3476C11.1639 17.343 11.1727 17.3381 11.1814 17.3332C11.2008 17.3226 11.2198 17.3115 11.2383 17.2998C11.2476 17.2939 11.2567 17.2878 11.2656 17.2817C11.2836 17.2693 11.3008 17.2565 11.3175 17.2432C11.325 17.2372 11.3327 17.2314 11.3401 17.2253C11.3627 17.2062 11.3845 17.1864 11.4052 17.1654L11.4069 17.1637L11.407 17.1637C11.6109 16.9549 11.712 16.6602 11.712 16.3545C11.712 15.6792 11.2393 15.3355 10.6717 15.2305C10.668 15.2299 10.6642 15.2293 10.6604 15.2288C10.6567 15.2283 10.653 15.2278 10.6494 15.2272C10.6132 15.2209 10.5767 15.2149 10.5399 15.2105C10.5311 15.2095 10.5223 15.2088 10.5135 15.2081C10.5078 15.2077 10.5021 15.2073 10.4964 15.2067L10.4875 15.2058C10.4602 15.2031 10.4329 15.2003 10.4054 15.1987C10.3603 15.196 10.3151 15.1947 10.2697 15.1947H8.9246H8.1695V17.2514V19.3143H9.24287V17.8142H10.0564C10.5584 17.8142 10.6274 18.2411 10.6564 18.6565L10.6591 18.6879C10.6601 18.6993 10.6611 18.7121 10.6622 18.726C10.6698 18.8221 10.6815 18.9712 10.7064 19.1011C10.7066 19.1014 10.7066 19.1017 10.7066 19.102C10.7234 19.1889 10.7459 19.2672 10.7774 19.3143ZM14.9659 19.3143H15.1574H16.0853L14.5448 15.1948H13.4544L11.914 19.3143H13.0162L13.0593 19.1915L13.2756 18.5757H14.7123L14.9659 19.3143ZM15.8489 13.7085L15.8493 13.7083C16.4351 13.4478 16.818 12.9485 16.8183 12.0878C16.8183 11.8515 16.7695 11.6311 16.6804 11.4355C16.6803 11.4354 16.6803 11.4353 16.6803 11.4352C16.6187 11.3003 16.5376 11.1778 16.4388 11.0705C16.4353 11.0666 16.4316 11.0627 16.4279 11.0588C16.3979 11.027 16.3664 10.9964 16.3332 10.9673C16.3313 10.9655 16.3294 10.9637 16.3275 10.9619C16.3265 10.961 16.3254 10.96 16.3244 10.9591C16.2877 10.9277 16.2494 10.8978 16.2092 10.8702C16.2084 10.8695 16.2075 10.869 16.2066 10.8685C16.206 10.8681 16.2055 10.8678 16.2049 10.8674C16.1689 10.8428 16.1312 10.8201 16.0925 10.7986C16.0811 10.7923 16.0695 10.7864 16.0578 10.7803C16.0268 10.7644 15.995 10.7493 15.9624 10.7354C15.9585 10.7337 15.9546 10.732 15.9507 10.7303C15.942 10.7266 15.9333 10.7228 15.9244 10.7193C15.88 10.7016 15.8347 10.6854 15.7877 10.6718C16.2568 10.4372 16.5752 10.0016 16.5752 9.46542C16.5752 9.42691 16.5741 9.38939 16.572 9.35278C16.5718 9.34854 16.5714 9.34439 16.5711 9.34028C16.5704 9.33273 16.5696 9.3253 16.569 9.31768C16.5687 9.31446 16.5685 9.31123 16.5682 9.30801C16.5666 9.28698 16.565 9.26597 16.5626 9.24575C16.5616 9.23759 16.5603 9.22963 16.5591 9.2217C16.5582 9.21613 16.5573 9.21057 16.5565 9.20496C16.5557 9.19969 16.555 9.1944 16.5542 9.18912C16.552 9.17385 16.5499 9.15862 16.5471 9.14389C16.5446 9.12984 16.5413 9.11639 16.5383 9.10265C16.5377 9.09974 16.5371 9.09683 16.5364 9.09392C16.5331 9.07819 16.5298 9.06246 16.5259 9.04727C16.5232 9.03652 16.5201 9.02622 16.517 9.01585C16.516 9.01282 16.5151 9.00977 16.5142 9.00671C16.5129 9.00237 16.5117 8.99802 16.5104 8.99367C16.5068 8.98083 16.5031 8.96802 16.4989 8.95559C16.4955 8.94512 16.4917 8.93498 16.4879 8.92484C16.4869 8.92218 16.4859 8.91952 16.4849 8.91685C16.479 8.90075 16.4732 8.88449 16.4668 8.86892C16.4616 8.85639 16.4557 8.84431 16.4502 8.83201C16.449 8.82949 16.4479 8.82698 16.4468 8.82447C16.4411 8.8119 16.4355 8.79943 16.4294 8.78727C16.4233 8.77511 16.4168 8.76357 16.4104 8.75187C16.4027 8.73782 16.3953 8.72369 16.3871 8.71017C16.3847 8.70604 16.3822 8.70199 16.3796 8.69797C16.3751 8.69088 16.3704 8.6839 16.3659 8.67682C16.3575 8.66361 16.3489 8.65039 16.34 8.63778C16.3325 8.627 16.3245 8.61666 16.3167 8.60626C16.3146 8.60346 16.3124 8.60065 16.3103 8.59785C16.3032 8.58841 16.296 8.57901 16.2885 8.56987C16.2803 8.55985 16.2717 8.55005 16.2631 8.54033C16.2531 8.52886 16.2431 8.51746 16.2327 8.50637C16.2237 8.49695 16.2146 8.48784 16.2054 8.47872L16.2054 8.47868C16.1947 8.46806 16.184 8.45744 16.1729 8.44713C16.1634 8.43831 16.1536 8.42981 16.1438 8.4213C16.1323 8.41135 16.1209 8.40147 16.1091 8.39198C16.0991 8.38378 16.0887 8.37595 16.0784 8.36798C16.0663 8.35879 16.0541 8.3496 16.0417 8.34078C16.0311 8.33326 16.0202 8.3259 16.0093 8.3186C15.9966 8.3101 15.9838 8.30174 15.9708 8.29354C15.9597 8.28663 15.9484 8.27979 15.937 8.2731C15.9238 8.26536 15.9103 8.25753 15.8967 8.25001C15.8852 8.24363 15.8736 8.2374 15.8617 8.23125C15.8478 8.22404 15.8338 8.21697 15.8198 8.21021C15.8078 8.20444 15.7956 8.19859 15.7833 8.19304C15.7691 8.18651 15.7546 8.18013 15.74 8.1739L15.7024 8.15826L15.6965 8.15592C15.6835 8.15085 15.6707 8.14582 15.6576 8.14101C15.6447 8.13615 15.632 8.13137 15.619 8.12681C15.6038 8.12149 15.5884 8.11625 15.5729 8.11124L15.569 8.10999C15.5572 8.10615 15.5454 8.10233 15.5334 8.09863C15.5177 8.09384 15.502 8.08921 15.4862 8.08473C15.4728 8.08085 15.4594 8.07698 15.4458 8.07341C15.4298 8.06923 15.4134 8.06513 15.3973 8.0611L15.3971 8.06106C15.3836 8.05773 15.3701 8.05441 15.3564 8.05131C15.34 8.04758 15.3236 8.04401 15.3069 8.04052C15.2931 8.03748 15.2792 8.03467 15.2652 8.03194C15.2485 8.02867 15.2318 8.02563 15.2151 8.02267L15.2079 8.02138C15.1962 8.01929 15.1845 8.01719 15.1728 8.0153C15.1558 8.01257 15.1388 8.00991 15.1217 8.00748C15.1076 8.00543 15.0935 8.00315 15.0793 8.00125C15.062 7.99897 15.0448 7.99684 15.0274 7.99479L14.9847 7.98971C14.9737 7.98851 14.9626 7.98746 14.9515 7.98642C14.945 7.9858 14.9384 7.98519 14.9319 7.98454C14.9178 7.9831 14.9038 7.98173 14.8895 7.98051C14.8761 7.97931 14.8626 7.97836 14.849 7.97741C14.8447 7.97711 14.8403 7.9768 14.836 7.97649L14.7938 7.97353C14.7803 7.97272 14.7669 7.97205 14.7534 7.97138C14.7489 7.97116 14.7445 7.97094 14.74 7.97072C14.726 7.97003 14.7119 7.9692 14.6978 7.96874C14.6864 7.96827 14.6749 7.96794 14.6635 7.96761C14.6566 7.96742 14.6498 7.96722 14.6429 7.96699C14.6368 7.96686 14.6307 7.96666 14.6247 7.96647C14.6171 7.96622 14.6095 7.96598 14.6019 7.96585C14.5862 7.96547 14.5705 7.96536 14.5548 7.96524L14.5454 7.96517C14.5322 7.96502 14.519 7.96487 14.5059 7.96487L14.5013 7.96479C14.4721 7.96479 14.4426 7.96509 14.4135 7.96555H11.8891H11.6151V13.9474H11.8891H14.4888C14.5455 13.9474 14.6015 13.9462 14.6573 13.9445L14.6918 13.9433C14.7473 13.9412 14.8022 13.9383 14.8565 13.9343L14.8721 13.933C14.9255 13.929 14.9783 13.9238 15.0304 13.9178C15.0326 13.9175 15.0347 13.9173 15.0369 13.9171C15.0399 13.9168 15.0429 13.9165 15.0459 13.9161C15.1018 13.9094 15.1565 13.9015 15.2105 13.8926L15.2222 13.8906C15.3334 13.8717 15.4407 13.8478 15.5437 13.8184L15.5489 13.8168C15.6536 13.7865 15.7539 13.7507 15.8489 13.7085ZM19.5738 19.3143H19.9396V15.1947H19.637H18.9298V17.7333H18.9181L17.4873 15.1947H16.3854V16.6105V19.3143H17.3131H17.3951V16.7469H17.4066L18.8378 19.3143H19.5738ZM18.6521 13.9474L19.0291 12.8751H21.1153L21.4839 13.9474H21.5193H23.1094L22.3164 11.8269L20.8723 7.96547H19.289L17.052 13.9474H17.4766H18.6521ZM22.917 19.3249L22.921 19.3239C23.5367 19.1749 24.0187 18.791 24.019 18.0215C24.019 17.3296 23.5003 17.0419 22.9498 16.8704L22.9431 16.8682C22.9038 16.8561 22.8642 16.8444 22.8246 16.8332C22.6974 16.7977 22.5704 16.7672 22.4493 16.738C21.9993 16.6297 21.6304 16.5409 21.6304 16.2909C21.6304 16.0196 21.919 15.9389 22.1496 15.9389C22.4785 15.9389 22.8305 16.0601 22.8132 16.4351H23.2927H23.8863C23.8817 15.7233 23.3963 15.3237 22.8013 15.1754H22.8012C22.6196 15.1302 22.4278 15.1081 22.2362 15.1081C22.005 15.1081 21.7619 15.14 21.5348 15.2082L21.5228 15.2117C21.4848 15.2234 21.4473 15.2361 21.4104 15.2498L21.395 15.2557C21.3584 15.2697 21.3225 15.2846 21.2872 15.3006L21.2749 15.3065C20.865 15.4975 20.5572 15.8356 20.5572 16.3601C20.5572 16.8538 20.8212 17.1376 21.168 17.3222L21.1685 17.3224C21.3024 17.3937 21.4483 17.4503 21.5967 17.498L21.6232 17.5065C21.6697 17.5212 21.7164 17.5352 21.7629 17.5485C21.8695 17.5786 21.9758 17.6054 22.0787 17.6314C22.5492 17.7502 22.9456 17.8503 22.9456 18.1487C22.9456 18.4545 22.6109 18.5698 22.2879 18.5698C21.8321 18.5698 21.5321 18.4142 21.5089 17.9295H21.1679H20.4359C20.4394 18.5535 20.7329 18.9537 21.1679 19.1768L21.168 19.1769C21.203 19.1948 21.2392 19.2114 21.276 19.2271L21.2914 19.2336C21.3278 19.2487 21.3649 19.263 21.403 19.276L21.4117 19.2788C21.4489 19.2913 21.487 19.3029 21.5256 19.3134L21.5354 19.3163C21.5745 19.3267 21.6143 19.3361 21.6545 19.3446L21.6747 19.3487C21.7152 19.3569 21.756 19.3642 21.7975 19.3705L21.8049 19.3715C21.8446 19.3773 21.8847 19.382 21.9251 19.3861L21.9461 19.3882C21.987 19.3919 22.0283 19.3949 22.07 19.3969L22.095 19.398C22.1379 19.3997 22.1809 19.4009 22.2244 19.4009C22.2675 19.4009 22.3106 19.4 22.3536 19.3984L22.3749 19.3976C22.4169 19.3958 22.4586 19.3932 22.5002 19.3898L22.5186 19.3882C22.6077 19.3805 22.6957 19.369 22.7818 19.3534L22.7868 19.3525C22.8308 19.3444 22.8741 19.3352 22.917 19.3249ZM26.818 16.0544H27.5558V15.1948H26.8181H24.7899H24.5208V19.3143H24.9164H25.5941V17.7275H26.818H27.2903V16.8969H26.818H25.5941V16.0544H26.818ZM27.1053 13.9475V13.9476H28.5409H28.7057V7.96555H28.5409H27.2393V11.652H27.2227L25.1449 7.96555H23.5445V11.6048V13.9475H24.3372H25.0109V10.2193H25.0275L27.1053 13.9475ZM30.7704 19.3143H31.3868V18.3913H30.7704H29.1193V17.6065H30.7704H31.1386V16.7757H30.7704H29.1193V16.0545H30.7704H31.3291V15.1949H30.7704H28.7839H28.0462V18.6942V19.3143H30.7704ZM31.3274 12.1044L31.9641 11.4342L33.5729 13.9476H35.5081L33.0197 10.3199L35.2316 7.96555H33.2962L31.3274 10.2612V7.96555H29.9337H29.7689V13.9475H29.9337H31.3274V12.1044ZM34.491 18.7267C34.5036 18.888 34.5278 19.1967 34.6063 19.3143H35.6679C35.5393 19.1806 35.5117 18.6853 35.499 18.4564C35.4974 18.4283 35.496 18.4043 35.4948 18.3854C35.4602 17.9929 35.3332 17.5027 34.8948 17.3987V17.3873C35.3276 17.2198 35.5409 16.7987 35.5409 16.3543C35.5409 15.5237 34.8256 15.1947 34.0987 15.1947H32.5573H31.9986V19.3143H32.615H33.0717V17.8142H33.8851C34.3871 17.8142 34.4563 18.2411 34.4851 18.6565C34.4869 18.674 34.4888 18.698 34.491 18.7267Z" fill="#313131"/>
</svg>
