<svg width="733" height="735" viewBox="0 0 733 735" fill="none" xmlns="http://www.w3.org/2000/svg">
<path opacity="0.3" d="M685.381 367.747C685.364 543.325 542.878 685.66 367.129 685.66C191.379 685.66 48.9208 543.325 48.9375 367.747C48.9542 192.169 191.441 49.835 367.189 49.835C542.938 49.835 685.397 192.169 685.381 367.747ZM67.4635 367.747C67.4477 533.103 201.613 667.152 367.131 667.152C532.647 667.152 666.839 533.103 666.854 367.747C666.871 202.391 532.704 68.3428 367.188 68.3428C201.67 68.3428 67.4793 202.391 67.4635 367.747Z" fill="#1D2123"/>
<path d="M8.83594 368.859C8.83594 171.836 168.911 11.6714 366.373 11.6714C563.834 11.6714 723.909 171.836 723.909 368.859C723.909 565.881 563.834 726.045 366.373 726.045C168.911 726.045 8.83594 565.881 8.83594 368.859ZM366.824 682.758C540.567 682.758 681.419 542.225 681.419 368.859C681.419 195.492 540.567 54.9595 366.824 54.9595C193.081 54.9595 52.2291 195.492 52.2291 368.859C52.2291 542.225 193.081 682.758 366.824 682.758Z" fill="#020202"/>
<path d="M8.83594 368.859C8.83594 171.836 168.911 11.6714 366.373 11.6714C563.834 11.6714 723.909 171.836 723.909 368.859C723.909 565.881 563.834 726.045 366.373 726.045C168.911 726.045 8.83594 565.881 8.83594 368.859ZM366.824 682.758C540.567 682.758 681.419 542.225 681.419 368.859C681.419 195.492 540.567 54.9595 366.824 54.9595C193.081 54.9595 52.2291 195.492 52.2291 368.859C52.2291 542.225 193.081 682.758 366.824 682.758Z" fill="url(#paint0_linear_471_2274)" fill-opacity="0.5"/>
<path d="M8.83594 368.859C8.83594 171.836 168.911 11.6714 366.373 11.6714C563.834 11.6714 723.909 171.836 723.909 368.859C723.909 565.881 563.834 726.045 366.373 726.045C168.911 726.045 8.83594 565.881 8.83594 368.859ZM366.824 682.758C540.567 682.758 681.418 542.225 681.418 368.859C681.418 195.492 540.567 54.9595 366.824 54.9595C193.081 54.9595 52.2291 195.492 52.2291 368.859C52.2291 542.225 193.081 682.758 366.824 682.758Z" stroke="url(#paint1_linear_471_2274)" stroke-width="5"/>
<path d="M8.83594 368.859C8.83594 171.836 168.911 11.6714 366.373 11.6714C563.834 11.6714 723.909 171.836 723.909 368.859C723.909 565.881 563.834 726.045 366.373 726.045C168.911 726.045 8.83594 565.881 8.83594 368.859ZM366.824 682.758C540.567 682.758 681.418 542.225 681.418 368.859C681.418 195.492 540.567 54.9595 366.824 54.9595C193.081 54.9595 52.2291 195.492 52.2291 368.859C52.2291 542.225 193.081 682.758 366.824 682.758Z" stroke="black" stroke-opacity="0.33" stroke-width="5"/>
<g filter="url(#filter0_di_471_2274)">
<path d="M366.373 46.6825C373.91 46.6825 380.02 40.5786 380.02 33.0491C380.02 25.5196 373.91 19.4158 366.373 19.4158C358.836 19.4158 352.727 25.5196 352.727 33.0491C352.727 40.5786 358.836 46.6825 366.373 46.6825Z" fill="url(#paint2_radial_471_2274)"/>
<path d="M366.373 44.6447C372.783 44.6447 377.979 39.4532 377.979 33.0491C377.979 26.6451 372.783 21.4536 366.373 21.4536C359.962 21.4536 354.766 26.6451 354.766 33.0491C354.766 39.4532 359.962 44.6447 366.373 44.6447Z" stroke="white" stroke-opacity="0.66" stroke-width="3"/>
</g>
<g filter="url(#filter1_di_471_2274)">
<path d="M366.373 718.361C373.91 718.361 380.02 712.257 380.02 704.728C380.02 697.198 373.91 691.094 366.373 691.094C358.836 691.094 352.727 697.198 352.727 704.728C352.727 712.257 358.836 718.361 366.373 718.361Z" fill="url(#paint3_radial_471_2274)"/>
<path d="M366.373 716.323C372.783 716.323 377.979 711.132 377.979 704.728C377.979 698.324 372.783 693.132 366.373 693.132C359.962 693.132 354.766 698.324 354.766 704.728C354.766 711.132 359.962 716.323 366.373 716.323Z" stroke="white" stroke-opacity="0.66" stroke-width="3"/>
</g>
<g filter="url(#filter2_di_471_2274)">
<path d="M688.902 368.888C688.902 376.418 695.012 382.522 702.549 382.522C710.085 382.522 716.195 376.418 716.195 368.888C716.195 361.359 710.085 355.255 702.549 355.255C695.012 355.255 688.902 361.359 688.902 368.888Z" fill="url(#paint4_radial_471_2274)"/>
<path d="M690.935 368.888C690.935 375.292 696.131 380.484 702.542 380.484C708.952 380.484 714.148 375.292 714.148 368.888C714.148 362.484 708.952 357.293 702.542 357.293C696.131 357.293 690.935 362.484 690.935 368.888Z" stroke="white" stroke-opacity="0.66" stroke-width="3"/>
</g>
<g filter="url(#filter3_di_471_2274)">
<path d="M16.5659 368.888C16.5659 376.418 22.6758 382.522 30.2126 382.522C37.7495 382.522 43.8594 376.418 43.8594 368.888C43.8594 361.359 37.7495 355.255 30.2126 355.255C22.6758 355.255 16.5659 361.359 16.5659 368.888Z" fill="url(#paint5_radial_471_2274)"/>
<path d="M18.5987 368.888C18.5987 375.293 23.7953 380.484 30.2056 380.484C36.6159 380.484 41.8125 375.293 41.8125 368.888C41.8125 362.484 36.6159 357.293 30.2056 357.293C23.7953 357.293 18.5987 362.484 18.5987 368.888Z" stroke="white" stroke-opacity="0.66" stroke-width="3"/>
</g>
<g filter="url(#filter4_di_471_2274)">
<path d="M594.428 141.054C599.758 146.378 608.398 146.378 613.728 141.054C619.057 135.73 619.057 127.098 613.728 121.774C608.398 116.449 599.758 116.449 594.428 121.774C589.099 127.098 589.099 135.73 594.428 141.054Z" fill="url(#paint6_radial_471_2274)"/>
<path d="M595.871 139.613C600.404 144.141 607.753 144.141 612.285 139.613C616.818 135.085 616.818 127.743 612.285 123.215C607.753 118.686 600.404 118.686 595.871 123.215C591.338 127.743 591.338 135.085 595.871 139.613Z" stroke="white" stroke-opacity="0.66" stroke-width="3"/>
</g>
<g filter="url(#filter5_di_471_2274)">
<path d="M119.014 616.003C124.344 621.327 132.984 621.327 138.314 616.003C143.643 610.679 143.643 602.047 138.314 596.723C132.984 591.398 124.344 591.398 119.014 596.723C113.685 602.047 113.685 610.679 119.014 616.003Z" fill="url(#paint7_radial_471_2274)"/>
<path d="M120.457 614.562C124.99 619.09 132.339 619.09 136.871 614.562C141.404 610.034 141.404 602.692 136.871 598.164C132.339 593.635 124.99 593.635 120.457 598.164C115.924 602.692 115.924 610.034 120.457 614.562Z" stroke="white" stroke-opacity="0.66" stroke-width="3"/>
</g>
<g filter="url(#filter6_di_471_2274)">
<path d="M594.434 596.721C589.104 602.045 589.104 610.678 594.434 616.002C599.763 621.326 608.404 621.326 613.733 616.002C619.062 610.678 619.062 602.045 613.733 596.721C608.404 591.397 599.763 591.397 594.434 596.721Z" fill="url(#paint8_radial_471_2274)"/>
<path d="M595.87 598.162C591.337 602.69 591.337 610.032 595.87 614.561C600.403 619.089 607.752 619.089 612.285 614.561C616.818 610.032 616.818 602.69 612.285 598.162C607.752 593.634 600.403 593.634 595.87 598.162Z" stroke="white" stroke-opacity="0.66" stroke-width="3"/>
</g>
<g filter="url(#filter7_di_471_2274)">
<path d="M119.02 121.774C113.69 127.098 113.69 135.73 119.02 141.054C124.349 146.379 132.99 146.379 138.319 141.054C143.648 135.73 143.648 127.098 138.319 121.774C132.99 116.45 124.349 116.45 119.02 121.774Z" fill="url(#paint9_radial_471_2274)"/>
<path d="M120.456 123.215C115.923 127.743 115.923 135.085 120.456 139.613C124.989 144.142 132.338 144.142 136.871 139.613C141.404 135.085 141.404 127.743 136.871 123.215C132.338 118.687 124.989 118.687 120.456 123.215Z" stroke="white" stroke-opacity="0.66" stroke-width="3"/>
</g>
<g filter="url(#filter8_di_471_2274)">
<path d="M449.852 57.6618C457.132 59.6105 464.615 55.2944 466.566 48.0215C468.517 40.7486 464.196 33.2729 456.916 31.3241C449.636 29.3753 442.153 33.6914 440.202 40.9644C438.252 48.2373 442.572 55.713 449.852 57.6618Z" fill="url(#paint10_radial_471_2274)"/>
<path d="M450.383 55.6934C456.575 57.3509 462.939 53.6799 464.598 47.4941C466.258 41.3083 462.583 34.95 456.391 33.2925C450.199 31.635 443.835 35.306 442.176 41.4918C440.516 47.6776 444.191 54.0359 450.383 55.6934Z" stroke="white" stroke-opacity="0.66" stroke-width="3"/>
</g>
<g filter="url(#filter9_di_471_2274)">
<path d="M275.836 706.453C283.116 708.402 290.599 704.086 292.55 696.813C294.501 689.54 290.181 682.064 282.9 680.116C275.62 678.167 268.137 682.483 266.187 689.756C264.236 697.029 268.556 704.504 275.836 706.453Z" fill="url(#paint11_radial_471_2274)"/>
<path d="M276.367 704.485C282.559 706.142 288.924 702.471 290.583 696.286C292.242 690.1 288.567 683.741 282.375 682.084C276.184 680.426 269.819 684.097 268.16 690.283C266.501 696.469 270.175 702.827 276.367 704.485Z" stroke="white" stroke-opacity="0.66" stroke-width="3"/>
</g>
<g filter="url(#filter10_di_471_2274)">
<path d="M677.909 452.281C675.959 459.554 680.279 467.03 687.559 468.979C694.839 470.928 702.322 466.612 704.273 459.339C706.223 452.066 701.903 444.59 694.623 442.641C687.343 440.692 679.86 445.008 677.909 452.281Z" fill="url(#paint12_radial_471_2274)"/>
<path d="M679.878 452.809C678.219 458.995 681.893 465.353 688.085 467.01C694.277 468.668 700.641 464.997 702.301 458.811C703.96 452.625 700.285 446.267 694.093 444.61C687.901 442.952 681.537 446.623 679.878 452.809Z" stroke="white" stroke-opacity="0.66" stroke-width="3"/>
</g>
<g filter="url(#filter11_di_471_2274)">
<path d="M28.4874 278.438C26.5367 285.711 30.857 293.187 38.137 295.136C45.4171 297.085 52.9001 292.768 54.8508 285.495C56.8015 278.223 52.4812 270.747 45.2011 268.798C37.921 266.849 30.438 271.165 28.4874 278.438Z" fill="url(#paint13_radial_471_2274)"/>
<path d="M30.4559 278.966C28.7968 285.152 32.4714 291.51 38.6633 293.167C44.8551 294.825 51.2196 291.154 52.8787 284.968C54.5378 278.782 50.8633 272.424 44.6714 270.766C38.4795 269.109 32.1151 272.78 30.4559 278.966Z" stroke="white" stroke-opacity="0.66" stroke-width="3"/>
</g>
<g filter="url(#filter12_di_471_2274)">
<path d="M645.694 207.786C649.463 214.306 657.809 216.54 664.336 212.776C670.863 209.011 673.1 200.673 669.331 194.152C665.563 187.631 657.217 185.397 650.689 189.162C644.162 192.927 641.926 201.265 645.694 207.786Z" fill="url(#paint14_radial_471_2274)"/>
<path d="M647.458 206.767C650.663 212.313 657.761 214.213 663.313 211.011C668.864 207.809 670.766 200.717 667.561 195.171C664.356 189.625 657.257 187.725 651.706 190.927C646.154 194.129 644.252 201.221 647.458 206.767Z" stroke="white" stroke-opacity="0.66" stroke-width="3"/>
</g>
<g filter="url(#filter13_di_471_2274)">
<path d="M63.4287 543.625C67.1972 550.146 75.5434 552.38 82.0705 548.615C88.5977 544.85 90.834 536.512 87.0655 529.991C83.2971 523.471 74.9509 521.237 68.4238 525.001C61.8967 528.766 59.6603 537.104 63.4287 543.625Z" fill="url(#paint15_radial_471_2274)"/>
<path d="M65.1919 542.606C68.3971 548.152 75.4957 550.052 81.0472 546.85C86.5987 543.648 88.5008 536.556 85.2956 531.01C82.0905 525.464 74.9918 523.564 69.4403 526.766C63.8888 529.968 61.9868 537.06 65.1919 542.606Z" stroke="white" stroke-opacity="0.66" stroke-width="3"/>
</g>
<g filter="url(#filter14_di_471_2274)">
<path d="M527.636 647.926C521.109 651.69 518.873 660.028 522.641 666.549C526.41 673.07 534.756 675.304 541.283 671.539C547.81 667.775 550.047 659.437 546.278 652.916C542.51 646.395 534.164 644.161 527.636 647.926Z" fill="url(#paint16_radial_471_2274)"/>
<path d="M528.662 649.69C523.11 652.892 521.208 659.984 524.413 665.53C527.618 671.076 534.717 672.976 540.268 669.774C545.82 666.572 547.722 659.481 544.517 653.935C541.312 648.389 534.213 646.488 528.662 649.69Z" stroke="white" stroke-opacity="0.66" stroke-width="3"/>
</g>
<g filter="url(#filter15_di_471_2274)">
<path d="M191.465 66.2365C184.937 70.0012 182.701 78.3392 186.47 84.86C190.238 91.3807 198.584 93.6149 205.111 89.8501C211.638 86.0854 213.875 77.7473 210.106 71.2266C206.338 64.7059 197.992 62.4717 191.465 66.2365Z" fill="url(#paint17_radial_471_2274)"/>
<path d="M192.49 68.0013C186.938 71.2033 185.036 78.2951 188.241 83.8411C191.446 89.3872 198.545 91.2874 204.097 88.0854C209.648 84.8833 211.55 77.7916 208.345 72.2456C205.14 66.6995 198.041 64.7993 192.49 68.0013Z" stroke="white" stroke-opacity="0.66" stroke-width="3"/>
</g>
<g filter="url(#filter16_di_471_2274)">
<path d="M527.64 89.8504C534.168 93.6152 542.514 91.381 546.282 84.8602C550.051 78.3395 547.814 70.0015 541.287 66.2367C534.76 62.472 526.414 64.7061 522.645 71.2269C518.877 77.7476 521.113 86.0856 527.64 89.8504Z" fill="url(#paint18_radial_471_2274)"/>
<path d="M528.656 88.0855C534.207 91.2876 541.306 89.3873 544.511 83.8413C547.716 78.2952 545.814 71.2035 540.263 68.0015C534.711 64.7995 527.613 66.6997 524.407 72.2458C521.202 77.7918 523.104 84.8835 528.656 88.0855Z" stroke="white" stroke-opacity="0.66" stroke-width="3"/>
</g>
<g filter="url(#filter17_di_471_2274)">
<path d="M191.469 671.541C197.996 675.305 206.342 673.071 210.11 666.551C213.879 660.03 211.642 651.692 205.115 647.927C198.588 644.162 190.242 646.396 186.474 652.917C182.705 659.438 184.941 667.776 191.469 671.541Z" fill="url(#paint19_radial_471_2274)"/>
<path d="M192.484 669.776C198.036 672.978 205.134 671.078 208.339 665.532C211.544 659.986 209.642 652.894 204.091 649.692C198.539 646.49 191.441 648.39 188.236 653.936C185.03 659.482 186.933 666.574 192.484 669.776Z" stroke="white" stroke-opacity="0.66" stroke-width="3"/>
</g>
<g filter="url(#filter18_di_471_2274)">
<path d="M645.688 529.991C641.92 536.512 644.156 544.85 650.683 548.615C657.21 552.38 665.557 550.146 669.325 543.625C673.094 537.104 670.857 528.766 664.33 525.001C657.803 521.237 649.457 523.471 645.688 529.991Z" fill="url(#paint20_radial_471_2274)"/>
<path d="M647.46 531.01C644.255 536.556 646.157 543.648 651.708 546.85C657.26 550.052 664.359 548.152 667.564 542.606C670.769 537.06 668.867 529.968 663.315 526.766C657.764 523.564 650.665 525.464 647.46 531.01Z" stroke="white" stroke-opacity="0.66" stroke-width="3"/>
</g>
<g filter="url(#filter19_di_471_2274)">
<path d="M63.4226 194.152C59.6542 200.673 61.8906 209.011 68.4177 212.776C74.9448 216.54 83.291 214.306 87.0595 207.786C90.8279 201.265 88.5915 192.927 82.0644 189.162C75.5373 185.397 67.1911 187.631 63.4226 194.152Z" fill="url(#paint21_radial_471_2274)"/>
<path d="M65.1944 195.171C61.9892 200.717 63.8913 207.809 69.4428 211.011C74.9943 214.213 82.093 212.313 85.2981 206.767C88.5033 201.221 86.6012 194.129 81.0497 190.927C75.4982 187.725 68.3996 189.625 65.1944 195.171Z" stroke="white" stroke-opacity="0.66" stroke-width="3"/>
</g>
<g filter="url(#filter20_di_471_2274)">
<path d="M677.911 285.496C679.861 292.768 687.344 297.085 694.625 295.136C701.905 293.187 706.225 285.711 704.274 278.438C702.324 271.165 694.841 266.849 687.56 268.798C680.28 270.747 675.96 278.223 677.911 285.496Z" fill="url(#paint22_radial_471_2274)"/>
<path d="M679.878 284.968C681.537 291.154 687.902 294.825 694.094 293.167C700.286 291.51 703.96 285.152 702.301 278.966C700.642 272.78 694.277 269.109 688.085 270.767C681.894 272.424 678.219 278.782 679.878 284.968Z" stroke="white" stroke-opacity="0.66" stroke-width="3"/>
</g>
<g filter="url(#filter21_di_471_2274)">
<path d="M28.4889 459.339C30.4396 466.612 37.9226 470.928 45.2026 468.979C52.4827 467.03 56.803 459.554 54.8523 452.281C52.9017 445.009 45.4186 440.692 38.1386 442.641C30.8585 444.59 26.5382 452.066 28.4889 459.339Z" fill="url(#paint23_radial_471_2274)"/>
<path d="M30.4563 458.811C32.1154 464.997 38.4799 468.668 44.6718 467.011C50.8637 465.353 54.5382 458.995 52.8791 452.809C51.22 446.623 44.8555 442.952 38.6636 444.61C32.4717 446.267 28.7972 452.625 30.4563 458.811Z" stroke="white" stroke-opacity="0.66" stroke-width="3"/>
</g>
<g filter="url(#filter22_di_471_2274)">
<path d="M449.856 680.116C442.576 682.064 438.255 689.54 440.206 696.813C442.157 704.086 449.64 708.402 456.92 706.453C464.2 704.504 468.52 697.029 466.57 689.756C464.619 682.483 457.136 678.167 449.856 680.116Z" fill="url(#paint24_radial_471_2274)"/>
<path d="M450.382 682.084C444.19 683.741 440.516 690.1 442.175 696.285C443.834 702.471 450.198 706.142 456.39 704.485C462.582 702.827 466.257 696.469 464.597 690.283C462.938 684.097 456.574 680.426 450.382 682.084Z" stroke="white" stroke-opacity="0.66" stroke-width="3"/>
</g>
<g filter="url(#filter23_di_471_2274)">
<path d="M275.84 31.3239C268.56 33.2726 264.24 40.7483 266.19 48.0213C268.141 55.2942 275.624 59.6103 282.904 57.6615C290.184 55.7127 294.505 48.2371 292.554 40.9641C290.603 33.6912 283.12 29.3751 275.84 31.3239Z" fill="url(#paint25_radial_471_2274)"/>
<path d="M276.366 33.2923C270.175 34.9498 266.5 41.3081 268.159 47.4939C269.818 53.6797 276.183 57.3506 282.375 55.6932C288.566 54.0357 292.241 47.6774 290.582 41.4916C288.923 35.3058 282.558 31.6348 276.366 33.2923Z" stroke="white" stroke-opacity="0.66" stroke-width="3"/>
</g>
<defs>
<filter id="filter0_di_471_2274" x="340.727" y="7.41577" width="51.2969" height="51.2667" filterUnits="userSpaceOnUse" color-interpolation-filters="sRGB">
<feFlood flood-opacity="0" result="BackgroundImageFix"/>
<feColorMatrix in="SourceAlpha" type="matrix" values="0 0 0 0 0 0 0 0 0 0 0 0 0 0 0 0 0 0 127 0" result="hardAlpha"/>
<feOffset/>
<feGaussianBlur stdDeviation="6"/>
<feComposite in2="hardAlpha" operator="out"/>
<feColorMatrix type="matrix" values="0 0 0 0 0.996078 0 0 0 0 0.87451 0 0 0 0 0.337255 0 0 0 1 0"/>
<feBlend mode="normal" in2="BackgroundImageFix" result="effect1_dropShadow_471_2274"/>
<feBlend mode="normal" in="SourceGraphic" in2="effect1_dropShadow_471_2274" result="shape"/>
<feColorMatrix in="SourceAlpha" type="matrix" values="0 0 0 0 0 0 0 0 0 0 0 0 0 0 0 0 0 0 127 0" result="hardAlpha"/>
<feOffset/>
<feGaussianBlur stdDeviation="6"/>
<feComposite in2="hardAlpha" operator="arithmetic" k2="-1" k3="1"/>
<feColorMatrix type="matrix" values="0 0 0 0 1 0 0 0 0 0.78 0 0 0 0 0 0 0 0 1 0"/>
<feBlend mode="normal" in2="shape" result="effect2_innerShadow_471_2274"/>
</filter>
<filter id="filter1_di_471_2274" x="340.727" y="679.094" width="51.2969" height="51.2668" filterUnits="userSpaceOnUse" color-interpolation-filters="sRGB">
<feFlood flood-opacity="0" result="BackgroundImageFix"/>
<feColorMatrix in="SourceAlpha" type="matrix" values="0 0 0 0 0 0 0 0 0 0 0 0 0 0 0 0 0 0 127 0" result="hardAlpha"/>
<feOffset/>
<feGaussianBlur stdDeviation="6"/>
<feComposite in2="hardAlpha" operator="out"/>
<feColorMatrix type="matrix" values="0 0 0 0 0.996078 0 0 0 0 0.87451 0 0 0 0 0.337255 0 0 0 1 0"/>
<feBlend mode="normal" in2="BackgroundImageFix" result="effect1_dropShadow_471_2274"/>
<feBlend mode="normal" in="SourceGraphic" in2="effect1_dropShadow_471_2274" result="shape"/>
<feColorMatrix in="SourceAlpha" type="matrix" values="0 0 0 0 0 0 0 0 0 0 0 0 0 0 0 0 0 0 127 0" result="hardAlpha"/>
<feOffset/>
<feGaussianBlur stdDeviation="6"/>
<feComposite in2="hardAlpha" operator="arithmetic" k2="-1" k3="1"/>
<feColorMatrix type="matrix" values="0 0 0 0 1 0 0 0 0 0.78 0 0 0 0 0 0 0 0 1 0"/>
<feBlend mode="normal" in2="shape" result="effect2_innerShadow_471_2274"/>
</filter>
<filter id="filter2_di_471_2274" x="676.898" y="343.255" width="51.2969" height="51.2667" filterUnits="userSpaceOnUse" color-interpolation-filters="sRGB">
<feFlood flood-opacity="0" result="BackgroundImageFix"/>
<feColorMatrix in="SourceAlpha" type="matrix" values="0 0 0 0 0 0 0 0 0 0 0 0 0 0 0 0 0 0 127 0" result="hardAlpha"/>
<feOffset/>
<feGaussianBlur stdDeviation="6"/>
<feComposite in2="hardAlpha" operator="out"/>
<feColorMatrix type="matrix" values="0 0 0 0 0.996078 0 0 0 0 0.87451 0 0 0 0 0.337255 0 0 0 1 0"/>
<feBlend mode="normal" in2="BackgroundImageFix" result="effect1_dropShadow_471_2274"/>
<feBlend mode="normal" in="SourceGraphic" in2="effect1_dropShadow_471_2274" result="shape"/>
<feColorMatrix in="SourceAlpha" type="matrix" values="0 0 0 0 0 0 0 0 0 0 0 0 0 0 0 0 0 0 127 0" result="hardAlpha"/>
<feOffset/>
<feGaussianBlur stdDeviation="6"/>
<feComposite in2="hardAlpha" operator="arithmetic" k2="-1" k3="1"/>
<feColorMatrix type="matrix" values="0 0 0 0 1 0 0 0 0 0.78 0 0 0 0 0 0 0 0 1 0"/>
<feBlend mode="normal" in2="shape" result="effect2_innerShadow_471_2274"/>
</filter>
<filter id="filter3_di_471_2274" x="4.5625" y="343.255" width="51.2969" height="51.2667" filterUnits="userSpaceOnUse" color-interpolation-filters="sRGB">
<feFlood flood-opacity="0" result="BackgroundImageFix"/>
<feColorMatrix in="SourceAlpha" type="matrix" values="0 0 0 0 0 0 0 0 0 0 0 0 0 0 0 0 0 0 127 0" result="hardAlpha"/>
<feOffset/>
<feGaussianBlur stdDeviation="6"/>
<feComposite in2="hardAlpha" operator="out"/>
<feColorMatrix type="matrix" values="0 0 0 0 0.996078 0 0 0 0 0.87451 0 0 0 0 0.337255 0 0 0 1 0"/>
<feBlend mode="normal" in2="BackgroundImageFix" result="effect1_dropShadow_471_2274"/>
<feBlend mode="normal" in="SourceGraphic" in2="effect1_dropShadow_471_2274" result="shape"/>
<feColorMatrix in="SourceAlpha" type="matrix" values="0 0 0 0 0 0 0 0 0 0 0 0 0 0 0 0 0 0 127 0" result="hardAlpha"/>
<feOffset/>
<feGaussianBlur stdDeviation="6"/>
<feComposite in2="hardAlpha" operator="arithmetic" k2="-1" k3="1"/>
<feColorMatrix type="matrix" values="0 0 0 0 1 0 0 0 0 0.78 0 0 0 0 0 0 0 0 1 0"/>
<feBlend mode="normal" in2="shape" result="effect2_innerShadow_471_2274"/>
</filter>
<filter id="filter4_di_471_2274" x="578.43" y="105.78" width="51.2969" height="51.2667" filterUnits="userSpaceOnUse" color-interpolation-filters="sRGB">
<feFlood flood-opacity="0" result="BackgroundImageFix"/>
<feColorMatrix in="SourceAlpha" type="matrix" values="0 0 0 0 0 0 0 0 0 0 0 0 0 0 0 0 0 0 127 0" result="hardAlpha"/>
<feOffset/>
<feGaussianBlur stdDeviation="6"/>
<feComposite in2="hardAlpha" operator="out"/>
<feColorMatrix type="matrix" values="0 0 0 0 0.996078 0 0 0 0 0.87451 0 0 0 0 0.337255 0 0 0 1 0"/>
<feBlend mode="normal" in2="BackgroundImageFix" result="effect1_dropShadow_471_2274"/>
<feBlend mode="normal" in="SourceGraphic" in2="effect1_dropShadow_471_2274" result="shape"/>
<feColorMatrix in="SourceAlpha" type="matrix" values="0 0 0 0 0 0 0 0 0 0 0 0 0 0 0 0 0 0 127 0" result="hardAlpha"/>
<feOffset/>
<feGaussianBlur stdDeviation="6"/>
<feComposite in2="hardAlpha" operator="arithmetic" k2="-1" k3="1"/>
<feColorMatrix type="matrix" values="0 0 0 0 1 0 0 0 0 0.78 0 0 0 0 0 0 0 0 1 0"/>
<feBlend mode="normal" in2="shape" result="effect2_innerShadow_471_2274"/>
</filter>
<filter id="filter5_di_471_2274" x="103.016" y="580.729" width="51.2969" height="51.2667" filterUnits="userSpaceOnUse" color-interpolation-filters="sRGB">
<feFlood flood-opacity="0" result="BackgroundImageFix"/>
<feColorMatrix in="SourceAlpha" type="matrix" values="0 0 0 0 0 0 0 0 0 0 0 0 0 0 0 0 0 0 127 0" result="hardAlpha"/>
<feOffset/>
<feGaussianBlur stdDeviation="6"/>
<feComposite in2="hardAlpha" operator="out"/>
<feColorMatrix type="matrix" values="0 0 0 0 0.996078 0 0 0 0 0.87451 0 0 0 0 0.337255 0 0 0 1 0"/>
<feBlend mode="normal" in2="BackgroundImageFix" result="effect1_dropShadow_471_2274"/>
<feBlend mode="normal" in="SourceGraphic" in2="effect1_dropShadow_471_2274" result="shape"/>
<feColorMatrix in="SourceAlpha" type="matrix" values="0 0 0 0 0 0 0 0 0 0 0 0 0 0 0 0 0 0 127 0" result="hardAlpha"/>
<feOffset/>
<feGaussianBlur stdDeviation="6"/>
<feComposite in2="hardAlpha" operator="arithmetic" k2="-1" k3="1"/>
<feColorMatrix type="matrix" values="0 0 0 0 1 0 0 0 0 0.78 0 0 0 0 0 0 0 0 1 0"/>
<feBlend mode="normal" in2="shape" result="effect2_innerShadow_471_2274"/>
</filter>
<filter id="filter6_di_471_2274" x="578.438" y="580.728" width="51.2891" height="51.2668" filterUnits="userSpaceOnUse" color-interpolation-filters="sRGB">
<feFlood flood-opacity="0" result="BackgroundImageFix"/>
<feColorMatrix in="SourceAlpha" type="matrix" values="0 0 0 0 0 0 0 0 0 0 0 0 0 0 0 0 0 0 127 0" result="hardAlpha"/>
<feOffset/>
<feGaussianBlur stdDeviation="6"/>
<feComposite in2="hardAlpha" operator="out"/>
<feColorMatrix type="matrix" values="0 0 0 0 0.996078 0 0 0 0 0.87451 0 0 0 0 0.337255 0 0 0 1 0"/>
<feBlend mode="normal" in2="BackgroundImageFix" result="effect1_dropShadow_471_2274"/>
<feBlend mode="normal" in="SourceGraphic" in2="effect1_dropShadow_471_2274" result="shape"/>
<feColorMatrix in="SourceAlpha" type="matrix" values="0 0 0 0 0 0 0 0 0 0 0 0 0 0 0 0 0 0 127 0" result="hardAlpha"/>
<feOffset/>
<feGaussianBlur stdDeviation="6"/>
<feComposite in2="hardAlpha" operator="arithmetic" k2="-1" k3="1"/>
<feColorMatrix type="matrix" values="0 0 0 0 1 0 0 0 0 0.78 0 0 0 0 0 0 0 0 1 0"/>
<feBlend mode="normal" in2="shape" result="effect2_innerShadow_471_2274"/>
</filter>
<filter id="filter7_di_471_2274" x="103.023" y="105.781" width="51.2891" height="51.2667" filterUnits="userSpaceOnUse" color-interpolation-filters="sRGB">
<feFlood flood-opacity="0" result="BackgroundImageFix"/>
<feColorMatrix in="SourceAlpha" type="matrix" values="0 0 0 0 0 0 0 0 0 0 0 0 0 0 0 0 0 0 127 0" result="hardAlpha"/>
<feOffset/>
<feGaussianBlur stdDeviation="6"/>
<feComposite in2="hardAlpha" operator="out"/>
<feColorMatrix type="matrix" values="0 0 0 0 0.996078 0 0 0 0 0.87451 0 0 0 0 0.337255 0 0 0 1 0"/>
<feBlend mode="normal" in2="BackgroundImageFix" result="effect1_dropShadow_471_2274"/>
<feBlend mode="normal" in="SourceGraphic" in2="effect1_dropShadow_471_2274" result="shape"/>
<feColorMatrix in="SourceAlpha" type="matrix" values="0 0 0 0 0 0 0 0 0 0 0 0 0 0 0 0 0 0 127 0" result="hardAlpha"/>
<feOffset/>
<feGaussianBlur stdDeviation="6"/>
<feComposite in2="hardAlpha" operator="arithmetic" k2="-1" k3="1"/>
<feColorMatrix type="matrix" values="0 0 0 0 1 0 0 0 0 0.78 0 0 0 0 0 0 0 0 1 0"/>
<feBlend mode="normal" in2="shape" result="effect2_innerShadow_471_2274"/>
</filter>
<filter id="filter8_di_471_2274" x="427.734" y="18.8562" width="51.2969" height="51.2734" filterUnits="userSpaceOnUse" color-interpolation-filters="sRGB">
<feFlood flood-opacity="0" result="BackgroundImageFix"/>
<feColorMatrix in="SourceAlpha" type="matrix" values="0 0 0 0 0 0 0 0 0 0 0 0 0 0 0 0 0 0 127 0" result="hardAlpha"/>
<feOffset/>
<feGaussianBlur stdDeviation="6"/>
<feComposite in2="hardAlpha" operator="out"/>
<feColorMatrix type="matrix" values="0 0 0 0 0.996078 0 0 0 0 0.87451 0 0 0 0 0.337255 0 0 0 1 0"/>
<feBlend mode="normal" in2="BackgroundImageFix" result="effect1_dropShadow_471_2274"/>
<feBlend mode="normal" in="SourceGraphic" in2="effect1_dropShadow_471_2274" result="shape"/>
<feColorMatrix in="SourceAlpha" type="matrix" values="0 0 0 0 0 0 0 0 0 0 0 0 0 0 0 0 0 0 127 0" result="hardAlpha"/>
<feOffset/>
<feGaussianBlur stdDeviation="6"/>
<feComposite in2="hardAlpha" operator="arithmetic" k2="-1" k3="1"/>
<feColorMatrix type="matrix" values="0 0 0 0 1 0 0 0 0 0.78 0 0 0 0 0 0 0 0 1 0"/>
<feBlend mode="normal" in2="shape" result="effect2_innerShadow_471_2274"/>
</filter>
<filter id="filter9_di_471_2274" x="253.719" y="667.648" width="51.2969" height="51.2735" filterUnits="userSpaceOnUse" color-interpolation-filters="sRGB">
<feFlood flood-opacity="0" result="BackgroundImageFix"/>
<feColorMatrix in="SourceAlpha" type="matrix" values="0 0 0 0 0 0 0 0 0 0 0 0 0 0 0 0 0 0 127 0" result="hardAlpha"/>
<feOffset/>
<feGaussianBlur stdDeviation="6"/>
<feComposite in2="hardAlpha" operator="out"/>
<feColorMatrix type="matrix" values="0 0 0 0 0.996078 0 0 0 0 0.87451 0 0 0 0 0.337255 0 0 0 1 0"/>
<feBlend mode="normal" in2="BackgroundImageFix" result="effect1_dropShadow_471_2274"/>
<feBlend mode="normal" in="SourceGraphic" in2="effect1_dropShadow_471_2274" result="shape"/>
<feColorMatrix in="SourceAlpha" type="matrix" values="0 0 0 0 0 0 0 0 0 0 0 0 0 0 0 0 0 0 127 0" result="hardAlpha"/>
<feOffset/>
<feGaussianBlur stdDeviation="6"/>
<feComposite in2="hardAlpha" operator="arithmetic" k2="-1" k3="1"/>
<feColorMatrix type="matrix" values="0 0 0 0 1 0 0 0 0 0.78 0 0 0 0 0 0 0 0 1 0"/>
<feBlend mode="normal" in2="shape" result="effect2_innerShadow_471_2274"/>
</filter>
<filter id="filter10_di_471_2274" x="665.438" y="430.173" width="51.3047" height="51.2736" filterUnits="userSpaceOnUse" color-interpolation-filters="sRGB">
<feFlood flood-opacity="0" result="BackgroundImageFix"/>
<feColorMatrix in="SourceAlpha" type="matrix" values="0 0 0 0 0 0 0 0 0 0 0 0 0 0 0 0 0 0 127 0" result="hardAlpha"/>
<feOffset/>
<feGaussianBlur stdDeviation="6"/>
<feComposite in2="hardAlpha" operator="out"/>
<feColorMatrix type="matrix" values="0 0 0 0 0.996078 0 0 0 0 0.87451 0 0 0 0 0.337255 0 0 0 1 0"/>
<feBlend mode="normal" in2="BackgroundImageFix" result="effect1_dropShadow_471_2274"/>
<feBlend mode="normal" in="SourceGraphic" in2="effect1_dropShadow_471_2274" result="shape"/>
<feColorMatrix in="SourceAlpha" type="matrix" values="0 0 0 0 0 0 0 0 0 0 0 0 0 0 0 0 0 0 127 0" result="hardAlpha"/>
<feOffset/>
<feGaussianBlur stdDeviation="6"/>
<feComposite in2="hardAlpha" operator="arithmetic" k2="-1" k3="1"/>
<feColorMatrix type="matrix" values="0 0 0 0 1 0 0 0 0 0.78 0 0 0 0 0 0 0 0 1 0"/>
<feBlend mode="normal" in2="shape" result="effect2_innerShadow_471_2274"/>
</filter>
<filter id="filter11_di_471_2274" x="16.0156" y="256.33" width="51.3047" height="51.2735" filterUnits="userSpaceOnUse" color-interpolation-filters="sRGB">
<feFlood flood-opacity="0" result="BackgroundImageFix"/>
<feColorMatrix in="SourceAlpha" type="matrix" values="0 0 0 0 0 0 0 0 0 0 0 0 0 0 0 0 0 0 127 0" result="hardAlpha"/>
<feOffset/>
<feGaussianBlur stdDeviation="6"/>
<feComposite in2="hardAlpha" operator="out"/>
<feColorMatrix type="matrix" values="0 0 0 0 0.996078 0 0 0 0 0.87451 0 0 0 0 0.337255 0 0 0 1 0"/>
<feBlend mode="normal" in2="BackgroundImageFix" result="effect1_dropShadow_471_2274"/>
<feBlend mode="normal" in="SourceGraphic" in2="effect1_dropShadow_471_2274" result="shape"/>
<feColorMatrix in="SourceAlpha" type="matrix" values="0 0 0 0 0 0 0 0 0 0 0 0 0 0 0 0 0 0 127 0" result="hardAlpha"/>
<feOffset/>
<feGaussianBlur stdDeviation="6"/>
<feComposite in2="hardAlpha" operator="arithmetic" k2="-1" k3="1"/>
<feColorMatrix type="matrix" values="0 0 0 0 1 0 0 0 0 0.78 0 0 0 0 0 0 0 0 1 0"/>
<feBlend mode="normal" in2="shape" result="effect2_innerShadow_471_2274"/>
</filter>
<filter id="filter12_di_471_2274" x="631.867" y="175.333" width="51.2969" height="51.2714" filterUnits="userSpaceOnUse" color-interpolation-filters="sRGB">
<feFlood flood-opacity="0" result="BackgroundImageFix"/>
<feColorMatrix in="SourceAlpha" type="matrix" values="0 0 0 0 0 0 0 0 0 0 0 0 0 0 0 0 0 0 127 0" result="hardAlpha"/>
<feOffset/>
<feGaussianBlur stdDeviation="6"/>
<feComposite in2="hardAlpha" operator="out"/>
<feColorMatrix type="matrix" values="0 0 0 0 0.996078 0 0 0 0 0.87451 0 0 0 0 0.337255 0 0 0 1 0"/>
<feBlend mode="normal" in2="BackgroundImageFix" result="effect1_dropShadow_471_2274"/>
<feBlend mode="normal" in="SourceGraphic" in2="effect1_dropShadow_471_2274" result="shape"/>
<feColorMatrix in="SourceAlpha" type="matrix" values="0 0 0 0 0 0 0 0 0 0 0 0 0 0 0 0 0 0 127 0" result="hardAlpha"/>
<feOffset/>
<feGaussianBlur stdDeviation="6"/>
<feComposite in2="hardAlpha" operator="arithmetic" k2="-1" k3="1"/>
<feColorMatrix type="matrix" values="0 0 0 0 1 0 0 0 0 0.78 0 0 0 0 0 0 0 0 1 0"/>
<feBlend mode="normal" in2="shape" result="effect2_innerShadow_471_2274"/>
</filter>
<filter id="filter13_di_471_2274" x="49.6016" y="511.172" width="51.2969" height="51.2713" filterUnits="userSpaceOnUse" color-interpolation-filters="sRGB">
<feFlood flood-opacity="0" result="BackgroundImageFix"/>
<feColorMatrix in="SourceAlpha" type="matrix" values="0 0 0 0 0 0 0 0 0 0 0 0 0 0 0 0 0 0 127 0" result="hardAlpha"/>
<feOffset/>
<feGaussianBlur stdDeviation="6"/>
<feComposite in2="hardAlpha" operator="out"/>
<feColorMatrix type="matrix" values="0 0 0 0 0.996078 0 0 0 0 0.87451 0 0 0 0 0.337255 0 0 0 1 0"/>
<feBlend mode="normal" in2="BackgroundImageFix" result="effect1_dropShadow_471_2274"/>
<feBlend mode="normal" in="SourceGraphic" in2="effect1_dropShadow_471_2274" result="shape"/>
<feColorMatrix in="SourceAlpha" type="matrix" values="0 0 0 0 0 0 0 0 0 0 0 0 0 0 0 0 0 0 127 0" result="hardAlpha"/>
<feOffset/>
<feGaussianBlur stdDeviation="6"/>
<feComposite in2="hardAlpha" operator="arithmetic" k2="-1" k3="1"/>
<feColorMatrix type="matrix" values="0 0 0 0 1 0 0 0 0 0.78 0 0 0 0 0 0 0 0 1 0"/>
<feBlend mode="normal" in2="shape" result="effect2_innerShadow_471_2274"/>
</filter>
<filter id="filter14_di_471_2274" x="508.812" y="634.097" width="51.2969" height="51.2713" filterUnits="userSpaceOnUse" color-interpolation-filters="sRGB">
<feFlood flood-opacity="0" result="BackgroundImageFix"/>
<feColorMatrix in="SourceAlpha" type="matrix" values="0 0 0 0 0 0 0 0 0 0 0 0 0 0 0 0 0 0 127 0" result="hardAlpha"/>
<feOffset/>
<feGaussianBlur stdDeviation="6"/>
<feComposite in2="hardAlpha" operator="out"/>
<feColorMatrix type="matrix" values="0 0 0 0 0.996078 0 0 0 0 0.87451 0 0 0 0 0.337255 0 0 0 1 0"/>
<feBlend mode="normal" in2="BackgroundImageFix" result="effect1_dropShadow_471_2274"/>
<feBlend mode="normal" in="SourceGraphic" in2="effect1_dropShadow_471_2274" result="shape"/>
<feColorMatrix in="SourceAlpha" type="matrix" values="0 0 0 0 0 0 0 0 0 0 0 0 0 0 0 0 0 0 127 0" result="hardAlpha"/>
<feOffset/>
<feGaussianBlur stdDeviation="6"/>
<feComposite in2="hardAlpha" operator="arithmetic" k2="-1" k3="1"/>
<feColorMatrix type="matrix" values="0 0 0 0 1 0 0 0 0 0.78 0 0 0 0 0 0 0 0 1 0"/>
<feBlend mode="normal" in2="shape" result="effect2_innerShadow_471_2274"/>
</filter>
<filter id="filter15_di_471_2274" x="172.641" y="52.4077" width="51.2969" height="51.2712" filterUnits="userSpaceOnUse" color-interpolation-filters="sRGB">
<feFlood flood-opacity="0" result="BackgroundImageFix"/>
<feColorMatrix in="SourceAlpha" type="matrix" values="0 0 0 0 0 0 0 0 0 0 0 0 0 0 0 0 0 0 127 0" result="hardAlpha"/>
<feOffset/>
<feGaussianBlur stdDeviation="6"/>
<feComposite in2="hardAlpha" operator="out"/>
<feColorMatrix type="matrix" values="0 0 0 0 0.996078 0 0 0 0 0.87451 0 0 0 0 0.337255 0 0 0 1 0"/>
<feBlend mode="normal" in2="BackgroundImageFix" result="effect1_dropShadow_471_2274"/>
<feBlend mode="normal" in="SourceGraphic" in2="effect1_dropShadow_471_2274" result="shape"/>
<feColorMatrix in="SourceAlpha" type="matrix" values="0 0 0 0 0 0 0 0 0 0 0 0 0 0 0 0 0 0 127 0" result="hardAlpha"/>
<feOffset/>
<feGaussianBlur stdDeviation="6"/>
<feComposite in2="hardAlpha" operator="arithmetic" k2="-1" k3="1"/>
<feColorMatrix type="matrix" values="0 0 0 0 1 0 0 0 0 0.78 0 0 0 0 0 0 0 0 1 0"/>
<feBlend mode="normal" in2="shape" result="effect2_innerShadow_471_2274"/>
</filter>
<filter id="filter16_di_471_2274" x="508.812" y="52.408" width="51.2969" height="51.2712" filterUnits="userSpaceOnUse" color-interpolation-filters="sRGB">
<feFlood flood-opacity="0" result="BackgroundImageFix"/>
<feColorMatrix in="SourceAlpha" type="matrix" values="0 0 0 0 0 0 0 0 0 0 0 0 0 0 0 0 0 0 127 0" result="hardAlpha"/>
<feOffset/>
<feGaussianBlur stdDeviation="6"/>
<feComposite in2="hardAlpha" operator="out"/>
<feColorMatrix type="matrix" values="0 0 0 0 0.996078 0 0 0 0 0.87451 0 0 0 0 0.337255 0 0 0 1 0"/>
<feBlend mode="normal" in2="BackgroundImageFix" result="effect1_dropShadow_471_2274"/>
<feBlend mode="normal" in="SourceGraphic" in2="effect1_dropShadow_471_2274" result="shape"/>
<feColorMatrix in="SourceAlpha" type="matrix" values="0 0 0 0 0 0 0 0 0 0 0 0 0 0 0 0 0 0 127 0" result="hardAlpha"/>
<feOffset/>
<feGaussianBlur stdDeviation="6"/>
<feComposite in2="hardAlpha" operator="arithmetic" k2="-1" k3="1"/>
<feColorMatrix type="matrix" values="0 0 0 0 1 0 0 0 0 0.78 0 0 0 0 0 0 0 0 1 0"/>
<feBlend mode="normal" in2="shape" result="effect2_innerShadow_471_2274"/>
</filter>
<filter id="filter17_di_471_2274" x="172.641" y="634.098" width="51.2969" height="51.2713" filterUnits="userSpaceOnUse" color-interpolation-filters="sRGB">
<feFlood flood-opacity="0" result="BackgroundImageFix"/>
<feColorMatrix in="SourceAlpha" type="matrix" values="0 0 0 0 0 0 0 0 0 0 0 0 0 0 0 0 0 0 127 0" result="hardAlpha"/>
<feOffset/>
<feGaussianBlur stdDeviation="6"/>
<feComposite in2="hardAlpha" operator="out"/>
<feColorMatrix type="matrix" values="0 0 0 0 0.996078 0 0 0 0 0.87451 0 0 0 0 0.337255 0 0 0 1 0"/>
<feBlend mode="normal" in2="BackgroundImageFix" result="effect1_dropShadow_471_2274"/>
<feBlend mode="normal" in="SourceGraphic" in2="effect1_dropShadow_471_2274" result="shape"/>
<feColorMatrix in="SourceAlpha" type="matrix" values="0 0 0 0 0 0 0 0 0 0 0 0 0 0 0 0 0 0 127 0" result="hardAlpha"/>
<feOffset/>
<feGaussianBlur stdDeviation="6"/>
<feComposite in2="hardAlpha" operator="arithmetic" k2="-1" k3="1"/>
<feColorMatrix type="matrix" values="0 0 0 0 1 0 0 0 0 0.78 0 0 0 0 0 0 0 0 1 0"/>
<feBlend mode="normal" in2="shape" result="effect2_innerShadow_471_2274"/>
</filter>
<filter id="filter18_di_471_2274" x="631.859" y="511.172" width="51.2969" height="51.2713" filterUnits="userSpaceOnUse" color-interpolation-filters="sRGB">
<feFlood flood-opacity="0" result="BackgroundImageFix"/>
<feColorMatrix in="SourceAlpha" type="matrix" values="0 0 0 0 0 0 0 0 0 0 0 0 0 0 0 0 0 0 127 0" result="hardAlpha"/>
<feOffset/>
<feGaussianBlur stdDeviation="6"/>
<feComposite in2="hardAlpha" operator="out"/>
<feColorMatrix type="matrix" values="0 0 0 0 0.996078 0 0 0 0 0.87451 0 0 0 0 0.337255 0 0 0 1 0"/>
<feBlend mode="normal" in2="BackgroundImageFix" result="effect1_dropShadow_471_2274"/>
<feBlend mode="normal" in="SourceGraphic" in2="effect1_dropShadow_471_2274" result="shape"/>
<feColorMatrix in="SourceAlpha" type="matrix" values="0 0 0 0 0 0 0 0 0 0 0 0 0 0 0 0 0 0 127 0" result="hardAlpha"/>
<feOffset/>
<feGaussianBlur stdDeviation="6"/>
<feComposite in2="hardAlpha" operator="arithmetic" k2="-1" k3="1"/>
<feColorMatrix type="matrix" values="0 0 0 0 1 0 0 0 0 0.78 0 0 0 0 0 0 0 0 1 0"/>
<feBlend mode="normal" in2="shape" result="effect2_innerShadow_471_2274"/>
</filter>
<filter id="filter19_di_471_2274" x="49.5938" y="175.333" width="51.2969" height="51.2713" filterUnits="userSpaceOnUse" color-interpolation-filters="sRGB">
<feFlood flood-opacity="0" result="BackgroundImageFix"/>
<feColorMatrix in="SourceAlpha" type="matrix" values="0 0 0 0 0 0 0 0 0 0 0 0 0 0 0 0 0 0 127 0" result="hardAlpha"/>
<feOffset/>
<feGaussianBlur stdDeviation="6"/>
<feComposite in2="hardAlpha" operator="out"/>
<feColorMatrix type="matrix" values="0 0 0 0 0.996078 0 0 0 0 0.87451 0 0 0 0 0.337255 0 0 0 1 0"/>
<feBlend mode="normal" in2="BackgroundImageFix" result="effect1_dropShadow_471_2274"/>
<feBlend mode="normal" in="SourceGraphic" in2="effect1_dropShadow_471_2274" result="shape"/>
<feColorMatrix in="SourceAlpha" type="matrix" values="0 0 0 0 0 0 0 0 0 0 0 0 0 0 0 0 0 0 127 0" result="hardAlpha"/>
<feOffset/>
<feGaussianBlur stdDeviation="6"/>
<feComposite in2="hardAlpha" operator="arithmetic" k2="-1" k3="1"/>
<feColorMatrix type="matrix" values="0 0 0 0 1 0 0 0 0 0.78 0 0 0 0 0 0 0 0 1 0"/>
<feBlend mode="normal" in2="shape" result="effect2_innerShadow_471_2274"/>
</filter>
<filter id="filter20_di_471_2274" x="665.445" y="256.33" width="51.2969" height="51.2735" filterUnits="userSpaceOnUse" color-interpolation-filters="sRGB">
<feFlood flood-opacity="0" result="BackgroundImageFix"/>
<feColorMatrix in="SourceAlpha" type="matrix" values="0 0 0 0 0 0 0 0 0 0 0 0 0 0 0 0 0 0 127 0" result="hardAlpha"/>
<feOffset/>
<feGaussianBlur stdDeviation="6"/>
<feComposite in2="hardAlpha" operator="out"/>
<feColorMatrix type="matrix" values="0 0 0 0 0.996078 0 0 0 0 0.87451 0 0 0 0 0.337255 0 0 0 1 0"/>
<feBlend mode="normal" in2="BackgroundImageFix" result="effect1_dropShadow_471_2274"/>
<feBlend mode="normal" in="SourceGraphic" in2="effect1_dropShadow_471_2274" result="shape"/>
<feColorMatrix in="SourceAlpha" type="matrix" values="0 0 0 0 0 0 0 0 0 0 0 0 0 0 0 0 0 0 127 0" result="hardAlpha"/>
<feOffset/>
<feGaussianBlur stdDeviation="6"/>
<feComposite in2="hardAlpha" operator="arithmetic" k2="-1" k3="1"/>
<feColorMatrix type="matrix" values="0 0 0 0 1 0 0 0 0 0.78 0 0 0 0 0 0 0 0 1 0"/>
<feBlend mode="normal" in2="shape" result="effect2_innerShadow_471_2274"/>
</filter>
<filter id="filter21_di_471_2274" x="16.0234" y="430.173" width="51.2969" height="51.2735" filterUnits="userSpaceOnUse" color-interpolation-filters="sRGB">
<feFlood flood-opacity="0" result="BackgroundImageFix"/>
<feColorMatrix in="SourceAlpha" type="matrix" values="0 0 0 0 0 0 0 0 0 0 0 0 0 0 0 0 0 0 127 0" result="hardAlpha"/>
<feOffset/>
<feGaussianBlur stdDeviation="6"/>
<feComposite in2="hardAlpha" operator="out"/>
<feColorMatrix type="matrix" values="0 0 0 0 0.996078 0 0 0 0 0.87451 0 0 0 0 0.337255 0 0 0 1 0"/>
<feBlend mode="normal" in2="BackgroundImageFix" result="effect1_dropShadow_471_2274"/>
<feBlend mode="normal" in="SourceGraphic" in2="effect1_dropShadow_471_2274" result="shape"/>
<feColorMatrix in="SourceAlpha" type="matrix" values="0 0 0 0 0 0 0 0 0 0 0 0 0 0 0 0 0 0 127 0" result="hardAlpha"/>
<feOffset/>
<feGaussianBlur stdDeviation="6"/>
<feComposite in2="hardAlpha" operator="arithmetic" k2="-1" k3="1"/>
<feColorMatrix type="matrix" values="0 0 0 0 1 0 0 0 0 0.78 0 0 0 0 0 0 0 0 1 0"/>
<feBlend mode="normal" in2="shape" result="effect2_innerShadow_471_2274"/>
</filter>
<filter id="filter22_di_471_2274" x="427.734" y="667.648" width="51.3047" height="51.2735" filterUnits="userSpaceOnUse" color-interpolation-filters="sRGB">
<feFlood flood-opacity="0" result="BackgroundImageFix"/>
<feColorMatrix in="SourceAlpha" type="matrix" values="0 0 0 0 0 0 0 0 0 0 0 0 0 0 0 0 0 0 127 0" result="hardAlpha"/>
<feOffset/>
<feGaussianBlur stdDeviation="6"/>
<feComposite in2="hardAlpha" operator="out"/>
<feColorMatrix type="matrix" values="0 0 0 0 0.996078 0 0 0 0 0.87451 0 0 0 0 0.337255 0 0 0 1 0"/>
<feBlend mode="normal" in2="BackgroundImageFix" result="effect1_dropShadow_471_2274"/>
<feBlend mode="normal" in="SourceGraphic" in2="effect1_dropShadow_471_2274" result="shape"/>
<feColorMatrix in="SourceAlpha" type="matrix" values="0 0 0 0 0 0 0 0 0 0 0 0 0 0 0 0 0 0 127 0" result="hardAlpha"/>
<feOffset/>
<feGaussianBlur stdDeviation="6"/>
<feComposite in2="hardAlpha" operator="arithmetic" k2="-1" k3="1"/>
<feColorMatrix type="matrix" values="0 0 0 0 1 0 0 0 0 0.78 0 0 0 0 0 0 0 0 1 0"/>
<feBlend mode="normal" in2="shape" result="effect2_innerShadow_471_2274"/>
</filter>
<filter id="filter23_di_471_2274" x="253.719" y="18.856" width="51.3047" height="51.2734" filterUnits="userSpaceOnUse" color-interpolation-filters="sRGB">
<feFlood flood-opacity="0" result="BackgroundImageFix"/>
<feColorMatrix in="SourceAlpha" type="matrix" values="0 0 0 0 0 0 0 0 0 0 0 0 0 0 0 0 0 0 127 0" result="hardAlpha"/>
<feOffset/>
<feGaussianBlur stdDeviation="6"/>
<feComposite in2="hardAlpha" operator="out"/>
<feColorMatrix type="matrix" values="0 0 0 0 0.996078 0 0 0 0 0.87451 0 0 0 0 0.337255 0 0 0 1 0"/>
<feBlend mode="normal" in2="BackgroundImageFix" result="effect1_dropShadow_471_2274"/>
<feBlend mode="normal" in="SourceGraphic" in2="effect1_dropShadow_471_2274" result="shape"/>
<feColorMatrix in="SourceAlpha" type="matrix" values="0 0 0 0 0 0 0 0 0 0 0 0 0 0 0 0 0 0 127 0" result="hardAlpha"/>
<feOffset/>
<feGaussianBlur stdDeviation="6"/>
<feComposite in2="hardAlpha" operator="arithmetic" k2="-1" k3="1"/>
<feColorMatrix type="matrix" values="0 0 0 0 1 0 0 0 0 0.78 0 0 0 0 0 0 0 0 1 0"/>
<feBlend mode="normal" in2="shape" result="effect2_innerShadow_471_2274"/>
</filter>
<linearGradient id="paint0_linear_471_2274" x1="366.373" y1="8.2749" x2="366.373" y2="729.442" gradientUnits="userSpaceOnUse">
<stop stop-opacity="0"/>
<stop offset="1"/>
</linearGradient>
<linearGradient id="paint1_linear_471_2274" x1="366.373" y1="8.2749" x2="366.373" y2="731.031" gradientUnits="userSpaceOnUse">
<stop stop-color="#F0B51D"/>
<stop offset="0.203125" stop-color="#FFE609"/>
<stop offset="0.369792" stop-color="#96491D"/>
<stop offset="0.489583" stop-color="#FFE600"/>
<stop offset="0.645833" stop-color="#AB3E00"/>
<stop offset="0.869792" stop-color="#F5C106"/>
<stop offset="1" stop-color="#EE8F01"/>
</linearGradient>
<radialGradient id="paint2_radial_471_2274" cx="0" cy="0" r="1" gradientUnits="userSpaceOnUse" gradientTransform="translate(366.148 33.1213) rotate(90) scale(15.7956 13.9154)">
<stop stop-color="#FAFF00"/>
<stop offset="1" stop-color="#FFD705"/>
</radialGradient>
<radialGradient id="paint3_radial_471_2274" cx="0" cy="0" r="1" gradientUnits="userSpaceOnUse" gradientTransform="translate(366.148 704.8) rotate(90) scale(15.7956 13.9154)">
<stop stop-color="#FAFF00"/>
<stop offset="1" stop-color="#FFD705"/>
</radialGradient>
<radialGradient id="paint4_radial_471_2274" cx="0" cy="0" r="1" gradientUnits="userSpaceOnUse" gradientTransform="translate(702.477 368.663) rotate(180) scale(15.811 13.9018)">
<stop stop-color="#FAFF00"/>
<stop offset="1" stop-color="#FFD705"/>
</radialGradient>
<radialGradient id="paint5_radial_471_2274" cx="0" cy="0" r="1" gradientUnits="userSpaceOnUse" gradientTransform="translate(30.1406 368.663) rotate(180) scale(15.811 13.9018)">
<stop stop-color="#FAFF00"/>
<stop offset="1" stop-color="#FFD705"/>
</radialGradient>
<radialGradient id="paint6_radial_471_2274" cx="0" cy="0" r="1" gradientUnits="userSpaceOnUse" gradientTransform="translate(603.867 131.305) rotate(135.028) scale(15.8033 13.9086)">
<stop stop-color="#FAFF00"/>
<stop offset="1" stop-color="#FFD705"/>
</radialGradient>
<radialGradient id="paint7_radial_471_2274" cx="0" cy="0" r="1" gradientUnits="userSpaceOnUse" gradientTransform="translate(128.453 606.254) rotate(135.028) scale(15.8033 13.9086)">
<stop stop-color="#FAFF00"/>
<stop offset="1" stop-color="#FFD705"/>
</radialGradient>
<radialGradient id="paint8_radial_471_2274" cx="0" cy="0" r="1" gradientUnits="userSpaceOnUse" gradientTransform="translate(604.191 606.15) rotate(-135.028) scale(15.8033 13.9086)">
<stop stop-color="#FAFF00"/>
<stop offset="1" stop-color="#FFD705"/>
</radialGradient>
<radialGradient id="paint9_radial_471_2274" cx="0" cy="0" r="1" gradientUnits="userSpaceOnUse" gradientTransform="translate(128.778 131.204) rotate(-135.028) scale(15.8033 13.9086)">
<stop stop-color="#FAFF00"/>
<stop offset="1" stop-color="#FFD705"/>
</radialGradient>
<radialGradient id="paint10_radial_471_2274" cx="0" cy="0" r="1" gradientUnits="userSpaceOnUse" gradientTransform="translate(453.147 44.5044) rotate(105.014) scale(15.7966 13.9145)">
<stop stop-color="#FAFF00"/>
<stop offset="1" stop-color="#FFD705"/>
</radialGradient>
<radialGradient id="paint11_radial_471_2274" cx="0" cy="0" r="1" gradientUnits="userSpaceOnUse" gradientTransform="translate(279.132 693.296) rotate(105.014) scale(15.7966 13.9145)">
<stop stop-color="#FAFF00"/>
<stop offset="1" stop-color="#FFD705"/>
</radialGradient>
<radialGradient id="paint12_radial_471_2274" cx="0" cy="0" r="1" gradientUnits="userSpaceOnUse" gradientTransform="translate(691.08 455.574) rotate(-165.014) scale(15.81 13.9028)">
<stop stop-color="#FAFF00"/>
<stop offset="1" stop-color="#FFD705"/>
</radialGradient>
<radialGradient id="paint13_radial_471_2274" cx="0" cy="0" r="1" gradientUnits="userSpaceOnUse" gradientTransform="translate(41.6579 281.73) rotate(-165.014) scale(15.81 13.9027)">
<stop stop-color="#FAFF00"/>
<stop offset="1" stop-color="#FFD705"/>
</radialGradient>
<radialGradient id="paint14_radial_471_2274" cx="0" cy="0" r="1" gradientUnits="userSpaceOnUse" gradientTransform="translate(657.337 200.81) rotate(150.024) scale(15.8072 13.9052)">
<stop stop-color="#FAFF00"/>
<stop offset="1" stop-color="#FFD705"/>
</radialGradient>
<radialGradient id="paint15_radial_471_2274" cx="0" cy="0" r="1" gradientUnits="userSpaceOnUse" gradientTransform="translate(75.0718 536.649) rotate(150.024) scale(15.8072 13.9052)">
<stop stop-color="#FAFF00"/>
<stop offset="1" stop-color="#FFD705"/>
</radialGradient>
<radialGradient id="paint16_radial_471_2274" cx="0" cy="0" r="1" gradientUnits="userSpaceOnUse" gradientTransform="translate(534.619 659.556) rotate(-120.024) scale(15.7995 13.912)">
<stop stop-color="#FAFF00"/>
<stop offset="1" stop-color="#FFD705"/>
</radialGradient>
<radialGradient id="paint17_radial_471_2274" cx="0" cy="0" r="1" gradientUnits="userSpaceOnUse" gradientTransform="translate(198.447 77.8679) rotate(-120.024) scale(15.7994 13.912)">
<stop stop-color="#FAFF00"/>
<stop offset="1" stop-color="#FFD705"/>
</radialGradient>
<radialGradient id="paint18_radial_471_2274" cx="0" cy="0" r="1" gradientUnits="userSpaceOnUse" gradientTransform="translate(534.232 77.9934) rotate(120.024) scale(15.7994 13.912)">
<stop stop-color="#FAFF00"/>
<stop offset="1" stop-color="#FFD705"/>
</radialGradient>
<radialGradient id="paint19_radial_471_2274" cx="0" cy="0" r="1" gradientUnits="userSpaceOnUse" gradientTransform="translate(198.06 659.683) rotate(120.024) scale(15.7994 13.912)">
<stop stop-color="#FAFF00"/>
<stop offset="1" stop-color="#FFD705"/>
</radialGradient>
<radialGradient id="paint20_radial_471_2274" cx="0" cy="0" r="1" gradientUnits="userSpaceOnUse" gradientTransform="translate(657.557 536.577) rotate(-150.024) scale(15.8072 13.9052)">
<stop stop-color="#FAFF00"/>
<stop offset="1" stop-color="#FFD705"/>
</radialGradient>
<radialGradient id="paint21_radial_471_2274" cx="0" cy="0" r="1" gradientUnits="userSpaceOnUse" gradientTransform="translate(75.2915 200.738) rotate(-150.024) scale(15.8072 13.9052)">
<stop stop-color="#FAFF00"/>
<stop offset="1" stop-color="#FFD705"/>
</radialGradient>
<radialGradient id="paint22_radial_471_2274" cx="0" cy="0" r="1" gradientUnits="userSpaceOnUse" gradientTransform="translate(690.964 281.768) rotate(165.014) scale(15.81 13.9028)">
<stop stop-color="#FAFF00"/>
<stop offset="1" stop-color="#FFD705"/>
</radialGradient>
<radialGradient id="paint23_radial_471_2274" cx="0" cy="0" r="1" gradientUnits="userSpaceOnUse" gradientTransform="translate(41.5426 455.611) rotate(165.014) scale(15.81 13.9027)">
<stop stop-color="#FAFF00"/>
<stop offset="1" stop-color="#FFD705"/>
</radialGradient>
<radialGradient id="paint24_radial_471_2274" cx="0" cy="0" r="1" gradientUnits="userSpaceOnUse" gradientTransform="translate(453.587 693.156) rotate(-105.014) scale(15.7966 13.9145)">
<stop stop-color="#FAFF00"/>
<stop offset="1" stop-color="#FFD705"/>
</radialGradient>
<radialGradient id="paint25_radial_471_2274" cx="0" cy="0" r="1" gradientUnits="userSpaceOnUse" gradientTransform="translate(279.572 44.3646) rotate(-105.014) scale(15.7966 13.9145)">
<stop stop-color="#FAFF00"/>
<stop offset="1" stop-color="#FFD705"/>
</radialGradient>
</defs>
</svg>
