<svg width="733" height="735" viewBox="0 0 733 735" fill="none" xmlns="http://www.w3.org/2000/svg">
<g clip-path="url(#clip0_2019_21)">
<mask id="mask0_2019_21" style="mask-type:luminance" maskUnits="userSpaceOnUse" x="0" y="0" width="733" height="735">
<path d="M733 0H0V735H733V0Z" fill="white"/>
</mask>
<g mask="url(#mask0_2019_21)">
<path opacity="0.3" d="M685.379 367.747C685.363 543.325 542.877 685.66 367.128 685.66C191.378 685.66 48.9198 543.325 48.9365 367.747C48.9532 192.169 191.439 49.835 367.188 49.835C542.937 49.835 685.396 192.169 685.379 367.747ZM67.4625 367.747C67.4467 533.103 201.612 667.152 367.13 667.152C532.646 667.152 666.838 533.103 666.853 367.747C666.869 202.391 532.703 68.3428 367.187 68.3428C201.669 68.3428 67.4783 202.391 67.4625 367.747Z" fill="#1D2123"/>
<path d="M8.83984 368.859C8.83984 171.836 168.915 11.6714 366.376 11.6714C563.838 11.6714 723.913 171.836 723.913 368.859C723.913 565.881 563.838 726.045 366.376 726.045C168.915 726.045 8.83984 565.881 8.83984 368.859ZM366.828 682.758C540.571 682.758 681.422 542.225 681.422 368.859C681.422 195.492 540.571 54.9595 366.828 54.9595C193.085 54.9595 52.233 195.492 52.233 368.859C52.233 542.225 193.085 682.758 366.828 682.758Z" fill="#1200DE"/>
<path d="M8.83984 368.859C8.83984 171.836 168.915 11.6714 366.376 11.6714C563.838 11.6714 723.913 171.836 723.913 368.859C723.913 565.881 563.838 726.045 366.376 726.045C168.915 726.045 8.83984 565.881 8.83984 368.859ZM366.828 682.758C540.571 682.758 681.422 542.225 681.422 368.859C681.422 195.492 540.571 54.9595 366.828 54.9595C193.085 54.9595 52.233 195.492 52.233 368.859C52.233 542.225 193.085 682.758 366.828 682.758Z" fill="url(#paint0_linear_2019_21)" fill-opacity="0.5"/>
<path d="M8.83984 368.859C8.83984 171.836 168.915 11.6714 366.376 11.6714C563.838 11.6714 723.913 171.836 723.913 368.859C723.913 565.881 563.838 726.045 366.376 726.045C168.915 726.045 8.83984 565.881 8.83984 368.859ZM366.828 682.758C540.571 682.758 681.422 542.225 681.422 368.859C681.422 195.492 540.571 54.9595 366.828 54.9595C193.085 54.9595 52.233 195.492 52.233 368.859C52.233 542.225 193.085 682.758 366.828 682.758Z" stroke="url(#paint1_linear_2019_21)" stroke-width="5"/>
<path d="M8.83984 368.859C8.83984 171.836 168.915 11.6714 366.376 11.6714C563.838 11.6714 723.913 171.836 723.913 368.859C723.913 565.881 563.838 726.045 366.376 726.045C168.915 726.045 8.83984 565.881 8.83984 368.859ZM366.828 682.758C540.571 682.758 681.422 542.225 681.422 368.859C681.422 195.492 540.571 54.9595 366.828 54.9595C193.085 54.9595 52.233 195.492 52.233 368.859C52.233 542.225 193.085 682.758 366.828 682.758Z" stroke="black" stroke-opacity="0.33" stroke-width="5"/>
<g filter="url(#filter0_di_2019_21)">
<path d="M366.376 46.6825C373.913 46.6825 380.023 40.5786 380.023 33.0491C380.023 25.5196 373.913 19.4158 366.376 19.4158C358.839 19.4158 352.729 25.5196 352.729 33.0491C352.729 40.5786 358.839 46.6825 366.376 46.6825Z" fill="url(#paint2_radial_2019_21)"/>
<path d="M366.376 44.6447C372.786 44.6447 377.983 39.4532 377.983 33.0491C377.983 26.6451 372.786 21.4536 366.376 21.4536C359.966 21.4536 354.769 26.6451 354.769 33.0491C354.769 39.4532 359.966 44.6447 366.376 44.6447Z" stroke="white" stroke-opacity="0.66" stroke-width="3"/>
</g>
<g filter="url(#filter1_di_2019_21)">
<path d="M366.376 718.361C373.913 718.361 380.023 712.257 380.023 704.728C380.023 697.198 373.913 691.094 366.376 691.094C358.839 691.094 352.729 697.198 352.729 704.728C352.729 712.257 358.839 718.361 366.376 718.361Z" fill="url(#paint3_radial_2019_21)"/>
<path d="M366.376 716.323C372.786 716.323 377.983 711.132 377.983 704.728C377.983 698.324 372.786 693.132 366.376 693.132C359.966 693.132 354.769 698.324 354.769 704.728C354.769 711.132 359.966 716.323 366.376 716.323Z" stroke="white" stroke-opacity="0.66" stroke-width="3"/>
</g>
<g filter="url(#filter2_di_2019_21)">
<path d="M688.898 368.888C688.898 376.418 695.008 382.522 702.544 382.522C710.081 382.522 716.191 376.418 716.191 368.888C716.191 361.359 710.081 355.255 702.544 355.255C695.008 355.255 688.898 361.359 688.898 368.888Z" fill="url(#paint4_radial_2019_21)"/>
<path d="M690.938 368.888C690.938 375.292 696.134 380.484 702.544 380.484C708.955 380.484 714.151 375.292 714.151 368.888C714.151 362.484 708.955 357.293 702.544 357.293C696.134 357.293 690.938 362.484 690.938 368.888Z" stroke="white" stroke-opacity="0.66" stroke-width="3"/>
</g>
<g filter="url(#filter3_di_2019_21)">
<path d="M16.562 368.888C16.562 376.418 22.6718 382.522 30.2087 382.522C37.7456 382.522 43.8554 376.418 43.8554 368.888C43.8554 361.359 37.7456 355.255 30.2087 355.255C22.6718 355.255 16.562 361.359 16.562 368.888Z" fill="url(#paint5_radial_2019_21)"/>
<path d="M18.6018 368.888C18.6018 375.293 23.7983 380.484 30.2086 380.484C36.6189 380.484 41.8155 375.293 41.8155 368.888C41.8155 362.484 36.6189 357.293 30.2086 357.293C23.7983 357.293 18.6018 362.484 18.6018 368.888Z" stroke="white" stroke-opacity="0.66" stroke-width="3"/>
</g>
<g filter="url(#filter4_di_2019_21)">
<path d="M594.433 141.054C599.763 146.378 608.403 146.378 613.733 141.054C619.062 135.73 619.062 127.098 613.733 121.774C608.403 116.449 599.763 116.449 594.433 121.774C589.104 127.098 589.104 135.73 594.433 141.054Z" fill="url(#paint6_radial_2019_21)"/>
<path d="M595.876 139.613C600.408 144.141 607.758 144.141 612.29 139.613C616.823 135.085 616.823 127.743 612.29 123.215C607.758 118.686 600.408 118.686 595.876 123.215C591.343 127.743 591.343 135.085 595.876 139.613Z" stroke="white" stroke-opacity="0.66" stroke-width="3"/>
</g>
<g filter="url(#filter5_di_2019_21)">
<path d="M119.02 616.003C124.349 621.327 132.99 621.327 138.319 616.003C143.649 610.679 143.649 602.047 138.319 596.723C132.99 591.398 124.349 591.398 119.02 596.723C113.691 602.047 113.691 610.679 119.02 616.003Z" fill="url(#paint7_radial_2019_21)"/>
<path d="M120.462 614.562C124.995 619.09 132.344 619.09 136.877 614.562C141.41 610.034 141.41 602.692 136.877 598.164C132.344 593.635 124.995 593.635 120.462 598.164C115.93 602.692 115.93 610.034 120.462 614.562Z" stroke="white" stroke-opacity="0.66" stroke-width="3"/>
</g>
<g filter="url(#filter6_di_2019_21)">
<path d="M594.433 596.721C589.104 602.045 589.104 610.678 594.433 616.002C599.763 621.326 608.403 621.326 613.733 616.002C619.062 610.678 619.062 602.045 613.733 596.721C608.403 591.397 599.763 591.397 594.433 596.721Z" fill="url(#paint8_radial_2019_21)"/>
<path d="M595.876 598.162C591.343 602.691 591.343 610.032 595.876 614.561C600.409 619.089 607.758 619.089 612.29 614.561C616.823 610.032 616.823 602.691 612.29 598.162C607.758 593.634 600.409 593.634 595.876 598.162Z" stroke="white" stroke-opacity="0.66" stroke-width="3"/>
</g>
<g filter="url(#filter7_di_2019_21)">
<path d="M119.02 121.774C113.691 127.098 113.691 135.73 119.02 141.054C124.349 146.379 132.99 146.379 138.319 141.054C143.649 135.73 143.649 127.098 138.319 121.774C132.99 116.45 124.349 116.45 119.02 121.774Z" fill="url(#paint9_radial_2019_21)"/>
<path d="M120.462 123.215C115.93 127.743 115.93 135.085 120.462 139.613C124.995 144.142 132.344 144.142 136.877 139.613C141.41 135.085 141.41 127.743 136.877 123.215C132.344 118.687 124.995 118.687 120.462 123.215Z" stroke="white" stroke-opacity="0.66" stroke-width="3"/>
</g>
<g filter="url(#filter8_di_2019_21)">
<path d="M449.851 57.6618C457.131 59.6105 464.614 55.2944 466.565 48.0215C468.515 40.7486 464.195 33.2729 456.915 31.3241C449.635 29.3753 442.152 33.6914 440.201 40.9644C438.25 48.2373 442.571 55.713 449.851 57.6618Z" fill="url(#paint10_radial_2019_21)"/>
<path d="M450.379 55.6934C456.571 57.3509 462.935 53.6799 464.594 47.4941C466.253 41.3083 462.579 34.95 456.387 33.2925C450.195 31.635 443.831 35.306 442.171 41.4918C440.512 47.6776 444.187 54.0359 450.379 55.6934Z" stroke="white" stroke-opacity="0.66" stroke-width="3"/>
</g>
<g filter="url(#filter9_di_2019_21)">
<path d="M275.837 706.453C283.117 708.402 290.6 704.086 292.551 696.813C294.502 689.54 290.182 682.064 282.901 680.115C275.621 678.167 268.138 682.483 266.188 689.756C264.237 697.029 268.557 704.504 275.837 706.453Z" fill="url(#paint11_radial_2019_21)"/>
<path d="M276.365 704.485C282.557 706.142 288.922 702.471 290.581 696.285C292.24 690.1 288.565 683.741 282.373 682.084C276.182 680.426 269.817 684.097 268.158 690.283C266.499 696.469 270.173 702.827 276.365 704.485Z" stroke="white" stroke-opacity="0.66" stroke-width="3"/>
</g>
<g filter="url(#filter10_di_2019_21)">
<path d="M677.908 452.281C675.957 459.554 680.278 467.03 687.558 468.979C694.838 470.928 702.321 466.611 704.271 459.339C706.222 452.066 701.902 444.59 694.622 442.641C687.342 440.692 679.859 445.008 677.908 452.281Z" fill="url(#paint12_radial_2019_21)"/>
<path d="M679.878 452.809C678.219 458.995 681.894 465.353 688.086 467.01C694.278 468.668 700.642 464.997 702.301 458.811C703.96 452.625 700.286 446.267 694.094 444.61C687.902 442.952 681.537 446.623 679.878 452.809Z" stroke="white" stroke-opacity="0.66" stroke-width="3"/>
</g>
<g filter="url(#filter11_di_2019_21)">
<path d="M28.482 278.438C26.5314 285.711 30.8517 293.187 38.1317 295.136C45.4118 297.085 52.8948 292.768 54.8455 285.495C56.7962 278.223 52.4758 270.747 45.1958 268.798C37.9157 266.849 30.4327 271.165 28.482 278.438Z" fill="url(#paint13_radial_2019_21)"/>
<path d="M30.4523 278.966C28.7932 285.152 32.4678 291.51 38.6596 293.167C44.8515 294.825 51.216 291.154 52.8751 284.968C54.5342 278.782 50.8597 272.424 44.6678 270.767C38.4759 269.109 32.1114 272.78 30.4523 278.966Z" stroke="white" stroke-opacity="0.66" stroke-width="3"/>
</g>
<g filter="url(#filter12_di_2019_21)">
<path d="M645.688 207.786C649.456 214.306 657.803 216.54 664.33 212.776C670.857 209.011 673.093 200.673 669.325 194.152C665.556 187.631 657.21 185.397 650.683 189.162C644.156 192.927 641.92 201.265 645.688 207.786Z" fill="url(#paint14_radial_2019_21)"/>
<path d="M647.455 206.767C650.66 212.313 657.758 214.213 663.31 211.011C668.861 207.809 670.763 200.717 667.558 195.171C664.353 189.625 657.255 187.725 651.703 190.927C646.152 194.129 644.249 201.221 647.455 206.767Z" stroke="white" stroke-opacity="0.66" stroke-width="3"/>
</g>
<g filter="url(#filter13_di_2019_21)">
<path d="M63.4282 543.625C67.1966 550.146 75.5429 552.38 82.07 548.615C88.5971 544.85 90.8335 536.512 87.065 529.991C83.2966 523.471 74.9504 521.236 68.4233 525.001C61.8961 528.766 59.6598 537.104 63.4282 543.625Z" fill="url(#paint15_radial_2019_21)"/>
<path d="M65.1949 542.606C68.4 548.152 75.4987 550.052 81.0502 546.85C86.6017 543.648 88.5038 536.556 85.2986 531.01C82.0935 525.464 74.9948 523.564 69.4433 526.766C63.8918 529.968 61.9897 537.06 65.1949 542.606Z" stroke="white" stroke-opacity="0.66" stroke-width="3"/>
</g>
<g filter="url(#filter14_di_2019_21)">
<path d="M527.637 647.926C521.11 651.69 518.873 660.028 522.642 666.549C526.41 673.07 534.757 675.304 541.284 671.539C547.811 667.775 550.047 659.437 546.279 652.916C542.51 646.395 534.164 644.161 527.637 647.926Z" fill="url(#paint16_radial_2019_21)"/>
<path d="M528.657 649.69C523.105 652.892 521.203 659.984 524.409 665.53C527.614 671.076 534.712 672.976 540.264 669.774C545.815 666.572 547.717 659.481 544.512 653.935C541.307 648.389 534.208 646.488 528.657 649.69Z" stroke="white" stroke-opacity="0.66" stroke-width="3"/>
</g>
<g filter="url(#filter15_di_2019_21)">
<path d="M191.469 66.2365C184.942 70.0012 182.705 78.3392 186.474 84.86C190.242 91.3807 198.588 93.6149 205.115 89.8501C211.643 86.0854 213.879 77.7473 210.11 71.2266C206.342 64.7059 197.996 62.4717 191.469 66.2365Z" fill="url(#paint17_radial_2019_21)"/>
<path d="M192.489 68.0012C186.937 71.2032 185.035 78.295 188.24 83.841C191.445 89.3871 198.544 91.2873 204.096 88.0853C209.647 84.8832 211.549 77.7915 208.344 72.2455C205.139 66.6994 198.04 64.7992 192.489 68.0012Z" stroke="white" stroke-opacity="0.66" stroke-width="3"/>
</g>
<g filter="url(#filter16_di_2019_21)">
<path d="M527.637 89.8504C534.164 93.6152 542.51 91.381 546.279 84.8602C550.047 78.3395 547.811 70.0015 541.284 66.2367C534.757 62.472 526.41 64.7061 522.642 71.2269C518.874 77.7476 521.11 86.0856 527.637 89.8504Z" fill="url(#paint18_radial_2019_21)"/>
<path d="M528.657 88.0855C534.208 91.2876 541.307 89.3873 544.512 83.8413C547.717 78.2952 545.815 71.2035 540.264 68.0015C534.712 64.7995 527.614 66.6997 524.408 72.2458C521.203 77.7918 523.105 84.8835 528.657 88.0855Z" stroke="white" stroke-opacity="0.66" stroke-width="3"/>
</g>
<g filter="url(#filter17_di_2019_21)">
<path d="M191.469 671.541C197.996 675.305 206.342 673.071 210.111 666.551C213.879 660.03 211.643 651.692 205.116 647.927C198.588 644.162 190.242 646.396 186.474 652.917C182.705 659.438 184.942 667.776 191.469 671.541Z" fill="url(#paint19_radial_2019_21)"/>
<path d="M192.489 669.776C198.04 672.978 205.139 671.078 208.344 665.532C211.549 659.986 209.647 652.894 204.096 649.692C198.544 646.49 191.445 648.39 188.24 653.936C185.035 659.482 186.937 666.574 192.489 669.776Z" stroke="white" stroke-opacity="0.66" stroke-width="3"/>
</g>
<g filter="url(#filter18_di_2019_21)">
<path d="M645.688 529.991C641.92 536.512 644.156 544.85 650.683 548.615C657.21 552.38 665.556 550.146 669.325 543.625C673.093 537.104 670.857 528.766 664.33 525.001C657.803 521.237 649.456 523.471 645.688 529.991Z" fill="url(#paint20_radial_2019_21)"/>
<path d="M647.455 531.01C644.249 536.556 646.152 543.648 651.703 546.85C657.255 550.052 664.353 548.152 667.558 542.606C670.764 537.06 668.861 529.968 663.31 526.766C657.758 523.564 650.66 525.464 647.455 531.01Z" stroke="white" stroke-opacity="0.66" stroke-width="3"/>
</g>
<g filter="url(#filter19_di_2019_21)">
<path d="M63.4282 194.152C59.6598 200.673 61.8961 209.011 68.4233 212.776C74.9504 216.541 83.2966 214.306 87.065 207.786C90.8335 201.265 88.5971 192.927 82.07 189.162C75.5429 185.397 67.1967 187.632 63.4282 194.152Z" fill="url(#paint21_radial_2019_21)"/>
<path d="M65.1949 195.171C61.9898 200.717 63.8919 207.809 69.4434 211.011C74.9948 214.213 82.0935 212.313 85.2987 206.767C88.5038 201.221 86.6017 194.129 81.0502 190.927C75.4988 187.725 68.4001 189.625 65.1949 195.171Z" stroke="white" stroke-opacity="0.66" stroke-width="3"/>
</g>
<g filter="url(#filter20_di_2019_21)">
<path d="M677.908 285.496C679.859 292.768 687.342 297.085 694.622 295.136C701.902 293.187 706.222 285.711 704.272 278.438C702.321 271.165 694.838 266.849 687.558 268.798C680.278 270.747 675.957 278.223 677.908 285.496Z" fill="url(#paint22_radial_2019_21)"/>
<path d="M679.878 284.968C681.537 291.154 687.902 294.825 694.094 293.167C700.286 291.51 703.96 285.152 702.301 278.966C700.642 272.78 694.277 269.109 688.085 270.767C681.894 272.424 678.219 278.782 679.878 284.968Z" stroke="white" stroke-opacity="0.66" stroke-width="3"/>
</g>
<g filter="url(#filter21_di_2019_21)">
<path d="M28.4815 459.339C30.4322 466.612 37.9152 470.928 45.1953 468.979C52.4753 467.03 56.7957 459.554 54.845 452.281C52.8943 445.009 45.4113 440.692 38.1312 442.641C30.8511 444.59 26.5309 452.066 28.4815 459.339Z" fill="url(#paint23_radial_2019_21)"/>
<path d="M30.4519 458.811C32.111 464.997 38.4755 468.668 44.6673 467.011C50.8592 465.353 54.5338 458.995 52.8746 452.809C51.2155 446.623 44.851 442.952 38.6592 444.61C32.4673 446.267 28.7927 452.625 30.4519 458.811Z" stroke="white" stroke-opacity="0.66" stroke-width="3"/>
</g>
<g filter="url(#filter22_di_2019_21)">
<path d="M449.851 680.116C442.571 682.064 438.25 689.54 440.201 696.813C442.152 704.086 449.635 708.402 456.915 706.453C464.195 704.504 468.515 697.029 466.565 689.756C464.614 682.483 457.131 678.167 449.851 680.116Z" fill="url(#paint24_radial_2019_21)"/>
<path d="M450.379 682.084C444.187 683.741 440.512 690.1 442.172 696.285C443.831 702.471 450.195 706.142 456.387 704.485C462.579 702.827 466.253 696.469 464.594 690.283C462.935 684.097 456.571 680.426 450.379 682.084Z" stroke="white" stroke-opacity="0.66" stroke-width="3"/>
</g>
<g filter="url(#filter23_di_2019_21)">
<path d="M275.837 31.3239C268.557 33.2726 264.237 40.7483 266.188 48.0213C268.138 55.2942 275.621 59.6103 282.902 57.6615C290.182 55.7127 294.502 48.2371 292.551 40.9641C290.601 33.6912 283.118 29.3751 275.837 31.3239Z" fill="url(#paint25_radial_2019_21)"/>
<path d="M276.365 33.2923C270.174 34.9498 266.499 41.3081 268.158 47.4939C269.817 53.6797 276.182 57.3506 282.374 55.6932C288.565 54.0357 292.24 47.6774 290.581 41.4916C288.922 35.3058 282.557 31.6348 276.365 33.2923Z" stroke="white" stroke-opacity="0.66" stroke-width="3"/>
</g>
</g>
</g>
<defs>
<filter id="filter0_di_2019_21" x="340.729" y="7.41577" width="51.2939" height="51.2666" filterUnits="userSpaceOnUse" color-interpolation-filters="sRGB">
<feFlood flood-opacity="0" result="BackgroundImageFix"/>
<feColorMatrix in="SourceAlpha" type="matrix" values="0 0 0 0 0 0 0 0 0 0 0 0 0 0 0 0 0 0 127 0" result="hardAlpha"/>
<feOffset/>
<feGaussianBlur stdDeviation="6"/>
<feComposite in2="hardAlpha" operator="out"/>
<feColorMatrix type="matrix" values="0 0 0 0 0.996078 0 0 0 0 0.87451 0 0 0 0 0.337255 0 0 0 1 0"/>
<feBlend mode="normal" in2="BackgroundImageFix" result="effect1_dropShadow_2019_21"/>
<feBlend mode="normal" in="SourceGraphic" in2="effect1_dropShadow_2019_21" result="shape"/>
<feColorMatrix in="SourceAlpha" type="matrix" values="0 0 0 0 0 0 0 0 0 0 0 0 0 0 0 0 0 0 127 0" result="hardAlpha"/>
<feOffset/>
<feGaussianBlur stdDeviation="6"/>
<feComposite in2="hardAlpha" operator="arithmetic" k2="-1" k3="1"/>
<feColorMatrix type="matrix" values="0 0 0 0 1 0 0 0 0 0.78 0 0 0 0 0 0 0 0 1 0"/>
<feBlend mode="normal" in2="shape" result="effect2_innerShadow_2019_21"/>
</filter>
<filter id="filter1_di_2019_21" x="340.729" y="679.094" width="51.2939" height="51.2671" filterUnits="userSpaceOnUse" color-interpolation-filters="sRGB">
<feFlood flood-opacity="0" result="BackgroundImageFix"/>
<feColorMatrix in="SourceAlpha" type="matrix" values="0 0 0 0 0 0 0 0 0 0 0 0 0 0 0 0 0 0 127 0" result="hardAlpha"/>
<feOffset/>
<feGaussianBlur stdDeviation="6"/>
<feComposite in2="hardAlpha" operator="out"/>
<feColorMatrix type="matrix" values="0 0 0 0 0.996078 0 0 0 0 0.87451 0 0 0 0 0.337255 0 0 0 1 0"/>
<feBlend mode="normal" in2="BackgroundImageFix" result="effect1_dropShadow_2019_21"/>
<feBlend mode="normal" in="SourceGraphic" in2="effect1_dropShadow_2019_21" result="shape"/>
<feColorMatrix in="SourceAlpha" type="matrix" values="0 0 0 0 0 0 0 0 0 0 0 0 0 0 0 0 0 0 127 0" result="hardAlpha"/>
<feOffset/>
<feGaussianBlur stdDeviation="6"/>
<feComposite in2="hardAlpha" operator="arithmetic" k2="-1" k3="1"/>
<feColorMatrix type="matrix" values="0 0 0 0 1 0 0 0 0 0.78 0 0 0 0 0 0 0 0 1 0"/>
<feBlend mode="normal" in2="shape" result="effect2_innerShadow_2019_21"/>
</filter>
<filter id="filter2_di_2019_21" x="676.898" y="343.255" width="51.293" height="51.2671" filterUnits="userSpaceOnUse" color-interpolation-filters="sRGB">
<feFlood flood-opacity="0" result="BackgroundImageFix"/>
<feColorMatrix in="SourceAlpha" type="matrix" values="0 0 0 0 0 0 0 0 0 0 0 0 0 0 0 0 0 0 127 0" result="hardAlpha"/>
<feOffset/>
<feGaussianBlur stdDeviation="6"/>
<feComposite in2="hardAlpha" operator="out"/>
<feColorMatrix type="matrix" values="0 0 0 0 0.996078 0 0 0 0 0.87451 0 0 0 0 0.337255 0 0 0 1 0"/>
<feBlend mode="normal" in2="BackgroundImageFix" result="effect1_dropShadow_2019_21"/>
<feBlend mode="normal" in="SourceGraphic" in2="effect1_dropShadow_2019_21" result="shape"/>
<feColorMatrix in="SourceAlpha" type="matrix" values="0 0 0 0 0 0 0 0 0 0 0 0 0 0 0 0 0 0 127 0" result="hardAlpha"/>
<feOffset/>
<feGaussianBlur stdDeviation="6"/>
<feComposite in2="hardAlpha" operator="arithmetic" k2="-1" k3="1"/>
<feColorMatrix type="matrix" values="0 0 0 0 1 0 0 0 0 0.78 0 0 0 0 0 0 0 0 1 0"/>
<feBlend mode="normal" in2="shape" result="effect2_innerShadow_2019_21"/>
</filter>
<filter id="filter3_di_2019_21" x="4.56201" y="343.255" width="51.2935" height="51.2671" filterUnits="userSpaceOnUse" color-interpolation-filters="sRGB">
<feFlood flood-opacity="0" result="BackgroundImageFix"/>
<feColorMatrix in="SourceAlpha" type="matrix" values="0 0 0 0 0 0 0 0 0 0 0 0 0 0 0 0 0 0 127 0" result="hardAlpha"/>
<feOffset/>
<feGaussianBlur stdDeviation="6"/>
<feComposite in2="hardAlpha" operator="out"/>
<feColorMatrix type="matrix" values="0 0 0 0 0.996078 0 0 0 0 0.87451 0 0 0 0 0.337255 0 0 0 1 0"/>
<feBlend mode="normal" in2="BackgroundImageFix" result="effect1_dropShadow_2019_21"/>
<feBlend mode="normal" in="SourceGraphic" in2="effect1_dropShadow_2019_21" result="shape"/>
<feColorMatrix in="SourceAlpha" type="matrix" values="0 0 0 0 0 0 0 0 0 0 0 0 0 0 0 0 0 0 127 0" result="hardAlpha"/>
<feOffset/>
<feGaussianBlur stdDeviation="6"/>
<feComposite in2="hardAlpha" operator="arithmetic" k2="-1" k3="1"/>
<feColorMatrix type="matrix" values="0 0 0 0 1 0 0 0 0 0.78 0 0 0 0 0 0 0 0 1 0"/>
<feBlend mode="normal" in2="shape" result="effect2_innerShadow_2019_21"/>
</filter>
<filter id="filter4_di_2019_21" x="578.437" y="105.78" width="51.2935" height="51.2668" filterUnits="userSpaceOnUse" color-interpolation-filters="sRGB">
<feFlood flood-opacity="0" result="BackgroundImageFix"/>
<feColorMatrix in="SourceAlpha" type="matrix" values="0 0 0 0 0 0 0 0 0 0 0 0 0 0 0 0 0 0 127 0" result="hardAlpha"/>
<feOffset/>
<feGaussianBlur stdDeviation="6"/>
<feComposite in2="hardAlpha" operator="out"/>
<feColorMatrix type="matrix" values="0 0 0 0 0.996078 0 0 0 0 0.87451 0 0 0 0 0.337255 0 0 0 1 0"/>
<feBlend mode="normal" in2="BackgroundImageFix" result="effect1_dropShadow_2019_21"/>
<feBlend mode="normal" in="SourceGraphic" in2="effect1_dropShadow_2019_21" result="shape"/>
<feColorMatrix in="SourceAlpha" type="matrix" values="0 0 0 0 0 0 0 0 0 0 0 0 0 0 0 0 0 0 127 0" result="hardAlpha"/>
<feOffset/>
<feGaussianBlur stdDeviation="6"/>
<feComposite in2="hardAlpha" operator="arithmetic" k2="-1" k3="1"/>
<feColorMatrix type="matrix" values="0 0 0 0 1 0 0 0 0 0.78 0 0 0 0 0 0 0 0 1 0"/>
<feBlend mode="normal" in2="shape" result="effect2_innerShadow_2019_21"/>
</filter>
<filter id="filter5_di_2019_21" x="103.023" y="580.729" width="51.2932" height="51.2666" filterUnits="userSpaceOnUse" color-interpolation-filters="sRGB">
<feFlood flood-opacity="0" result="BackgroundImageFix"/>
<feColorMatrix in="SourceAlpha" type="matrix" values="0 0 0 0 0 0 0 0 0 0 0 0 0 0 0 0 0 0 127 0" result="hardAlpha"/>
<feOffset/>
<feGaussianBlur stdDeviation="6"/>
<feComposite in2="hardAlpha" operator="out"/>
<feColorMatrix type="matrix" values="0 0 0 0 0.996078 0 0 0 0 0.87451 0 0 0 0 0.337255 0 0 0 1 0"/>
<feBlend mode="normal" in2="BackgroundImageFix" result="effect1_dropShadow_2019_21"/>
<feBlend mode="normal" in="SourceGraphic" in2="effect1_dropShadow_2019_21" result="shape"/>
<feColorMatrix in="SourceAlpha" type="matrix" values="0 0 0 0 0 0 0 0 0 0 0 0 0 0 0 0 0 0 127 0" result="hardAlpha"/>
<feOffset/>
<feGaussianBlur stdDeviation="6"/>
<feComposite in2="hardAlpha" operator="arithmetic" k2="-1" k3="1"/>
<feColorMatrix type="matrix" values="0 0 0 0 1 0 0 0 0 0.78 0 0 0 0 0 0 0 0 1 0"/>
<feBlend mode="normal" in2="shape" result="effect2_innerShadow_2019_21"/>
</filter>
<filter id="filter6_di_2019_21" x="578.437" y="580.728" width="51.2935" height="51.2671" filterUnits="userSpaceOnUse" color-interpolation-filters="sRGB">
<feFlood flood-opacity="0" result="BackgroundImageFix"/>
<feColorMatrix in="SourceAlpha" type="matrix" values="0 0 0 0 0 0 0 0 0 0 0 0 0 0 0 0 0 0 127 0" result="hardAlpha"/>
<feOffset/>
<feGaussianBlur stdDeviation="6"/>
<feComposite in2="hardAlpha" operator="out"/>
<feColorMatrix type="matrix" values="0 0 0 0 0.996078 0 0 0 0 0.87451 0 0 0 0 0.337255 0 0 0 1 0"/>
<feBlend mode="normal" in2="BackgroundImageFix" result="effect1_dropShadow_2019_21"/>
<feBlend mode="normal" in="SourceGraphic" in2="effect1_dropShadow_2019_21" result="shape"/>
<feColorMatrix in="SourceAlpha" type="matrix" values="0 0 0 0 0 0 0 0 0 0 0 0 0 0 0 0 0 0 127 0" result="hardAlpha"/>
<feOffset/>
<feGaussianBlur stdDeviation="6"/>
<feComposite in2="hardAlpha" operator="arithmetic" k2="-1" k3="1"/>
<feColorMatrix type="matrix" values="0 0 0 0 1 0 0 0 0 0.78 0 0 0 0 0 0 0 0 1 0"/>
<feBlend mode="normal" in2="shape" result="effect2_innerShadow_2019_21"/>
</filter>
<filter id="filter7_di_2019_21" x="103.023" y="105.781" width="51.2932" height="51.2668" filterUnits="userSpaceOnUse" color-interpolation-filters="sRGB">
<feFlood flood-opacity="0" result="BackgroundImageFix"/>
<feColorMatrix in="SourceAlpha" type="matrix" values="0 0 0 0 0 0 0 0 0 0 0 0 0 0 0 0 0 0 127 0" result="hardAlpha"/>
<feOffset/>
<feGaussianBlur stdDeviation="6"/>
<feComposite in2="hardAlpha" operator="out"/>
<feColorMatrix type="matrix" values="0 0 0 0 0.996078 0 0 0 0 0.87451 0 0 0 0 0.337255 0 0 0 1 0"/>
<feBlend mode="normal" in2="BackgroundImageFix" result="effect1_dropShadow_2019_21"/>
<feBlend mode="normal" in="SourceGraphic" in2="effect1_dropShadow_2019_21" result="shape"/>
<feColorMatrix in="SourceAlpha" type="matrix" values="0 0 0 0 0 0 0 0 0 0 0 0 0 0 0 0 0 0 127 0" result="hardAlpha"/>
<feOffset/>
<feGaussianBlur stdDeviation="6"/>
<feComposite in2="hardAlpha" operator="arithmetic" k2="-1" k3="1"/>
<feColorMatrix type="matrix" values="0 0 0 0 1 0 0 0 0 0.78 0 0 0 0 0 0 0 0 1 0"/>
<feBlend mode="normal" in2="shape" result="effect2_innerShadow_2019_21"/>
</filter>
<filter id="filter8_di_2019_21" x="427.733" y="18.8562" width="51.3005" height="51.2734" filterUnits="userSpaceOnUse" color-interpolation-filters="sRGB">
<feFlood flood-opacity="0" result="BackgroundImageFix"/>
<feColorMatrix in="SourceAlpha" type="matrix" values="0 0 0 0 0 0 0 0 0 0 0 0 0 0 0 0 0 0 127 0" result="hardAlpha"/>
<feOffset/>
<feGaussianBlur stdDeviation="6"/>
<feComposite in2="hardAlpha" operator="out"/>
<feColorMatrix type="matrix" values="0 0 0 0 0.996078 0 0 0 0 0.87451 0 0 0 0 0.337255 0 0 0 1 0"/>
<feBlend mode="normal" in2="BackgroundImageFix" result="effect1_dropShadow_2019_21"/>
<feBlend mode="normal" in="SourceGraphic" in2="effect1_dropShadow_2019_21" result="shape"/>
<feColorMatrix in="SourceAlpha" type="matrix" values="0 0 0 0 0 0 0 0 0 0 0 0 0 0 0 0 0 0 127 0" result="hardAlpha"/>
<feOffset/>
<feGaussianBlur stdDeviation="6"/>
<feComposite in2="hardAlpha" operator="arithmetic" k2="-1" k3="1"/>
<feColorMatrix type="matrix" values="0 0 0 0 1 0 0 0 0 0.78 0 0 0 0 0 0 0 0 1 0"/>
<feBlend mode="normal" in2="shape" result="effect2_innerShadow_2019_21"/>
</filter>
<filter id="filter9_di_2019_21" x="253.72" y="667.647" width="51.3" height="51.2737" filterUnits="userSpaceOnUse" color-interpolation-filters="sRGB">
<feFlood flood-opacity="0" result="BackgroundImageFix"/>
<feColorMatrix in="SourceAlpha" type="matrix" values="0 0 0 0 0 0 0 0 0 0 0 0 0 0 0 0 0 0 127 0" result="hardAlpha"/>
<feOffset/>
<feGaussianBlur stdDeviation="6"/>
<feComposite in2="hardAlpha" operator="out"/>
<feColorMatrix type="matrix" values="0 0 0 0 0.996078 0 0 0 0 0.87451 0 0 0 0 0.337255 0 0 0 1 0"/>
<feBlend mode="normal" in2="BackgroundImageFix" result="effect1_dropShadow_2019_21"/>
<feBlend mode="normal" in="SourceGraphic" in2="effect1_dropShadow_2019_21" result="shape"/>
<feColorMatrix in="SourceAlpha" type="matrix" values="0 0 0 0 0 0 0 0 0 0 0 0 0 0 0 0 0 0 127 0" result="hardAlpha"/>
<feOffset/>
<feGaussianBlur stdDeviation="6"/>
<feComposite in2="hardAlpha" operator="arithmetic" k2="-1" k3="1"/>
<feColorMatrix type="matrix" values="0 0 0 0 1 0 0 0 0 0.78 0 0 0 0 0 0 0 0 1 0"/>
<feBlend mode="normal" in2="shape" result="effect2_innerShadow_2019_21"/>
</filter>
<filter id="filter10_di_2019_21" x="665.44" y="430.173" width="51.3" height="51.2739" filterUnits="userSpaceOnUse" color-interpolation-filters="sRGB">
<feFlood flood-opacity="0" result="BackgroundImageFix"/>
<feColorMatrix in="SourceAlpha" type="matrix" values="0 0 0 0 0 0 0 0 0 0 0 0 0 0 0 0 0 0 127 0" result="hardAlpha"/>
<feOffset/>
<feGaussianBlur stdDeviation="6"/>
<feComposite in2="hardAlpha" operator="out"/>
<feColorMatrix type="matrix" values="0 0 0 0 0.996078 0 0 0 0 0.87451 0 0 0 0 0.337255 0 0 0 1 0"/>
<feBlend mode="normal" in2="BackgroundImageFix" result="effect1_dropShadow_2019_21"/>
<feBlend mode="normal" in="SourceGraphic" in2="effect1_dropShadow_2019_21" result="shape"/>
<feColorMatrix in="SourceAlpha" type="matrix" values="0 0 0 0 0 0 0 0 0 0 0 0 0 0 0 0 0 0 127 0" result="hardAlpha"/>
<feOffset/>
<feGaussianBlur stdDeviation="6"/>
<feComposite in2="hardAlpha" operator="arithmetic" k2="-1" k3="1"/>
<feColorMatrix type="matrix" values="0 0 0 0 1 0 0 0 0 0.78 0 0 0 0 0 0 0 0 1 0"/>
<feBlend mode="normal" in2="shape" result="effect2_innerShadow_2019_21"/>
</filter>
<filter id="filter11_di_2019_21" x="16.0137" y="256.33" width="51.3003" height="51.2739" filterUnits="userSpaceOnUse" color-interpolation-filters="sRGB">
<feFlood flood-opacity="0" result="BackgroundImageFix"/>
<feColorMatrix in="SourceAlpha" type="matrix" values="0 0 0 0 0 0 0 0 0 0 0 0 0 0 0 0 0 0 127 0" result="hardAlpha"/>
<feOffset/>
<feGaussianBlur stdDeviation="6"/>
<feComposite in2="hardAlpha" operator="out"/>
<feColorMatrix type="matrix" values="0 0 0 0 0.996078 0 0 0 0 0.87451 0 0 0 0 0.337255 0 0 0 1 0"/>
<feBlend mode="normal" in2="BackgroundImageFix" result="effect1_dropShadow_2019_21"/>
<feBlend mode="normal" in="SourceGraphic" in2="effect1_dropShadow_2019_21" result="shape"/>
<feColorMatrix in="SourceAlpha" type="matrix" values="0 0 0 0 0 0 0 0 0 0 0 0 0 0 0 0 0 0 127 0" result="hardAlpha"/>
<feOffset/>
<feGaussianBlur stdDeviation="6"/>
<feComposite in2="hardAlpha" operator="arithmetic" k2="-1" k3="1"/>
<feColorMatrix type="matrix" values="0 0 0 0 1 0 0 0 0 0.78 0 0 0 0 0 0 0 0 1 0"/>
<feBlend mode="normal" in2="shape" result="effect2_innerShadow_2019_21"/>
</filter>
<filter id="filter12_di_2019_21" x="631.858" y="175.333" width="51.2979" height="51.2712" filterUnits="userSpaceOnUse" color-interpolation-filters="sRGB">
<feFlood flood-opacity="0" result="BackgroundImageFix"/>
<feColorMatrix in="SourceAlpha" type="matrix" values="0 0 0 0 0 0 0 0 0 0 0 0 0 0 0 0 0 0 127 0" result="hardAlpha"/>
<feOffset/>
<feGaussianBlur stdDeviation="6"/>
<feComposite in2="hardAlpha" operator="out"/>
<feColorMatrix type="matrix" values="0 0 0 0 0.996078 0 0 0 0 0.87451 0 0 0 0 0.337255 0 0 0 1 0"/>
<feBlend mode="normal" in2="BackgroundImageFix" result="effect1_dropShadow_2019_21"/>
<feBlend mode="normal" in="SourceGraphic" in2="effect1_dropShadow_2019_21" result="shape"/>
<feColorMatrix in="SourceAlpha" type="matrix" values="0 0 0 0 0 0 0 0 0 0 0 0 0 0 0 0 0 0 127 0" result="hardAlpha"/>
<feOffset/>
<feGaussianBlur stdDeviation="6"/>
<feComposite in2="hardAlpha" operator="arithmetic" k2="-1" k3="1"/>
<feColorMatrix type="matrix" values="0 0 0 0 1 0 0 0 0 0.78 0 0 0 0 0 0 0 0 1 0"/>
<feBlend mode="normal" in2="shape" result="effect2_innerShadow_2019_21"/>
</filter>
<filter id="filter13_di_2019_21" x="49.5977" y="511.172" width="51.2981" height="51.2717" filterUnits="userSpaceOnUse" color-interpolation-filters="sRGB">
<feFlood flood-opacity="0" result="BackgroundImageFix"/>
<feColorMatrix in="SourceAlpha" type="matrix" values="0 0 0 0 0 0 0 0 0 0 0 0 0 0 0 0 0 0 127 0" result="hardAlpha"/>
<feOffset/>
<feGaussianBlur stdDeviation="6"/>
<feComposite in2="hardAlpha" operator="out"/>
<feColorMatrix type="matrix" values="0 0 0 0 0.996078 0 0 0 0 0.87451 0 0 0 0 0.337255 0 0 0 1 0"/>
<feBlend mode="normal" in2="BackgroundImageFix" result="effect1_dropShadow_2019_21"/>
<feBlend mode="normal" in="SourceGraphic" in2="effect1_dropShadow_2019_21" result="shape"/>
<feColorMatrix in="SourceAlpha" type="matrix" values="0 0 0 0 0 0 0 0 0 0 0 0 0 0 0 0 0 0 127 0" result="hardAlpha"/>
<feOffset/>
<feGaussianBlur stdDeviation="6"/>
<feComposite in2="hardAlpha" operator="arithmetic" k2="-1" k3="1"/>
<feColorMatrix type="matrix" values="0 0 0 0 1 0 0 0 0 0.78 0 0 0 0 0 0 0 0 1 0"/>
<feBlend mode="normal" in2="shape" result="effect2_innerShadow_2019_21"/>
</filter>
<filter id="filter14_di_2019_21" x="508.812" y="634.097" width="51.2981" height="51.271" filterUnits="userSpaceOnUse" color-interpolation-filters="sRGB">
<feFlood flood-opacity="0" result="BackgroundImageFix"/>
<feColorMatrix in="SourceAlpha" type="matrix" values="0 0 0 0 0 0 0 0 0 0 0 0 0 0 0 0 0 0 127 0" result="hardAlpha"/>
<feOffset/>
<feGaussianBlur stdDeviation="6"/>
<feComposite in2="hardAlpha" operator="out"/>
<feColorMatrix type="matrix" values="0 0 0 0 0.996078 0 0 0 0 0.87451 0 0 0 0 0.337255 0 0 0 1 0"/>
<feBlend mode="normal" in2="BackgroundImageFix" result="effect1_dropShadow_2019_21"/>
<feBlend mode="normal" in="SourceGraphic" in2="effect1_dropShadow_2019_21" result="shape"/>
<feColorMatrix in="SourceAlpha" type="matrix" values="0 0 0 0 0 0 0 0 0 0 0 0 0 0 0 0 0 0 127 0" result="hardAlpha"/>
<feOffset/>
<feGaussianBlur stdDeviation="6"/>
<feComposite in2="hardAlpha" operator="arithmetic" k2="-1" k3="1"/>
<feColorMatrix type="matrix" values="0 0 0 0 1 0 0 0 0 0.78 0 0 0 0 0 0 0 0 1 0"/>
<feBlend mode="normal" in2="shape" result="effect2_innerShadow_2019_21"/>
</filter>
<filter id="filter15_di_2019_21" x="172.643" y="52.4077" width="51.2979" height="51.2712" filterUnits="userSpaceOnUse" color-interpolation-filters="sRGB">
<feFlood flood-opacity="0" result="BackgroundImageFix"/>
<feColorMatrix in="SourceAlpha" type="matrix" values="0 0 0 0 0 0 0 0 0 0 0 0 0 0 0 0 0 0 127 0" result="hardAlpha"/>
<feOffset/>
<feGaussianBlur stdDeviation="6"/>
<feComposite in2="hardAlpha" operator="out"/>
<feColorMatrix type="matrix" values="0 0 0 0 0.996078 0 0 0 0 0.87451 0 0 0 0 0.337255 0 0 0 1 0"/>
<feBlend mode="normal" in2="BackgroundImageFix" result="effect1_dropShadow_2019_21"/>
<feBlend mode="normal" in="SourceGraphic" in2="effect1_dropShadow_2019_21" result="shape"/>
<feColorMatrix in="SourceAlpha" type="matrix" values="0 0 0 0 0 0 0 0 0 0 0 0 0 0 0 0 0 0 127 0" result="hardAlpha"/>
<feOffset/>
<feGaussianBlur stdDeviation="6"/>
<feComposite in2="hardAlpha" operator="arithmetic" k2="-1" k3="1"/>
<feColorMatrix type="matrix" values="0 0 0 0 1 0 0 0 0 0.78 0 0 0 0 0 0 0 0 1 0"/>
<feBlend mode="normal" in2="shape" result="effect2_innerShadow_2019_21"/>
</filter>
<filter id="filter16_di_2019_21" x="508.812" y="52.408" width="51.2979" height="51.2712" filterUnits="userSpaceOnUse" color-interpolation-filters="sRGB">
<feFlood flood-opacity="0" result="BackgroundImageFix"/>
<feColorMatrix in="SourceAlpha" type="matrix" values="0 0 0 0 0 0 0 0 0 0 0 0 0 0 0 0 0 0 127 0" result="hardAlpha"/>
<feOffset/>
<feGaussianBlur stdDeviation="6"/>
<feComposite in2="hardAlpha" operator="out"/>
<feColorMatrix type="matrix" values="0 0 0 0 0.996078 0 0 0 0 0.87451 0 0 0 0 0.337255 0 0 0 1 0"/>
<feBlend mode="normal" in2="BackgroundImageFix" result="effect1_dropShadow_2019_21"/>
<feBlend mode="normal" in="SourceGraphic" in2="effect1_dropShadow_2019_21" result="shape"/>
<feColorMatrix in="SourceAlpha" type="matrix" values="0 0 0 0 0 0 0 0 0 0 0 0 0 0 0 0 0 0 127 0" result="hardAlpha"/>
<feOffset/>
<feGaussianBlur stdDeviation="6"/>
<feComposite in2="hardAlpha" operator="arithmetic" k2="-1" k3="1"/>
<feColorMatrix type="matrix" values="0 0 0 0 1 0 0 0 0 0.78 0 0 0 0 0 0 0 0 1 0"/>
<feBlend mode="normal" in2="shape" result="effect2_innerShadow_2019_21"/>
</filter>
<filter id="filter17_di_2019_21" x="172.643" y="634.098" width="51.2981" height="51.2715" filterUnits="userSpaceOnUse" color-interpolation-filters="sRGB">
<feFlood flood-opacity="0" result="BackgroundImageFix"/>
<feColorMatrix in="SourceAlpha" type="matrix" values="0 0 0 0 0 0 0 0 0 0 0 0 0 0 0 0 0 0 127 0" result="hardAlpha"/>
<feOffset/>
<feGaussianBlur stdDeviation="6"/>
<feComposite in2="hardAlpha" operator="out"/>
<feColorMatrix type="matrix" values="0 0 0 0 0.996078 0 0 0 0 0.87451 0 0 0 0 0.337255 0 0 0 1 0"/>
<feBlend mode="normal" in2="BackgroundImageFix" result="effect1_dropShadow_2019_21"/>
<feBlend mode="normal" in="SourceGraphic" in2="effect1_dropShadow_2019_21" result="shape"/>
<feColorMatrix in="SourceAlpha" type="matrix" values="0 0 0 0 0 0 0 0 0 0 0 0 0 0 0 0 0 0 127 0" result="hardAlpha"/>
<feOffset/>
<feGaussianBlur stdDeviation="6"/>
<feComposite in2="hardAlpha" operator="arithmetic" k2="-1" k3="1"/>
<feColorMatrix type="matrix" values="0 0 0 0 1 0 0 0 0 0.78 0 0 0 0 0 0 0 0 1 0"/>
<feBlend mode="normal" in2="shape" result="effect2_innerShadow_2019_21"/>
</filter>
<filter id="filter18_di_2019_21" x="631.858" y="511.173" width="51.2979" height="51.2712" filterUnits="userSpaceOnUse" color-interpolation-filters="sRGB">
<feFlood flood-opacity="0" result="BackgroundImageFix"/>
<feColorMatrix in="SourceAlpha" type="matrix" values="0 0 0 0 0 0 0 0 0 0 0 0 0 0 0 0 0 0 127 0" result="hardAlpha"/>
<feOffset/>
<feGaussianBlur stdDeviation="6"/>
<feComposite in2="hardAlpha" operator="out"/>
<feColorMatrix type="matrix" values="0 0 0 0 0.996078 0 0 0 0 0.87451 0 0 0 0 0.337255 0 0 0 1 0"/>
<feBlend mode="normal" in2="BackgroundImageFix" result="effect1_dropShadow_2019_21"/>
<feBlend mode="normal" in="SourceGraphic" in2="effect1_dropShadow_2019_21" result="shape"/>
<feColorMatrix in="SourceAlpha" type="matrix" values="0 0 0 0 0 0 0 0 0 0 0 0 0 0 0 0 0 0 127 0" result="hardAlpha"/>
<feOffset/>
<feGaussianBlur stdDeviation="6"/>
<feComposite in2="hardAlpha" operator="arithmetic" k2="-1" k3="1"/>
<feColorMatrix type="matrix" values="0 0 0 0 1 0 0 0 0 0.78 0 0 0 0 0 0 0 0 1 0"/>
<feBlend mode="normal" in2="shape" result="effect2_innerShadow_2019_21"/>
</filter>
<filter id="filter19_di_2019_21" x="49.5977" y="175.333" width="51.2981" height="51.2715" filterUnits="userSpaceOnUse" color-interpolation-filters="sRGB">
<feFlood flood-opacity="0" result="BackgroundImageFix"/>
<feColorMatrix in="SourceAlpha" type="matrix" values="0 0 0 0 0 0 0 0 0 0 0 0 0 0 0 0 0 0 127 0" result="hardAlpha"/>
<feOffset/>
<feGaussianBlur stdDeviation="6"/>
<feComposite in2="hardAlpha" operator="out"/>
<feColorMatrix type="matrix" values="0 0 0 0 0.996078 0 0 0 0 0.87451 0 0 0 0 0.337255 0 0 0 1 0"/>
<feBlend mode="normal" in2="BackgroundImageFix" result="effect1_dropShadow_2019_21"/>
<feBlend mode="normal" in="SourceGraphic" in2="effect1_dropShadow_2019_21" result="shape"/>
<feColorMatrix in="SourceAlpha" type="matrix" values="0 0 0 0 0 0 0 0 0 0 0 0 0 0 0 0 0 0 127 0" result="hardAlpha"/>
<feOffset/>
<feGaussianBlur stdDeviation="6"/>
<feComposite in2="hardAlpha" operator="arithmetic" k2="-1" k3="1"/>
<feColorMatrix type="matrix" values="0 0 0 0 1 0 0 0 0 0.78 0 0 0 0 0 0 0 0 1 0"/>
<feBlend mode="normal" in2="shape" result="effect2_innerShadow_2019_21"/>
</filter>
<filter id="filter20_di_2019_21" x="665.44" y="256.33" width="51.3005" height="51.2739" filterUnits="userSpaceOnUse" color-interpolation-filters="sRGB">
<feFlood flood-opacity="0" result="BackgroundImageFix"/>
<feColorMatrix in="SourceAlpha" type="matrix" values="0 0 0 0 0 0 0 0 0 0 0 0 0 0 0 0 0 0 127 0" result="hardAlpha"/>
<feOffset/>
<feGaussianBlur stdDeviation="6"/>
<feComposite in2="hardAlpha" operator="out"/>
<feColorMatrix type="matrix" values="0 0 0 0 0.996078 0 0 0 0 0.87451 0 0 0 0 0.337255 0 0 0 1 0"/>
<feBlend mode="normal" in2="BackgroundImageFix" result="effect1_dropShadow_2019_21"/>
<feBlend mode="normal" in="SourceGraphic" in2="effect1_dropShadow_2019_21" result="shape"/>
<feColorMatrix in="SourceAlpha" type="matrix" values="0 0 0 0 0 0 0 0 0 0 0 0 0 0 0 0 0 0 127 0" result="hardAlpha"/>
<feOffset/>
<feGaussianBlur stdDeviation="6"/>
<feComposite in2="hardAlpha" operator="arithmetic" k2="-1" k3="1"/>
<feColorMatrix type="matrix" values="0 0 0 0 1 0 0 0 0 0.78 0 0 0 0 0 0 0 0 1 0"/>
<feBlend mode="normal" in2="shape" result="effect2_innerShadow_2019_21"/>
</filter>
<filter id="filter21_di_2019_21" x="16.0132" y="430.173" width="51.3003" height="51.2739" filterUnits="userSpaceOnUse" color-interpolation-filters="sRGB">
<feFlood flood-opacity="0" result="BackgroundImageFix"/>
<feColorMatrix in="SourceAlpha" type="matrix" values="0 0 0 0 0 0 0 0 0 0 0 0 0 0 0 0 0 0 127 0" result="hardAlpha"/>
<feOffset/>
<feGaussianBlur stdDeviation="6"/>
<feComposite in2="hardAlpha" operator="out"/>
<feColorMatrix type="matrix" values="0 0 0 0 0.996078 0 0 0 0 0.87451 0 0 0 0 0.337255 0 0 0 1 0"/>
<feBlend mode="normal" in2="BackgroundImageFix" result="effect1_dropShadow_2019_21"/>
<feBlend mode="normal" in="SourceGraphic" in2="effect1_dropShadow_2019_21" result="shape"/>
<feColorMatrix in="SourceAlpha" type="matrix" values="0 0 0 0 0 0 0 0 0 0 0 0 0 0 0 0 0 0 127 0" result="hardAlpha"/>
<feOffset/>
<feGaussianBlur stdDeviation="6"/>
<feComposite in2="hardAlpha" operator="arithmetic" k2="-1" k3="1"/>
<feColorMatrix type="matrix" values="0 0 0 0 1 0 0 0 0 0.78 0 0 0 0 0 0 0 0 1 0"/>
<feBlend mode="normal" in2="shape" result="effect2_innerShadow_2019_21"/>
</filter>
<filter id="filter22_di_2019_21" x="427.733" y="667.648" width="51.3005" height="51.2729" filterUnits="userSpaceOnUse" color-interpolation-filters="sRGB">
<feFlood flood-opacity="0" result="BackgroundImageFix"/>
<feColorMatrix in="SourceAlpha" type="matrix" values="0 0 0 0 0 0 0 0 0 0 0 0 0 0 0 0 0 0 127 0" result="hardAlpha"/>
<feOffset/>
<feGaussianBlur stdDeviation="6"/>
<feComposite in2="hardAlpha" operator="out"/>
<feColorMatrix type="matrix" values="0 0 0 0 0.996078 0 0 0 0 0.87451 0 0 0 0 0.337255 0 0 0 1 0"/>
<feBlend mode="normal" in2="BackgroundImageFix" result="effect1_dropShadow_2019_21"/>
<feBlend mode="normal" in="SourceGraphic" in2="effect1_dropShadow_2019_21" result="shape"/>
<feColorMatrix in="SourceAlpha" type="matrix" values="0 0 0 0 0 0 0 0 0 0 0 0 0 0 0 0 0 0 127 0" result="hardAlpha"/>
<feOffset/>
<feGaussianBlur stdDeviation="6"/>
<feComposite in2="hardAlpha" operator="arithmetic" k2="-1" k3="1"/>
<feColorMatrix type="matrix" values="0 0 0 0 1 0 0 0 0 0.78 0 0 0 0 0 0 0 0 1 0"/>
<feBlend mode="normal" in2="shape" result="effect2_innerShadow_2019_21"/>
</filter>
<filter id="filter23_di_2019_21" x="253.72" y="18.856" width="51.3" height="51.2734" filterUnits="userSpaceOnUse" color-interpolation-filters="sRGB">
<feFlood flood-opacity="0" result="BackgroundImageFix"/>
<feColorMatrix in="SourceAlpha" type="matrix" values="0 0 0 0 0 0 0 0 0 0 0 0 0 0 0 0 0 0 127 0" result="hardAlpha"/>
<feOffset/>
<feGaussianBlur stdDeviation="6"/>
<feComposite in2="hardAlpha" operator="out"/>
<feColorMatrix type="matrix" values="0 0 0 0 0.996078 0 0 0 0 0.87451 0 0 0 0 0.337255 0 0 0 1 0"/>
<feBlend mode="normal" in2="BackgroundImageFix" result="effect1_dropShadow_2019_21"/>
<feBlend mode="normal" in="SourceGraphic" in2="effect1_dropShadow_2019_21" result="shape"/>
<feColorMatrix in="SourceAlpha" type="matrix" values="0 0 0 0 0 0 0 0 0 0 0 0 0 0 0 0 0 0 127 0" result="hardAlpha"/>
<feOffset/>
<feGaussianBlur stdDeviation="6"/>
<feComposite in2="hardAlpha" operator="arithmetic" k2="-1" k3="1"/>
<feColorMatrix type="matrix" values="0 0 0 0 1 0 0 0 0 0.78 0 0 0 0 0 0 0 0 1 0"/>
<feBlend mode="normal" in2="shape" result="effect2_innerShadow_2019_21"/>
</filter>
<linearGradient id="paint0_linear_2019_21" x1="366.376" y1="8.27489" x2="366.376" y2="729.442" gradientUnits="userSpaceOnUse">
<stop stop-opacity="0"/>
<stop offset="1"/>
</linearGradient>
<linearGradient id="paint1_linear_2019_21" x1="366.376" y1="8.27489" x2="366.376" y2="731.031" gradientUnits="userSpaceOnUse">
<stop stop-color="#F0B51D"/>
<stop offset="0.203125" stop-color="#FFE609"/>
<stop offset="0.369792" stop-color="#96491D"/>
<stop offset="0.489583" stop-color="#FFE600"/>
<stop offset="0.645833" stop-color="#AB3E00"/>
<stop offset="0.869792" stop-color="#F5C106"/>
<stop offset="1" stop-color="#EE8F01"/>
</linearGradient>
<radialGradient id="paint2_radial_2019_21" cx="0" cy="0" r="1" gradientUnits="userSpaceOnUse" gradientTransform="translate(366.15 33.1213) rotate(90) scale(15.7956 13.9154)">
<stop stop-color="#FAFF00"/>
<stop offset="1" stop-color="#FFD705"/>
</radialGradient>
<radialGradient id="paint3_radial_2019_21" cx="0" cy="0" r="1" gradientUnits="userSpaceOnUse" gradientTransform="translate(366.15 704.8) rotate(90) scale(15.7956 13.9154)">
<stop stop-color="#FAFF00"/>
<stop offset="1" stop-color="#FFD705"/>
</radialGradient>
<radialGradient id="paint4_radial_2019_21" cx="0" cy="0" r="1" gradientUnits="userSpaceOnUse" gradientTransform="translate(702.472 368.663) rotate(180) scale(15.811 13.9018)">
<stop stop-color="#FAFF00"/>
<stop offset="1" stop-color="#FFD705"/>
</radialGradient>
<radialGradient id="paint5_radial_2019_21" cx="0" cy="0" r="1" gradientUnits="userSpaceOnUse" gradientTransform="translate(30.1366 368.663) rotate(180) scale(15.811 13.9018)">
<stop stop-color="#FAFF00"/>
<stop offset="1" stop-color="#FFD705"/>
</radialGradient>
<radialGradient id="paint6_radial_2019_21" cx="0" cy="0" r="1" gradientUnits="userSpaceOnUse" gradientTransform="translate(603.872 131.305) rotate(135.028) scale(15.8033 13.9086)">
<stop stop-color="#FAFF00"/>
<stop offset="1" stop-color="#FFD705"/>
</radialGradient>
<radialGradient id="paint7_radial_2019_21" cx="0" cy="0" r="1" gradientUnits="userSpaceOnUse" gradientTransform="translate(128.459 606.254) rotate(135.028) scale(15.8033 13.9086)">
<stop stop-color="#FAFF00"/>
<stop offset="1" stop-color="#FFD705"/>
</radialGradient>
<radialGradient id="paint8_radial_2019_21" cx="0" cy="0" r="1" gradientUnits="userSpaceOnUse" gradientTransform="translate(604.191 606.15) rotate(-135.028) scale(15.8033 13.9086)">
<stop stop-color="#FAFF00"/>
<stop offset="1" stop-color="#FFD705"/>
</radialGradient>
<radialGradient id="paint9_radial_2019_21" cx="0" cy="0" r="1" gradientUnits="userSpaceOnUse" gradientTransform="translate(128.778 131.204) rotate(-135.028) scale(15.8033 13.9086)">
<stop stop-color="#FAFF00"/>
<stop offset="1" stop-color="#FFD705"/>
</radialGradient>
<radialGradient id="paint10_radial_2019_21" cx="0" cy="0" r="1" gradientUnits="userSpaceOnUse" gradientTransform="translate(453.146 44.5044) rotate(105.014) scale(15.7966 13.9145)">
<stop stop-color="#FAFF00"/>
<stop offset="1" stop-color="#FFD705"/>
</radialGradient>
<radialGradient id="paint11_radial_2019_21" cx="0" cy="0" r="1" gradientUnits="userSpaceOnUse" gradientTransform="translate(279.133 693.295) rotate(105.014) scale(15.7966 13.9145)">
<stop stop-color="#FAFF00"/>
<stop offset="1" stop-color="#FFD705"/>
</radialGradient>
<radialGradient id="paint12_radial_2019_21" cx="0" cy="0" r="1" gradientUnits="userSpaceOnUse" gradientTransform="translate(691.079 455.573) rotate(-165.014) scale(15.81 13.9028)">
<stop stop-color="#FAFF00"/>
<stop offset="1" stop-color="#FFD705"/>
</radialGradient>
<radialGradient id="paint13_radial_2019_21" cx="0" cy="0" r="1" gradientUnits="userSpaceOnUse" gradientTransform="translate(41.6526 281.73) rotate(-165.014) scale(15.81 13.9027)">
<stop stop-color="#FAFF00"/>
<stop offset="1" stop-color="#FFD705"/>
</radialGradient>
<radialGradient id="paint14_radial_2019_21" cx="0" cy="0" r="1" gradientUnits="userSpaceOnUse" gradientTransform="translate(657.331 200.81) rotate(150.024) scale(15.8072 13.9052)">
<stop stop-color="#FAFF00"/>
<stop offset="1" stop-color="#FFD705"/>
</radialGradient>
<radialGradient id="paint15_radial_2019_21" cx="0" cy="0" r="1" gradientUnits="userSpaceOnUse" gradientTransform="translate(75.0713 536.649) rotate(150.024) scale(15.8072 13.9052)">
<stop stop-color="#FAFF00"/>
<stop offset="1" stop-color="#FFD705"/>
</radialGradient>
<radialGradient id="paint16_radial_2019_21" cx="0" cy="0" r="1" gradientUnits="userSpaceOnUse" gradientTransform="translate(534.619 659.556) rotate(-120.024) scale(15.7995 13.912)">
<stop stop-color="#FAFF00"/>
<stop offset="1" stop-color="#FFD705"/>
</radialGradient>
<radialGradient id="paint17_radial_2019_21" cx="0" cy="0" r="1" gradientUnits="userSpaceOnUse" gradientTransform="translate(198.451 77.8679) rotate(-120.024) scale(15.7994 13.912)">
<stop stop-color="#FAFF00"/>
<stop offset="1" stop-color="#FFD705"/>
</radialGradient>
<radialGradient id="paint18_radial_2019_21" cx="0" cy="0" r="1" gradientUnits="userSpaceOnUse" gradientTransform="translate(534.229 77.9934) rotate(120.024) scale(15.7994 13.912)">
<stop stop-color="#FAFF00"/>
<stop offset="1" stop-color="#FFD705"/>
</radialGradient>
<radialGradient id="paint19_radial_2019_21" cx="0" cy="0" r="1" gradientUnits="userSpaceOnUse" gradientTransform="translate(198.061 659.683) rotate(120.024) scale(15.7994 13.912)">
<stop stop-color="#FAFF00"/>
<stop offset="1" stop-color="#FFD705"/>
</radialGradient>
<radialGradient id="paint20_radial_2019_21" cx="0" cy="0" r="1" gradientUnits="userSpaceOnUse" gradientTransform="translate(657.557 536.577) rotate(-150.024) scale(15.8072 13.9052)">
<stop stop-color="#FAFF00"/>
<stop offset="1" stop-color="#FFD705"/>
</radialGradient>
<radialGradient id="paint21_radial_2019_21" cx="0" cy="0" r="1" gradientUnits="userSpaceOnUse" gradientTransform="translate(75.2971 200.738) rotate(-150.024) scale(15.8072 13.9052)">
<stop stop-color="#FAFF00"/>
<stop offset="1" stop-color="#FFD705"/>
</radialGradient>
<radialGradient id="paint22_radial_2019_21" cx="0" cy="0" r="1" gradientUnits="userSpaceOnUse" gradientTransform="translate(690.962 281.768) rotate(165.014) scale(15.81 13.9028)">
<stop stop-color="#FAFF00"/>
<stop offset="1" stop-color="#FFD705"/>
</radialGradient>
<radialGradient id="paint23_radial_2019_21" cx="0" cy="0" r="1" gradientUnits="userSpaceOnUse" gradientTransform="translate(41.5352 455.611) rotate(165.014) scale(15.81 13.9027)">
<stop stop-color="#FAFF00"/>
<stop offset="1" stop-color="#FFD705"/>
</radialGradient>
<radialGradient id="paint24_radial_2019_21" cx="0" cy="0" r="1" gradientUnits="userSpaceOnUse" gradientTransform="translate(453.582 693.156) rotate(-105.014) scale(15.7966 13.9145)">
<stop stop-color="#FAFF00"/>
<stop offset="1" stop-color="#FFD705"/>
</radialGradient>
<radialGradient id="paint25_radial_2019_21" cx="0" cy="0" r="1" gradientUnits="userSpaceOnUse" gradientTransform="translate(279.569 44.3646) rotate(-105.014) scale(15.7966 13.9145)">
<stop stop-color="#FAFF00"/>
<stop offset="1" stop-color="#FFD705"/>
</radialGradient>
<clipPath id="clip0_2019_21">
<rect width="733" height="735" fill="white"/>
</clipPath>
</defs>
</svg>
