<svg width="65" height="65" viewBox="0 0 65 65" fill="none" xmlns="http://www.w3.org/2000/svg">
<rect width="65" height="65" rx="12" fill="url(#paint0_linear_2023_4391)"/>
<path d="M33.1479 23.5145C33.1479 24.5687 31.9505 25.5147 30.1039 26.0959C28.6431 26.5475 27.112 26.7668 25.5739 26.7446C24.0359 26.7668 22.5047 26.5475 21.044 26.0959C19.1974 25.5147 18 24.5687 18 23.5145C18 21.7304 21.3902 20.2843 25.5739 20.2843C29.7576 20.2843 33.1479 21.7304 33.1479 23.5145Z" stroke="white" stroke-width="2.58142" stroke-miterlimit="10" stroke-linecap="square"/>
<path d="M33.1479 23.5144V28.6772C33.1479 29.7314 31.9505 30.6775 30.1039 31.2587C28.6415 31.7038 27.1115 31.9229 25.5739 31.9074C24.0364 31.9229 22.5064 31.7038 21.044 31.2587C19.1974 30.6775 18 29.7314 18 28.6772V23.5144C18 24.5686 19.1974 25.5147 21.044 26.0958C22.5047 26.5475 24.0359 26.7667 25.5739 26.7446C27.112 26.7667 28.6431 26.5475 30.1039 26.0958C31.9505 25.5147 33.1479 24.5686 33.1479 23.5144Z" stroke="white" stroke-width="2.58142" stroke-miterlimit="10" stroke-linecap="square"/>
<path d="M33.1479 28.6772V33.8401C33.1479 34.8943 31.9505 35.8404 30.1039 36.4215C28.6405 36.8616 27.1107 37.0761 25.5739 37.0567C24.0372 37.0761 22.5073 36.8616 21.044 36.4215C19.1974 35.8944 18 34.8943 18 33.8401V28.6772C18 29.7314 19.1974 30.6775 21.044 31.2587C22.5064 31.7038 24.0364 31.9229 25.5739 31.9074C27.1115 31.9229 28.6415 31.7038 30.1039 31.2587C31.9505 30.6775 33.1479 29.7314 33.1479 28.6772Z" stroke="white" stroke-width="2.58142" stroke-miterlimit="10" stroke-linecap="square"/>
<path d="M33.1479 33.8401V39.0029C33.1479 40.7734 29.7576 42.2196 25.5739 42.2196C21.3902 42.2196 18 40.7734 18 39.0029V33.8401C18 34.8943 19.1974 35.8404 21.044 36.4215C22.5073 36.8616 24.0372 37.0761 25.5739 37.0567C27.1107 37.0761 28.6405 36.8616 30.1039 36.4215C31.9505 35.8944 33.1479 34.8943 33.1479 33.8401Z" stroke="white" stroke-width="2.58142" stroke-miterlimit="10" stroke-linecap="square"/>
<path d="M48.2958 33.8401V39.0029C48.2958 40.7734 44.9055 42.2196 40.7218 42.2196C36.5381 42.2196 33.1479 40.7734 33.1479 39.0029V33.8401C33.1479 34.8943 34.3453 35.8404 36.1919 36.4215C37.6552 36.8616 39.1851 37.0761 40.7218 37.0567C42.2585 37.0761 43.7884 36.8616 45.2518 36.4215C47.0984 35.8944 48.2958 34.8943 48.2958 33.8401Z" stroke="white" stroke-width="2.58142" stroke-miterlimit="10" stroke-linecap="square"/>
<path d="M33.1479 33.8401V44.1523C33.1479 45.9363 29.7576 47.3824 25.5739 47.3824C21.3902 47.3824 18 45.9363 18 44.1523V33.8401" stroke="white" stroke-width="2.58142" stroke-miterlimit="10" stroke-linecap="square"/>
<path d="M48.2958 35.1916V44.1523C48.2958 45.9363 44.9055 47.3824 40.7218 47.3824C36.5381 47.3824 33.1479 45.9363 33.1479 44.1523V33.8401" stroke="white" stroke-width="2.58142" stroke-miterlimit="10" stroke-linecap="square"/>
<path d="M48.2958 26.0959C48.2958 27.4992 47.8516 28.8711 47.0193 30.0379C46.1871 31.2048 45.0042 32.1142 43.6202 32.6513C42.2363 33.1883 40.7134 33.3288 39.2442 33.0551C37.775 32.7813 36.4255 32.1055 35.3662 31.1132C34.307 30.1208 33.5857 28.8565 33.2934 27.4801C33.0012 26.1037 33.1512 24.6771 33.7244 23.3805C34.2977 22.084 35.2684 20.9758 36.514 20.1961C37.7595 19.4165 39.2238 19.0003 40.7218 19.0003C41.7191 18.9913 42.7083 19.1687 43.6316 19.5221C44.5549 19.8754 45.3936 20.3978 46.0989 21.0584C46.8041 21.7191 47.3616 22.5049 47.7389 23.3699C48.1161 24.2348 48.3054 25.1616 48.2958 26.0959Z" stroke="white" stroke-width="2.58142" stroke-miterlimit="10" stroke-linecap="square"/>
<path d="M48.2958 33.8401C48.2958 34.8943 47.0984 35.8404 45.2518 36.4215C43.7884 36.8616 42.2585 37.0761 40.7218 37.0567C39.1851 37.0761 37.6552 36.8616 36.1919 36.4215C34.3453 35.8944 33.1479 34.8943 33.1479 33.8401C33.1479 32.7859 34.1433 32.002 35.7158 31.4073C37.0947 32.5568 38.8761 33.1918 40.7218 33.1918C42.5675 33.1918 44.349 32.5568 45.7278 31.4073C47.3003 32.002 48.2958 32.867 48.2958 33.8401Z" stroke="white" stroke-width="2.58142" stroke-miterlimit="10" stroke-linecap="square"/>
<defs>
<linearGradient id="paint0_linear_2023_4391" x1="65" y1="32.5" x2="0" y2="32.5" gradientUnits="userSpaceOnUse">
<stop stop-color="#00EC9E"/>
<stop offset="1" stop-color="#8E6EFA"/>
</linearGradient>
</defs>
</svg>
