<svg width="65" height="65" viewBox="0 0 65 65" fill="none" xmlns="http://www.w3.org/2000/svg">
<rect width="65" height="65" rx="12" fill="url(#paint0_linear_2023_4418)"/>
<path d="M23.3542 24.8227C23.4372 25.0033 23.5692 25.1561 23.7348 25.2631C23.9003 25.3702 24.0925 25.427 24.2887 25.427H29.3032V27.2259C29.3032 27.5037 29.4118 27.7701 29.6052 27.9665C29.7986 28.1629 30.0609 28.2733 30.3344 28.2733C30.6079 28.2733 30.8702 28.1629 31.0636 27.9665C31.257 27.7701 31.3657 27.5037 31.3657 27.2259V25.427H31.8407C32.1142 25.427 32.3765 25.3166 32.5699 25.1202C32.7633 24.9238 32.872 24.6574 32.872 24.3796C32.872 24.1019 32.7633 23.8355 32.5699 23.639C32.3765 23.4426 32.1142 23.3323 31.8407 23.3323H31.3657V17.0471C31.3656 16.8321 31.3004 16.6224 31.179 16.4463C31.0575 16.2703 30.8856 16.1364 30.6867 16.063C30.4877 15.9896 30.2714 15.9801 30.0669 16.0358C29.8625 16.0916 29.6799 16.2099 29.544 16.3747L23.4979 23.7072C23.3719 23.86 23.2915 24.0461 23.266 24.2437C23.2406 24.4413 23.2711 24.6422 23.3542 24.8227ZM29.3032 19.9292V23.3324H26.4972L29.3032 19.9292ZM34.522 42.177L39.9245 33.6104H35.9466C35.6731 33.6104 35.4108 33.5 35.2174 33.3036C35.024 33.1072 34.9154 32.8408 34.9154 32.563C34.9154 32.2852 35.024 32.0188 35.2174 31.8224C35.4108 31.626 35.6731 31.5156 35.9466 31.5156H41.8097C41.9948 31.5156 42.1764 31.5662 42.3356 31.6621C42.4948 31.7579 42.6257 31.8955 42.7145 32.0604C42.8033 32.2253 42.8468 32.4114 42.8404 32.5992C42.834 32.787 42.7779 32.9697 42.6781 33.1279L36.2586 43.307C36.1857 43.4232 36.091 43.5236 35.9798 43.6025C35.8686 43.6814 35.7433 43.7373 35.6108 43.7669C35.4784 43.7966 35.3414 43.7994 35.2079 43.7752C35.0744 43.751 34.9469 43.7004 34.8327 43.6261C34.7185 43.5518 34.6198 43.4553 34.5424 43.3422C34.4649 43.2292 34.4102 43.1017 34.3813 42.9671C34.3524 42.8325 34.35 42.6935 34.3741 42.5579C34.3982 42.4224 34.4484 42.293 34.5218 42.1772L34.522 42.177ZM39.9205 22.9312C40.1139 23.1276 40.2226 23.394 40.2226 23.6718C40.2226 23.9495 40.1139 24.2159 39.9205 24.4124L24.7188 39.8517C24.525 40.0462 24.2633 40.1549 23.9909 40.154C23.7185 40.1532 23.4574 40.0429 23.2648 39.8473C23.0722 39.6516 22.9636 39.3865 22.9628 39.1098C22.9619 38.8332 23.0689 38.5674 23.2604 38.3706L38.462 22.9312C38.5577 22.8339 38.6714 22.7567 38.7966 22.7041C38.9217 22.6514 39.0558 22.6243 39.1913 22.6243C39.3267 22.6243 39.4608 22.6514 39.586 22.7041C39.7111 22.7567 39.8248 22.8339 39.9205 22.9312ZM21.8331 20.7368C22.0941 19.7661 21.9287 19.0349 21.3414 18.5626C20.6839 18.0343 19.5893 17.9407 18.8493 18.3501C18.2872 18.661 18.0381 19.1983 18.109 19.9473C18.1351 20.2238 18.052 20.4996 17.878 20.7139C17.704 20.9282 17.4532 21.0635 17.181 21.0901C16.9087 21.1166 16.6372 21.0322 16.4262 20.8555C16.2152 20.6787 16.082 20.4241 16.0558 20.1476C15.9049 18.5545 16.5636 17.229 17.8628 16.5105C19.321 15.704 21.3221 15.8762 22.6209 16.9199C23.8628 17.9178 24.3007 19.5102 23.8225 21.2887C23.4997 22.4891 22.3948 23.3647 21.1154 24.3787C20.4248 24.9261 19.6798 25.5165 19.0552 26.1789H23.3271C23.6006 26.1789 23.8629 26.2892 24.0563 26.4856C24.2497 26.6821 24.3583 26.9485 24.3583 27.2262C24.3583 27.504 24.2497 27.7704 24.0563 27.9668C23.8629 28.1633 23.6006 28.2736 23.3271 28.2736H17.0529C16.8781 28.2737 16.7062 28.2286 16.5533 28.1427C16.4004 28.0567 16.2714 27.9327 16.1787 27.7823C16.0859 27.6319 16.0322 27.46 16.0228 27.2827C16.0134 27.1055 16.0485 26.9287 16.1248 26.769C16.9643 25.0118 18.4954 23.7983 19.8463 22.7276C20.7532 22.0088 21.6906 21.2658 21.8331 20.7368ZM49.0001 32.866C49.0001 36.1804 48.0324 39.4203 46.2193 42.1761C44.4063 44.932 41.8293 47.0799 38.8143 48.3482C35.7994 49.6166 32.4817 49.9485 29.281 49.3019C26.0803 48.6552 23.1403 47.0592 20.8328 44.7156C19.2958 43.1631 18.0773 41.3164 17.2478 39.2824C16.4182 37.2484 15.9941 35.0675 16.0001 32.866C16.0001 32.5882 16.1087 32.3218 16.3021 32.1254C16.4955 31.9289 16.7578 31.8186 17.0313 31.8186C17.3048 31.8186 17.5671 31.9289 17.7605 32.1254C17.9539 32.3218 18.0626 32.5882 18.0626 32.866C18.0626 40.9512 24.5392 47.529 32.5001 47.529C40.4609 47.529 46.9376 40.9512 46.9376 32.866C46.9376 25.5255 41.5419 19.2753 34.3869 18.3272C34.2512 18.3112 34.1199 18.2679 34.0009 18.1999C33.8818 18.1319 33.7772 18.0406 33.6931 17.9312C33.6091 17.8218 33.5473 17.6965 33.5113 17.5626C33.4753 17.4288 33.4659 17.289 33.4836 17.1514C33.5013 17.0138 33.5457 16.8812 33.6143 16.7612C33.6829 16.6411 33.7742 16.5362 33.8831 16.4523C33.992 16.3685 34.1162 16.3075 34.2484 16.2728C34.3807 16.2381 34.5185 16.2305 34.6537 16.2503C38.6225 16.7815 42.2658 18.7598 44.9051 21.8166C47.5445 24.8734 48.9998 28.8003 49.0001 32.866Z" fill="white"/>
<defs>
<linearGradient id="paint0_linear_2023_4418" x1="65" y1="32.5" x2="0" y2="32.5" gradientUnits="userSpaceOnUse">
<stop stop-color="#00EC9E"/>
<stop offset="1" stop-color="#8E6EFA"/>
</linearGradient>
</defs>
</svg>
