<svg width="65" height="65" viewBox="0 0 65 65" fill="none" xmlns="http://www.w3.org/2000/svg">
<rect width="65" height="65" rx="12" fill="url(#paint0_linear_2023_4408)"/>
<path fill-rule="evenodd" clip-rule="evenodd" d="M14.5254 36.1924C14.4916 36.005 14.4606 35.8169 14.4324 35.6284C14.3124 34.769 14.2422 33.8891 14.2422 32.9998C14.2422 28.0325 16.263 23.535 19.5244 20.277C22.7854 17.0186 27.287 15 32.2589 15C37.2307 15 41.7422 17.0186 45.0036 20.277C48.2646 23.5354 50.2756 28.0329 50.2756 32.9998C50.2756 34.7289 50.0354 36.3981 49.5754 37.9769C49.1052 39.616 48.415 41.1554 47.5249 42.5647C47.3148 42.8943 46.8847 42.9944 46.5545 42.7844C46.2243 42.5846 46.1244 42.1452 46.3346 41.8153C47.1448 40.5259 47.785 39.1065 48.2251 37.5974C48.6454 36.1383 48.8653 34.5992 48.8653 33.0002C48.8653 28.4228 47.0048 24.2751 44.0035 21.2664C41.0025 18.2682 36.851 16.4093 32.2592 16.4093C27.6675 16.4093 23.5261 18.2678 20.5248 21.2664C17.5137 24.2751 15.6531 28.4228 15.6531 33.0002C15.6531 33.8295 15.7132 34.6393 15.8333 35.4289C15.8398 35.4723 15.8464 35.5156 15.8533 35.559L17.2929 31.8301C17.4329 31.4702 17.8431 31.2902 18.203 31.4304C18.5632 31.5703 18.7433 31.9801 18.603 32.3396L16.3744 38.0919C16.3478 38.2667 16.2555 38.4266 16.1159 38.5365C15.8665 38.7538 15.4876 38.77 15.2118 38.5565L10.2602 34.5783C9.95995 34.3286 9.91003 33.8885 10.1603 33.5892C10.4005 33.2893 10.8403 33.2394 11.1506 33.479L14.5254 36.1924ZM44.1532 44.5836C44.4234 44.3036 44.8733 44.2938 45.1537 44.5735C45.4235 44.8435 45.4336 45.2832 45.1638 45.5633C44.0031 46.7525 42.6728 47.7821 41.2224 48.6215C39.7919 49.4411 38.2413 50.0706 36.6104 50.4706C36.2303 50.5703 35.8502 50.3304 35.75 49.9607C35.6599 49.5809 35.89 49.2011 36.2701 49.1112C37.7805 48.7314 39.2114 48.1517 40.5218 47.4023C41.8622 46.6322 43.083 45.6829 44.1532 44.5836ZM32.2589 49.5907C32.6492 49.5907 32.9693 49.9105 32.9693 50.3004C32.9693 50.6903 32.6492 51 32.2589 51C31.0385 51 29.8279 50.88 28.6575 50.6401C27.457 50.3904 26.2967 50.0305 25.2062 49.5705C24.846 49.4107 24.6861 49.0009 24.8362 48.641C24.9863 48.2912 25.3965 48.1214 25.7567 48.2714C26.7771 48.701 27.8375 49.0411 28.9378 49.2611C29.9983 49.4808 31.1087 49.5907 32.2589 49.5907ZM22.2852 46.2625C22.5952 46.5025 22.6552 46.9423 22.4252 47.2523C22.1951 47.5623 21.7452 47.622 21.4348 47.3925C21.0348 47.0828 20.6348 46.7627 20.2546 46.423C19.8745 46.0732 19.5045 45.7234 19.1641 45.3635C18.8939 45.0736 18.9138 44.6339 19.1941 44.3639C19.4741 44.0943 19.9244 44.1142 20.1845 44.3939C20.5147 44.7437 20.8547 45.0736 21.1947 45.3736C21.5448 45.6836 21.905 45.9835 22.2852 46.2629V46.2625ZM32.2577 21.3672C35.4789 21.3672 38.3898 22.6663 40.5007 24.7752C42.6014 26.8841 43.9118 29.7924 43.9118 33.0005C43.9118 36.2087 42.6014 39.1271 40.5007 41.2259C38.3898 43.3348 35.4789 44.6339 32.2577 44.6339C29.0364 44.6339 26.1353 43.3348 24.0248 41.2259C21.9139 39.1267 20.6133 36.2188 20.6133 33.0005C20.6133 29.7822 21.9139 26.8841 24.0248 24.7752C26.1356 22.6663 29.0465 21.3672 32.2577 21.3672ZM39.5002 25.7747C37.6494 23.9155 35.0886 22.7765 32.2577 22.7765C29.4267 22.7765 26.8757 23.9155 25.0249 25.7747C23.1741 27.6238 22.0239 30.1819 22.0239 33.0005C22.0239 35.8192 23.1744 38.3874 25.0249 40.2365C26.8757 42.0855 29.4365 43.2249 32.2577 43.2249C35.0789 43.2249 37.6494 42.0855 39.5002 40.2365C41.351 38.3874 42.4914 35.8293 42.4914 33.0005C42.4914 30.1718 41.351 27.6235 39.5002 25.7747ZM31.57 25.4346H32.9506C33.0507 25.4346 33.1307 25.5145 33.1307 25.6142V26.4342L33.411 26.4837C33.6211 26.5234 33.8212 26.574 34.0313 26.6438C34.2313 26.7038 34.4313 26.7735 34.6216 26.8534C34.8317 26.9535 35.0419 27.0535 35.2419 27.1735C35.4419 27.2834 35.6321 27.4131 35.8123 27.553C36.0524 27.7531 36.2723 27.9627 36.4724 28.2027C36.6525 28.4325 36.8225 28.6822 36.9527 28.9424C37.0829 29.1925 37.1726 29.4422 37.2428 29.702C37.3028 29.9618 37.3429 30.2216 37.3429 30.4916V30.5114C37.3429 30.6112 37.2627 30.6914 37.173 30.6914H35.7623C35.6723 30.6914 35.5923 30.6112 35.5923 30.5215C35.5822 30.3716 35.5623 30.2213 35.5222 30.0814C35.4922 29.9416 35.4321 29.8115 35.362 29.6818C35.2921 29.5321 35.192 29.4017 35.0921 29.2821C34.9822 29.1523 34.852 29.032 34.7221 28.9323L34.7022 28.9124C34.6153 28.8451 34.5283 28.7868 34.4413 28.7286L34.432 28.7223L34.4219 28.7126C34.3119 28.6425 34.202 28.5825 34.092 28.5326C34.0121 28.4929 33.9217 28.4527 33.8417 28.4228C33.7766 28.3904 33.7048 28.3642 33.6372 28.3396L33.5918 28.323L33.1314 28.1828V32.3403L33.3715 32.4202C33.5915 32.4903 33.8016 32.5604 34.0016 32.6301C34.2118 32.6999 34.4219 32.7801 34.6317 32.8697C34.852 32.96 35.0719 33.0699 35.282 33.1797C35.4922 33.2899 35.7023 33.4197 35.9023 33.5599C36.1023 33.6997 36.2926 33.8493 36.4626 34.0297C36.6427 34.2093 36.8026 34.4094 36.9328 34.6292C37.0529 34.8391 37.1429 35.0693 37.203 35.3089C37.263 35.5391 37.293 35.7884 37.293 36.0284C37.293 36.2983 37.2532 36.5682 37.1932 36.8277C37.1234 37.0777 37.0232 37.3278 36.893 37.5573C36.753 37.7972 36.583 38.0169 36.3931 38.207C36.1931 38.4166 35.9728 38.5969 35.7229 38.7566C35.5627 38.8669 35.3829 38.9666 35.2028 39.0465C35.0125 39.1364 34.8125 39.2167 34.6125 39.2864C34.4223 39.3464 34.2324 39.3963 34.0421 39.4461C33.8421 39.4862 33.6421 39.526 33.4319 39.5563L33.1317 39.5961V40.3954C33.1317 40.4854 33.0518 40.5653 32.9516 40.5653H31.571C31.4712 40.5653 31.3909 40.4854 31.3909 40.3954V39.5661L31.1109 39.5159C30.9008 39.4758 30.7008 39.4259 30.4906 39.3663C30.2805 39.2965 30.0805 39.2264 29.8906 39.1466C29.6804 39.0562 29.4703 38.9464 29.2703 38.8365C29.0804 38.7162 28.8901 38.5865 28.7201 38.4466C28.4803 38.2565 28.2499 38.0466 28.0597 37.807C27.8695 37.5869 27.7096 37.3372 27.5696 37.0774C27.4495 36.8273 27.3497 36.5679 27.2896 36.3077C27.2198 36.0479 27.1895 35.7779 27.1797 35.5084V35.4885C27.1797 35.3982 27.26 35.3183 27.3598 35.3183H28.74C28.8399 35.3183 28.9202 35.388 28.9202 35.4885C28.9202 35.628 28.95 35.7675 28.98 35.9073L28.9802 35.9084C29.0203 36.0482 29.0804 36.1884 29.1404 36.3182C29.2207 36.458 29.3104 36.5881 29.4204 36.7178C29.5303 36.8476 29.6605 36.9679 29.8005 37.0777C29.8906 37.1576 29.9908 37.2274 30.1007 37.2873C30.2107 37.3574 30.3206 37.4174 30.4407 37.4774C30.5207 37.5175 30.5908 37.5472 30.6708 37.5772L30.6809 37.5873C30.7259 37.6023 30.7684 37.6173 30.8109 37.6323L30.811 37.6323C30.8535 37.6473 30.896 37.6623 30.9409 37.6773L31.3913 37.8272V33.6596L31.1511 33.5798C30.9308 33.5194 30.721 33.4497 30.5109 33.3796C30.3274 33.3063 30.1355 33.2331 29.9428 33.1596L29.8906 33.1396C29.6707 33.0399 29.4504 32.9398 29.2305 32.8296L29.2221 32.8248C29.0147 32.7064 28.8075 32.5881 28.6102 32.4501C28.4102 32.3002 28.2199 32.1502 28.0402 31.9703C27.8702 31.7907 27.7201 31.5905 27.5902 31.3704C27.4701 31.1507 27.3801 30.9209 27.32 30.6809C27.26 30.441 27.2401 30.201 27.2401 29.9513C27.2401 29.6814 27.2701 29.4216 27.3399 29.1719C27.4101 28.9121 27.5099 28.6721 27.6401 28.4423C27.7801 28.2023 27.94 27.9823 28.1302 27.7824C28.3201 27.5826 28.5404 27.4027 28.7802 27.2426C28.9603 27.1327 29.1502 27.0229 29.3405 26.9329C29.5506 26.8429 29.7506 26.7627 29.9709 26.6929C30.1506 26.633 30.3409 26.5831 30.5308 26.543C30.7109 26.5025 30.9008 26.4732 31.0911 26.453L31.3909 26.4129V25.6132C31.3909 25.5135 31.4708 25.4336 31.571 25.4336L31.57 25.4346ZM30.6495 31.5612C30.7395 31.6013 30.8296 31.641 30.9294 31.6714L31.3899 31.8412V28.1532L30.9797 28.233C30.9294 28.243 30.8817 28.2556 30.834 28.2682L30.834 28.2682C30.7867 28.2807 30.7394 28.2932 30.6896 28.3031C30.6458 28.3175 30.5997 28.3297 30.5536 28.3418L30.5535 28.3418C30.5048 28.3546 30.4559 28.3674 30.4097 28.383C30.3641 28.4037 30.3168 28.4227 30.2684 28.4421L30.2684 28.4421C30.2001 28.4695 30.1298 28.4977 30.0595 28.5326C29.9594 28.5825 29.8494 28.6425 29.7496 28.7025C29.6396 28.7827 29.5296 28.8726 29.4295 28.9623C29.3394 29.0523 29.2595 29.1523 29.1893 29.2622C29.1293 29.3721 29.0793 29.4819 29.0392 29.5921C29.0092 29.7121 28.9893 29.8317 28.9893 29.952C28.9893 30.0724 29.0092 30.1819 29.0392 30.2921C29.0591 30.3918 29.1094 30.4919 29.1694 30.5819C29.2197 30.6719 29.2895 30.7517 29.3694 30.8215C29.4266 30.8866 29.4971 30.9385 29.5645 30.9882L29.5646 30.9882C29.5798 30.9994 29.5949 31.0105 29.6096 31.0217L29.6197 31.0318C29.7398 31.1116 29.8599 31.1915 29.98 31.2515L29.9901 31.2619C30.0768 31.3083 30.1638 31.3506 30.2477 31.3915L30.2478 31.3916L30.2481 31.3917C30.2896 31.4119 30.3305 31.4318 30.3702 31.4517H30.3803C30.4701 31.4916 30.5594 31.5312 30.6495 31.5612ZM33.8704 34.4297C33.8253 34.4147 33.7803 34.3972 33.7353 34.3798C33.6903 34.3624 33.6452 34.3449 33.6002 34.3299L33.13 34.1597V37.8478L33.5401 37.7679C33.6054 37.755 33.6621 37.7419 33.7185 37.7288L33.7186 37.7288C33.7488 37.7218 33.779 37.7149 33.8103 37.7079C33.8903 37.6881 33.9706 37.6678 34.0603 37.6378C34.1905 37.5977 34.3106 37.5479 34.4404 37.4882L34.4405 37.4882L34.4405 37.4882C34.5504 37.4282 34.6604 37.3682 34.7706 37.2985C34.8907 37.2183 35.0007 37.1283 35.1009 37.0387C35.1909 36.9487 35.2709 36.8486 35.3309 36.7388C35.4007 36.6289 35.451 36.5187 35.481 36.3991C35.5208 36.2791 35.5309 36.1591 35.5309 36.0294C35.5309 35.9195 35.5208 35.8093 35.4911 35.7096L35.4903 35.7075L35.4902 35.7074C35.4504 35.6084 35.4104 35.509 35.3511 35.4097C35.2911 35.3298 35.2213 35.2499 35.1511 35.1802L35.1501 35.1793C35.0705 35.1098 34.9906 35.0401 34.911 34.98L34.8911 34.9601C34.775 34.8829 34.6589 34.8152 34.5428 34.7474L34.5308 34.7404C34.4006 34.6707 34.2708 34.6103 34.1406 34.5503L34.0055 34.4904L33.8704 34.4304V34.4297Z" fill="white"/>
<path d="M14.4324 35.6284L14.1848 35.663L14.1852 35.6653L14.4324 35.6284ZM14.5254 36.1924L14.3688 36.3872L14.8903 36.8065L14.7714 36.148L14.5254 36.1924ZM19.5244 20.277L19.701 20.4538L19.7011 20.4538L19.5244 20.277ZM45.0036 20.277L45.1803 20.1001L45.1802 20.1001L45.0036 20.277ZM49.5754 37.9769L49.3353 37.9069L49.3351 37.9079L49.5754 37.9769ZM47.5249 42.5647L47.7357 42.6991L47.7363 42.6982L47.5249 42.5647ZM46.5545 42.7844L46.6886 42.5734L46.6839 42.5705L46.5545 42.7844ZM46.3346 41.8153L46.5454 41.9496L46.5462 41.9483L46.3346 41.8153ZM48.2251 37.5974L48.4651 37.6674L48.4654 37.6666L48.2251 37.5974ZM44.0035 21.2664L44.1804 21.0898L44.1802 21.0895L44.0035 21.2664ZM20.5248 21.2664L20.3481 21.0895L20.3481 21.0895L20.5248 21.2664ZM15.8333 35.4289L16.0805 35.3917L16.0804 35.3913L15.8333 35.4289ZM15.8533 35.559L15.6063 35.5978L15.751 36.5179L16.0865 35.649L15.8533 35.559ZM17.2929 31.8301L17.0599 31.7395L17.0597 31.7401L17.2929 31.8301ZM18.203 31.4304L18.1122 31.6634L18.1125 31.6635L18.203 31.4304ZM18.603 32.3396L18.3701 32.2488L18.3699 32.2493L18.603 32.3396ZM16.3744 38.0919L16.1412 38.0015L16.1313 38.0271L16.1272 38.0543L16.3744 38.0919ZM16.1159 38.5365L15.961 38.3399L15.9516 38.348L16.1159 38.5365ZM15.2118 38.5565L15.0551 38.7514L15.0587 38.7542L15.2118 38.5565ZM10.2602 34.5783L10.1003 34.7705L10.1036 34.7732L10.2602 34.5783ZM10.1603 33.5892L10.3521 33.7497L10.3555 33.7455L10.1603 33.5892ZM11.1506 33.479L11.3073 33.2841L11.3034 33.2811L11.1506 33.479ZM45.1537 44.5735L45.3305 44.3968L45.3302 44.3966L45.1537 44.5735ZM44.1532 44.5836L44.3323 44.758L44.3331 44.7572L44.1532 44.5836ZM45.1638 45.5633L45.3427 45.7379L45.3438 45.7368L45.1638 45.5633ZM41.2224 48.6215L41.3467 48.8384L41.3476 48.8379L41.2224 48.6215ZM36.6104 50.4706L36.5509 50.2278L36.547 50.2288L36.6104 50.4706ZM35.75 49.9607L35.5066 50.0184L35.5087 50.0261L35.75 49.9607ZM36.2701 49.1112L36.3277 49.3545L36.3311 49.3536L36.2701 49.1112ZM40.5218 47.4023L40.6459 47.6193L40.6463 47.619L40.5218 47.4023ZM28.6575 50.6401L28.6066 50.8848L28.6073 50.885L28.6575 50.6401ZM25.2062 49.5705L25.1049 49.799L25.1091 49.8008L25.2062 49.5705ZM24.8362 48.641L24.6065 48.5424L24.6055 48.5448L24.8362 48.641ZM25.7567 48.2714L25.8537 48.041L25.8528 48.0406L25.7567 48.2714ZM28.9378 49.2611L28.9885 49.0163L28.9868 49.016L28.9378 49.2611ZM22.4252 47.2523L22.6259 47.4013L22.6259 47.4013L22.4252 47.2523ZM22.2852 46.2625L22.4382 46.0648L22.0352 45.7529V46.2625H22.2852ZM21.4348 47.3925L21.2818 47.5902L21.2862 47.5935L21.4348 47.3925ZM20.2546 46.423L20.0853 46.607L20.088 46.6094L20.2546 46.423ZM19.1641 45.3635L18.9813 45.5339L18.9825 45.5352L19.1641 45.3635ZM19.1941 44.3639L19.0207 44.1839L19.0207 44.1839L19.1941 44.3639ZM20.1845 44.3939L20.0014 44.5642L20.0027 44.5655L20.1845 44.3939ZM21.1947 45.3736L21.3604 45.1864L21.3601 45.1861L21.1947 45.3736ZM22.2852 46.2629L22.1371 46.4643L22.5352 46.7569V46.2629H22.2852ZM40.5007 24.7752L40.6778 24.5988L40.6774 24.5983L40.5007 24.7752ZM40.5007 41.2259L40.324 41.049L40.324 41.049L40.5007 41.2259ZM24.0248 41.2259L24.2015 41.049L24.2011 41.0486L24.0248 41.2259ZM24.0248 24.7752L24.2015 24.9521L24.2015 24.9521L24.0248 24.7752ZM39.5002 25.7747L39.323 25.9511L39.3235 25.9516L39.5002 25.7747ZM25.0249 25.7747L25.2016 25.9516L25.202 25.9511L25.0249 25.7747ZM25.0249 40.2365L24.8482 40.4133L24.8482 40.4133L25.0249 40.2365ZM39.5002 40.2365L39.6769 40.4133L39.6769 40.4133L39.5002 40.2365ZM31.57 25.4346L31.3934 25.2576L30.9653 25.6846H31.57V25.4346ZM33.1307 26.4342H32.8807V26.6439L33.0872 26.6804L33.1307 26.4342ZM33.411 26.4837L33.4575 26.238L33.4545 26.2375L33.411 26.4837ZM34.0313 26.6438L33.9525 26.8811L33.9595 26.8832L34.0313 26.6438ZM34.6216 26.8534L34.7292 26.6274L34.7183 26.6229L34.6216 26.8534ZM35.2419 27.1735L35.1132 27.3881L35.1215 27.3926L35.2419 27.1735ZM35.8123 27.553L35.9724 27.3608L35.9656 27.3555L35.8123 27.553ZM36.4724 28.2027L36.6692 28.0484L36.6644 28.0426L36.4724 28.2027ZM36.9527 28.9424L36.7291 29.0543L36.7309 29.0579L36.9527 28.9424ZM37.2428 29.702L37.4865 29.6457L37.4841 29.6368L37.2428 29.702ZM35.5923 30.5215H35.8423V30.5131L35.8418 30.5047L35.5923 30.5215ZM35.5222 30.0814L35.2778 30.1339L35.2795 30.1422L35.2819 30.1504L35.5222 30.0814ZM35.362 29.6818L35.1354 29.7875L35.1385 29.7942L35.1421 29.8007L35.362 29.6818ZM35.0921 29.2821L35.2841 29.1219L35.2828 29.1204L35.0921 29.2821ZM34.7221 28.9323L34.5454 29.1091L34.5569 29.1206L34.5698 29.1305L34.7221 28.9323ZM34.7022 28.9124L34.8789 28.7355L34.8678 28.7244L34.8553 28.7147L34.7022 28.9124ZM34.4413 28.7286L34.3022 28.9363L34.3022 28.9363L34.4413 28.7286ZM34.432 28.7223L34.2584 28.9023L34.2744 28.9177L34.2929 28.93L34.432 28.7223ZM34.4219 28.7126L34.5955 28.5326L34.5774 28.5152L34.5563 28.5018L34.4219 28.7126ZM34.092 28.5326L33.9806 28.7566L33.9888 28.7603L34.092 28.5326ZM33.8417 28.4228L33.7304 28.6466L33.7419 28.6523L33.7539 28.6568L33.8417 28.4228ZM33.6372 28.3396L33.5513 28.5744L33.5518 28.5746L33.6372 28.3396ZM33.5918 28.323L33.6779 28.0879L33.6646 28.0839L33.5918 28.323ZM33.1314 28.1828L33.2042 27.9437L32.8814 27.8454V28.1828H33.1314ZM33.1314 32.3403H32.8814V32.5206L33.0525 32.5775L33.1314 32.3403ZM33.3715 32.4202L33.2927 32.6574L33.2956 32.6583L33.3715 32.4202ZM34.0016 32.6301L33.9193 32.8662L33.9229 32.8674L34.0016 32.6301ZM34.6317 32.8697L34.5335 33.0996L34.5368 33.101L34.6317 32.8697ZM35.282 33.1797L35.3981 32.9583L35.3978 32.9582L35.282 33.1797ZM35.9023 33.5599L35.7588 33.7646L35.7591 33.7648L35.9023 33.5599ZM36.4626 34.0297L36.2806 34.2012L36.2861 34.2067L36.4626 34.0297ZM36.9328 34.6292L37.1498 34.505L37.1479 34.5017L36.9328 34.6292ZM37.203 35.3089L36.9605 35.3696L36.9611 35.372L37.203 35.3089ZM37.1932 36.8277L37.4342 36.895L37.4368 36.8841L37.1932 36.8277ZM36.893 37.5573L37.1089 37.6833L37.1104 37.6807L36.893 37.5573ZM36.3931 38.207L36.2162 38.0303L36.2123 38.0344L36.3931 38.207ZM35.7229 38.7566L35.5882 38.5459L35.5812 38.5507L35.7229 38.7566ZM35.2028 39.0465L35.1014 38.8178L35.0959 38.8205L35.2028 39.0465ZM34.6125 39.2864L34.6877 39.5249L34.6948 39.5225L34.6125 39.2864ZM34.0421 39.4461L34.0913 39.6913L34.0984 39.6898L34.1055 39.688L34.0421 39.4461ZM33.4319 39.5563L33.4648 39.8042L33.4677 39.8038L33.4319 39.5563ZM33.1317 39.5961L33.0989 39.3483L32.8817 39.377V39.5961H33.1317ZM31.3909 39.5661H31.6409V39.357L31.435 39.32L31.3909 39.5661ZM31.1109 39.5159L31.0641 39.7615L31.0668 39.762L31.1109 39.5159ZM30.4906 39.3663L30.4118 39.6038L30.4224 39.6068L30.4906 39.3663ZM29.8906 39.1466L29.7919 39.3762L29.7937 39.377L29.8906 39.1466ZM29.2703 38.8365L29.1365 39.0477L29.1431 39.0519L29.1499 39.0556L29.2703 38.8365ZM28.7201 38.4466L28.879 38.2535L28.8754 38.2507L28.7201 38.4466ZM28.0597 37.807L28.2557 37.6514L28.2488 37.6435L28.0597 37.807ZM27.5696 37.0774L27.344 37.1857L27.3495 37.196L27.5696 37.0774ZM27.2896 36.3077L27.5334 36.2515L27.5311 36.2428L27.2896 36.3077ZM27.1797 35.5084H26.9295L26.9299 35.5174L27.1797 35.5084ZM28.98 35.9073L28.7355 35.9597L28.7356 35.96L28.98 35.9073ZM28.9802 35.9084L28.7358 35.961L28.7376 35.9693L28.7399 35.9774L28.9802 35.9084ZM29.1404 36.3182L28.9135 36.4232L28.9182 36.4331L28.9236 36.4426L29.1404 36.3182ZM29.4204 36.7178L29.6111 36.5562L29.6111 36.5562L29.4204 36.7178ZM29.8005 37.0777L29.9664 36.8907L29.9608 36.8857L29.9549 36.8811L29.8005 37.0777ZM30.1007 37.2873L30.2351 37.0765L30.2279 37.072L30.2205 37.0679L30.1007 37.2873ZM30.4407 37.4774L30.5528 37.254L30.5525 37.2538L30.4407 37.4774ZM30.6708 37.5772L30.8475 37.4003L30.8092 37.3621L30.7586 37.3431L30.6708 37.5772ZM30.6809 37.5873L30.5042 37.7641L30.5459 37.8058L30.6019 37.8245L30.6809 37.5873ZM30.8109 37.6323L30.8941 37.3965L30.8941 37.3965L30.8109 37.6323ZM30.811 37.6323L30.7278 37.868L30.7278 37.8681L30.811 37.6323ZM30.9409 37.6773L30.862 37.9144L30.862 37.9144L30.9409 37.6773ZM31.3913 37.8272L31.3123 38.0644L31.6413 38.174V37.8272H31.3913ZM31.3913 33.6596H31.6413V33.4793L31.4701 33.4224L31.3913 33.6596ZM31.1511 33.5798L31.2301 33.3422L31.2171 33.3386L31.1511 33.5798ZM30.5109 33.3796L30.4182 33.6118L30.4249 33.6144L30.4318 33.6167L30.5109 33.3796ZM29.9428 33.1596L29.8537 33.3931L29.8537 33.3931L29.9428 33.1596ZM29.8906 33.1396L29.7873 33.3673L29.7943 33.3705L29.8015 33.3732L29.8906 33.1396ZM29.2305 32.8296L29.1063 33.047L29.1185 33.0531L29.2305 32.8296ZM29.2221 32.8248L29.346 32.6077L29.346 32.6077L29.2221 32.8248ZM28.6102 32.4501L28.4601 32.6503L28.4669 32.655L28.6102 32.4501ZM28.0402 31.9703L27.8585 32.1422L27.8633 32.147L28.0402 31.9703ZM27.5902 31.3704L27.3707 31.4904L27.3749 31.4975L27.5902 31.3704ZM27.32 30.6809L27.5625 30.6202L27.5625 30.6202L27.32 30.6809ZM27.3399 29.1719L27.5807 29.2392L27.5813 29.2371L27.3399 29.1719ZM27.6401 28.4423L27.4242 28.3163L27.4226 28.3191L27.6401 28.4423ZM28.1302 27.7824L28.3113 27.9548L28.3114 27.9547L28.1302 27.7824ZM28.7802 27.2426L28.6499 27.029L28.6414 27.0346L28.7802 27.2426ZM29.3405 26.9329L29.242 26.7029L29.2336 26.7069L29.3405 26.9329ZM29.9709 26.6929L30.0464 26.9313L30.05 26.9301L29.9709 26.6929ZM30.5308 26.543L30.5825 26.7876L30.5856 26.7869L30.5308 26.543ZM31.0911 26.453L31.1175 26.7017L31.1242 26.7008L31.0911 26.453ZM31.3909 26.4129L31.424 26.6607L31.6409 26.6317V26.4129H31.3909ZM31.571 25.4336L31.7476 25.6106L32.1757 25.1836H31.571V25.4336ZM30.9294 31.6714L31.016 31.4368L31.0091 31.4343L31.0021 31.4322L30.9294 31.6714ZM30.6495 31.5612L30.7512 31.3328L30.74 31.3278L30.7284 31.324L30.6495 31.5612ZM31.3899 31.8412L31.3033 32.0758L31.6399 32.1999V31.8412H31.3899ZM31.3899 28.1532H31.6399V27.8498L31.3421 27.9078L31.3899 28.1532ZM30.9797 28.233L30.9319 27.9876L30.931 27.9878L30.9797 28.233ZM30.834 28.2682L30.8947 28.5108L30.8979 28.5099L30.834 28.2682ZM30.834 28.2682L30.7734 28.0257L30.7701 28.0265L30.834 28.2682ZM30.6896 28.3031L30.6408 28.0579L30.6259 28.0609L30.6115 28.0657L30.6896 28.3031ZM30.5536 28.3418L30.4901 28.1L30.4822 28.102L30.4745 28.1046L30.5536 28.3418ZM30.5535 28.3418L30.617 28.5836L30.6249 28.5815L30.6326 28.579L30.5535 28.3418ZM30.4097 28.383L30.3298 28.1461L30.3179 28.1501L30.3064 28.1553L30.4097 28.383ZM30.2684 28.4421L30.3475 28.6792L30.3546 28.6769L30.3616 28.6741L30.2684 28.4421ZM30.2684 28.4421L30.1894 28.2049L30.1822 28.2073L30.1753 28.2101L30.2684 28.4421ZM30.0595 28.5326L29.9483 28.3087L29.9481 28.3088L30.0595 28.5326ZM29.7496 28.7025L29.6208 28.4882L29.6112 28.4939L29.6022 28.5005L29.7496 28.7025ZM29.4295 28.9623L29.2625 28.7757L29.2528 28.7854L29.4295 28.9623ZM29.1893 29.2622L28.9786 29.1276L28.974 29.1348L28.9699 29.1423L29.1893 29.2622ZM29.0392 29.5921L28.8043 29.5066L28.7998 29.5188L28.7967 29.5314L29.0392 29.5921ZM29.0392 30.2921L29.2844 30.2432L29.2827 30.2347L29.2804 30.2264L29.0392 30.2921ZM29.1694 30.5819L29.3877 30.46L29.3828 30.4513L29.3774 30.4431L29.1694 30.5819ZM29.3694 30.8215L29.5572 30.6565L29.5463 30.644L29.5338 30.6331L29.3694 30.8215ZM29.5645 30.9882L29.4162 31.1895L29.4212 31.193L29.5645 30.9882ZM29.5646 30.9882L29.7129 30.7869L29.7079 30.7834L29.5646 30.9882ZM29.6096 31.0217L29.7863 30.8448L29.774 30.8326L29.7602 30.8221L29.6096 31.0217ZM29.6197 31.0318L29.443 31.2086L29.4606 31.2262L29.4813 31.2399L29.6197 31.0318ZM29.98 31.2515L30.1596 31.0777L30.1299 31.0469L30.0917 31.0278L29.98 31.2515ZM29.9901 31.2619L29.8104 31.4358L29.8377 31.464L29.8722 31.4824L29.9901 31.2619ZM30.2477 31.3915L30.3595 31.1679L30.3571 31.1667L30.2477 31.3915ZM30.2478 31.3916L30.136 31.6152L30.1404 31.6173L30.2478 31.3916ZM30.2481 31.3917L30.3575 31.1669L30.3556 31.166L30.2481 31.3917ZM30.3702 31.4517L30.2585 31.6753L30.3112 31.7017H30.3702V31.4517ZM30.3803 31.4517L30.482 31.2233L30.4335 31.2017H30.3803V31.4517ZM33.7353 34.3798L33.645 34.6129L33.645 34.6129L33.7353 34.3798ZM33.8704 34.4297H34.1204V34.2494L33.9494 34.1925L33.8704 34.4297ZM33.6002 34.3299L33.5151 34.5651L33.5212 34.5671L33.6002 34.3299ZM33.13 34.1597L33.2151 33.9247L32.88 33.8034V34.1597H33.13ZM33.13 37.8478H32.88V38.1512L33.1778 38.0932L33.13 37.8478ZM33.5401 37.7679L33.5879 38.0133L33.5888 38.0132L33.5401 37.7679ZM33.7185 37.7288L33.7748 37.9724L33.7758 37.9722L33.7185 37.7288ZM33.7186 37.7288L33.6623 37.4852L33.6614 37.4855L33.7186 37.7288ZM33.8103 37.7079L33.8642 37.9522L33.8707 37.9506L33.8103 37.7079ZM34.0603 37.6378L33.9867 37.3989L33.981 37.4007L34.0603 37.6378ZM34.4404 37.4882L34.5447 37.7154L34.5526 37.7118L34.5601 37.7077L34.4404 37.4882ZM34.4405 37.4882L34.3286 37.2644L34.3208 37.2687L34.4405 37.4882ZM34.4405 37.4882L34.5524 37.7119L34.5602 37.7076L34.4405 37.4882ZM34.7706 37.2985L34.9043 37.5099L34.9095 37.5064L34.7706 37.2985ZM35.1009 37.0387L35.2678 37.2253L35.2775 37.2155L35.1009 37.0387ZM35.3309 36.7388L35.1199 36.6047L35.1155 36.6116L35.1115 36.6189L35.3309 36.7388ZM35.481 36.3991L35.2437 36.3204L35.2408 36.3292L35.2385 36.3382L35.481 36.3991ZM35.4911 35.7096L35.7307 35.6383L35.7274 35.6271L35.7231 35.6163L35.4911 35.7096ZM35.4903 35.7075L35.7223 35.6142L35.72 35.609L35.4903 35.7075ZM35.4902 35.7074L35.2583 35.8008L35.2605 35.8059L35.4902 35.7074ZM35.3511 35.4097L35.5659 35.2816L35.559 35.2701L35.551 35.2594L35.3511 35.4097ZM35.1511 35.1802L35.3274 35.0029L35.3216 34.9971L35.3154 34.9918L35.1511 35.1802ZM35.1501 35.1793L34.9857 35.3677L34.9858 35.3677L35.1501 35.1793ZM34.911 34.98L34.7343 35.1569L34.7465 35.1691L34.7604 35.1795L34.911 34.98ZM34.8911 34.9601L35.0678 34.7833L35.0502 34.7657L35.0295 34.752L34.8911 34.9601ZM34.5428 34.7474L34.4168 34.9633L34.4168 34.9633L34.5428 34.7474ZM34.5308 34.7404L34.6569 34.5244L34.6489 34.52L34.5308 34.7404ZM34.1406 34.5503L34.2452 34.3233L34.242 34.3219L34.1406 34.5503ZM34.0055 34.4904L34.1069 34.2619L34.1069 34.2619L34.0055 34.4904ZM33.8704 34.4304H33.6204V34.5929L33.7689 34.6589L33.8704 34.4304ZM14.1852 35.6653C14.2137 35.8563 14.2451 36.0469 14.2794 36.2368L14.7714 36.148C14.7381 35.9631 14.7075 35.7775 14.6797 35.5914L14.1852 35.6653ZM13.9922 32.9998C13.9922 33.9022 14.0634 34.7938 14.1848 35.663L14.68 35.5938C14.5613 34.7443 14.4922 33.8761 14.4922 32.9998H13.9922ZM19.3477 20.1001C16.0414 23.403 13.9922 27.9633 13.9922 32.9998H14.4922C14.4922 28.1018 16.4845 23.6671 19.701 20.4538L19.3477 20.1001ZM32.2589 14.75C27.218 14.75 22.6535 16.7969 19.3477 20.1001L19.7011 20.4538C22.9173 17.2402 27.3561 15.25 32.2589 15.25V14.75ZM45.1802 20.1001C41.8739 16.7968 37.2997 14.75 32.2589 14.75V15.25C37.1618 15.25 41.6104 17.2403 44.8269 20.4538L45.1802 20.1001ZM50.5256 32.9998C50.5256 27.964 48.4864 23.4036 45.1803 20.1001L44.8268 20.4538C48.0428 23.6672 50.0256 28.1018 50.0256 32.9998H50.5256ZM49.8154 38.0468C50.2822 36.4449 50.5256 34.7522 50.5256 32.9998H50.0256C50.0256 34.7057 49.7887 36.3512 49.3353 37.9069L49.8154 38.0468ZM47.7363 42.6982C48.6392 41.2687 49.339 39.7075 49.8157 38.0458L49.3351 37.9079C48.8713 39.5245 48.1909 41.0422 47.3135 42.4312L47.7363 42.6982ZM46.4204 42.9954C46.8694 43.2809 47.4529 43.1426 47.7357 42.6991L47.3141 42.4303C47.1766 42.646 46.9 42.7079 46.6886 42.5735L46.4204 42.9954ZM46.1237 41.6809C45.8399 42.1266 45.9721 42.7242 46.4251 42.9983L46.6839 42.5705C46.4764 42.445 46.409 42.1638 46.5454 41.9496L46.1237 41.6809ZM47.9851 37.5274C47.5514 39.0144 46.9207 40.4126 46.1229 41.6822L46.5462 41.9483C47.3688 40.6392 48.0185 39.1986 48.4651 37.6674L47.9851 37.5274ZM48.6153 33.0002C48.6153 34.5761 48.3986 36.0919 47.9849 37.5282L48.4654 37.6666C48.8922 36.1846 49.1153 34.6223 49.1153 33.0002H48.6153ZM43.8265 21.4429C46.7832 24.4069 48.6153 28.492 48.6153 33.0002H49.1153C49.1153 28.3536 47.2264 24.1432 44.1804 21.0898L43.8265 21.4429ZM32.2592 16.6593C36.7821 16.6593 40.8708 18.49 43.8268 21.4432L44.1802 21.0895C41.1342 18.0463 36.9198 16.1593 32.2592 16.1593V16.6593ZM20.7015 21.4432C23.6579 18.4895 27.7366 16.6593 32.2592 16.6593V16.1593C27.5985 16.1593 23.3943 18.0461 20.3481 21.0895L20.7015 21.4432ZM15.9031 33.0002C15.9031 28.492 17.7353 24.4071 20.7015 21.4432L20.3481 21.0895C17.2921 24.1431 15.4031 28.3536 15.4031 33.0002H15.9031ZM16.0804 35.3913C15.9623 34.6146 15.9031 33.8174 15.9031 33.0002H15.4031C15.4031 33.8416 15.4641 34.664 15.5861 35.4665L16.0804 35.3913ZM16.1002 35.5201C16.0935 35.4774 16.0869 35.4346 16.0805 35.3917L15.586 35.466C15.5926 35.51 15.5994 35.5539 15.6063 35.5978L16.1002 35.5201ZM16.0865 35.649L17.5261 31.9202L17.0597 31.7401L15.62 35.4689L16.0865 35.649ZM17.5259 31.9207C17.6158 31.6898 17.8808 31.5732 18.1122 31.6634L18.2937 31.1975C17.8053 31.0072 17.2501 31.2506 17.0599 31.7395L17.5259 31.9207ZM18.1125 31.6635C18.3439 31.7534 18.4601 32.0181 18.3701 32.2488L18.8359 32.4305C19.0265 31.9421 18.7825 31.3872 18.2934 31.1974L18.1125 31.6635ZM18.3699 32.2493L16.1412 38.0015L16.6075 38.1822L18.8361 32.43L18.3699 32.2493ZM16.2706 38.7329C16.4604 38.5833 16.5855 38.3665 16.6215 38.1294L16.1272 38.0543C16.1101 38.1668 16.0505 38.2698 15.9612 38.3401L16.2706 38.7329ZM15.9516 38.348C15.7925 38.4867 15.5465 38.4995 15.3648 38.3588L15.0587 38.7542C15.4287 39.0406 15.9405 39.0209 16.2801 38.725L15.9516 38.348ZM15.3683 38.3616L10.4167 34.3834L10.1036 34.7732L15.0552 38.7514L15.3683 38.3616ZM10.42 34.3861C10.221 34.2205 10.1948 33.9376 10.3521 33.7496L9.96856 33.4288C9.62525 33.8393 9.69891 34.4366 10.1003 34.7705L10.42 34.3861ZM10.3555 33.7455C10.5082 33.5548 10.7926 33.5185 10.9979 33.6769L11.3034 33.2811C10.888 32.9604 10.2928 33.0238 9.96517 33.433L10.3555 33.7455ZM10.994 33.6739L14.3688 36.3872L14.6821 35.9975L11.3073 33.2842L10.994 33.6739ZM45.3302 44.3966C44.9496 44.0168 44.3391 44.0309 43.9733 44.4101L44.3331 44.7572C44.5077 44.5763 44.7971 44.5709 44.9771 44.7505L45.3302 44.3966ZM45.3438 45.7368C45.7098 45.3569 45.695 44.7614 45.3305 44.3968L44.9768 44.7503C45.152 44.9255 45.1574 45.2096 44.9837 45.3898L45.3438 45.7368ZM41.3476 48.8379C42.8173 47.9873 44.1658 46.9438 45.3427 45.7379L44.9849 45.3887C43.8405 46.5613 42.5283 47.5768 41.0972 48.4051L41.3476 48.8379ZM36.67 50.7134C38.3242 50.3077 39.8965 49.6693 41.3467 48.8384L41.0981 48.4046C39.6873 49.2129 38.1584 49.8335 36.5509 50.2278L36.67 50.7134ZM35.5087 50.0261C35.6424 50.5197 36.1525 50.8492 36.6739 50.7124L36.547 50.2288C36.3081 50.2915 36.0579 50.1411 35.9913 49.8953L35.5087 50.0261ZM36.2125 48.8679C35.6957 48.9902 35.3853 49.5065 35.5067 50.0184L35.9932 49.903C35.9345 49.6554 36.0842 49.4121 36.3277 49.3544L36.2125 48.8679ZM40.3977 47.1853C39.1071 47.9234 37.6975 48.4945 36.2091 48.8687L36.3311 49.3536C37.8636 48.9683 39.3157 48.3801 40.6459 47.6193L40.3977 47.1853ZM43.9741 44.4093C42.9199 45.492 41.7176 46.427 40.3973 47.1855L40.6463 47.619C42.0069 46.8374 43.246 45.8739 44.3323 44.758L43.9741 44.4093ZM33.2193 50.3004C33.2193 49.7722 32.787 49.3407 32.2589 49.3407V49.8407C32.5113 49.8407 32.7193 50.0488 32.7193 50.3004H33.2193ZM32.2589 51.25C32.7823 51.25 33.2193 50.8332 33.2193 50.3004H32.7193C32.7193 50.5474 32.516 50.75 32.2589 50.75V51.25ZM28.6073 50.885C29.7948 51.1284 31.0222 51.25 32.2589 51.25V50.75C31.0548 50.75 29.8611 50.6316 28.7077 50.3952L28.6073 50.885ZM25.1091 49.8008C26.2149 50.2673 27.3908 50.632 28.6066 50.8848L28.7084 50.3953C27.5233 50.1488 26.3785 49.7936 25.3034 49.3401L25.1091 49.8008ZM24.6055 48.5448C24.4035 49.0291 24.6194 49.5837 25.1049 49.799L25.3076 49.3419C25.0726 49.2377 24.9687 48.9728 25.0669 48.7373L24.6055 48.5448ZM25.8528 48.0406C25.3662 47.838 24.8106 48.0666 24.6065 48.5425L25.0659 48.7396C25.162 48.5159 25.4267 48.4048 25.6606 48.5022L25.8528 48.0406ZM28.9868 49.016C27.9049 48.7996 26.8605 48.4649 25.8537 48.041L25.6597 48.5018C26.6936 48.9372 27.7702 49.2825 28.8888 49.5063L28.9868 49.016ZM32.2589 49.3407C31.1246 49.3407 30.0313 49.2324 28.9885 49.0163L28.8871 49.5059C29.9653 49.7293 31.0928 49.8407 32.2589 49.8407V49.3407ZM22.6259 47.4013C22.9377 46.9811 22.855 46.3875 22.4382 46.0648L22.1322 46.4602C22.3353 46.6175 22.3727 46.9034 22.2244 47.1033L22.6259 47.4013ZM21.2862 47.5935C21.7036 47.9022 22.3109 47.8258 22.6259 47.4013L22.2244 47.1033C22.0793 47.2989 21.7867 47.3418 21.5835 47.1915L21.2862 47.5935ZM20.088 46.6094C20.4746 46.9548 20.88 47.2791 21.2818 47.5902L21.5879 47.1948C21.1896 46.8865 20.7949 46.5705 20.4212 46.2366L20.088 46.6094ZM18.9825 45.5352C19.3289 45.9016 19.7041 46.2561 20.0853 46.6069L20.4239 46.239C20.0449 45.8902 19.68 45.5451 19.3458 45.1917L18.9825 45.5352ZM19.0207 44.1839C18.6447 44.546 18.6155 45.1417 18.9813 45.5339L19.347 45.193C19.1723 45.0056 19.183 44.7218 19.3676 44.544L19.0207 44.1839ZM20.3675 44.2237C20.0146 43.8441 19.4038 43.815 19.0207 44.1839L19.3675 44.544C19.5444 44.3737 19.8342 44.3844 20.0014 44.5642L20.3675 44.2237ZM21.3601 45.1861C21.0262 44.8915 20.6916 44.567 20.3662 44.2223L20.0027 44.5655C20.3377 44.9205 20.6832 45.2557 21.0293 45.5611L21.3601 45.1861ZM22.4332 46.0614C22.061 45.7879 21.7069 45.4932 21.3604 45.1864L21.0289 45.5607C21.3827 45.874 21.7491 46.1792 22.1371 46.4643L22.4332 46.0614ZM22.0352 46.2625V46.2629H22.5352V46.2625H22.0352ZM40.6774 24.5983C38.5214 22.4444 35.5476 21.1172 32.2577 21.1172V21.6172C35.4102 21.6172 38.2582 22.8882 40.324 24.9521L40.6774 24.5983ZM44.1618 33.0005C44.1618 29.7229 42.8228 26.7521 40.6778 24.5988L40.3236 24.9516C42.38 27.0161 43.6618 29.8618 43.6618 33.0005H44.1618ZM40.6774 41.4027C42.823 39.2591 44.1618 36.2779 44.1618 33.0005H43.6618C43.6618 36.1396 42.3798 38.9951 40.324 41.049L40.6774 41.4027ZM32.2577 44.8839C35.5476 44.8839 38.5214 43.5567 40.6774 41.4027L40.324 41.049C38.2582 43.1128 35.4102 44.3839 32.2577 44.3839V44.8839ZM23.8481 41.4027C26.0035 43.5565 28.9675 44.8839 32.2577 44.8839V44.3839C29.1054 44.3839 26.267 43.113 24.2015 41.049L23.8481 41.4027ZM20.3633 33.0005C20.3633 36.2876 21.6921 39.2587 23.8485 41.4031L24.2011 41.0486C22.1358 38.9948 20.8633 36.15 20.8633 33.0005H20.3633ZM23.8481 24.5983C21.6923 26.7521 20.3633 29.7131 20.3633 33.0005H20.8633C20.8633 29.8514 22.1356 27.0161 24.2015 24.9521L23.8481 24.5983ZM32.2577 21.1172C28.9777 21.1172 26.0039 22.4444 23.8481 24.5983L24.2015 24.9521C26.2673 22.8881 29.1154 21.6172 32.2577 21.6172V21.1172ZM32.2577 23.0265C35.0202 23.0265 37.5178 24.1376 39.323 25.9511L39.6774 25.5983C37.7811 23.6934 35.1571 22.5265 32.2577 22.5265V23.0265ZM25.202 25.9511C27.0075 24.1374 29.4954 23.0265 32.2577 23.0265V22.5265C29.3579 22.5265 26.7438 23.6936 24.8477 25.5983L25.202 25.9511ZM22.2739 33.0005C22.2739 30.2512 23.3956 27.7559 25.2016 25.9516L24.8482 25.5979C22.9526 27.4917 21.7739 30.1126 21.7739 33.0005H22.2739ZM25.2016 40.0596C23.3961 38.2554 22.2739 35.7501 22.2739 33.0005H21.7739C21.7739 35.8882 22.9528 38.5193 24.8482 40.4133L25.2016 40.0596ZM32.2577 42.9749C29.505 42.9749 27.0071 41.8635 25.2016 40.0596L24.8482 40.4133C26.7442 42.3076 29.3679 43.4749 32.2577 43.4749V42.9749ZM39.3235 40.0596C37.5182 41.8633 35.0106 42.9749 32.2577 42.9749V43.4749C35.1472 43.4749 37.7807 42.3078 39.6769 40.4133L39.3235 40.0596ZM42.2414 33.0005C42.2414 35.7607 41.129 38.2558 39.3235 40.0596L39.6769 40.4133C41.573 38.5189 42.7414 35.8979 42.7414 33.0005H42.2414ZM39.3235 25.9516C41.1292 27.7552 42.2414 30.2406 42.2414 33.0005H42.7414C42.7414 30.103 41.5728 27.4917 39.6769 25.5978L39.3235 25.9516ZM32.9506 25.1846H31.57V25.6846H32.9506V25.1846ZM33.3807 25.6142C33.3807 25.3759 33.1883 25.1846 32.9506 25.1846V25.6846C32.9132 25.6846 32.8807 25.6531 32.8807 25.6142H33.3807ZM33.3807 26.4342V25.6142H32.8807V26.4342H33.3807ZM33.4545 26.2375L33.1742 26.188L33.0872 26.6804L33.3675 26.7299L33.4545 26.2375ZM34.11 26.4065C33.8886 26.333 33.6777 26.2797 33.4575 26.238L33.3645 26.7293C33.5645 26.7672 33.7537 26.815 33.9525 26.881L34.11 26.4065ZM34.7183 26.6229C34.5186 26.539 34.31 26.4664 34.1031 26.4043L33.9595 26.8832C34.1526 26.9411 34.3441 27.008 34.5248 27.0839L34.7183 26.6229ZM35.3705 26.9591C35.1585 26.832 34.9374 26.7269 34.7291 26.6277L34.5141 27.0791C34.726 27.18 34.9252 27.2751 35.1133 27.3879L35.3705 26.9591ZM35.9656 27.3555C35.7775 27.2094 35.5762 27.0719 35.3622 26.9544L35.1215 27.3926C35.3076 27.4948 35.4868 27.6168 35.6589 27.7504L35.9656 27.3555ZM36.6644 28.0426C36.4523 27.7882 36.2208 27.5681 35.9723 27.3609L35.6522 27.745C35.884 27.9382 36.0924 28.1373 36.2803 28.3628L36.6644 28.0426ZM37.1763 28.8305C37.0362 28.5507 36.8557 28.2866 36.6691 28.0485L36.2756 28.3569C36.4492 28.5784 36.6088 28.8138 36.7291 29.0543L37.1763 28.8305ZM37.4841 29.6368C37.4104 29.3637 37.3147 29.0964 37.1744 28.8269L36.7309 29.0579C36.8511 29.2885 36.9348 29.5207 37.0014 29.7672L37.4841 29.6368ZM37.5929 30.4916C37.5929 30.1967 37.5491 29.9171 37.4863 29.6457L36.9992 29.7583C37.0565 30.0065 37.0929 30.2465 37.0929 30.4916H37.5929ZM37.5929 30.5114V30.4916H37.0929V30.5114H37.5929ZM37.173 30.9414C37.4098 30.9414 37.5929 30.74 37.5929 30.5114H37.0929C37.0929 30.4932 37.1004 30.477 37.1114 30.4655C37.1219 30.4547 37.1424 30.4414 37.173 30.4414V30.9414ZM35.7623 30.9414H37.173V30.4414H35.7623V30.9414ZM35.3423 30.5215C35.3423 30.7491 35.5341 30.9414 35.7623 30.9414V30.4414C35.792 30.4414 35.811 30.4539 35.8204 30.4633C35.8297 30.4727 35.8423 30.4917 35.8423 30.5215H35.3423ZM35.2819 30.1504C35.3153 30.2669 35.3334 30.3979 35.3429 30.5384L35.8418 30.5047C35.831 30.3453 35.8093 30.1757 35.7625 30.0124L35.2819 30.1504ZM35.1421 29.8007C35.2083 29.9232 35.2552 30.0287 35.2778 30.1339L35.7666 30.029C35.7292 29.8545 35.6559 29.6998 35.5819 29.5628L35.1421 29.8007ZM34.9002 29.4423C34.9971 29.5584 35.0799 29.6684 35.1354 29.7875L35.5885 29.576C35.5044 29.3958 35.3869 29.2451 35.2841 29.1219L34.9002 29.4423ZM34.5698 29.1305C34.6875 29.2209 34.8044 29.3292 34.9014 29.4437L35.2828 29.1204C35.1599 28.9754 35.0164 28.8431 34.8744 28.734L34.5698 29.1305ZM34.5255 29.0893L34.5454 29.1091L34.8988 28.7554L34.8789 28.7355L34.5255 29.0893ZM34.3022 28.9363C34.3901 28.9952 34.47 29.0488 34.5491 29.1101L34.8553 28.7147C34.7605 28.6413 34.6665 28.5785 34.5805 28.5209L34.3022 28.9363ZM34.2929 28.93L34.3022 28.9363L34.5805 28.5209L34.5712 28.5146L34.2929 28.93ZM34.2483 28.8925L34.2584 28.9023L34.6056 28.5424L34.5955 28.5326L34.2483 28.8925ZM33.9888 28.7603C34.0872 28.8049 34.1867 28.8591 34.2875 28.9234L34.5563 28.5018C34.4372 28.4258 34.3168 28.3601 34.1953 28.3049L33.9888 28.7603ZM33.7539 28.6568C33.8245 28.6833 33.907 28.7198 33.9807 28.7565L34.2034 28.3088C34.1171 28.2659 34.0188 28.2222 33.9296 28.1887L33.7539 28.6568ZM33.5518 28.5746C33.6219 28.6001 33.6801 28.6216 33.7304 28.6466L33.9531 28.1989C33.8732 28.1592 33.7878 28.1284 33.7227 28.1047L33.5518 28.5746ZM33.5058 28.5578L33.5513 28.5744L33.7232 28.1049L33.6778 28.0883L33.5058 28.5578ZM33.0586 28.422L33.519 28.5622L33.6646 28.0839L33.2042 27.9437L33.0586 28.422ZM33.3814 32.3403V28.1828H32.8814V32.3403H33.3814ZM33.4504 32.1829L33.2103 32.1031L33.0525 32.5775L33.2927 32.6574L33.4504 32.1829ZM34.0839 32.394C33.8817 32.3235 33.6694 32.2527 33.4475 32.182L33.2956 32.6583C33.5135 32.7278 33.7215 32.7972 33.9193 32.8662L34.0839 32.394ZM34.7299 32.6398C34.5142 32.5477 34.2976 32.4649 34.0804 32.3928L33.9229 32.8674C34.1259 32.9348 34.3296 33.0125 34.5335 33.0996L34.7299 32.6398ZM35.3978 32.9582C35.1857 32.8473 34.9577 32.7332 34.7266 32.6384L34.5368 33.101C34.7463 33.1869 34.9581 33.2925 35.1662 33.4013L35.3978 32.9582ZM36.0458 33.3552C35.838 33.2095 35.6187 33.074 35.3981 32.9583L35.1659 33.4011C35.3656 33.5059 35.5666 33.6299 35.7588 33.7646L36.0458 33.3552ZM36.6445 33.8582C36.4582 33.6605 36.2527 33.4998 36.0456 33.355L35.7591 33.7648C35.952 33.8996 36.127 34.0382 36.2807 34.2012L36.6445 33.8582ZM37.1479 34.5017C37.0059 34.2621 36.8325 34.0455 36.6391 33.8526L36.2861 34.2067C36.4529 34.373 36.5993 34.5568 36.7177 34.7566L37.1479 34.5017ZM37.4455 35.2481C37.3803 34.9882 37.2821 34.7364 37.1498 34.505L36.7158 34.7533C36.8236 34.9418 36.9055 35.1504 36.9605 35.3696L37.4455 35.2481ZM37.543 36.0284C37.543 35.7686 37.5106 35.4979 37.4449 35.2458L36.9611 35.372C37.0154 35.5802 37.043 35.8082 37.043 36.0284H37.543ZM37.4368 36.8841C37.4998 36.6118 37.543 36.3223 37.543 36.0284H37.043C37.043 36.2743 37.0067 36.5247 36.9496 36.7713L37.4368 36.8841ZM37.1104 37.6807C37.2517 37.4317 37.3593 37.1625 37.434 36.8949L36.9524 36.7605C36.8875 36.993 36.7947 37.2239 36.6756 37.4339L37.1104 37.6807ZM36.57 38.3837C36.775 38.1785 36.9582 37.9417 37.1089 37.6833L36.6771 37.4313C36.5479 37.6528 36.391 37.8554 36.2163 38.0303L36.57 38.3837ZM35.8575 38.9673C36.1238 38.7972 36.3597 38.6042 36.574 38.3796L36.2123 38.0344C36.0265 38.229 35.8219 38.3967 35.5883 38.546L35.8575 38.9673ZM35.3041 39.275C35.4977 39.1892 35.6911 39.082 35.8646 38.9626L35.5812 38.5507C35.4343 38.6517 35.2681 38.744 35.1014 38.8179L35.3041 39.275ZM34.6948 39.5225C34.902 39.4502 35.1103 39.3667 35.3097 39.2725L35.0959 38.8205C34.9147 38.9061 34.7231 38.9831 34.5302 39.0503L34.6948 39.5225ZM34.1055 39.688C34.2949 39.6383 34.4907 39.5869 34.6877 39.5248L34.5373 39.048C34.3538 39.1058 34.1698 39.1542 33.9787 39.2043L34.1055 39.688ZM33.4677 39.8038C33.6855 39.7723 33.8918 39.7313 34.0913 39.6913L33.993 39.201C33.7924 39.2412 33.5987 39.2797 33.3962 39.3089L33.4677 39.8038ZM33.1646 39.8439L33.4648 39.8042L33.3991 39.3085L33.0989 39.3483L33.1646 39.8439ZM33.3817 40.3954V39.5961H32.8817V40.3954H33.3817ZM32.9516 40.8153C33.1802 40.8153 33.3817 40.633 33.3817 40.3954H32.8817C32.8817 40.3653 32.8948 40.3446 32.9061 40.3338C32.918 40.3224 32.9342 40.3153 32.9516 40.3153V40.8153ZM31.571 40.8153H32.9516V40.3153H31.571V40.8153ZM31.1409 40.3954C31.1409 40.6333 31.3431 40.8153 31.571 40.8153V40.3153C31.5888 40.3153 31.6049 40.3225 31.6166 40.3337C31.6276 40.3443 31.6409 40.365 31.6409 40.3954H31.1409ZM31.1409 39.5661V40.3954H31.6409V39.5661H31.1409ZM31.0668 39.762L31.3468 39.8122L31.435 39.32L31.1551 39.2698L31.0668 39.762ZM30.4224 39.6068C30.6375 39.6678 30.8449 39.7196 31.0641 39.7614L31.1578 39.2703C30.9567 39.2319 30.764 39.184 30.5589 39.1258L30.4224 39.6068ZM29.7937 39.377C29.9926 39.4607 30.1999 39.5332 30.4119 39.6035L30.5694 39.129C30.3611 39.0599 30.1684 38.9922 29.9875 38.9161L29.7937 39.377ZM29.1499 39.0556C29.3523 39.1668 29.5707 39.2812 29.7919 39.3762L29.9893 38.9169C29.7902 38.8313 29.5883 38.726 29.3906 38.6174L29.1499 39.0556ZM28.5613 38.6397C28.7426 38.7888 28.9425 38.9248 29.1365 39.0477L29.4041 38.6253C29.2183 38.5076 29.0377 38.3841 28.879 38.2535L28.5613 38.6397ZM27.8639 37.9625C28.0704 38.2225 28.3168 38.4459 28.5649 38.6425L28.8754 38.2507C28.6439 38.0672 28.4295 37.8706 28.2555 37.6515L27.8639 37.9625ZM27.3495 37.196C27.4951 37.4663 27.6649 37.7325 27.8706 37.9705L28.2488 37.6435C28.0741 37.4413 27.924 37.2082 27.7897 36.9588L27.3495 37.196ZM27.046 36.3639C27.1114 36.647 27.2187 36.9242 27.3442 37.1856L27.795 36.9692C27.6803 36.7305 27.588 36.4888 27.5332 36.2515L27.046 36.3639ZM26.9299 35.5174C26.9401 35.799 26.972 36.0889 27.0482 36.3726L27.5311 36.2428C27.4677 36.0068 27.4389 35.7569 27.4295 35.4993L26.9299 35.5174ZM26.9297 35.4885V35.5084H27.4297V35.4885H26.9297ZM27.3598 35.0683C27.1316 35.0683 26.9297 35.2506 26.9297 35.4885H27.4297C27.4297 35.5185 27.4166 35.5391 27.4055 35.5498C27.3938 35.5611 27.3776 35.5683 27.3598 35.5683V35.0683ZM28.74 35.0683H27.3598V35.5683H28.74V35.0683ZM29.1702 35.4885C29.1702 35.2311 28.9583 35.0683 28.74 35.0683V35.5683C28.7318 35.5683 28.715 35.5651 28.6981 35.5496C28.6796 35.5325 28.6702 35.5085 28.6702 35.4885H29.1702ZM29.2244 35.855C29.1934 35.7103 29.1702 35.597 29.1702 35.4885H28.6702C28.6702 35.659 28.7066 35.8247 28.7355 35.9597L29.2244 35.855ZM29.2246 35.8557L29.2244 35.8547L28.7356 35.96L28.7358 35.961L29.2246 35.8557ZM29.3673 36.2132C29.3087 36.0865 29.2552 35.9603 29.2205 35.8394L28.7399 35.9774C28.7855 36.1362 28.8521 36.2904 28.9135 36.4232L29.3673 36.2132ZM29.6111 36.5562C29.5116 36.4388 29.4305 36.3212 29.3572 36.1937L28.9236 36.4426C29.011 36.5948 29.1093 36.7375 29.2297 36.8795L29.6111 36.5562ZM29.9549 36.8811C29.8249 36.7791 29.7078 36.6703 29.6111 36.5562L29.2297 36.8795C29.3529 37.0249 29.4962 37.1567 29.6462 37.2744L29.9549 36.8811ZM30.2205 37.0679C30.1261 37.0164 30.0415 36.9573 29.9664 36.8907L29.6347 37.2648C29.7396 37.3579 29.8555 37.4383 29.981 37.5068L30.2205 37.0679ZM30.5525 37.2538C30.4375 37.1964 30.3356 37.1406 30.2351 37.0765L29.9663 37.4982C30.0857 37.5743 30.2038 37.6385 30.329 37.7011L30.5525 37.2538ZM30.7586 37.3431C30.6853 37.3156 30.6234 37.2894 30.5528 37.254L30.3286 37.7009C30.4179 37.7457 30.4964 37.7788 30.5829 37.8112L30.7586 37.3431ZM30.8576 37.4104L30.8475 37.4003L30.4941 37.754L30.5042 37.7641L30.8576 37.4104ZM30.8941 37.3965C30.8519 37.3816 30.8073 37.3659 30.7599 37.3501L30.6019 37.8245C30.6445 37.8387 30.685 37.8529 30.7277 37.868L30.8941 37.3965ZM30.8942 37.3966L30.8941 37.3965L30.7277 37.868L30.7278 37.868L30.8942 37.3966ZM31.0199 37.4401C30.9774 37.4259 30.9369 37.4116 30.8942 37.3965L30.7278 37.8681C30.77 37.8829 30.8145 37.8987 30.862 37.9144L31.0199 37.4401ZM31.4702 37.59L31.0199 37.4401L30.862 37.9144L31.3123 38.0644L31.4702 37.59ZM31.1413 33.6596V37.8272H31.6413V33.6596H31.1413ZM31.0722 33.817L31.3124 33.8969L31.4701 33.4224L31.23 33.3425L31.0722 33.817ZM30.4318 33.6167C30.6412 33.6866 30.8572 33.7585 31.085 33.8209L31.2171 33.3386C31.0044 33.2804 30.8008 33.2128 30.59 33.1424L30.4318 33.6167ZM29.8537 33.3931C30.0467 33.4668 30.2368 33.5393 30.4182 33.6118L30.6036 33.1474C30.4181 33.0733 30.2243 32.9994 30.032 32.926L29.8537 33.3931ZM29.8015 33.3732L29.8537 33.3931L30.032 32.926L29.9797 32.9061L29.8015 33.3732ZM29.1185 33.0531C29.3434 33.1658 29.5679 33.2678 29.7873 33.3673L29.9939 32.912C29.7734 32.812 29.5574 32.7138 29.3425 32.6061L29.1185 33.0531ZM29.0981 33.0419L29.1065 33.0467L29.3545 32.6125L29.346 32.6077L29.0981 33.0419ZM28.4669 32.655C28.6752 32.8007 28.8924 32.9244 29.0981 33.0419L29.346 32.6077C29.1371 32.4884 28.9399 32.3756 28.7534 32.2453L28.4669 32.655ZM27.8633 32.147C28.056 32.3398 28.2578 32.4984 28.4602 32.6502L28.7602 32.2501C28.5626 32.102 28.3839 31.9606 28.217 31.7936L27.8633 32.147ZM27.3749 31.4975C27.5139 31.7331 27.6752 31.9484 27.8586 32.1421L28.2217 31.7984C28.0651 31.6329 27.9262 31.4479 27.8055 31.2434L27.3749 31.4975ZM27.0775 30.7416C27.1428 31.0025 27.2407 31.2522 27.3708 31.4903L27.8096 31.2505C27.6996 31.0492 27.6173 30.8393 27.5625 30.6202L27.0775 30.7416ZM26.9901 29.9513C26.9901 30.2142 27.011 30.4758 27.0775 30.7416L27.5625 30.6202C27.509 30.4061 27.4901 30.1878 27.4901 29.9513H26.9901ZM27.0991 29.1046C27.0222 29.3799 26.9901 29.6629 26.9901 29.9513H27.4901C27.4901 29.6999 27.518 29.4633 27.5807 29.2392L27.0991 29.1046ZM27.4226 28.3191C27.2823 28.5666 27.1743 28.826 27.0986 29.1067L27.5813 29.2371C27.6458 28.9981 27.7375 28.7776 27.8576 28.5655L27.4226 28.3191ZM27.9491 27.6101C27.7437 27.8259 27.5725 28.0621 27.4242 28.3163L27.8561 28.5683C27.9877 28.3426 28.1363 28.1387 28.3113 27.9548L27.9491 27.6101ZM28.6414 27.0346C28.3887 27.2033 28.1536 27.3949 27.949 27.6102L28.3114 27.9547C28.4866 27.7703 28.6921 27.602 28.919 27.4505L28.6414 27.0346ZM29.2336 26.7069C29.0314 26.8025 28.8327 26.9177 28.65 27.0291L28.9104 27.456C29.0879 27.3477 29.269 27.2432 29.4473 27.1589L29.2336 26.7069ZM29.8954 26.4546C29.6639 26.5279 29.4554 26.6117 29.242 26.7031L29.4389 27.1627C29.6458 27.0741 29.8373 26.9975 30.0463 26.9313L29.8954 26.4546ZM30.4791 26.2984C30.2816 26.3401 30.082 26.3923 29.8917 26.4558L30.05 26.9301C30.2193 26.8736 30.4002 26.8261 30.5824 26.7876L30.4791 26.2984ZM31.0646 26.2044C30.8668 26.2254 30.6673 26.2561 30.476 26.2991L30.5856 26.7869C30.7546 26.7489 30.9348 26.721 31.1175 26.7016L31.0646 26.2044ZM31.3578 26.1651L31.0579 26.2052L31.1242 26.7008L31.424 26.6607L31.3578 26.1651ZM31.1409 25.6132V26.4129H31.6409V25.6132H31.1409ZM31.571 25.1836C31.3333 25.1836 31.1409 25.3749 31.1409 25.6132H31.6409C31.6409 25.6521 31.6084 25.6836 31.571 25.6836V25.1836ZM31.7465 25.6117L31.7476 25.6106L31.3945 25.2566L31.3934 25.2576L31.7465 25.6117ZM31.0021 31.4322C30.9191 31.407 30.8423 31.3734 30.7512 31.3328L30.5478 31.7896C30.6368 31.8292 30.7401 31.8751 30.8567 31.9106L31.0021 31.4322ZM31.4764 31.6067L31.016 31.4368L30.8429 31.9059L31.3033 32.0758L31.4764 31.6067ZM31.1399 28.1532V31.8412H31.6399V28.1532H31.1399ZM31.0275 28.4784L31.4376 28.3986L31.3421 27.9078L30.9319 27.9876L31.0275 28.4784ZM30.8979 28.5099C30.9466 28.497 30.9869 28.4865 31.0284 28.4783L30.931 27.9878C30.8719 27.9995 30.8168 28.0142 30.7702 28.0265L30.8979 28.5099ZM30.8946 28.5108L30.8947 28.5107L30.7734 28.0257L30.7734 28.0257L30.8946 28.5108ZM30.7384 28.5483C30.7969 28.5367 30.8516 28.5222 30.8979 28.5099L30.7701 28.0265C30.7217 28.0393 30.6818 28.0498 30.6408 28.0579L30.7384 28.5483ZM30.617 28.5836C30.6618 28.5718 30.7154 28.5578 30.7678 28.5406L30.6115 28.0657C30.5762 28.0773 30.5377 28.0875 30.4901 28.1L30.617 28.5836ZM30.6326 28.579L30.6326 28.5789L30.4745 28.1046L30.4745 28.1046L30.6326 28.579ZM30.4895 28.6199C30.5262 28.6075 30.5667 28.5968 30.617 28.5836L30.49 28.1C30.4429 28.1124 30.3856 28.1273 30.3298 28.1461L30.4895 28.6199ZM30.3616 28.6741C30.4089 28.6551 30.4615 28.634 30.5129 28.6107L30.3064 28.1553C30.2667 28.1733 30.2246 28.1903 30.1753 28.2101L30.3616 28.6741ZM30.3475 28.6792L30.3475 28.6792L30.1894 28.2049L30.1894 28.2049L30.3475 28.6792ZM30.1707 28.7565C30.2308 28.7267 30.292 28.702 30.3615 28.6741L30.1753 28.2101C30.1082 28.237 30.0289 28.2687 29.9483 28.3087L30.1707 28.7565ZM29.8783 28.9167C29.9723 28.8603 30.0765 28.8034 30.1709 28.7564L29.9481 28.3088C29.8422 28.3615 29.7265 28.4247 29.6208 28.4882L29.8783 28.9167ZM29.5962 29.1486C29.6909 29.0639 29.7944 28.9792 29.8969 28.9044L29.6022 28.5005C29.4848 28.5861 29.3684 28.6814 29.2628 28.776L29.5962 29.1486ZM29.4 29.3968C29.4608 29.3016 29.5295 29.2158 29.6062 29.1391L29.2528 28.7854C29.1493 28.8887 29.0581 29.0031 28.9786 29.1276L29.4 29.3968ZM29.2741 29.6777C29.3097 29.5799 29.3543 29.4815 29.4087 29.3821L28.9699 29.1423C28.9042 29.2626 28.849 29.3839 28.8043 29.5066L29.2741 29.6777ZM29.2393 29.952C29.2393 29.8589 29.2547 29.7607 29.2817 29.6528L28.7967 29.5314C28.7636 29.6635 28.7393 29.8045 28.7393 29.952H29.2393ZM29.2804 30.2264C29.2542 30.1302 29.2393 30.0436 29.2393 29.952H28.7393C28.7393 30.1011 28.7641 30.2335 28.798 30.3578L29.2804 30.2264ZM29.3774 30.4431C29.327 30.3676 29.2954 30.2986 29.2844 30.2432L28.794 30.341C28.8228 30.485 28.8917 30.6162 28.9615 30.7206L29.3774 30.4431ZM29.5338 30.6331C29.4701 30.5775 29.4208 30.5193 29.3877 30.46L28.9512 30.7038C29.0185 30.8244 29.1089 30.9259 29.2051 31.0098L29.5338 30.6331ZM29.7128 30.7869C29.6417 30.7346 29.5937 30.698 29.5572 30.6565L29.1816 30.9865C29.2596 31.0752 29.3525 31.1425 29.4162 31.1895L29.7128 30.7869ZM29.7079 30.7834L29.7079 30.7834L29.4212 31.193L29.4212 31.193L29.7079 30.7834ZM29.7602 30.8221C29.7441 30.81 29.7279 30.798 29.7128 30.7869L29.4163 31.1895C29.4317 31.2009 29.4456 31.2111 29.459 31.2212L29.7602 30.8221ZM29.7964 30.8549L29.7863 30.8448L29.4329 31.1985L29.443 31.2086L29.7964 30.8549ZM30.0917 31.0278C29.988 30.976 29.8811 30.9054 29.7582 30.8236L29.4813 31.2399C29.5985 31.3179 29.7318 31.407 29.8682 31.4751L30.0917 31.0278ZM30.1697 31.0881L30.1596 31.0777L29.8003 31.4253L29.8104 31.4358L30.1697 31.0881ZM30.3571 31.1667C30.2726 31.1256 30.1899 31.0853 30.1079 31.0415L29.8722 31.4824C29.9638 31.5314 30.0549 31.5757 30.1383 31.6163L30.3571 31.1667ZM30.3596 31.168L30.3595 31.1679L30.1359 31.6151L30.136 31.6152L30.3596 31.168ZM30.3556 31.166L30.3553 31.1659L30.1404 31.6173L30.1406 31.6174L30.3556 31.166ZM30.4819 31.228C30.4409 31.2075 30.3989 31.1871 30.3575 31.1669L30.1386 31.6165C30.1804 31.6368 30.2201 31.6561 30.2585 31.6753L30.4819 31.228ZM30.3803 31.2017H30.3702V31.7017H30.3803V31.2017ZM30.7284 31.324C30.6518 31.2985 30.5735 31.264 30.482 31.2233L30.2786 31.6801C30.3666 31.7192 30.467 31.764 30.5706 31.7984L30.7284 31.324ZM33.645 34.6129C33.689 34.63 33.7397 34.6496 33.7914 34.6669L33.9494 34.1925C33.911 34.1797 33.8716 34.1645 33.8256 34.1467L33.645 34.6129ZM33.5212 34.5671C33.5596 34.5799 33.599 34.5951 33.645 34.6129L33.8256 34.1467C33.7815 34.1296 33.7309 34.11 33.6792 34.0927L33.5212 34.5671ZM33.0449 34.3948L33.5151 34.565L33.6853 34.0949L33.2151 33.9247L33.0449 34.3948ZM33.38 37.8478V34.1597H32.88V37.8478H33.38ZM33.4924 37.5225L33.0822 37.6024L33.1778 38.0932L33.5879 38.0133L33.4924 37.5225ZM33.6622 37.4853C33.6055 37.4984 33.5524 37.5106 33.4915 37.5227L33.5888 38.0132C33.6584 37.9993 33.7186 37.9854 33.7748 37.9724L33.6622 37.4853ZM33.6614 37.4855L33.6613 37.4855L33.7758 37.9722L33.7759 37.9722L33.6614 37.4855ZM33.7564 37.4638C33.7237 37.4711 33.6923 37.4783 33.6623 37.4852L33.7749 37.9724C33.8053 37.9654 33.8342 37.9587 33.8642 37.9521L33.7564 37.4638ZM33.981 37.4007C33.9016 37.4273 33.8299 37.4455 33.75 37.4653L33.8707 37.9506C33.9507 37.9307 34.0395 37.9084 34.1395 37.8749L33.981 37.4007ZM34.3361 37.261C34.2112 37.3184 34.1022 37.3633 33.9867 37.3989L34.1339 37.8768C34.2788 37.8321 34.4099 37.7773 34.5447 37.7154L34.3361 37.261ZM34.3208 37.2687L34.3207 37.2688L34.5601 37.7077L34.5602 37.7077L34.3208 37.2687ZM34.3287 37.2646L34.3287 37.2646L34.5523 37.7118L34.5523 37.7118L34.3287 37.2646ZM34.637 37.0872C34.5346 37.152 34.4317 37.2082 34.3208 37.2687L34.5602 37.7076C34.6692 37.6482 34.7861 37.5845 34.9042 37.5098L34.637 37.0872ZM34.9342 36.8524C34.8395 36.9371 34.739 37.019 34.6318 37.0906L34.9095 37.5064C35.0424 37.4176 35.1619 37.3195 35.2675 37.225L34.9342 36.8524ZM35.1115 36.6189C35.0654 36.7033 35.0014 36.7846 34.9242 36.8618L35.2775 37.2155C35.3804 37.1128 35.4763 36.994 35.5503 36.8587L35.1115 36.6189ZM35.2385 36.3382C35.216 36.4278 35.1778 36.5135 35.1199 36.6047L35.5419 36.8729C35.6236 36.7443 35.6859 36.6096 35.7235 36.4599L35.2385 36.3382ZM35.2809 36.0294C35.2809 36.1468 35.2715 36.2366 35.2437 36.3204L35.7183 36.4778C35.7701 36.3217 35.7809 36.1715 35.7809 36.0294H35.2809ZM35.2515 35.7809C35.2718 35.8491 35.2809 35.9329 35.2809 36.0294H35.7809C35.7809 35.9061 35.7698 35.7696 35.7307 35.6383L35.2515 35.7809ZM35.2583 35.8007L35.2592 35.8029L35.7231 35.6163L35.7222 35.6142L35.2583 35.8007ZM35.2605 35.8059L35.2605 35.8059L35.72 35.609L35.72 35.6089L35.2605 35.8059ZM35.1364 35.5377C35.1843 35.618 35.2177 35.6998 35.2583 35.8008L35.7222 35.6141C35.6831 35.517 35.6365 35.4001 35.5659 35.2816L35.1364 35.5377ZM34.9749 35.3575C35.0367 35.419 35.0986 35.4898 35.1513 35.5599L35.551 35.2594C35.4836 35.1698 35.4058 35.0809 35.3274 35.0029L34.9749 35.3575ZM34.9858 35.3677L34.9868 35.3686L35.3154 34.9918L35.3144 34.9909L34.9858 35.3677ZM34.7604 35.1795C34.8316 35.2333 34.9047 35.297 34.9857 35.3677L35.3145 34.9909C35.2363 34.9227 35.1495 34.8468 35.0616 34.7805L34.7604 35.1795ZM34.7144 35.137L34.7343 35.1569L35.0877 34.8032L35.0678 34.7833L34.7144 35.137ZM34.4168 34.9633C34.5338 35.0316 34.6436 35.0958 34.7526 35.1683L35.0295 34.752C34.9064 34.6701 34.784 34.5987 34.6689 34.5315L34.4168 34.9633ZM34.4048 34.9563L34.4168 34.9633L34.6689 34.5315L34.6569 34.5245L34.4048 34.9563ZM34.0359 34.7774C34.1664 34.8375 34.29 34.895 34.4128 34.9608L34.6489 34.52C34.5112 34.4463 34.3751 34.3831 34.2452 34.3233L34.0359 34.7774ZM33.904 34.7188L34.0391 34.7788L34.242 34.3219L34.1069 34.2619L33.904 34.7188ZM33.7689 34.6589L33.904 34.7188L34.1069 34.2619L33.9718 34.2019L33.7689 34.6589ZM33.6204 34.4297V34.4304H34.1204V34.4297H33.6204Z" fill="white"/>
<defs>
<linearGradient id="paint0_linear_2023_4408" x1="65" y1="32.5" x2="0" y2="32.5" gradientUnits="userSpaceOnUse">
<stop stop-color="#00EC9E"/>
<stop offset="1" stop-color="#8E6EFA"/>
</linearGradient>
</defs>
</svg>
