<svg width="31" height="31" viewBox="0 0 31 31" fill="none" xmlns="http://www.w3.org/2000/svg">
<g clip-path="url(#clip0_2002_253)">
<path d="M12.9591 29.8711C5.8291 28.5952 0.425293 22.4408 0.425293 15.0106C0.425293 6.75476 7.18005 0 15.4359 0C23.6917 0 30.4465 6.75476 30.4465 15.0106C30.4465 22.4408 25.0426 28.5952 17.9126 29.8711L17.087 29.1956H13.7847L12.9591 29.8711Z" fill="url(#paint0_linear_2002_253)"/>
<path d="M21.2909 19.2135L21.9664 15.0106H17.9886V12.0835C17.9886 10.8827 18.4389 9.98204 20.2402 9.98204H22.1916V6.15434C21.1408 6.00423 19.94 5.85413 18.8892 5.85413C15.4368 5.85413 13.0351 7.95561 13.0351 11.7083V15.0106H9.28247V19.2135H13.0351V29.796C13.8607 29.9461 14.6863 30.0212 15.5119 30.0212C16.3374 30.0212 17.163 29.9461 17.9886 29.796V19.2135H21.2909Z" fill="white"/>
</g>
<defs>
<linearGradient id="paint0_linear_2002_253" x1="30.4465" y1="14.9355" x2="0.425293" y2="14.9355" gradientUnits="userSpaceOnUse">
<stop stop-color="#00EC9E"/>
<stop offset="1" stop-color="#8E6EFA"/>
</linearGradient>
<clipPath id="clip0_2002_253">
<rect width="30.0212" height="30.0212" fill="white" transform="translate(0.424561)"/>
</clipPath>
</defs>
</svg>
