<svg width="31" height="31" viewBox="0 0 31 31" fill="none" xmlns="http://www.w3.org/2000/svg">
<g clip-path="url(#clip0_2002_261)">
<path d="M15.2801 30.0212C23.5702 30.0212 30.2907 23.3007 30.2907 15.0106C30.2907 6.72047 23.5702 0 15.2801 0C6.99 0 0.269531 6.72047 0.269531 15.0106C0.269531 23.3007 6.99 30.0212 15.2801 30.0212Z" fill="url(#paint0_linear_2002_261)"/>
<path d="M20.69 6.59558H23.5486L17.272 13.641L24.6051 23.1982H18.8505L14.345 17.3903L9.18707 23.1982H6.32843L12.9779 15.6627L5.95557 6.59558H11.8531L15.9235 11.9011L20.69 6.59558ZM19.6895 21.5441H21.2741L11.0203 8.18845H9.31757L19.6895 21.5441Z" fill="white"/>
</g>
<defs>
<linearGradient id="paint0_linear_2002_261" x1="30.2907" y1="15.0106" x2="0.269531" y2="15.0106" gradientUnits="userSpaceOnUse">
<stop stop-color="#00EC9E"/>
<stop offset="1" stop-color="#8E6EFA"/>
</linearGradient>
<clipPath id="clip0_2002_261">
<rect width="30.0212" height="30.0212" fill="white" transform="translate(0.270508)"/>
</clipPath>
</defs>
</svg>
