<svg width="61" height="31" viewBox="0 0 61 31" fill="none" xmlns="http://www.w3.org/2000/svg">
<g opacity="0.5" clip-path="url(#clip0_2120_31915)">
<path d="M4.55324 4.84683L0.605469 16.3983H2.92941L4.04508 13.0264H7.24983L8.39827 16.3994H10.7651L6.81281 4.8457H4.55437L4.55324 4.84683ZM6.69198 11.1106H4.61422L5.47807 8.5681C5.53792 8.39343 5.59214 8.22438 5.64183 8.0497C5.69602 8.22438 5.75137 8.40355 5.81684 8.58389L6.69198 11.1106Z" fill="white"/>
<path fill-rule="evenodd" clip-rule="evenodd" d="M14.6706 11.1394C13.6046 10.7134 13.4849 10.5218 13.4849 10.2108C13.4849 9.82421 13.8124 9.57855 14.3375 9.57855C14.9665 9.57855 15.452 9.82875 15.6881 9.97635L16.142 10.2604L16.7427 8.42678L16.4751 8.2521C15.95 7.90838 15.1629 7.70666 14.3634 7.70666C12.5816 7.70666 11.2852 8.83024 11.2852 10.3855C11.2852 11.81 12.5544 12.5741 13.6148 12.9561C14.6763 13.355 14.7576 13.6221 14.7576 13.9602C14.7576 14.5936 14.0913 14.686 13.6972 14.686C13.0852 14.686 12.4235 14.4245 12.0463 14.2059L11.5923 13.9388L10.9961 15.8096L11.2852 15.9798C11.9367 16.3618 12.8006 16.5804 13.6645 16.5804C15.6327 16.5804 16.9505 15.4771 16.9505 13.8408C16.9618 12.1818 15.6497 11.5046 14.6706 11.1394ZM20.4511 5.87756L18.2412 6.5436V7.86443H17.0499V9.76901H18.2412V13.5455C18.2412 14.5992 18.4558 15.352 18.8916 15.849C19.3185 16.3178 19.9689 16.5748 20.7131 16.5748C21.3861 16.5748 21.8672 16.4384 22.0964 16.3618L22.3979 16.2581L22.2827 14.3479L21.7746 14.5012C21.621 14.544 21.446 14.5767 21.0857 14.5767C20.817 14.5767 20.4556 14.5767 20.4556 13.5015V9.76901H22.4634V7.86443H20.4556V5.87756H20.4511ZM27.8385 7.7889L27.4343 7.73933C27.3134 7.72241 27.1937 7.70554 27.0345 7.70554C26.3344 7.70554 25.6896 7.99515 25.2029 8.49214L25.1803 7.86443H23.1025L23.1308 8.31184C23.1737 8.96659 23.1963 9.72056 23.1963 10.6864V16.4001H25.4378V11.8798C25.4378 11.6668 25.4547 11.4538 25.4762 11.3017C25.6399 10.417 26.1989 9.86591 26.9419 9.86591C27.1169 9.86591 27.231 9.86591 27.3303 9.88845L27.8385 9.99664V7.7889Z" fill="white"/>
<path d="M31.9292 7.70679C29.4302 7.70679 27.6855 9.55052 27.6855 12.1978C27.6855 14.774 29.376 16.5749 31.7982 16.5749C33.8489 16.5749 36.0576 15.1662 36.0576 12.0671C36.0633 9.50207 34.3638 7.70679 31.9292 7.70679ZM33.789 12.1155C33.789 13.6054 32.9794 14.6861 31.8693 14.6861C30.765 14.6861 29.9609 13.6166 29.9609 12.1482C29.9609 11.1993 30.3708 9.59447 31.9032 9.59447C33.3949 9.59447 33.789 11.2432 33.789 12.1155ZM43.4135 5.76392C42.6751 5.10351 41.5703 4.76428 40.1206 4.76428C39.1516 4.76428 38.2336 4.83527 37.3913 4.97841L37.0412 5.03814V16.3991H39.2671V12.1764C39.4962 12.1989 39.7321 12.2034 39.9612 12.2034C41.4653 12.2034 42.7392 11.7391 43.5432 10.8995C44.1721 10.2549 44.4897 9.38713 44.4897 8.31763C44.4897 7.28646 44.1068 6.37922 43.4135 5.76392ZM42.2648 8.39425C42.2648 10.0092 40.8421 10.2493 39.9897 10.2493C39.7051 10.2493 39.4643 10.238 39.2622 10.2109V6.74548C39.5566 6.71338 39.8528 6.69909 40.1487 6.70266C41.1166 6.70266 42.2648 6.99793 42.2648 8.39425ZM51.3102 14.135V11.2601C51.3102 8.96788 50.1177 7.70792 47.9573 7.70792C46.9568 7.70792 45.9181 7.98066 45.1853 8.43932L44.9063 8.61291L45.5082 10.3867L45.9665 10.0757C46.4318 9.76465 47.0993 9.57418 47.7608 9.57418C48.2093 9.56856 48.5423 9.67225 48.7557 9.88525C48.9365 10.0599 49.046 10.327 49.0786 10.6651C47.3285 10.7147 46.049 11.135 45.2731 11.9048C44.7312 12.439 44.4578 13.1264 44.4578 13.9401C44.4578 15.244 45.4088 16.5704 47.2358 16.5704C47.9873 16.5775 48.7201 16.3357 49.3193 15.883L49.379 16.3901H51.5011L51.4298 15.91C51.3428 15.4514 51.3102 14.8496 51.3102 14.135ZM47.5745 14.7031C47.2415 14.7031 46.6895 14.5825 46.6895 13.7857C46.6895 13.4814 46.7817 13.2402 46.9782 13.0498C47.2415 12.7928 47.8208 12.4976 49.1172 12.4705V13.3879C49.1176 13.4932 49.1022 13.598 49.0718 13.6989C48.914 14.1621 48.4283 14.7019 47.5745 14.7019V14.7031Z" fill="white"/>
<path fill-rule="evenodd" clip-rule="evenodd" d="M57.4703 7.86597L55.8466 12.6635C55.8027 12.7829 55.7641 12.9092 55.7258 13.0286C55.6827 12.9092 55.6445 12.7942 55.6002 12.6849L53.8287 7.86597H51.3837L54.4463 15.5294L54.4576 15.5497C54.4876 15.6072 54.5112 15.6676 54.5288 15.73C54.5063 15.7869 54.4827 15.8433 54.4576 15.899C54.1943 16.467 53.7957 16.9911 53.402 17.3078L53.3903 17.319C53.0712 17.587 52.7045 17.7923 52.3088 17.9242L51.9147 18.0493L52.4892 19.9595L52.8552 19.8941C53.0798 19.8558 53.8715 19.6654 54.7805 18.9069C55.868 17.9456 56.5895 16.4129 57.536 13.9235L59.8553 7.87159H57.4703V7.86597ZM8.78496 8.02373C10.2292 6.55643 12.6729 5.67739 15.3311 5.67739C16.3432 5.67357 17.3513 5.80587 18.3281 6.07069L18.4048 6.09323L20.11 5.57933L19.3444 5.28972C17.8899 4.73299 16.2164 4.43884 14.4943 4.43884C12.001 4.43884 9.67142 5.03952 7.93239 6.13043L7.74609 6.25103L8.46313 8.34717L8.78496 8.02373ZM34.4128 17.9332H49.2882C50.0131 17.9332 50.6003 18.5204 50.6003 19.2439V25.6293C50.6003 26.3528 50.0131 26.9388 49.2882 26.9388H34.4128C33.6878 26.9388 33.1006 26.3528 33.1006 25.6293V19.2439C33.1006 18.5204 33.6878 17.9343 34.4128 17.9343V17.9332ZM38.6315 21.2848L39.2266 20.8149C39.1388 20.6984 39.032 20.5978 38.9105 20.5173C38.6581 20.3486 38.3723 20.2356 38.0727 20.186C37.6085 20.1044 37.1311 20.146 36.6881 20.3066C36.4075 20.4045 36.1506 20.5601 35.9341 20.7633C35.7176 20.9666 35.5463 21.213 35.4313 21.4866C35.3057 21.7877 35.2434 22.1115 35.2484 22.4377C35.2484 22.7803 35.3071 23.0925 35.4223 23.3754C35.5386 23.6582 35.7001 23.9016 35.9067 24.1068C36.1133 24.3107 36.3607 24.4697 36.6486 24.5835C36.9354 24.6962 37.2516 24.7536 37.5949 24.7536C37.9711 24.7536 38.2996 24.686 38.582 24.5519C38.8628 24.4178 39.1013 24.2296 39.2956 23.9862L38.669 23.5467C38.5531 23.7022 38.4023 23.8281 38.2283 23.9141C38.0333 24.0102 37.8181 24.0581 37.6006 24.0538C37.3899 24.0572 37.1808 24.0173 36.9862 23.9366C36.8044 23.8577 36.6475 23.7473 36.5176 23.6052C36.3839 23.4567 36.2818 23.2826 36.2173 23.0936C36.1446 22.8826 36.1087 22.6608 36.1111 22.4377C36.1111 22.2101 36.1472 21.9993 36.2195 21.8055C36.2929 21.6116 36.3956 21.4426 36.53 21.2984C36.6701 21.1472 36.8409 21.0275 37.0309 20.9472C37.2209 20.867 37.4259 20.828 37.6322 20.8329C37.8095 20.8329 37.9913 20.869 38.1777 20.9411C38.3592 21.0094 38.5167 21.1288 38.6315 21.2848ZM41.4796 24.2645V24.6421H42.1752V22.8333C42.1752 22.6845 42.1546 22.5369 42.1152 22.3881C42.0766 22.2401 42.0057 22.1023 41.9075 21.9847C41.7968 21.857 41.6577 21.7573 41.501 21.6939C41.2925 21.6129 41.0697 21.575 40.8458 21.5823C40.619 21.5823 40.3943 21.6218 40.1731 21.7007C39.9515 21.7796 39.7561 21.8968 39.5858 22.0534L39.9721 22.5053C40.1911 22.2947 40.481 22.1733 40.7851 22.165C40.9703 22.165 41.1305 22.2101 41.2658 22.298C41.4005 22.387 41.4668 22.5234 41.4668 22.7093V22.7837C41.2355 22.7837 40.9985 22.795 40.7555 22.8175C40.5151 22.8401 40.2938 22.8874 40.0962 22.9572C39.8975 23.0283 39.7347 23.1285 39.6083 23.2615C39.4775 23.4071 39.4096 23.5983 39.4197 23.7935C39.4148 23.9365 39.4475 24.0783 39.5142 24.2048C39.5813 24.3313 39.6803 24.4382 39.8015 24.5147C39.911 24.5873 40.0325 24.6399 40.1603 24.6702C40.2916 24.7007 40.4168 24.7164 40.5365 24.7164C40.7476 24.7164 40.9351 24.6736 41.1012 24.5891C41.2508 24.5191 41.3765 24.4061 41.4612 24.2645H41.4796ZM41.468 23.2863V23.3911C41.468 23.6267 41.4005 23.8126 41.2681 23.949C41.1361 24.0842 40.9407 24.1518 40.6857 24.1518C40.6231 24.152 40.5605 24.146 40.4993 24.1338C40.4401 24.1227 40.3831 24.1017 40.331 24.0718C40.2785 24.0439 40.235 24.0018 40.2057 23.9504C40.1761 23.899 40.1615 23.8403 40.1637 23.7811C40.1615 23.7317 40.1701 23.6825 40.1896 23.637C40.2091 23.5915 40.2383 23.551 40.2758 23.5185C40.3576 23.4504 40.4525 23.3998 40.5545 23.3697C40.6673 23.3348 40.7885 23.3111 40.9216 23.3021C41.0536 23.2908 41.1792 23.2863 41.3 23.2863H41.468ZM43.0433 21.6691V24.6421H43.7888V23.0508C43.7911 22.9774 43.8012 22.9045 43.8192 22.8333C43.8417 22.7382 43.8815 22.6481 43.9366 22.5673C44 22.4758 44.0828 22.3995 44.1796 22.3442C44.3052 22.277 44.447 22.2451 44.5895 22.2518C44.6667 22.2518 44.744 22.262 44.8186 22.2822V21.6015C44.7905 21.5925 44.7612 21.5872 44.7316 21.5857C44.7005 21.5836 44.669 21.5825 44.6378 21.5823C44.4515 21.5788 44.2688 21.6353 44.1173 21.7435C43.9673 21.8521 43.8473 21.9972 43.7693 22.165H43.7581V21.6691H43.0433ZM48.2198 24.6421V19.9595H47.4743V22.0467H47.4563C47.3607 21.9237 47.2418 21.8207 47.1065 21.7435C46.9073 21.6349 46.6838 21.5794 46.457 21.5823C46.2612 21.5804 46.067 21.6195 45.887 21.6974C45.7073 21.7753 45.5461 21.89 45.4137 22.0343C45.2832 22.1787 45.1823 22.3472 45.1167 22.5301C45.0455 22.7206 45.0106 22.9246 45.0106 23.1432C45.0106 23.3618 45.0443 23.5681 45.1122 23.7597C45.1812 23.9513 45.278 24.1191 45.4058 24.2612C45.539 24.4121 45.704 24.5322 45.8885 24.613C46.0733 24.6938 46.2736 24.7333 46.475 24.7289C46.6865 24.7289 46.8841 24.6838 47.0678 24.5936C47.2478 24.5064 47.3978 24.368 47.4995 24.1958H47.5118V24.6421H48.2198ZM45.7681 23.1432C45.7681 23.0283 45.7853 22.9133 45.8202 22.7995C45.854 22.6886 45.9076 22.5848 45.9781 22.493C46.0501 22.4009 46.1416 22.3259 46.2458 22.2732C46.3632 22.2153 46.4933 22.1867 46.6242 22.1898C46.7517 22.187 46.8777 22.2169 46.9902 22.2765C47.2032 22.3894 47.3645 22.5799 47.4406 22.8085C47.519 23.0321 47.519 23.2757 47.4406 23.4993C47.402 23.6114 47.3431 23.7153 47.2666 23.8059C47.1901 23.8967 47.096 23.9714 46.9902 24.0256C46.8766 24.0826 46.751 24.1112 46.6242 24.109C46.5001 24.112 46.3767 24.0856 46.2646 24.0319C46.1525 23.9783 46.055 23.8989 45.9792 23.8002C45.908 23.7074 45.8547 23.6024 45.8213 23.4903C45.7865 23.3779 45.7685 23.2609 45.7681 23.1432Z" fill="white"/>
</g>
<defs>
<clipPath id="clip0_2120_31915">
<rect width="60" height="30" fill="white" transform="translate(0.230469 0.5)"/>
</clipPath>
</defs>
</svg>
