<svg width="47" height="37" viewBox="0 0 47 37" fill="none" xmlns="http://www.w3.org/2000/svg">
<mask id="mask0_2114_9598" style="mask-type:luminance" maskUnits="userSpaceOnUse" x="0" y="0" width="47" height="37">
<path d="M46.8584 0H0.608398V37H46.8584V0Z" fill="white"/>
</mask>
<g mask="url(#mask0_2114_9598)">
<mask id="mask1_2114_9598" style="mask-type:luminance" maskUnits="userSpaceOnUse" x="0" y="0" width="47" height="38">
<path d="M46.8584 0.231262H0.608398V37.2313H46.8584V0.231262Z" fill="white"/>
</mask>
<g mask="url(#mask1_2114_9598)">
<path d="M2.79488 12.9106C2.36243 12.9106 1.9397 12.7729 1.58013 12.5147C1.22057 12.2567 0.940325 11.8899 0.774836 11.4607C0.609346 11.0315 0.566046 10.5592 0.650412 10.1036C0.734778 9.64803 0.94302 9.22951 1.2488 8.901C1.55459 8.57253 1.94418 8.34882 2.36832 8.25822C2.79245 8.16757 3.23208 8.21409 3.63161 8.39188C4.03114 8.56962 4.37262 8.87071 4.61288 9.25694C4.85313 9.64317 4.98136 10.0973 4.98136 10.5618C4.98053 11.1845 4.7499 11.7814 4.34003 12.2217C3.93017 12.662 3.37451 12.9097 2.79488 12.9106ZM1.02035 29.2498V14.4424H4.60111V29.2498H1.02035Z" fill="#C4C4C4"/>
<path d="M10.5818 10.5108C9.72623 9.45552 8.55375 8.53644 6.43064 8.53644H5.95528C6.19611 9.05509 6.32602 9.62493 6.33555 10.2044C6.34193 10.916 6.15466 11.614 5.79688 12.2128H6.39891C6.69024 12.2002 6.97889 12.2767 7.23127 12.4334C7.48375 12.59 7.68961 12.8204 7.82494 13.0978C8.26848 14.0509 8.26857 16.4338 8.26857 18.7144C8.26857 20.9951 8.26848 23.446 7.82494 24.3651C7.68961 24.6425 7.48375 24.8729 7.23127 25.0295C6.97889 25.1862 6.69024 25.2627 6.39891 25.2501H5.95528V28.9264H6.46232C8.58543 28.9264 9.75786 28.0074 10.6135 26.9521C12.1345 25.0799 12.0394 21.4036 12.0394 18.7485C11.9761 16.0593 12.1028 12.383 10.5818 10.5108Z" fill="white" fill-opacity="0.5"/>
<path d="M16.4699 22.6629C16.4699 23.6841 16.5332 24.9096 16.7234 25.3181C16.8098 25.5007 16.9411 25.6544 17.1031 25.7624C17.2651 25.8704 17.4516 25.9287 17.6423 25.9308C17.8343 25.9355 18.0235 25.8802 18.1867 25.7714C18.3499 25.6625 18.4801 25.505 18.5613 25.3181C18.6729 25.0137 18.7372 24.6917 18.7514 24.3649H22.3005C22.2531 25.7041 21.809 26.9921 21.0329 28.0413C20.2407 28.9944 19.0366 29.3688 17.6423 29.3688C16.2481 29.3688 15.2974 29.0965 14.2834 28.0413C12.8891 26.6116 12.8574 23.7863 12.8574 21.4715C12.8574 19.1568 12.8891 16.2975 14.2834 14.8678C15.2974 13.8125 16.4382 13.5402 17.6423 13.5402C18.8465 13.5402 19.9872 13.7785 20.9696 14.8678C22.554 16.6719 22.3639 20.2461 22.3956 22.697H16.4699V22.6629ZM18.593 17.5229C18.4965 17.3522 18.362 17.2099 18.2015 17.1089C18.0411 17.0079 17.8598 16.9513 17.674 16.9442C17.4873 16.9469 17.3044 17.0016 17.1433 17.103C16.9822 17.2045 16.8485 17.3491 16.7551 17.5229C16.5649 17.8293 16.5016 18.8505 16.5016 19.9057H18.8782C18.8465 18.8505 18.7831 17.8293 18.593 17.5229ZM32.3773 28.1093C31.6802 29.0625 30.888 29.3688 29.7155 29.3688C29.2401 29.3617 28.7732 29.2334 28.3529 28.9944C27.9494 28.7394 27.5946 28.4044 27.3073 28.0072V29.1305H23.8849V8.77461H27.4657V14.6635C27.7237 14.3568 28.0227 14.093 28.3529 13.8806C28.7732 13.6416 29.2401 13.5133 29.7155 13.5062C30.888 13.5062 31.6802 13.8125 32.3773 14.7657C33.3597 16.0932 33.3597 18.3739 33.3597 21.4375C33.3597 24.5011 33.3597 26.7818 32.3773 28.1093ZM29.5254 17.5569C29.4452 17.3691 29.3153 17.2108 29.1518 17.1019C28.9884 16.993 28.7987 16.9381 28.6064 16.9442C28.3264 16.942 28.0555 17.0511 27.8459 17.2506C27.7241 17.3987 27.6306 17.571 27.5708 17.7579C27.5109 17.9449 27.486 18.1426 27.4974 18.3399V24.5011C27.486 24.6984 27.5109 24.896 27.5708 25.083C27.6306 25.2699 27.7241 25.4423 27.8459 25.5904C28.0555 25.7899 28.3264 25.899 28.6064 25.8967C28.7995 25.907 28.9908 25.8539 29.1549 25.7444C29.3191 25.635 29.4484 25.4744 29.5254 25.284C29.7789 24.6713 29.7789 23.1395 29.7789 21.4035C29.7789 19.6674 29.8106 18.1697 29.5254 17.5569ZM36.7186 12.7913C36.2862 12.7913 35.8634 12.6536 35.5039 12.3955C35.1443 12.1374 34.8641 11.7706 34.6986 11.3414C34.533 10.9122 34.4898 10.44 34.5742 9.98438C34.6585 9.52872 34.8667 9.11025 35.1726 8.78174C35.4783 8.45327 35.868 8.22956 36.292 8.13895C36.7162 8.0483 37.1558 8.09483 37.5553 8.27262C37.9548 8.45036 38.2963 8.75144 38.5366 9.13768C38.7768 9.52391 38.9051 9.97804 38.9051 10.4426C38.9043 11.0652 38.6737 11.6621 38.2637 12.1024C37.8539 12.5427 37.2983 12.7904 36.7186 12.7913ZM34.9441 29.1305V14.3231H38.5248V29.1305H34.9441ZM40.4262 10.1362H44.0068V14.3231H46.8588V17.2165H44.0068V23.9224C44.0068 25.1138 44.5773 25.6925 45.7498 25.6925V29.1305C44.2921 29.1305 43.1196 28.9944 42.0739 28.1774C41.0282 27.3605 40.4262 26.1691 40.4262 24.1607V10.1362Z" fill="white" fill-opacity="0.5"/>
</g>
</g>
</svg>
