<svg width="94" height="11" viewBox="0 0 94 11" fill="none" xmlns="http://www.w3.org/2000/svg">
<g opacity="0.5">
<path fill-rule="evenodd" clip-rule="evenodd" d="M28.0554 0.249283L26.1927 10.7058H23.6399L21.6418 5.04947C21.5704 5.05277 21.4991 5.0565 21.4279 5.06026L20.3852 10.7114H17.8945L19.7279 0.26333H22.2579L24.3346 6.08212C25.0644 4.03091 25.0181 2.07304 25.6143 0.249283H28.0554ZM74.9712 4.37606C75.8194 4.36083 76.5721 4.63494 77.0967 3.89282C77.3793 3.49301 77.3006 3.01045 77.0442 2.70402C76.4896 2.04042 75.7331 2.36987 74.9712 2.39378V4.37606ZM74.8726 7.40246C74.851 8.53546 74.8739 8.56617 75.7429 8.58305C77.1238 8.61026 77.5909 8.32252 77.5879 7.44654C77.5858 6.64836 77.2279 6.36067 76.2044 6.3344C74.8942 6.30043 74.8942 6.30043 74.8726 7.40246ZM72.2872 10.7611V0.208457H74.0861C75.1247 0.208246 76.1651 0.245983 77.2016 0.197668C78.3308 0.144699 79.1444 0.609195 79.6259 1.61299C80.1467 2.6986 79.9233 3.83067 79.0881 4.72286C78.9832 4.83493 78.8669 4.93622 78.7361 5.06166C78.7915 5.15829 78.8216 5.29591 78.9016 5.33907C80.1564 6.01997 80.343 7.12344 80.1818 8.42571C80.0261 9.68601 79.1194 10.7072 77.5925 10.7501C75.866 10.7984 74.1373 10.7611 72.2872 10.7611ZM56.6105 2.6524C56.6507 4.58569 56.4857 6.47207 56.7048 8.32324C58.6104 8.66043 59.0741 7.9973 59.2712 6.30605C59.3296 5.80568 59.319 5.2891 59.2742 4.78594C59.1121 2.97458 58.453 2.31546 56.6105 2.6524ZM54.0267 10.7688V0.207526H56.0664C56.6828 0.207526 57.3026 0.248818 57.9157 0.200503C60.5493 -0.00913171 61.6083 2.06107 61.8139 3.77698C61.9548 4.96109 61.9395 6.18645 61.8169 7.37479C61.5998 9.46724 60.0653 10.7597 57.9702 10.7677C56.6993 10.7726 55.428 10.7688 54.0267 10.7688ZM66.1259 8.41797H70.6968V10.6931H63.4808V0.29193H70.5551V2.37808H66.1145V4.16126H70.2429V6.26925H66.1263L66.1259 8.41797ZM28.4252 7.30583C29.2286 7.23035 29.9524 7.1619 30.7269 7.0887C30.8398 7.43761 30.9226 7.81373 31.0801 8.15443C31.3997 8.8454 32.1857 9.16034 32.8184 8.77437C33.1461 8.57438 33.4842 8.1612 33.5362 7.80269C33.5755 7.53166 33.2312 7.09835 32.9467 6.90653C32.3755 6.52153 31.7195 6.26899 31.1145 5.93205C29.6097 5.09356 29.1373 4.14159 29.4367 2.60646C29.7302 1.10162 30.7163 0.124053 32.2759 0.0159571C33.1024 -0.0412429 33.9795 0.05653 34.775 0.290068C35.8134 0.595107 36.3478 1.4831 36.6103 2.51596C36.7234 2.96193 36.4803 3.18303 36.0555 3.19195C35.4445 3.2046 34.8331 3.19525 34.2066 3.19525C34.1037 2.92372 34.0371 2.6175 33.8824 2.36729C33.5947 1.90233 32.9394 1.73564 32.4509 1.95229C31.7555 2.26084 31.6522 2.98257 32.2907 3.39101C32.9056 3.78426 33.5859 4.07056 34.2249 4.42696C35.0951 4.91252 35.7456 5.55991 35.9836 6.60851C36.411 8.49112 35.3021 10.7088 32.9338 10.9712C32.1884 11.0535 31.3929 10.9503 30.6566 10.7761C29.0702 10.4005 28.2636 9.11249 28.4252 7.30583ZM49.6754 3.90429L49.4186 3.85504C48.9532 4.79554 48.4079 5.70342 48.2027 6.89455C48.7886 6.85237 49.2595 6.81789 49.6754 6.7879V3.90429ZM48.4887 0.245053H52.0831V10.7097H49.8421L49.7617 9.12984C48.9794 9.12984 48.1857 9.08761 47.4018 9.15797C47.1898 9.17697 46.8975 9.50735 46.8319 9.74791C46.5929 10.6218 46.064 10.9191 45.2119 10.8049C44.8379 10.7547 44.4525 10.7965 43.8636 10.7965L48.4887 0.245053ZM37.613 2.81376L38.0734 0.26663H46.2269L45.8419 2.77903H43.0117L41.6246 10.6879H38.9361L40.3076 2.81376H37.613Z" fill="white"/>
<path fill-rule="evenodd" clip-rule="evenodd" d="M91.2275 2.74068V10.6983H88.6772V2.81946H85.9268V0.25946H93.9348V2.74068H91.2275Z" fill="white"/>
<mask id="mask0_2114_9609" style="mask-type:luminance" maskUnits="userSpaceOnUse" x="0" y="0" width="94" height="11">
<path d="M0.858398 11H93.9353V0H0.858398V11Z" fill="#2F5D92"/>
</mask>
<g mask="url(#mask0_2114_9609)">
<path fill-rule="evenodd" clip-rule="evenodd" d="M81.8083 10.6927H84.4407V0.246277H81.8083V10.6927ZM15.0908 0.252834H17.7373C17.2574 3.77542 16.5338 7.19807 15.9827 10.7068H13.25L15.0908 0.252834Z" fill="white"/>
</g>
<mask id="mask1_2114_9609" style="mask-type:luminance" maskUnits="userSpaceOnUse" x="0" y="0" width="94" height="11">
<path d="M0.858398 11H93.9353V0H0.858398V11Z" fill="#1B1B1B"/>
</mask>
<g mask="url(#mask1_2114_9609)">
<path fill-rule="evenodd" clip-rule="evenodd" d="M13.0772 0.242981L12.3055 4.55807H7.9487L8.70605 0.242981H13.0772ZM12.0653 6.41017L11.2936 10.7248H6.9367L7.69409 6.40996L12.0653 6.41017ZM1.61576 6.41017H5.98694L5.21524 10.7248H0.858398" fill="#C4C4C4"/>
</g>
</g>
</svg>
