<svg width="41" height="41" viewBox="0 0 41 41" fill="none" xmlns="http://www.w3.org/2000/svg">
<circle cx="20.5" cy="20.5" r="20.5" fill="url(#paint0_linear_40443_114)"/>
<circle cx="20.5" cy="20.5" r="20.5" fill="url(#paint1_radial_40443_114)" fill-opacity="0.3"/>
<path d="M16.6573 21.1406C16.6573 18.6641 18.6645 16.6559 21.1412 16.6559C23.6178 16.6559 25.6261 18.6641 25.6261 21.1406C25.6261 23.6172 23.6178 25.6254 21.1412 25.6254C18.6645 25.6254 16.6573 23.6172 16.6573 21.1406ZM14.2329 21.1406C14.2329 24.9559 17.3257 28.0486 21.1412 28.0486C24.9566 28.0486 28.0495 24.9559 28.0495 21.1406C28.0495 17.3253 24.9566 14.2326 21.1412 14.2326C17.3257 14.2326 14.2329 17.3253 14.2329 21.1406ZM26.7085 13.9587C26.7084 14.278 26.8029 14.5902 26.9802 14.8557C27.1575 15.1213 27.4096 15.3283 27.7045 15.4506C27.9995 15.5729 28.3241 15.605 28.6373 15.5428C28.9505 15.4807 29.2382 15.327 29.4641 15.1013C29.6899 14.8757 29.8438 14.5881 29.9062 14.2749C29.9687 13.9618 29.9368 13.6372 29.8147 13.3421C29.6927 13.0471 29.4858 12.7949 29.2204 12.6174C28.955 12.4399 28.6429 12.3451 28.3236 12.345H28.3229C27.8949 12.3452 27.4845 12.5152 27.1818 12.8178C26.8791 13.1204 26.7089 13.5307 26.7085 13.9587ZM15.7059 32.0911C14.3942 32.0314 13.6813 31.8129 13.2075 31.6284C12.5794 31.3838 12.1312 31.0926 11.66 30.6221C11.1888 30.1515 10.8971 29.7038 10.6537 29.0757C10.469 28.6022 10.2505 27.889 10.1909 26.5774C10.1256 25.1593 10.1126 24.7334 10.1126 21.1407C10.1126 17.5481 10.1267 17.1233 10.1909 15.7041C10.2506 14.3924 10.4707 13.6807 10.6537 13.2058C10.8982 12.5777 11.1894 12.1295 11.66 11.6583C12.1305 11.1871 12.5783 10.8955 13.2075 10.652C13.6811 10.4673 14.3942 10.2489 15.7059 10.1892C17.124 10.124 17.55 10.111 21.1412 10.111C24.7323 10.111 25.1588 10.1251 26.5781 10.1892C27.8897 10.249 28.6015 10.4691 29.0765 10.652C29.7046 10.8955 30.1528 11.1878 30.624 11.6583C31.0952 12.1289 31.3858 12.5777 31.6303 13.2058C31.815 13.6793 32.0335 14.3924 32.0931 15.7041C32.1583 17.1233 32.1713 17.5481 32.1713 21.1407C32.1713 24.7334 32.1583 25.1582 32.0931 26.5774C32.0334 27.889 31.8138 28.6019 31.6303 29.0757C31.3858 29.7038 31.0945 30.152 30.624 30.6221C30.1534 31.0922 29.7046 31.3838 29.0765 31.6284C28.6029 31.813 27.8897 32.0315 26.5781 32.0911C25.1599 32.1564 24.7339 32.1694 21.1412 32.1694C17.5484 32.1694 17.1236 32.1564 15.7059 32.0911ZM15.5945 7.76897C14.1623 7.83419 13.1836 8.06128 12.3289 8.39384C11.4438 8.73727 10.6944 9.19802 9.94567 9.94558C9.19689 10.6931 8.73732 11.4436 8.39387 12.3287C8.0613 13.1839 7.8342 14.162 7.76898 15.5942C7.70268 17.0286 7.6875 17.4872 7.6875 21.1406C7.6875 24.7941 7.70268 25.2527 7.76898 26.6871C7.8342 28.1194 8.0613 29.0973 8.39387 29.9525C8.73732 30.8371 9.197 31.5884 9.94567 32.3357C10.6943 33.0829 11.4438 33.543 12.3289 33.8874C13.1852 34.22 14.1623 34.4471 15.5945 34.5123C17.0297 34.5775 17.4876 34.5938 21.1412 34.5938C24.7947 34.5938 25.2534 34.5786 26.6878 34.5123C28.1202 34.4471 29.0982 34.22 29.9534 33.8874C30.838 33.543 31.5879 33.0832 32.3367 32.3357C33.0854 31.5881 33.544 30.8371 33.8885 29.9525C34.221 29.0973 34.4492 28.1192 34.5134 26.6871C34.5786 25.2516 34.5938 24.7941 34.5938 21.1406C34.5938 17.4872 34.5786 17.0286 34.5134 15.5942C34.4481 14.1619 34.221 13.1834 33.8885 12.3287C33.544 11.4442 33.0842 10.6943 32.3367 9.94558C31.5891 9.19683 30.838 8.73727 29.9545 8.39384C29.0982 8.06128 28.1201 7.83312 26.6889 7.76897C25.2544 7.70375 24.7958 7.6875 21.1422 7.6875C17.4887 7.6875 17.0297 7.70268 15.5945 7.76897Z" fill="white"/>
<defs>
<linearGradient id="paint0_linear_40443_114" x1="40.212" y1="41" x2="-0.788019" y2="-1.1036e-06" gradientUnits="userSpaceOnUse">
<stop stop-color="#FBE18A"/>
<stop offset="0.21" stop-color="#FCBB45"/>
<stop offset="0.38" stop-color="#F75274"/>
<stop offset="0.52" stop-color="#D53692"/>
<stop offset="0.74" stop-color="#8F39CE"/>
<stop offset="1" stop-color="#5B4FE9"/>
</linearGradient>
<radialGradient id="paint1_radial_40443_114" cx="0" cy="0" r="1" gradientUnits="userSpaceOnUse" gradientTransform="translate(13.1066 8.06557) rotate(55.9679) scale(31.2252 31.2252)">
<stop stop-color="white"/>
<stop offset="0.697917" stop-color="white" stop-opacity="0"/>
<stop offset="1" stop-color="white" stop-opacity="0"/>
</radialGradient>
</defs>
</svg>
