<svg width="33" height="21" viewBox="0 0 33 21" fill="none" xmlns="http://www.w3.org/2000/svg">
<g opacity="0.5">
<path fill-rule="evenodd" clip-rule="evenodd" d="M12.0898 18.5583H20.8251V2.44141H12.0898V18.5583Z" fill="#EAEAEA"/>
<path fill-rule="evenodd" clip-rule="evenodd" d="M12.6432 10.5C12.6432 7.23025 14.1343 4.31869 16.4562 2.44152C14.6987 1.01865 12.5248 0.246482 10.2867 0.250012C4.77378 0.250012 0.304688 4.83916 0.304688 10.5C0.304688 16.1608 4.77379 20.75 10.2869 20.75C12.5251 20.7535 14.699 19.9814 16.4565 18.5585C14.1346 16.6816 12.6432 13.7695 12.6432 10.5Z" fill="white"/>
<path fill-rule="evenodd" clip-rule="evenodd" d="M32.6091 10.5C32.6091 16.1608 28.1395 20.75 22.6263 20.75C20.3882 20.7535 18.2144 19.9814 16.457 18.5585C18.7789 16.6816 20.27 13.7695 20.27 10.5C20.27 7.23025 18.7789 4.31869 16.457 2.44152C18.2146 1.01859 20.3884 0.246425 22.6266 0.250012C28.1397 0.250012 32.6091 4.83916 32.6091 10.5Z" fill="white"/>
</g>
</svg>
