<svg width="153" height="21" viewBox="0 0 153 21" fill="none" xmlns="http://www.w3.org/2000/svg">
<g id="Group">
<g id="Layer 1">
<path id="Union" fill-rule="evenodd" clip-rule="evenodd" d="M42.6396 3.29075C41.1536 0.676282 38.2345 -0.000167887 34.696 0.869125C31.9479 1.53266 28.8244 3.12345 25.7046 5.46117L25.682 5.47805C25.303 4.87641 24.9065 4.32775 24.3698 3.7764C18.1158 -2.29281 9.47374 0.223116 3.80846 6.75325C3.11971 7.51187 2.49925 8.32981 1.95432 9.19752C1.80946 9.41658 1.66775 9.63869 1.52933 9.86372C1.55299 9.83541 1.58085 9.80236 1.61285 9.76493C1.54429 9.88392 1.47711 10.0038 1.41134 10.1244C1.32444 10.2874 1.23971 10.4503 1.15715 10.6132C1.08542 10.8518 1.026 11.0932 0.978897 11.3364C1.02658 11.0866 1.08726 10.8387 1.16092 10.5937C0.183296 12.575 -0.0904373 14.5335 0.531981 16.2085C2.16135 20.6338 9.44136 21.3801 16.7735 17.8737C19.0986 16.7644 21.1488 15.353 22.8141 13.8071L23.3094 13.3619C24.3049 14.1897 25.4571 14.98 26.8326 15.6806C32.1313 18.3853 40.0402 17.147 43.2663 13.0931L43.2522 13.1093C45.1589 10.7337 45.4495 7.38416 42.6396 3.29075ZM13.3675 4.67255C8.3731 4.04654 4.56201 6.86295 2.69854 8.63638C1.82457 10.1491 1.145 11.8943 1.13108 13.3832C1.13854 14.4523 1.40463 15.5029 1.9055 16.4455C1.93376 16.4896 1.96256 16.5333 1.99189 16.5767L2.01576 16.617L2.01578 16.617C2.03734 16.6536 2.05937 16.691 2.08314 16.7266C4.19154 19.8713 11.1033 18.1148 17.5165 12.8161C18.4097 12.0809 19.2622 11.2984 20.0704 10.4721C20.135 10.4034 20.1966 10.3367 20.2551 10.2722C19.8991 9.852 19.562 9.43826 19.2354 9.03746C17.4256 6.81653 15.9398 4.99328 13.3675 4.67255ZM43.1218 4.87007C41.1516 2.47082 36.2587 3.67153 31.2847 7.08498L31.29 7.0938C30.6724 7.49477 29.6186 8.31786 28.5353 9.19655C28.4263 9.28947 28.3176 9.38336 28.2091 9.4782C28.4552 9.81643 28.7259 10.1733 29.0265 10.5513C29.4442 11.008 29.8866 11.4145 30.3473 11.7725C30.0309 11.5162 29.7237 11.2364 29.4279 10.9326C34.9204 16.3365 44.0738 13.7148 43.4952 6.73534C43.4432 6.144 43.3214 5.52151 43.1218 4.87007ZM69.5614 1.05536C69.4719 1.01874 69.3791 0.990378 69.2844 0.970639C68.5349 0.778373 66.6774 0.716455 66.0778 1.20527L66.0452 1.2346C65.9462 1.32729 65.8654 1.43785 65.8074 1.56047C64.0658 3.87201 62.4556 6.27967 60.9844 8.77205L56.4971 1.5735L56.4809 1.53766C56.4213 1.4142 56.3383 1.30351 56.2365 1.21178L56.2039 1.18571C55.6825 0.752302 54.1215 0.765338 53.271 0.911981C53.0692 0.933202 52.871 0.980297 52.6812 1.05211C52.5164 1.12247 52.3756 1.23897 52.2756 1.38756C52.1755 1.53616 52.1206 1.71051 52.1174 1.8896V17.0786C52.1174 17.3816 52.2575 17.9128 53.196 18.0562C53.5082 18.0982 53.8229 18.1178 54.1378 18.1148C54.7896 18.1148 56.1615 18.1148 56.1615 17.0786V8.31909C56.4548 8.78183 57.012 9.68775 57.6279 10.825C58.4839 12.4088 59.0585 13.444 59.3518 13.9306L59.5245 14.2565C59.6786 14.4909 59.8754 14.6943 60.1046 14.8561C60.5949 15.147 61.1783 15.238 61.7339 15.1103C61.8714 15.0733 61.9999 15.009 62.1119 14.9213C62.3627 14.7533 62.5831 14.544 62.7637 14.3021L63.1547 13.6178C63.3437 13.2854 63.7869 12.4631 64.4843 11.1509C65.1817 9.83874 65.7128 8.88176 66.0778 8.27998V10.0201V17.0883C66.0778 18.1246 67.4432 18.1246 68.0982 18.1246C68.7533 18.1246 70.1219 18.1246 70.1219 17.0883V1.89286C70.119 1.71413 70.0646 1.54004 69.9651 1.39148C69.8657 1.24292 69.7255 1.12622 69.5614 1.05536ZM74.4742 18.3006C73.8225 18.3006 72.4505 18.3006 72.4505 17.2643V7.56632C72.4505 6.53004 73.8159 6.53004 74.4742 6.53004C75.1325 6.53004 76.4946 6.53004 76.4946 7.56632V17.2643C76.4946 18.3006 75.1292 18.3006 74.4742 18.3006ZM80.9226 18.3006C80.2708 18.3006 78.9087 18.3006 78.9087 17.2643V2.07209C78.9087 1.09964 80.0275 1.06548 80.7738 1.0427L80.7857 1.04233H89.2584C89.8678 1.04233 90.5815 1.54092 90.5815 2.94544C90.5815 4.34995 89.8678 4.84854 89.2584 4.84854H82.9332V7.73903H88.4177C89.027 7.73903 89.7407 8.23762 89.7407 9.64214C89.7407 11.0466 89.027 11.5452 88.4177 11.5452H82.9332V17.2643C82.9332 18.3006 81.5743 18.3006 80.9226 18.3006ZM111.291 18.3006C110.023 18.3006 109.661 17.9943 109.495 17.7662L103.587 9.03601V17.2448C103.587 18.2973 102.228 18.2973 101.576 18.2973C100.925 18.2973 99.5625 18.2973 99.5625 17.2448V2.09165C99.5652 1.90216 99.6256 1.71799 99.7356 1.5637C99.8457 1.40942 100 1.29234 100.178 1.22808C100.596 1.05537 102.72 0.843553 103.326 1.44642L103.427 1.57025L109.326 10.2971V2.09165C109.326 1.04233 110.737 1.04233 111.34 1.04233C111.942 1.04233 113.35 1.04233 113.35 2.09165V17.2448C113.343 17.457 113.267 17.6612 113.134 17.8264C113 17.9916 112.817 18.1089 112.61 18.1605C112.178 18.263 111.735 18.3101 111.291 18.3006ZM118.108 18.3006C117.456 18.3006 116.088 18.3006 116.088 17.2643V2.07208C116.088 1.03581 117.453 1.03581 118.108 1.03581C118.763 1.03581 120.132 1.03581 120.132 2.07208V17.2643C120.132 18.3006 118.766 18.3006 118.108 18.3006ZM94.7298 18.3006C94.0781 18.3006 92.7094 18.3006 92.7094 17.2643V2.07208C92.7094 1.03581 94.0748 1.03581 94.7298 1.03581C95.3848 1.03581 96.7502 1.03581 96.7502 2.07208V17.2643C96.7437 18.3006 95.3848 18.3006 94.7298 18.3006ZM129.273 18.3006C128.622 18.3006 127.263 18.3006 127.263 17.2643V5.06687H123.352C122.313 5.06687 122.313 3.70472 122.313 3.05297C122.313 2.40123 122.313 1.04233 123.352 1.04233H135.195C136.231 1.04233 136.231 2.40123 136.231 3.05297C136.231 3.70472 136.231 5.06687 135.195 5.06687H131.284V17.2643C131.284 18.3006 129.928 18.3006 129.273 18.3006ZM145.436 18.3136C144.934 18.3136 143.416 18.3136 143.416 17.2089V11.0173L137.876 2.37841V2.13726C137.88 1.92086 137.956 1.71194 138.091 1.54328C138.227 1.37461 138.415 1.25572 138.625 1.20526C139.16 1.02603 141.574 0.837025 142.187 1.65497L142.21 1.68755L145.439 6.69623L148.698 1.63541C149.35 0.830506 151.781 1.03581 152.283 1.21504C152.487 1.26993 152.667 1.38945 152.798 1.55571C152.928 1.72197 153.001 1.926 153.006 2.13726V2.38166L147.466 11.0206V17.2122C147.456 18.3136 145.951 18.3136 145.436 18.3136ZM73.8586 1.18245H74.9438C75.8203 1.18245 76.5308 1.89297 76.5308 2.76945V3.88394C76.5308 4.76042 75.8203 5.47094 74.9438 5.47094H73.8586C72.9821 5.47094 72.2716 4.76042 72.2716 3.88394V2.76945C72.2716 1.89297 72.9821 1.18245 73.8586 1.18245Z" fill="#313131"/>
</g>
</g>
</svg>
