<svg width="67" height="17" viewBox="0 0 67 17" fill="none" xmlns="http://www.w3.org/2000/svg">
<g opacity="0.5">
<path fill-rule="evenodd" clip-rule="evenodd" d="M4.36236 9.2927C4.36236 9.70086 4.36236 10.109 4.36236 10.5172C4.36236 12.222 4.35502 13.9268 4.3678 15.6316C4.37065 16.0202 4.27331 16.2221 3.83981 16.2103C3.03142 16.1884 2.22185 16.1959 1.41298 16.2077C1.0555 16.2129 0.934722 16.0639 0.935551 15.7086C0.943958 11.9025 0.943011 8.09642 0.938275 4.29025C0.937564 3.78454 1.19511 3.42599 1.54963 3.12454C2.54949 2.27421 4.25579 2.56186 4.89556 3.70817C5.77227 5.27894 6.55876 6.89717 7.33411 8.52052C7.43512 8.73203 7.55222 8.93569 7.66448 9.1478C7.89668 9.0424 7.79828 8.86003 7.79887 8.72751C7.80704 7.04242 7.80408 5.35745 7.80444 3.67248C7.80468 2.88615 7.80515 2.88591 8.61555 2.88519C9.22726 2.88472 9.84217 2.92374 10.4497 2.87401C11.0386 2.82583 11.2346 3.00071 11.2234 3.62216C11.1849 5.7624 11.2086 7.9037 11.2086 10.0447C11.2086 11.5314 11.2106 13.0182 11.2078 14.505C11.206 15.3739 10.7659 16.054 10.0416 16.323C9.268 16.6103 8.50081 16.3861 7.92001 15.7042C7.58384 15.3094 7.34193 14.8549 7.10771 14.3969C6.23479 12.6902 5.36624 10.9814 4.49593 9.27331C4.4514 9.27985 4.40688 9.28627 4.36236 9.2927Z" fill="white"/>
<path fill-rule="evenodd" clip-rule="evenodd" d="M18.6904 8.15893C17.7852 7.68987 16.7074 7.97216 16.1526 8.81953C15.4956 9.82332 15.5346 11.2618 16.2452 12.2317C16.8605 13.0716 18.0022 13.3052 19.01 12.7899C19.6251 12.4753 20.0813 11.9963 20.4299 11.4C20.9657 10.4837 20.8075 10.5992 21.708 11.0415C22.2211 11.2936 22.726 11.5628 23.2358 11.8215C23.4986 11.9548 23.6284 12.1136 23.4814 12.4343C22.2414 15.1424 19.7619 16.9564 16.4765 16.3688C15.5624 16.2055 14.749 15.7781 14.0933 15.1283C12.4683 13.5177 11.6682 11.5807 12.2895 9.30513C12.9381 6.92899 14.5203 5.38261 16.9725 4.97802C18.7429 4.68597 20.3257 5.25532 21.5889 6.58519C22.0402 7.0602 22.3873 7.61492 22.747 8.16012C22.9384 8.44991 22.901 8.64049 22.6047 8.84522C21.0778 9.90029 19.5574 10.965 18.0484 12.0455C17.6849 12.3058 17.4541 12.3291 17.2184 11.8952C16.9546 11.4096 16.6539 10.9404 16.3302 10.4926C16.0802 10.1464 16.1661 9.93146 16.4873 9.7209C17.0816 9.3313 17.6708 8.93373 18.2562 8.53069C18.4117 8.42374 18.6197 8.36985 18.6904 8.15893Z" fill="white"/>
<path fill-rule="evenodd" clip-rule="evenodd" d="M31.037 10.7136C31.0184 9.36698 30.3322 8.58005 29.1933 8.59944C28.099 8.618 27.2283 9.59372 27.2375 10.7913C27.2465 11.9644 28.0817 12.8422 29.1783 12.8336C30.0436 12.8269 31.1982 12.1691 31.037 10.7136ZM29.0947 16.4441C26.535 16.7607 23.5595 13.9633 23.5861 10.67C23.6106 7.63586 26.0665 4.89225 29.1827 4.92746C32.5326 4.96541 34.779 7.79015 34.7234 10.9179C34.6602 14.4705 31.5331 16.6918 29.0947 16.4441Z" fill="white"/>
<path fill-rule="evenodd" clip-rule="evenodd" d="M43.3122 9.01269C43.3122 7.92265 43.3254 6.83236 43.3051 5.74268C43.2979 5.35581 43.4334 5.21901 43.8128 5.22662C44.6607 5.24375 45.5096 5.24815 46.3573 5.22472C46.782 5.21294 46.8875 5.3871 46.8843 5.78705C46.8688 7.76883 46.8731 9.75084 46.8811 11.7327C46.8837 12.3723 47.2496 12.8027 47.7924 12.8543C48.3172 12.9044 48.7675 12.5109 48.8844 11.8977C48.8992 11.8201 48.9084 11.7406 48.9115 11.6616C48.9318 11.1277 48.9627 10.5938 48.9656 10.0597C48.9736 8.65259 48.9811 7.24516 48.9623 5.8382C48.9564 5.39162 49.0888 5.1945 49.5617 5.21056C50.3696 5.23792 51.1793 5.22817 51.9879 5.21365C52.3913 5.2064 52.5882 5.30716 52.5828 5.77896C52.5589 7.85971 52.6445 9.94404 52.5541 12.0211C52.4364 14.7252 50.5736 16.5677 48.0748 16.4489C47.3464 16.4142 46.6199 16.4535 45.927 16.147C44.2718 15.4152 43.3318 13.8683 43.2826 11.9256C43.2581 10.9552 43.2784 9.98377 43.2784 9.01269H43.3122Z" fill="white"/>
<path fill-rule="evenodd" clip-rule="evenodd" d="M60.1913 9.87766C60.1913 8.07551 60.1877 6.27337 60.1922 4.47122C60.1977 2.23153 61.8908 0.53062 64.121 0.520746C64.7516 0.51801 65.3829 0.540137 66.0131 0.522292C66.3754 0.511943 66.5574 0.599379 66.5452 1.01348C66.5203 1.8643 66.5251 2.71677 66.5436 3.56783C66.5511 3.91555 66.4062 4.02 66.0883 4.00989C65.6748 3.99668 65.2605 4.00596 64.8465 4.00941C64.6062 4.01131 64.3712 4.04058 64.1953 4.23151C63.9907 4.45361 63.9306 4.74233 64.0137 5.00405C64.0865 5.23364 64.3557 5.13027 64.5393 5.13491C65.0515 5.14775 65.5648 5.15513 66.0765 5.13657C66.4398 5.12325 66.5559 5.27135 66.5476 5.62717C66.5284 6.45847 66.5301 7.29073 66.5466 8.12215C66.5539 8.4826 66.4179 8.62179 66.0619 8.61072C65.5301 8.59395 64.9957 8.63392 64.4658 8.59847C64.0175 8.56849 63.8902 8.73528 63.894 9.17282C63.9119 11.2719 63.8812 13.3716 63.9148 15.4703C63.9244 16.0684 63.7656 16.2764 63.1529 16.2339C62.3485 16.1781 61.5369 16.203 60.7294 16.2275C60.3314 16.2396 60.1625 16.1277 60.1661 15.6995C60.1817 13.759 60.1729 11.8183 60.1729 9.87766C60.179 9.87766 60.1851 9.87766 60.1913 9.87766Z" fill="white"/>
<path fill-rule="evenodd" clip-rule="evenodd" d="M37.3861 16.2044C36.7553 16.2043 36.1238 16.1858 35.4941 16.2112C35.1121 16.2265 34.958 16.0942 34.9661 15.7063C34.982 14.9541 34.982 14.2011 34.9662 13.4489C34.9589 13.0919 35.0914 12.9606 35.4497 12.9687C36.2772 12.9873 37.1053 12.9742 37.9333 12.9738C38.0712 12.9736 38.2094 12.9766 38.3471 12.9701C38.5547 12.9602 38.7589 12.8956 38.8178 12.6839C38.8862 12.4382 38.673 12.3473 38.4957 12.2579C37.8983 11.9562 37.2891 11.676 36.7051 11.3504C35.379 10.6111 34.859 9.35044 35.1495 7.65167C35.3422 6.52534 36.5 5.45314 37.8093 5.27863C39.102 5.10637 40.407 5.22521 41.7067 5.21534C41.98 5.21332 42.1001 5.34822 42.0997 5.61434C42.0985 6.4065 42.098 7.19855 42.1003 7.99059C42.1011 8.30917 41.922 8.37983 41.6411 8.37579C40.8725 8.36484 40.1036 8.37258 39.3349 8.37258C39.0945 8.3727 38.816 8.35878 38.7528 8.6519C38.6871 8.95537 38.9728 9.03924 39.1807 9.13453C39.8978 9.46345 40.6002 9.81939 41.2674 10.2419C42.4082 10.9647 42.9689 12.3023 42.6654 13.568C42.3071 15.0627 41.2887 15.9874 39.8669 16.1395C39.0404 16.2277 38.2137 16.2067 37.3861 16.2044Z" fill="white"/>
<path fill-rule="evenodd" clip-rule="evenodd" d="M56.7175 6.44588C57.4551 5.56474 58.2241 5.13243 59.2379 5.2069C59.6334 5.23593 59.8033 5.34394 59.7909 5.76412C59.767 6.57508 59.772 7.38758 59.7895 8.1989C59.7971 8.5615 59.6978 8.7303 59.3008 8.75635C57.7221 8.85985 57.1767 8.91434 57.1838 11.1879C57.1884 12.6529 57.1667 14.1184 57.1977 15.5828C57.2085 16.0915 57.0267 16.2295 56.5496 16.2132C55.6639 16.1829 54.7762 16.1951 53.8896 16.2087C53.5418 16.214 53.3984 16.0981 53.3994 15.7293C53.4091 12.3835 53.4095 9.03758 53.3995 5.69179C53.3984 5.31016 53.5783 5.21535 53.9044 5.21773C54.6137 5.22272 55.3243 5.24259 56.0323 5.20916C56.5534 5.18465 56.8217 5.33312 56.7205 5.90199C56.7002 6.01596 56.7175 6.13682 56.7175 6.44588Z" fill="white"/>
</g>
</svg>
