<svg width="60" height="21" viewBox="0 0 60 21" fill="none" xmlns="http://www.w3.org/2000/svg">
<g opacity="0.5">
<path d="M24.5742 19.5942V7.57007C24.5742 5.35759 26.3677 3.56409 28.5801 3.56409L32.1303 3.56944C34.3363 3.57382 36.1224 5.36338 36.1224 7.56945V10.1288C36.1224 12.3413 34.3288 14.1348 32.1164 14.1348H27.0997" stroke="white" stroke-width="0.740593" stroke-miterlimit="10" stroke-linecap="round" stroke-linejoin="round"/>
<path d="M37.1152 3.56262H38.6552C39.5632 3.56262 40.2992 4.29865 40.2992 5.20664V14.1887" stroke="white" stroke-width="0.740593" stroke-miterlimit="10" stroke-linecap="round" stroke-linejoin="round"/>
<path d="M39.3586 1.38446L39.3586 1.38444C39.2338 1.25975 39.2338 1.05758 39.3586 0.932893L39.3586 0.932865L40.0565 0.234872C40.0565 0.234863 40.0565 0.234854 40.0566 0.234845C40.1816 0.109865 40.3842 0.109938 40.509 0.234828L40.509 0.234845L41.207 0.932865L41.207 0.932893C41.3317 1.05758 41.3317 1.25975 41.207 1.38444L41.207 1.38446L40.5086 2.08292C40.5086 2.08292 40.5086 2.08292 40.5086 2.08292C40.3839 2.20759 40.1818 2.20763 40.057 2.08292C40.057 2.08291 40.057 2.08291 40.057 2.0829L39.3586 1.38446Z" fill="white" fill-opacity="0.2" stroke="white" stroke-width="0.248823"/>
<path d="M43.2539 3.55481H44.7813C45.5671 3.55481 46.3206 3.86695 46.8761 4.42242L50.4486 7.99468C50.9114 8.45745 51.6616 8.45745 52.1245 7.99468L55.6839 4.4355C56.2395 3.88003 56.993 3.56789 57.7787 3.56789H59.0205" stroke="white" stroke-width="0.740593" stroke-miterlimit="10" stroke-linecap="round" stroke-linejoin="round"/>
<path d="M43.2539 14.1098H44.7813C45.5671 14.1098 46.3206 13.7977 46.8761 13.2422L50.4486 9.66995C50.9114 9.20718 51.6616 9.20718 52.1245 9.66995L55.6839 13.2291C56.2395 13.7846 56.993 14.0967 57.7787 14.0967H59.0205" stroke="white" stroke-width="0.740593" stroke-miterlimit="10" stroke-linecap="round" stroke-linejoin="round"/>
<path d="M13.3498 15.6398L13.3498 15.6398C13.9152 16.2049 14.6678 16.5165 15.4672 16.5165H15.5198L12.0103 20.0261C12.0103 20.0261 12.0103 20.0261 12.0103 20.0261C10.8998 21.1365 9.09926 21.1365 7.98881 20.0261L7.90084 20.1141L7.98881 20.0261L4.48981 16.5272H4.76694C5.5664 16.5272 6.31897 16.2156 6.88435 15.6505L6.88437 15.6505L9.82541 12.7094C9.98265 12.5521 10.2624 12.5519 10.4193 12.7093L10.4195 12.7094L13.3498 15.6398Z" fill="white" fill-opacity="0.2" stroke="white" stroke-width="0.248823"/>
<path d="M6.88421 6.77909L6.88418 6.77906C6.31881 6.21396 5.56623 5.90242 4.76677 5.90242L4.48982 5.90243L7.98864 2.4036L7.98865 2.4036C9.09909 1.29307 10.8996 1.29306 12.0102 2.40361L15.5197 5.91315H15.467C14.6676 5.91315 13.915 6.22469 13.3497 6.78979L13.3496 6.78981L10.4193 9.72041L10.4192 9.72053C10.2556 9.88458 9.98862 9.8841 9.82526 9.72067L9.82525 9.72066L6.88421 6.77909Z" fill="white" fill-opacity="0.2" stroke="white" stroke-width="0.248823"/>
<path d="M14.1359 7.57547L14.1359 7.57544C14.4862 7.22495 14.9721 7.02361 15.4678 7.02361H16.4905C16.5343 7.02361 16.5762 7.01801 16.6158 7.00842L18.8117 9.20413C19.9222 10.3147 19.9222 12.1151 18.8117 13.2256L16.6158 15.4213C16.5762 15.4117 16.5343 15.4061 16.4905 15.4061H15.4678C14.9721 15.4061 14.4862 15.2048 14.1359 14.8543L14.1358 14.8542L11.2054 11.9242C10.6257 11.344 9.62018 11.3442 9.04001 11.9239L9.03997 11.9239L6.09872 14.865L6.09869 14.865C5.74842 15.2155 5.2625 15.4167 4.76676 15.4167H3.50923C3.46795 15.4167 3.42918 15.4222 3.39317 15.4308L1.18784 13.2256C0.0772256 12.1151 0.0772256 10.3147 1.18784 9.20413L3.39325 6.99888C3.42923 7.00743 3.46798 7.0129 3.50923 7.0129H4.76676C5.2625 7.0129 5.74842 7.21416 6.09868 7.56472L6.09872 7.56476L9.04025 10.5061L9.04028 10.5061C9.33875 10.8044 9.73091 10.9537 10.1228 10.9537C10.5144 10.9537 10.9068 10.8044 11.2054 10.5058L11.1174 10.4178L11.2054 10.5058L14.1359 7.57547Z" fill="white" fill-opacity="0.2" stroke="white" stroke-width="0.248823"/>
<mask id="path-9-inside-1_2120_31920" fill="white">
<path d="M27.6274 18.5723C27.4614 18.5723 27.2682 18.6123 27.0771 18.6563V19.389C27.2095 19.4374 27.3606 19.4607 27.5055 19.4607C27.873 19.4607 28.0472 19.3367 28.0472 19.0131C28.0472 18.7088 27.9045 18.5723 27.6274 18.5723ZM26.9531 19.9331V18.484H27.054L27.0645 18.5471C27.2345 18.5072 27.4697 18.4547 27.6377 18.4547C27.7744 18.4547 27.9045 18.4755 28.0136 18.5638C28.1397 18.6669 28.1796 18.8326 28.1796 19.0131C28.1796 19.2024 28.1165 19.3808 27.9443 19.4794C27.8247 19.5466 27.663 19.5739 27.5181 19.5739C27.3689 19.5739 27.2262 19.5507 27.0771 19.5067V19.9331H26.9531Z"/>
</mask>
<path d="M27.6274 18.5723C27.4614 18.5723 27.2682 18.6123 27.0771 18.6563V19.389C27.2095 19.4374 27.3606 19.4607 27.5055 19.4607C27.873 19.4607 28.0472 19.3367 28.0472 19.0131C28.0472 18.7088 27.9045 18.5723 27.6274 18.5723ZM26.9531 19.9331V18.484H27.054L27.0645 18.5471C27.2345 18.5072 27.4697 18.4547 27.6377 18.4547C27.7744 18.4547 27.9045 18.4755 28.0136 18.5638C28.1397 18.6669 28.1796 18.8326 28.1796 19.0131C28.1796 19.2024 28.1165 19.3808 27.9443 19.4794C27.8247 19.5466 27.663 19.5739 27.5181 19.5739C27.3689 19.5739 27.2262 19.5507 27.0771 19.5067V19.9331H26.9531Z" fill="#939598"/>
<path d="M27.0771 18.6563L27.0212 18.4139L26.8283 18.4584V18.6563H27.0771ZM27.0771 19.389H26.8283V19.563L26.9917 19.6227L27.0771 19.389ZM26.9531 19.9331H26.7043V20.1819H26.9531V19.9331ZM26.9531 18.484V18.2352H26.7043V18.484H26.9531ZM27.054 18.484L27.2994 18.4431L27.2647 18.2352H27.054V18.484ZM27.0645 18.5471L26.8191 18.5881L26.8628 18.8501L27.1214 18.7894L27.0645 18.5471ZM28.0136 18.5638L28.171 18.3711L28.1701 18.3704L28.0136 18.5638ZM27.9443 19.4794L28.0662 19.6963L28.068 19.6953L27.9443 19.4794ZM27.0771 19.5067L27.1475 19.2681L26.8282 19.1739V19.5067H27.0771ZM27.0771 19.9331V20.1819H27.3259V19.9331H27.0771ZM27.6274 18.3235C27.4292 18.3235 27.2099 18.3704 27.0212 18.4139L27.133 18.8988C27.3265 18.8542 27.4936 18.8212 27.6274 18.8212V18.3235ZM26.8283 18.6563V19.389H27.3259V18.6563H26.8283ZM26.9917 19.6227C27.1553 19.6825 27.336 19.7095 27.5055 19.7095V19.2118C27.3852 19.2118 27.2636 19.1923 27.1625 19.1553L26.9917 19.6227ZM27.5055 19.7095C27.7072 19.7095 27.913 19.6775 28.0694 19.5527C28.2391 19.4172 28.296 19.2188 28.296 19.0131H27.7984C27.7984 19.131 27.7682 19.1563 27.7589 19.1638C27.7363 19.1818 27.6713 19.2118 27.5055 19.2118V19.7095ZM28.296 19.0131C28.296 18.8266 28.2526 18.6416 28.1194 18.5049C27.985 18.367 27.8034 18.3235 27.6274 18.3235V18.8212C27.7285 18.8212 27.7568 18.8459 27.763 18.8523C27.7705 18.8599 27.7984 18.8953 27.7984 19.0131H28.296ZM27.2019 19.9331V18.484H26.7043V19.9331H27.2019ZM26.9531 18.7329H27.054V18.2352H26.9531V18.7329ZM26.8085 18.525L26.8191 18.5881L27.3099 18.5062L27.2994 18.4431L26.8085 18.525ZM27.1214 18.7894C27.2983 18.7478 27.504 18.7035 27.6377 18.7035V18.2059C27.4354 18.2059 27.1707 18.2666 27.0076 18.3049L27.1214 18.7894ZM27.6377 18.7035C27.7526 18.7035 27.8135 18.722 27.857 18.7572L28.1701 18.3704C27.9955 18.2291 27.7962 18.2059 27.6377 18.2059V18.7035ZM27.8562 18.7565C27.8947 18.788 27.9308 18.8578 27.9308 19.0131H28.4284C28.4284 18.8074 28.3847 18.5457 28.171 18.3711L27.8562 18.7565ZM27.9308 19.0131C27.9308 19.1512 27.8873 19.2253 27.8207 19.2634L28.068 19.6953C28.3456 19.5363 28.4284 19.2537 28.4284 19.0131H27.9308ZM27.8224 19.2624C27.7539 19.3009 27.6397 19.3251 27.5181 19.3251V19.8227C27.6862 19.8227 27.8954 19.7922 28.0662 19.6963L27.8224 19.2624ZM27.5181 19.3251C27.396 19.3251 27.2771 19.3063 27.1475 19.2681L27.0067 19.7454C27.1753 19.7951 27.3418 19.8227 27.5181 19.8227V19.3251ZM26.8282 19.5067V19.9331H27.3259V19.5067H26.8282ZM27.0771 19.6843H26.9531V20.1819H27.0771V19.6843Z" fill="white" mask="url(#path-9-inside-1_2120_31920)"/>
<path d="M28.6266 18.5675L28.6973 18.6661L28.6266 19.4602C28.4922 19.3657 28.4375 19.2102 28.4375 19.015C28.4375 18.8603 28.4725 18.7286 28.5554 18.6326C28.5761 18.6086 28.5997 18.5869 28.6266 18.5675ZM29.4353 18.6319C29.4595 18.6426 29.4817 18.6549 29.5018 18.6691C29.5922 18.7332 29.6382 18.8425 29.6382 19.0127C29.6382 19.0162 29.6382 19.0198 29.6381 19.0233C29.6366 19.1546 29.6071 19.248 29.5534 19.3115C29.6055 19.2435 29.6303 19.1493 29.6303 19.0233C29.6303 18.8302 29.5688 18.7019 29.4353 18.6319Z" fill="#939598" stroke="white" stroke-width="0.248823"/>
<mask id="path-12-inside-2_2120_31920" fill="white">
<path d="M31.3145 19.5446L30.905 18.6648H30.8965L30.4934 19.5446H30.3821L29.9453 18.484H30.0818L30.4451 19.3744H30.4536L30.8482 18.484H30.9616L31.367 19.3744H31.3754L31.7303 18.484H31.8625L31.4258 19.5446H31.3145Z"/>
</mask>
<path d="M31.3145 19.5446L30.905 18.6648H30.8965L30.4934 19.5446H30.3821L29.9453 18.484H30.0818L30.4451 19.3744H30.4536L30.8482 18.484H30.9616L31.367 19.3744H31.3754L31.7303 18.484H31.8625L31.4258 19.5446H31.3145Z" fill="#939598"/>
<path d="M31.3145 19.5446L31.0889 19.6496L31.1559 19.7934H31.3145V19.5446ZM30.905 18.6648L31.1306 18.5598L31.0636 18.416H30.905V18.6648ZM30.8965 18.6648V18.416H30.7368L30.6703 18.5612L30.8965 18.6648ZM30.4934 19.5446V19.7934H30.6531L30.7196 19.6482L30.4934 19.5446ZM30.3821 19.5446L30.152 19.6393L30.2155 19.7934H30.3821V19.5446ZM29.9453 18.484V18.2352H29.5737L29.7152 18.5788L29.9453 18.484ZM30.0818 18.484L30.3122 18.39L30.249 18.2352H30.0818V18.484ZM30.4451 19.3744L30.2147 19.4684L30.2779 19.6232H30.4451V19.3744ZM30.4536 19.3744V19.6232H30.6155L30.6811 19.4752L30.4536 19.3744ZM30.8482 18.484V18.2352H30.6863L30.6207 18.3832L30.8482 18.484ZM30.9616 18.484L31.1881 18.3809L31.1218 18.2352H30.9616V18.484ZM31.367 19.3744L31.1405 19.4775L31.2069 19.6232H31.367V19.3744ZM31.3754 19.3744V19.6232H31.5441L31.6066 19.4665L31.3754 19.3744ZM31.7303 18.484V18.2352H31.5616L31.4992 18.3919L31.7303 18.484ZM31.8625 18.484L32.0926 18.5787L32.2341 18.2352H31.8625V18.484ZM31.4258 19.5446V19.7934H31.5924L31.6559 19.6393L31.4258 19.5446ZM31.5401 19.4396L31.1306 18.5598L30.6794 18.7698L31.0889 19.6496L31.5401 19.4396ZM30.905 18.416H30.8965V18.9137H30.905V18.416ZM30.6703 18.5612L30.2672 19.4409L30.7196 19.6482L31.1227 18.7685L30.6703 18.5612ZM30.4934 19.2957H30.3821V19.7934H30.4934V19.2957ZM30.6122 19.4498L30.1754 18.3893L29.7152 18.5788L30.152 19.6393L30.6122 19.4498ZM29.9453 18.7328H30.0818V18.2352H29.9453V18.7328ZM29.8514 18.578L30.2147 19.4684L30.6755 19.2803L30.3122 18.39L29.8514 18.578ZM30.4451 19.6232H30.4536V19.1255H30.4451V19.6232ZM30.6811 19.4752L31.0757 18.5848L30.6207 18.3832L30.2261 19.2735L30.6811 19.4752ZM30.8482 18.7328H30.9616V18.2352H30.8482V18.7328ZM30.7352 18.5871L31.1405 19.4775L31.5934 19.2713L31.1881 18.3809L30.7352 18.5871ZM31.367 19.6232H31.3754V19.1255H31.367V19.6232ZM31.6066 19.4665L31.9615 18.5761L31.4992 18.3919L31.1443 19.2822L31.6066 19.4665ZM31.7303 18.7328H31.8625V18.2352H31.7303V18.7328ZM31.6324 18.3893L31.1957 19.4498L31.6559 19.6393L32.0926 18.5787L31.6324 18.3893ZM31.4258 19.2957H31.3145V19.7934H31.4258V19.2957Z" fill="white" mask="url(#path-12-inside-2_2120_31920)"/>
<mask id="path-14-inside-3_2120_31920" fill="white">
<path d="M32.6541 18.5654C32.3139 18.5654 32.1984 18.7166 32.1774 18.9352H33.1308C33.1204 18.6937 32.9963 18.5654 32.6541 18.5654ZM32.65 19.5734C32.4461 19.5734 32.3139 19.5441 32.209 19.4558C32.085 19.3487 32.043 19.1934 32.043 19.015C32.043 18.8448 32.0998 18.6643 32.2405 18.5613C32.358 18.4795 32.5029 18.4542 32.6541 18.4542C32.7907 18.4542 32.9481 18.4689 33.0782 18.5572C33.2316 18.66 33.2611 18.8407 33.2611 19.0464H32.1732C32.1774 19.2647 32.2488 19.4581 32.6603 19.4581C32.8557 19.4581 33.0384 19.4265 33.2085 19.3971V19.5083C33.0321 19.54 32.8368 19.5734 32.65 19.5734Z"/>
</mask>
<path d="M32.6541 18.5654C32.3139 18.5654 32.1984 18.7166 32.1774 18.9352H33.1308C33.1204 18.6937 32.9963 18.5654 32.6541 18.5654ZM32.65 19.5734C32.4461 19.5734 32.3139 19.5441 32.209 19.4558C32.085 19.3487 32.043 19.1934 32.043 19.015C32.043 18.8448 32.0998 18.6643 32.2405 18.5613C32.358 18.4795 32.5029 18.4542 32.6541 18.4542C32.7907 18.4542 32.9481 18.4689 33.0782 18.5572C33.2316 18.66 33.2611 18.8407 33.2611 19.0464H32.1732C32.1774 19.2647 32.2488 19.4581 32.6603 19.4581C32.8557 19.4581 33.0384 19.4265 33.2085 19.3971V19.5083C33.0321 19.54 32.8368 19.5734 32.65 19.5734Z" fill="#939598"/>
<path d="M32.1774 18.9352L31.9297 18.9113L31.9034 19.184H32.1774V18.9352ZM33.1308 18.9352V19.184H33.3906L33.3794 18.9244L33.1308 18.9352ZM32.209 19.4558L32.0463 19.6441L32.0488 19.6462L32.209 19.4558ZM32.2405 18.5613L32.0983 18.357L32.0935 18.3605L32.2405 18.5613ZM33.0782 18.5572L32.9385 18.7631L32.9397 18.7639L33.0782 18.5572ZM33.2611 19.0464V19.2952H33.5099V19.0464H33.2611ZM32.1732 19.0464V18.7976H31.9197L31.9244 19.0511L32.1732 19.0464ZM33.2085 19.3971H33.4573V19.1015L33.1661 19.1519L33.2085 19.3971ZM33.2085 19.5083L33.2525 19.7532L33.4573 19.7164V19.5083H33.2085ZM32.6541 18.3166C32.451 18.3166 32.2683 18.3614 32.1317 18.4815C31.993 18.6035 31.9437 18.7663 31.9297 18.9113L32.425 18.959C32.4321 18.8855 32.451 18.8634 32.4604 18.8552C32.4719 18.8451 32.517 18.8143 32.6541 18.8143V18.3166ZM32.1774 19.184H33.1308V18.6863H32.1774V19.184ZM33.3794 18.9244C33.3725 18.7648 33.3251 18.592 33.1757 18.4682C33.0349 18.3515 32.8483 18.3166 32.6541 18.3166V18.8143C32.8021 18.8143 32.8487 18.8435 32.8581 18.8513C32.8589 18.8519 32.8787 18.8641 32.8822 18.9459L33.3794 18.9244ZM32.65 19.3246C32.4652 19.3246 32.4062 19.2966 32.3691 19.2654L32.0488 19.6462C32.2216 19.7916 32.4271 19.8222 32.65 19.8222V19.3246ZM32.3716 19.2675C32.3255 19.2276 32.2918 19.1586 32.2918 19.015H31.7941C31.7941 19.2282 31.8445 19.4697 32.0463 19.6441L32.3716 19.2675ZM32.2918 19.015C32.2918 18.8886 32.3349 18.8006 32.3874 18.7621L32.0935 18.3605C31.8646 18.528 31.7941 18.8011 31.7941 19.015H32.2918ZM32.3826 18.7655C32.4404 18.7253 32.5262 18.703 32.6541 18.703V18.2054C32.4797 18.2054 32.2756 18.2337 32.0983 18.3571L32.3826 18.7655ZM32.6541 18.703C32.7805 18.703 32.8734 18.7189 32.9385 18.7631L33.218 18.3513C33.0229 18.2189 32.8008 18.2054 32.6541 18.2054V18.703ZM32.9397 18.7639C32.9609 18.7781 32.977 18.7976 32.99 18.8384C33.0049 18.8855 33.0123 18.9517 33.0123 19.0464H33.5099C33.5099 18.838 33.4862 18.5311 33.2168 18.3505L32.9397 18.7639ZM33.2611 18.7976H32.1732V19.2952H33.2611V18.7976ZM31.9244 19.0511C31.9268 19.1773 31.9477 19.3583 32.0812 19.5029C32.2181 19.6512 32.4214 19.7069 32.6603 19.7069V19.2092C32.4877 19.2092 32.4496 19.1683 32.4468 19.1653C32.4407 19.1587 32.4237 19.1338 32.422 19.0417L31.9244 19.0511ZM32.6603 19.7069C32.8802 19.7069 33.0832 19.6712 33.2509 19.6422L33.1661 19.1519C32.9936 19.1817 32.8312 19.2092 32.6603 19.2092V19.7069ZM32.9597 19.3971V19.5083H33.4573V19.3971H32.9597ZM33.1645 19.2634C32.986 19.2954 32.8115 19.3246 32.65 19.3246V19.8222C32.862 19.8222 33.0781 19.7845 33.2525 19.7532L33.1645 19.2634Z" fill="white" mask="url(#path-14-inside-3_2120_31920)"/>
<mask id="path-16-inside-4_2120_31920" fill="white">
<path d="M33.6172 19.5441V18.4835H33.718L33.7286 18.5467C33.9532 18.49 34.0582 18.4542 34.2556 18.4542H34.2704V18.5718H34.2409C34.0751 18.5718 33.9743 18.5948 33.7412 18.6559V19.5441H33.6172Z"/>
</mask>
<path d="M33.6172 19.5441V18.4835H33.718L33.7286 18.5467C33.9532 18.49 34.0582 18.4542 34.2556 18.4542H34.2704V18.5718H34.2409C34.0751 18.5718 33.9743 18.5948 33.7412 18.6559V19.5441H33.6172Z" fill="#939598"/>
<path d="M33.6172 19.5441H33.3684V19.7929H33.6172V19.5441ZM33.6172 18.4835V18.2347H33.3684V18.4835H33.6172ZM33.718 18.4835L33.9633 18.4422L33.9284 18.2347H33.718V18.4835ZM33.7286 18.5467L33.4832 18.588L33.528 18.8538L33.7894 18.7879L33.7286 18.5467ZM34.2704 18.4542H34.5192V18.2054H34.2704V18.4542ZM34.2704 18.5718V18.8207H34.5192V18.5718H34.2704ZM33.7412 18.6559L33.6782 18.4151L33.4924 18.4638V18.6559H33.7412ZM33.7412 19.5441V19.7929H33.9901V19.5441H33.7412ZM33.866 19.5441V18.4835H33.3684V19.5441H33.866ZM33.6172 18.7324H33.718V18.2347H33.6172V18.7324ZM33.4726 18.5249L33.4832 18.588L33.974 18.5053L33.9633 18.4422L33.4726 18.5249ZM33.7894 18.7879C34.0267 18.7281 34.0964 18.703 34.2556 18.703V18.2054C34.02 18.2054 33.8797 18.252 33.6678 18.3054L33.7894 18.7879ZM34.2556 18.703H34.2704V18.2054H34.2556V18.703ZM34.0215 18.4542V18.5718H34.5192V18.4542H34.0215ZM34.2704 18.323H34.2409V18.8207H34.2704V18.323ZM34.2409 18.323C34.0407 18.323 33.9133 18.3536 33.6782 18.4151L33.8043 18.8966C34.0353 18.8361 34.1094 18.8207 34.2409 18.8207V18.323ZM33.4924 18.6559V19.5441H33.9901V18.6559H33.4924ZM33.7412 19.2953H33.6172V19.7929H33.7412V19.2953Z" fill="white" mask="url(#path-16-inside-4_2120_31920)"/>
<mask id="path-18-inside-5_2120_31920" fill="white">
<path d="M34.99 18.5654C34.6499 18.5654 34.5344 18.7166 34.5133 18.9352H35.4668C35.4563 18.6937 35.3323 18.5654 34.99 18.5654ZM34.9859 19.5734C34.7821 19.5734 34.6499 19.5441 34.5449 19.4558C34.4209 19.3487 34.3789 19.1934 34.3789 19.015C34.3789 18.8448 34.4357 18.6643 34.5764 18.5613C34.6939 18.4795 34.8389 18.4542 34.99 18.4542C35.1266 18.4542 35.2841 18.4689 35.4142 18.5572C35.5675 18.66 35.597 18.8407 35.597 19.0464H34.5092C34.5133 19.2647 34.5847 19.4581 34.9963 19.4581C35.1916 19.4581 35.3742 19.4265 35.5444 19.3971V19.5083C35.368 19.54 35.1727 19.5734 34.9859 19.5734Z"/>
</mask>
<path d="M34.99 18.5654C34.6499 18.5654 34.5344 18.7166 34.5133 18.9352H35.4668C35.4563 18.6937 35.3323 18.5654 34.99 18.5654ZM34.9859 19.5734C34.7821 19.5734 34.6499 19.5441 34.5449 19.4558C34.4209 19.3487 34.3789 19.1934 34.3789 19.015C34.3789 18.8448 34.4357 18.6643 34.5764 18.5613C34.6939 18.4795 34.8389 18.4542 34.99 18.4542C35.1266 18.4542 35.2841 18.4689 35.4142 18.5572C35.5675 18.66 35.597 18.8407 35.597 19.0464H34.5092C34.5133 19.2647 34.5847 19.4581 34.9963 19.4581C35.1916 19.4581 35.3742 19.4265 35.5444 19.3971V19.5083C35.368 19.54 35.1727 19.5734 34.9859 19.5734Z" fill="#939598"/>
<path d="M34.5133 18.9352L34.2656 18.9113L34.2394 19.184H34.5133V18.9352ZM35.4668 18.9352V19.184H35.7266L35.7154 18.9244L35.4668 18.9352ZM34.5449 19.4558L34.3823 19.6441L34.3847 19.6462L34.5449 19.4558ZM34.5764 18.5613L34.4342 18.357L34.4295 18.3605L34.5764 18.5613ZM35.4142 18.5572L35.2744 18.7631L35.2756 18.7639L35.4142 18.5572ZM35.597 19.0464V19.2952H35.8458V19.0464H35.597ZM34.5092 19.0464V18.7976H34.2556L34.2604 19.0511L34.5092 19.0464ZM35.5444 19.3971H35.7933V19.1016L35.5021 19.1519L35.5444 19.3971ZM35.5444 19.5083L35.5884 19.7532L35.7933 19.7164V19.5083H35.5444ZM34.99 18.3166C34.787 18.3166 34.6042 18.3614 34.4677 18.4815C34.329 18.6035 34.2796 18.7663 34.2656 18.9113L34.761 18.959C34.7681 18.8854 34.787 18.8634 34.7963 18.8552C34.8078 18.8451 34.8529 18.8143 34.99 18.8143V18.3166ZM34.5133 19.184H35.4668V18.6863H34.5133V19.184ZM35.7154 18.9244C35.7084 18.7648 35.661 18.592 35.5116 18.4682C35.3709 18.3515 35.1842 18.3166 34.99 18.3166V18.8143C35.1381 18.8143 35.1846 18.8435 35.194 18.8513C35.1948 18.8519 35.2146 18.8641 35.2182 18.9459L35.7154 18.9244ZM34.9859 19.3246C34.8012 19.3246 34.7422 19.2966 34.7051 19.2654L34.3847 19.6462C34.5576 19.7916 34.763 19.8222 34.9859 19.8222V19.3246ZM34.7075 19.2674C34.6614 19.2276 34.6277 19.1587 34.6277 19.015H34.1301C34.1301 19.2281 34.1803 19.4698 34.3823 19.6441L34.7075 19.2674ZM34.6277 19.015C34.6277 18.8886 34.6708 18.8006 34.7234 18.7621L34.4295 18.3605C34.2006 18.528 34.1301 18.8011 34.1301 19.015H34.6277ZM34.7186 18.7655C34.7764 18.7253 34.8621 18.703 34.99 18.703V18.2054C34.8156 18.2054 34.6115 18.2337 34.4343 18.3571L34.7186 18.7655ZM34.99 18.703C35.1165 18.703 35.2093 18.7189 35.2744 18.7631L35.5539 18.3513C35.3589 18.2189 35.1368 18.2054 34.99 18.2054V18.703ZM35.2756 18.7639C35.2968 18.7781 35.313 18.7976 35.3259 18.8384C35.3408 18.8855 35.3482 18.9517 35.3482 19.0464H35.8458C35.8458 18.838 35.8221 18.5311 35.5527 18.3505L35.2756 18.7639ZM35.597 18.7976H34.5092V19.2952H35.597V18.7976ZM34.2604 19.0511C34.2628 19.1773 34.2836 19.3583 34.4171 19.5029C34.554 19.6512 34.7574 19.7069 34.9963 19.7069V19.2092C34.8236 19.2092 34.7855 19.1683 34.7828 19.1653C34.7766 19.1587 34.7597 19.1338 34.758 19.0417L34.2604 19.0511ZM34.9963 19.7069C35.2161 19.7069 35.419 19.6712 35.5868 19.6423L35.5021 19.1519C35.3294 19.1817 35.1671 19.2092 34.9963 19.2092V19.7069ZM35.2956 19.3971V19.5083H35.7933V19.3971H35.2956ZM35.5005 19.2634C35.3219 19.2954 35.1474 19.3246 34.9859 19.3246V19.8222C35.198 19.8222 35.4141 19.7845 35.5884 19.7532L35.5005 19.2634Z" fill="white" mask="url(#path-18-inside-5_2120_31920)"/>
<mask id="path-20-inside-6_2120_31920" fill="white">
<path d="M36.9541 18.6394C36.8218 18.5911 36.6706 18.5679 36.5257 18.5679C36.1583 18.5679 35.9838 18.692 35.9838 19.0153C35.9838 19.3217 36.1267 19.4561 36.4038 19.4561C36.5698 19.4561 36.763 19.4162 36.9541 19.3742V18.6394ZM36.9772 19.5444L36.9667 19.4813C36.7966 19.5213 36.5614 19.5738 36.3933 19.5738C36.257 19.5738 36.1267 19.555 36.0175 19.4646C35.8915 19.3617 35.8516 19.1958 35.8516 19.0153C35.8516 18.8263 35.9146 18.6477 36.0867 18.5511C36.2064 18.4819 36.3681 18.4546 36.5152 18.4546C36.6622 18.4546 36.805 18.4799 36.9541 18.5218V18.0367H37.078V19.5444H36.9772Z"/>
</mask>
<path d="M36.9541 18.6394C36.8218 18.5911 36.6706 18.5679 36.5257 18.5679C36.1583 18.5679 35.9838 18.692 35.9838 19.0153C35.9838 19.3217 36.1267 19.4561 36.4038 19.4561C36.5698 19.4561 36.763 19.4162 36.9541 19.3742V18.6394ZM36.9772 19.5444L36.9667 19.4813C36.7966 19.5213 36.5614 19.5738 36.3933 19.5738C36.257 19.5738 36.1267 19.555 36.0175 19.4646C35.8915 19.3617 35.8516 19.1958 35.8516 19.0153C35.8516 18.8263 35.9146 18.6477 36.0867 18.5511C36.2064 18.4819 36.3681 18.4546 36.5152 18.4546C36.6622 18.4546 36.805 18.4799 36.9541 18.5218V18.0367H37.078V19.5444H36.9772Z" fill="#939598"/>
<path d="M36.9541 18.6394H37.2029V18.4655L37.0395 18.4057L36.9541 18.6394ZM36.9541 19.3742L37.0074 19.6173L37.2029 19.5744V19.3742H36.9541ZM36.9772 19.5444L36.7318 19.5854L36.7665 19.7933H36.9772V19.5444ZM36.9667 19.4813L37.2121 19.4404L37.1684 19.1784L36.9098 19.2391L36.9667 19.4813ZM36.0175 19.4646L36.1761 19.2729L36.1749 19.272L36.0175 19.4646ZM36.0867 18.5511L36.2085 18.7682L36.2113 18.7665L36.0867 18.5511ZM36.9541 18.5218L36.8866 18.7613L37.2029 18.8504V18.5218H36.9541ZM36.9541 18.0367V17.7879H36.7053V18.0367H36.9541ZM37.078 18.0367H37.3268V17.7879H37.078V18.0367ZM37.078 19.5444V19.7933H37.3268V19.5444H37.078ZM37.0395 18.4057C36.8758 18.3459 36.6951 18.3191 36.5257 18.3191V18.8167C36.6461 18.8167 36.7678 18.8362 36.8686 18.8731L37.0395 18.4057ZM36.5257 18.3191C36.324 18.3191 36.1182 18.3511 35.9618 18.4759C35.7921 18.6112 35.735 18.8096 35.735 19.0153H36.2327C36.2327 18.8977 36.2628 18.8724 36.2722 18.8649C36.2949 18.8467 36.36 18.8167 36.5257 18.8167V18.3191ZM35.735 19.0153C35.735 19.2025 35.7783 19.3879 35.912 19.5246C36.0469 19.6625 36.2287 19.705 36.4038 19.705V19.2073C36.3017 19.2073 36.2736 19.1826 36.2677 19.1766C36.2608 19.1695 36.2327 19.1346 36.2327 19.0153H35.735ZM36.4038 19.705C36.6013 19.705 36.821 19.6582 37.0074 19.6173L36.9007 19.1312C36.705 19.1742 36.5382 19.2073 36.4038 19.2073V19.705ZM37.2029 19.3742V18.6394H36.7053V19.3742H37.2029ZM37.2227 19.5035L37.2121 19.4404L36.7213 19.5223L36.7318 19.5854L37.2227 19.5035ZM36.9098 19.2391C36.7327 19.2807 36.527 19.325 36.3933 19.325V19.8227C36.5957 19.8227 36.8605 19.7619 37.0236 19.7236L36.9098 19.2391ZM36.3933 19.325C36.2758 19.325 36.2177 19.3074 36.176 19.2729L35.8589 19.6564C36.0356 19.8025 36.2382 19.8227 36.3933 19.8227V19.325ZM36.1749 19.272C36.1365 19.2406 36.1004 19.1706 36.1004 19.0153H35.6027C35.6027 19.221 35.6465 19.4828 35.86 19.6573L36.1749 19.272ZM36.1004 19.0153C36.1004 18.8767 36.1442 18.8042 36.2084 18.7681L35.965 18.3341C35.685 18.4912 35.6027 18.776 35.6027 19.0153H36.1004ZM36.2113 18.7665C36.2784 18.7277 36.3909 18.7034 36.5152 18.7034V18.2057C36.3454 18.2057 36.1345 18.236 35.9621 18.3357L36.2113 18.7665ZM36.5152 18.7034C36.633 18.7034 36.7524 18.7235 36.8866 18.7613L37.0215 18.2823C36.8576 18.2362 36.6914 18.2057 36.5152 18.2057V18.7034ZM37.2029 18.5218V18.0367H36.7053V18.5218H37.2029ZM36.9541 18.2856H37.078V17.7879H36.9541V18.2856ZM36.8292 18.0367V19.5444H37.3268V18.0367H36.8292ZM37.078 19.2956H36.9772V19.7933H37.078V19.2956Z" fill="white" mask="url(#path-20-inside-6_2120_31920)"/>
<mask id="path-22-inside-7_2120_31920" fill="white">
<path d="M38.8949 18.5723C38.729 18.5723 38.5358 18.6122 38.3447 18.6563V19.387C38.4791 19.4373 38.6282 19.4606 38.7731 19.4606C39.1405 19.4606 39.3148 19.3367 39.3148 19.013C39.3148 18.7088 39.1721 18.5723 38.8949 18.5723ZM39.212 19.4793C39.0923 19.5465 38.9306 19.5738 38.7857 19.5738C38.6282 19.5738 38.4707 19.5465 38.3111 19.4941L38.3048 19.5445H38.2207V18.0367H38.3447V18.5427C38.5148 18.5051 38.7436 18.4547 38.9053 18.4547C39.042 18.4547 39.1721 18.4755 39.2812 18.5638C39.4073 18.6668 39.4472 18.8326 39.4472 19.013C39.4472 19.2024 39.384 19.3807 39.212 19.4793Z"/>
</mask>
<path d="M38.8949 18.5723C38.729 18.5723 38.5358 18.6122 38.3447 18.6563V19.387C38.4791 19.4373 38.6282 19.4606 38.7731 19.4606C39.1405 19.4606 39.3148 19.3367 39.3148 19.013C39.3148 18.7088 39.1721 18.5723 38.8949 18.5723ZM39.212 19.4793C39.0923 19.5465 38.9306 19.5738 38.7857 19.5738C38.6282 19.5738 38.4707 19.5465 38.3111 19.4941L38.3048 19.5445H38.2207V18.0367H38.3447V18.5427C38.5148 18.5051 38.7436 18.4547 38.9053 18.4547C39.042 18.4547 39.1721 18.4755 39.2812 18.5638C39.4073 18.6668 39.4472 18.8326 39.4472 19.013C39.4472 19.2024 39.384 19.3807 39.212 19.4793Z" fill="#939598"/>
<path d="M38.3447 18.6563L38.2887 18.4138L38.0958 18.4583V18.6563H38.3447ZM38.3447 19.387H38.0958V19.5595L38.2574 19.62L38.3447 19.387ZM39.212 19.4793L39.3338 19.6963L39.3357 19.6952L39.212 19.4793ZM38.3111 19.4941L38.3889 19.2577L38.1019 19.1633L38.0642 19.4631L38.3111 19.4941ZM38.3048 19.5445V19.7934H38.5243L38.5517 19.5755L38.3048 19.5445ZM38.2207 19.5445H37.9719V19.7934H38.2207V19.5445ZM38.2207 18.0367V17.7879H37.9719V18.0367H38.2207ZM38.3447 18.0367H38.5935V17.7879H38.3447V18.0367ZM38.3447 18.5427H38.0958V18.8525L38.3983 18.7857L38.3447 18.5427ZM39.2812 18.5638L39.4386 18.3711L39.4377 18.3704L39.2812 18.5638ZM38.8949 18.3235C38.6968 18.3235 38.4775 18.3703 38.2887 18.4138L38.4006 18.8987C38.594 18.8541 38.7611 18.8211 38.8949 18.8211V18.3235ZM38.0958 18.6563V19.387H38.5935V18.6563H38.0958ZM38.2574 19.62C38.4237 19.6823 38.6029 19.7094 38.7731 19.7094V19.2118C38.6535 19.2118 38.5346 19.1924 38.432 19.154L38.2574 19.62ZM38.7731 19.7094C38.9747 19.7094 39.1806 19.6775 39.337 19.5526C39.5066 19.4172 39.5636 19.2187 39.5636 19.013H39.066C39.066 19.131 39.0358 19.1563 39.0265 19.1637C39.0039 19.1818 38.9389 19.2118 38.7731 19.2118V19.7094ZM39.5636 19.013C39.5636 18.8265 39.5202 18.6415 39.387 18.5049C39.2525 18.3669 39.0709 18.3235 38.8949 18.3235V18.8211C38.9961 18.8211 39.0244 18.8459 39.0306 18.8522C39.0381 18.8599 39.066 18.8953 39.066 19.013H39.5636ZM39.0902 19.2624C39.0215 19.3009 38.9073 19.325 38.7857 19.325V19.8227C38.9538 19.8227 39.163 19.7922 39.3338 19.6963L39.0902 19.2624ZM38.7857 19.325C38.6575 19.325 38.5263 19.3029 38.3889 19.2577L38.2334 19.7304C38.4151 19.7902 38.5988 19.8227 38.7857 19.8227V19.325ZM38.0642 19.4631L38.0579 19.5136L38.5517 19.5755L38.558 19.525L38.0642 19.4631ZM38.3048 19.2957H38.2207V19.7934H38.3048V19.2957ZM38.4695 19.5445V18.0367H37.9719V19.5445H38.4695ZM38.2207 18.2856H38.3447V17.7879H38.2207V18.2856ZM38.0958 18.0367V18.5427H38.5935V18.0367H38.0958ZM38.3983 18.7857C38.5783 18.7459 38.7769 18.7035 38.9053 18.7035V18.2058C38.7103 18.2058 38.4513 18.2643 38.291 18.2997L38.3983 18.7857ZM38.9053 18.7035C39.0201 18.7035 39.081 18.7219 39.1246 18.7572L39.4377 18.3704C39.2631 18.229 39.0638 18.2058 38.9053 18.2058V18.7035ZM39.1237 18.7565C39.1623 18.788 39.1983 18.8578 39.1983 19.013H39.696C39.696 18.8073 39.6523 18.5457 39.4386 18.3711L39.1237 18.7565ZM39.1983 19.013C39.1983 19.1512 39.1548 19.2253 39.0883 19.2634L39.3357 19.6952C39.6132 19.5362 39.696 19.2536 39.696 19.013H39.1983Z" fill="white" mask="url(#path-22-inside-7_2120_31920)"/>
<mask id="path-24-inside-8_2120_31920" fill="white">
<path d="M39.6111 19.9519V19.8365C39.6719 19.8427 39.7288 19.847 39.7686 19.847C39.922 19.847 40.0142 19.8028 40.1003 19.6285L40.1403 19.5446L39.5859 18.484H39.7288L40.2034 19.3995H40.2117L40.6632 18.484H40.8039L40.2075 19.6748C40.0983 19.8911 39.9807 19.9624 39.7644 19.9624C39.716 19.9624 39.6636 19.9583 39.6111 19.9519Z"/>
</mask>
<path d="M39.6111 19.9519V19.8365C39.6719 19.8427 39.7288 19.847 39.7686 19.847C39.922 19.847 40.0142 19.8028 40.1003 19.6285L40.1403 19.5446L39.5859 18.484H39.7288L40.2034 19.3995H40.2117L40.6632 18.484H40.8039L40.2075 19.6748C40.0983 19.8911 39.9807 19.9624 39.7644 19.9624C39.716 19.9624 39.6636 19.9583 39.6111 19.9519Z" fill="#939598"/>
<path d="M39.6111 19.9519H39.3622V20.1723L39.581 20.1989L39.6111 19.9519ZM39.6111 19.8365L39.6361 19.589L39.3622 19.5613V19.8365H39.6111ZM40.1003 19.6285L40.3234 19.7387L40.325 19.7354L40.1003 19.6285ZM40.1403 19.5446L40.3649 19.6515L40.4183 19.5394L40.3608 19.4293L40.1403 19.5446ZM39.5859 18.484V18.2352H39.1751L39.3654 18.5993L39.5859 18.484ZM39.7288 18.484L39.9497 18.3695L39.88 18.2352H39.7288V18.484ZM40.2034 19.3995L39.9825 19.5141L40.0521 19.6484H40.2034V19.3995ZM40.2117 19.3995V19.6484H40.3665L40.4349 19.5096L40.2117 19.3995ZM40.6632 18.484V18.2352H40.5084L40.44 18.374L40.6632 18.484ZM40.8039 18.484L41.0264 18.5954L41.2068 18.2352H40.8039V18.484ZM40.2075 19.6748L40.4296 19.787L40.43 19.7862L40.2075 19.6748ZM39.8599 19.9519V19.8365H39.3622V19.9519H39.8599ZM39.586 20.0841C39.6477 20.0903 39.7153 20.0959 39.7686 20.0959V19.5982C39.7422 19.5982 39.6961 19.595 39.6361 19.589L39.586 20.0841ZM39.7686 20.0959C39.8675 20.0959 39.982 20.0821 40.0908 20.0146C40.1985 19.9478 40.2695 19.8478 40.3234 19.7387L39.8772 19.5183C39.8614 19.5504 39.8488 19.5691 39.8402 19.5798C39.836 19.585 39.833 19.5879 39.8313 19.5895C39.8296 19.591 39.8287 19.5916 39.8286 19.5916C39.8285 19.5917 39.8282 19.5919 39.8273 19.5922C39.8264 19.5926 39.8242 19.5934 39.8201 19.5943C39.8113 19.5962 39.7957 19.5982 39.7686 19.5982V20.0959ZM40.325 19.7354L40.3649 19.6515L39.9156 19.4376L39.8757 19.5215L40.325 19.7354ZM40.3608 19.4293L39.8065 18.3687L39.3654 18.5993L39.9198 19.6598L40.3608 19.4293ZM39.5859 18.7328H39.7288V18.2352H39.5859V18.7328ZM39.5079 18.5985L39.9825 19.5141L40.4243 19.285L39.9497 18.3695L39.5079 18.5985ZM40.2034 19.6484H40.2117V19.1507H40.2034V19.6484ZM40.4349 19.5096L40.8863 18.5941L40.44 18.374L39.9885 19.2895L40.4349 19.5096ZM40.6632 18.7328H40.8039V18.2352H40.6632V18.7328ZM40.5814 18.3726L39.985 19.5634L40.43 19.7862L41.0264 18.5954L40.5814 18.3726ZM39.9854 19.5627C39.9409 19.6509 39.9095 19.679 39.892 19.6901C39.8766 19.7 39.846 19.7136 39.7644 19.7136V20.2112C39.8991 20.2112 40.0355 20.1891 40.1602 20.1093C40.283 20.0308 40.365 19.915 40.4296 19.787L39.9854 19.5627ZM39.7644 19.7136C39.7293 19.7136 39.6875 19.7105 39.6411 19.7049L39.581 20.1989C39.6398 20.206 39.7028 20.2112 39.7644 20.2112V19.7136Z" fill="white" mask="url(#path-24-inside-8_2120_31920)"/>
<path d="M43.0576 18.7221C43.1232 18.6614 43.1505 18.5836 43.1505 18.4841C43.1505 18.3581 43.1086 18.2615 43.0035 18.1985C42.8565 18.1102 42.6802 18.1061 42.3925 18.1061L43.0576 18.7221ZM43.0576 18.7221C43.0231 18.7089 42.9874 18.6985 42.9514 18.6903L42.9257 18.8025C42.9251 18.8027 42.9244 18.803 42.9237 18.8033V18.8116C42.9249 18.8119 42.9262 18.8121 42.9274 18.8124M43.0576 18.7221L42.9274 18.8124M42.9274 18.8124L42.9709 18.9184C43.0075 18.9034 43.0417 18.8862 43.073 18.8663C43.1704 18.9215 43.2283 19.0103 43.2283 19.1519L42.9274 18.8124ZM41.9762 18.8153V18.8393V18.9397V19.3116V19.4201H41.9037V18.2305H41.9762V18.337V18.7149V18.8153ZM43.0081 19.339C42.9609 19.369 42.9093 19.3881 42.8406 19.4001C42.8493 19.3971 42.8577 19.3938 42.8659 19.3902C42.9159 19.3682 42.9609 19.3339 42.9912 19.282C43.0204 19.2319 43.0293 19.1768 43.0293 19.1246C43.0293 19.0672 43.017 19.0106 42.9846 18.9611C43.0162 18.975 43.0395 18.9909 43.0563 19.0081C43.0827 19.0352 43.1039 19.0765 43.1039 19.1519C43.1039 19.2061 43.0941 19.242 43.0804 19.2676C43.0671 19.2926 43.0459 19.3157 43.0099 19.3378L43.0099 19.3378L43.0081 19.339ZM42.7993 18.8393C42.7658 18.8308 42.7296 18.8252 42.692 18.8217C42.7275 18.8147 42.7602 18.8052 42.7895 18.7921C42.7928 18.7906 42.796 18.7891 42.7993 18.7875V18.8033V18.8116V18.8393ZM42.9961 18.6045C42.9827 18.624 42.961 18.6449 42.9243 18.6654C42.9463 18.6199 42.9536 18.5711 42.9536 18.5239C42.9536 18.4647 42.9411 18.4058 42.9065 18.3543C42.8715 18.3026 42.8225 18.2709 42.7722 18.2515C42.7664 18.2492 42.7605 18.2471 42.7545 18.2451C42.8305 18.2558 42.8878 18.2741 42.9395 18.3052L42.9396 18.3052C42.9984 18.3405 43.0261 18.3905 43.0261 18.4841C43.0261 18.5421 43.0142 18.5783 42.9961 18.6045Z" fill="#939598" stroke="white" stroke-width="0.248823"/>
<path d="M44.6096 19.099V18.9848L44.6096 18.9848V18.91V18.8909C44.6096 18.8365 44.6007 18.7804 44.5736 18.7288C44.5457 18.6755 44.5032 18.6361 44.4517 18.6087C44.4492 18.6074 44.4466 18.6061 44.444 18.6048C44.4959 18.6172 44.5356 18.6339 44.564 18.6541L44.5644 18.6544C44.6345 18.7041 44.6568 18.7691 44.6568 18.9161V19.4185L44.6446 19.3273L44.6096 19.3359V19.3046V19.099ZM43.6865 19.2248C43.6865 19.3004 43.7138 19.3761 43.7846 19.4278C43.7578 19.4196 43.7349 19.4089 43.7163 19.3953L43.7164 19.3953L43.715 19.3943C43.6764 19.3669 43.6498 19.3176 43.6498 19.2396C43.6498 19.1673 43.6756 19.1113 43.7329 19.0769C43.7278 19.0836 43.7231 19.0908 43.7187 19.0983C43.6944 19.14 43.6865 19.1843 43.6865 19.2248Z" fill="#939598" stroke="white" stroke-width="0.248823"/>
<path d="M45.3338 18.7629V19.4197H45.2865V18.608H45.2971L45.3124 18.7055L45.3338 18.7V18.7629Z" fill="#939598" stroke="white" stroke-width="0.248823"/>
<path d="M46.9828 19.3678L46.9828 19.3677L46.9805 19.3659C46.8949 19.2968 46.8588 19.1797 46.8588 19.0131C46.8588 18.8673 46.9061 18.7355 47.0174 18.6647L47.0174 18.6647L47.0186 18.664C47.0618 18.6358 47.1109 18.6162 47.1659 18.603C47.1292 18.6173 47.095 18.6359 47.0643 18.6596C46.9545 18.7441 46.9145 18.8713 46.9145 19.0154C46.9145 19.1444 46.9418 19.2662 47.0293 19.3532C47.0736 19.3973 47.1267 19.426 47.1852 19.4436C47.1034 19.4339 47.0342 19.4113 46.9828 19.3678Z" fill="#939598" stroke="white" stroke-width="0.248823"/>
<path d="M49.1256 19.3591L49.1256 19.3591L49.1249 19.3596C49.0923 19.3817 49.0552 19.399 49.0126 19.4124C49.0324 19.4018 49.0512 19.3896 49.0689 19.3757C49.176 19.2908 49.2118 19.164 49.2118 19.0237C49.2118 18.884 49.177 18.7553 49.074 18.6659C49.0482 18.6436 49.0199 18.6252 48.9894 18.6102C49.0421 18.6244 49.087 18.644 49.126 18.6697L49.1263 18.6699C49.223 18.7334 49.2676 18.8436 49.2676 19.0132C49.2676 19.1841 49.2213 19.2954 49.1256 19.3591ZM48.2969 19.3646C48.322 19.3859 48.3495 19.4035 48.379 19.418C48.327 19.4038 48.283 19.3846 48.2455 19.3594L48.2456 19.3594L48.2445 19.3587C48.1469 19.2946 48.101 19.1854 48.101 19.0154C48.101 18.8447 48.1472 18.7338 48.2445 18.6699L48.2445 18.6699L48.2455 18.6692C48.2779 18.6474 48.3152 18.6301 48.3583 18.6167C48.3381 18.6274 48.319 18.6397 48.3011 18.6539C48.1934 18.7389 48.1567 18.8659 48.1567 19.0069C48.1567 19.1473 48.1924 19.2759 48.2969 19.3646Z" fill="#939598" stroke="white" stroke-width="0.248823"/>
<path d="M51.1025 19.4495C50.9333 19.4495 50.7764 19.4207 50.6653 19.3291C50.5358 19.2214 50.4857 19.0478 50.4857 18.8241C50.4857 18.6334 50.5462 18.432 50.7212 18.3175C50.8634 18.225 51.0483 18.2012 51.2621 18.2012C51.3828 18.2012 51.5067 18.2074 51.6397 18.2171V18.2263C51.5165 18.2183 51.3849 18.2126 51.2748 18.2126C51.0585 18.2126 50.8768 18.2529 50.7489 18.3614C50.6163 18.4738 50.5666 18.6373 50.5666 18.8241C50.5666 19.0111 50.6112 19.1706 50.7206 19.2827C50.8307 19.3954 50.9847 19.4381 51.1551 19.4381C51.3195 19.4381 51.4961 19.4124 51.6711 19.3792V19.3813C51.4809 19.4182 51.2923 19.4495 51.1025 19.4495Z" fill="#939598" stroke="white" stroke-width="0.248823"/>
<path d="M52.1829 18.8788L52.1667 19.0176H52.1774L52.1801 19.089C52.184 19.1911 52.2149 19.2993 52.3137 19.3764C52.3427 19.399 52.3756 19.4172 52.4118 19.4316C52.3469 19.4178 52.2942 19.3951 52.2514 19.3599C52.1661 19.2888 52.1264 19.1756 52.1264 19.0127C52.1264 18.8825 52.1659 18.7586 52.2526 18.6835C52.2115 18.7415 52.191 18.8094 52.1829 18.8788ZM53.1838 18.9598H53.1484L53.1448 18.8871C53.1413 18.8169 53.125 18.7494 53.0887 18.6917C53.1515 18.7523 53.1753 18.8348 53.1838 18.9598Z" fill="#939598" stroke="white" stroke-width="0.248823"/>
<path d="M53.7986 18.7629V19.4197H53.7514V18.608H53.762L53.7773 18.7055L53.7986 18.7V18.7629Z" fill="#939598" stroke="white" stroke-width="0.248823"/>
<path d="M55.5275 19.3551L55.5276 19.3551L55.525 19.3514C55.4927 19.3048 55.4695 19.231 55.4695 19.101V18.704V18.5796H55.4606L55.4689 18.4958L55.4894 18.2866H55.5147V18.4836V18.5796V18.608V18.704V19.0443C55.5147 19.1268 55.52 19.2199 55.555 19.297C55.5912 19.3785 55.6528 19.4239 55.7206 19.4473C55.6228 19.4395 55.5604 19.4063 55.5275 19.3551Z" fill="#939598" stroke="white" stroke-width="0.248823"/>
<path d="M56.5174 19.4197L56.4701 19.4197V18.608H56.4808L56.4965 18.7083L56.5174 18.7024V18.7609V19.4197Z" fill="#939598" stroke="white" stroke-width="0.248823"/>
<path d="M58.3615 19.099V19.0432L58.3615 19.0432V18.91V18.8909C58.3615 18.8365 58.3526 18.7804 58.3256 18.7288C58.2976 18.6754 58.2551 18.6361 58.2037 18.6087C58.2011 18.6074 58.1985 18.606 58.1959 18.6047C58.2478 18.6172 58.2876 18.6339 58.316 18.6541L58.3164 18.6544C58.3865 18.7041 58.4088 18.769 58.4088 18.9161V19.4173L58.3969 19.3272L58.3615 19.3359V19.3046V19.099ZM57.4385 19.2248C57.4385 19.3004 57.4658 19.376 57.5365 19.4278C57.5098 19.4196 57.4868 19.4089 57.4683 19.3953L57.4683 19.3953L57.467 19.3943C57.4283 19.3669 57.4018 19.3176 57.4018 19.2396C57.4018 19.1674 57.4275 19.1114 57.4848 19.077C57.4797 19.0837 57.475 19.0908 57.4706 19.0983C57.4463 19.14 57.4385 19.1843 57.4385 19.2248Z" fill="#939598" stroke="white" stroke-width="0.248823"/>
<path d="M59.0385 18.1612H59.0857V19.42H59.0385V18.1612Z" fill="#939598" stroke="white" stroke-width="0.248823"/>
</g>
</svg>
