<svg width="114" height="102" viewBox="0 0 114 102" fill="none" xmlns="http://www.w3.org/2000/svg">
<path d="M49.1802 92.9397C52.4005 98.5899 61.0781 98.5899 64.2984 92.9397L107.263 17.5569C110.295 12.236 106.162 5.8175 99.7028 5.8175H13.7772C7.31753 5.8175 3.18473 12.236 6.21737 17.5569L49.1802 92.9397Z" fill="black" fill-opacity="0.44"/>
<path d="M46.8147 94.284C51.0781 101.765 62.3967 101.765 66.6601 94.2842L109.624 18.9014C113.848 11.4906 107.918 3.10034 99.7009 3.10034H13.7753C5.55863 3.10034 -0.372 11.4906 3.85193 18.9013L46.8147 94.284Z" stroke="black" stroke-opacity="0.44" stroke-width="4"/>
<path d="M61.8933 91.3643C59.6957 95.4923 53.7746 95.4923 51.5769 91.3643L8.61415 10.6522C6.54434 6.76489 9.36483 2.07581 13.7723 2.07581H99.6979C104.105 2.07581 106.925 6.76489 104.856 10.6522L61.8933 91.3643Z" fill="url(#paint0_linear_2002_187)"/>
<path d="M61.8933 91.3643C59.6957 95.4923 53.7746 95.4923 51.5769 91.3643L8.61415 10.6522C6.54434 6.76489 9.36483 2.07581 13.7723 2.07581H99.6979C104.105 2.07581 106.925 6.76489 104.856 10.6522L61.8933 91.3643Z" fill="url(#paint1_linear_2002_187)" fill-opacity="0.5"/>
<path d="M61.8933 91.3643C59.6957 95.4923 53.7746 95.4923 51.5769 91.3643L8.61415 10.6522C6.54434 6.76489 9.36483 2.07581 13.7723 2.07581H99.6979C104.105 2.07581 106.925 6.76489 104.856 10.6522L61.8933 91.3643Z" stroke="url(#paint2_linear_2002_187)" stroke-width="4"/>
<defs>
<linearGradient id="paint0_linear_2002_187" x1="105.548" y1="48.268" x2="7.92188" y2="48.268" gradientUnits="userSpaceOnUse">
<stop stop-color="#00EC9E"/>
<stop offset="1" stop-color="#8E6EFA"/>
</linearGradient>
<linearGradient id="paint1_linear_2002_187" x1="56.7351" y1="-0.641385" x2="56.7351" y2="97.1775" gradientUnits="userSpaceOnUse">
<stop stop-opacity="0"/>
<stop offset="1"/>
</linearGradient>
<linearGradient id="paint2_linear_2002_187" x1="56.7351" y1="-0.641385" x2="56.7351" y2="97.3929" gradientUnits="userSpaceOnUse">
<stop stop-color="#F0B51D"/>
<stop offset="0.203125" stop-color="#FFE609"/>
<stop offset="0.369792" stop-color="#96491D"/>
<stop offset="0.489583" stop-color="#FFE600"/>
<stop offset="0.645833" stop-color="#AB3E00"/>
<stop offset="0.869792" stop-color="#F5C106"/>
<stop offset="1" stop-color="#EE8F01"/>
</linearGradient>
</defs>
</svg>
