<svg width="17" height="17" viewBox="0 0 17 17" fill="none" xmlns="http://www.w3.org/2000/svg">
<path d="M8.01254 13.0403L4.25041 15.9128C4.064 16.0653 3.86064 16.1371 3.64034 16.1283C3.42003 16.1202 3.22515 16.0568 3.05568 15.9382C2.88622 15.8196 2.75505 15.6586 2.66218 15.4552C2.56864 15.2519 2.56423 15.0316 2.64897 14.7943L4.09789 10.0917L0.412026 7.47341C0.208668 7.33784 0.081569 7.1599 0.0307294 6.9396C-0.0201101 6.71929 -0.0116368 6.51594 0.0561493 6.32952C0.123935 6.14311 0.242561 5.97771 0.412026 5.83333C0.581491 5.68962 0.784849 5.61777 1.0221 5.61777H5.57224L7.04659 0.737173C7.13132 0.499922 7.26283 0.317578 7.4411 0.19014C7.6187 0.0633802 7.80918 0 8.01254 0C8.2159 0 8.40638 0.0633802 8.58398 0.19014C8.76225 0.317578 8.89376 0.499922 8.97849 0.737173L10.4528 5.61777H15.003C15.2402 5.61777 15.4436 5.68962 15.6131 5.83333C15.7825 5.97771 15.9011 6.14311 15.9689 6.32952C16.0367 6.51594 16.0452 6.71929 15.9944 6.9396C15.9435 7.1599 15.8164 7.33784 15.6131 7.47341L11.9272 10.0917L13.3761 14.7943C13.4608 15.0316 13.4568 15.2519 13.3639 15.4552C13.2704 15.6586 13.1389 15.8196 12.9694 15.9382C12.7999 16.0568 12.605 16.1202 12.3847 16.1283C12.1644 16.1371 11.9611 16.0653 11.7747 15.9128L8.01254 13.0403Z" fill="#FFD769"/>
</svg>
