<svg width="68" height="25" viewBox="0 0 68 25" fill="none" xmlns="http://www.w3.org/2000/svg">
<path opacity="0.5" d="M0.606894 21.1152H1.11633L0.640856 23.085C0.572931 23.3793 0.584252 23.5944 0.686139 23.7416C0.788026 23.8887 0.957838 23.9567 1.22954 23.9567C1.48991 23.9567 1.70501 23.8887 1.87482 23.7416C2.04463 23.5944 2.16916 23.368 2.23708 23.085L2.71256 21.1152H3.22199L2.74652 23.1303C2.63331 23.5718 2.45218 23.9001 2.18048 24.1152C1.90878 24.3303 1.55784 24.4435 1.12765 24.4435C0.69746 24.4435 0.391799 24.3303 0.233309 24.1152C0.0748179 23.9001 0.0408559 23.5718 0.154064 23.1303L0.606894 21.1152ZM3.61822 24.3642L4.16161 22.1001C4.19557 22.168 4.22954 22.2359 4.2635 22.2925C4.29746 22.3491 4.34274 22.417 4.38803 22.4736L5.96161 24.5001L6.76539 21.1152H6.28992L5.75784 23.368C5.71256 23.2887 5.66727 23.2208 5.63331 23.1529C5.59935 23.0963 5.55407 23.0284 5.50878 22.9831L3.96916 20.9906L3.16539 24.3755H3.61822V24.3642ZM7.21822 24.3642L7.98803 21.1152H7.4786L6.69746 24.3642H7.21822ZM8.47482 24.3642L8.83709 22.8359H10.0824L10.1956 22.3718H8.93897L9.13143 21.568H10.3767L10.4786 21.1265H8.71256L7.93143 24.3755H8.47482V24.3642ZM10.8069 24.3642L11.588 21.1152H11.0786L10.2975 24.3642H10.8069ZM13.3201 24.3642L13.4333 23.8887H12.1767L12.4258 22.8359H13.6824L13.7956 22.3718H12.539L12.7314 21.5567H13.9767L14.0786 21.1152H12.3126L11.5314 24.3642H13.3201ZM14.5994 24.3642H14.7352C15.1088 24.3642 15.3918 24.3416 15.5843 24.2963C15.7654 24.251 15.9465 24.1718 16.105 24.0586C16.3201 23.9114 16.5126 23.7303 16.6597 23.5152C16.8069 23.2887 16.9088 23.0284 16.988 22.7453C17.056 22.451 17.0673 22.2019 17.0333 21.9755C16.988 21.7491 16.8975 21.5567 16.7503 21.4208C16.6371 21.3076 16.5012 21.2397 16.3201 21.1831C16.1503 21.1378 15.8333 21.1152 15.3805 21.1152H14.6899L13.9201 24.3642H14.5994ZM15.0861 21.5906H15.2786H15.4597C15.7314 21.5906 15.9126 21.6019 16.0371 21.6359C16.1503 21.6699 16.2409 21.7265 16.3201 21.8057C16.4107 21.9076 16.4786 22.0435 16.5012 22.1906C16.5239 22.3491 16.5126 22.5303 16.456 22.734C16.3994 22.9491 16.3314 23.1303 16.2409 23.2774C16.139 23.4359 16.0258 23.5604 15.8786 23.6736C15.7654 23.7529 15.6522 23.7982 15.5277 23.8321C15.4031 23.8661 15.222 23.8774 14.9843 23.8774H14.5541L15.0861 21.5906ZM19.5578 22.9038H19.6597C19.8862 22.9038 20.056 22.8925 20.1805 22.8699C20.2937 22.8472 20.4069 22.8019 20.4975 22.7453C20.6107 22.6774 20.7126 22.5642 20.8031 22.4397C20.8824 22.3152 20.9503 22.168 20.9843 22.0208C21.0182 21.8623 21.0295 21.7265 20.9956 21.602C20.9729 21.4774 20.9163 21.3642 20.8371 21.2963C20.7692 21.2397 20.6899 21.1944 20.5767 21.1718C20.4748 21.1491 20.305 21.1378 20.0786 21.1378H19.3088L18.5277 24.3869H19.0145L19.3654 22.9265H19.5578V22.9038ZM19.7163 21.568H19.8522C20.1239 21.568 20.305 21.6019 20.3843 21.6699C20.4748 21.7378 20.4975 21.8623 20.4522 22.0321C20.4182 22.1906 20.339 22.3038 20.2258 22.3718C20.1126 22.4397 19.9201 22.4623 19.6258 22.4623H19.4899L19.7163 21.568ZM23.2824 24.3642L22.5578 20.9793L20.2145 24.3642H20.7578L21.3239 23.5265H22.5805L22.739 24.3642H23.2824ZM22.1163 22.3491C22.1503 22.2925 22.1843 22.2359 22.2182 22.1793C22.2522 22.1227 22.2862 22.0548 22.3201 21.9869C22.3201 22.0661 22.3201 22.134 22.3314 22.1906C22.3314 22.2472 22.3428 22.3038 22.3541 22.3491L22.5012 23.0963H21.6182L22.1163 22.3491ZM24.5277 24.3642L24.8786 22.8812L26.3956 21.1152H25.8748L24.9352 22.2019C24.9012 22.2359 24.8673 22.2812 24.8333 22.3265C24.7994 22.3718 24.7654 22.4284 24.7314 22.4736C24.7201 22.417 24.7088 22.3718 24.6975 22.3265C24.6862 22.2812 24.6748 22.2472 24.6635 22.2133L24.2673 21.1152H23.7239L24.3692 22.8812L24.0182 24.3642H24.5277ZM28.8975 24.3642H29.3729L29.4182 20.9793L28.0145 23.0284C28.0031 23.051 27.9805 23.0736 27.9579 23.1189C27.856 23.2548 27.788 23.3793 27.7314 23.4699C27.7201 23.3567 27.7088 23.2661 27.6975 23.1869C27.6862 23.1076 27.6748 23.051 27.6635 23.0284L27.222 20.9793L25.6597 24.3642H26.1352L26.8597 22.7567C26.8937 22.6774 26.9277 22.5982 26.9503 22.5189C26.9729 22.4397 26.9956 22.3718 27.0182 22.3038C27.0182 22.3718 27.0296 22.4397 27.0296 22.5076C27.0409 22.5755 27.0522 22.6435 27.0748 22.7114L27.4824 24.4774L28.7277 22.7453C28.7843 22.6661 28.8296 22.5869 28.8748 22.5189C28.9201 22.451 28.9541 22.3718 28.988 22.3038C28.9767 22.3604 28.9767 22.4397 28.9654 22.5416C28.9428 22.6548 28.9428 22.7227 28.9428 22.7453L28.8975 24.3642ZM31.5579 24.3642L31.6711 23.8887H30.4258L30.6748 22.8359H31.9314L32.0446 22.3718H30.7994L30.9918 21.5567H32.2371L32.3503 21.1152H30.5843L29.8031 24.3642H31.5579ZM32.622 24.3642L33.1654 22.1001C33.1994 22.168 33.222 22.2359 33.2673 22.2925C33.3013 22.3491 33.3352 22.417 33.3805 22.4736L34.9541 24.5001L35.7579 21.1152H35.2824L34.739 23.368C34.6937 23.2887 34.6597 23.2208 34.6145 23.1529C34.5692 23.0963 34.5352 23.0284 34.4899 22.9831L32.9503 20.9906L32.1465 24.3755H32.622V24.3642ZM38.2371 21.568L38.339 21.1265H36.1428L36.0409 21.568H36.8786L36.2107 24.3755H36.7314L37.3994 21.568H38.2371ZM37.9428 23.7189C37.9428 23.9567 38.0107 24.1378 38.1465 24.2623C38.2937 24.3869 38.4975 24.4548 38.7692 24.4548C39.0862 24.4548 39.3692 24.3642 39.6069 24.1831C39.8333 24.002 39.9918 23.7529 40.0597 23.4472C40.1164 23.2321 40.0937 23.0623 40.0145 22.9152C39.9352 22.768 39.7541 22.6208 39.4711 22.4736C39.4598 22.4623 39.4371 22.4623 39.4145 22.451C39.0975 22.2812 38.9616 22.1001 39.0069 21.8963C39.0409 21.7718 39.0975 21.6699 39.1994 21.602C39.3013 21.5227 39.4145 21.4887 39.5503 21.4887C39.6522 21.4887 39.7314 21.5114 39.7994 21.5567C39.856 21.6019 39.9126 21.6812 39.9579 21.7831L40.4107 21.568C40.3881 21.3982 40.3088 21.2623 40.1843 21.1718C40.0484 21.0812 39.8673 21.0359 39.6296 21.0359C39.3465 21.0359 39.0975 21.1152 38.8824 21.285C38.6673 21.4435 38.5314 21.6699 38.4635 21.9303C38.4069 22.134 38.4296 22.3038 38.5088 22.451C38.5881 22.5982 38.7918 22.7453 39.0975 22.9265C39.1201 22.9378 39.1428 22.9491 39.188 22.9718C39.4598 23.1189 39.573 23.2887 39.5277 23.4812C39.4937 23.6284 39.4145 23.7416 39.3126 23.8321C39.1994 23.9227 39.0748 23.968 38.9164 23.968C38.7579 23.968 38.6333 23.9227 38.5428 23.8548C38.4522 23.7755 38.4069 23.6737 38.4069 23.5265L37.9428 23.7189ZM42.256 24.3642L43.0371 21.1152H42.5164L41.7352 24.3642H42.256ZM43.4673 24.3642L44.0107 22.1001C44.0447 22.168 44.0786 22.2359 44.1126 22.2925C44.1465 22.3491 44.1918 22.417 44.2258 22.4736L45.7994 24.5001L46.6031 21.1152H46.1277L45.5956 23.368C45.5503 23.2887 45.505 23.2208 45.4598 23.1529C45.4258 23.0963 45.3805 23.0284 45.3465 22.9831L43.8069 20.9906L42.9918 24.3755H43.4673V24.3642ZM49.0937 21.568L49.1956 21.1265H46.9994L46.8975 21.568H47.7352L47.0673 24.3755H47.5881L48.256 21.568H49.0937ZM50.5767 24.3642L50.6899 23.8887H49.4333L49.6824 22.8359H50.939L51.0522 22.3718H49.7956L49.9881 21.5567H51.2447L51.3579 21.1152H49.5918L48.8107 24.3642H50.5767ZM52.0598 22.9152L52.7616 24.3642H53.3503L52.6145 22.8812C52.8635 22.8472 53.0673 22.768 53.2145 22.6208C53.373 22.4736 53.4862 22.2699 53.5428 22.0095C53.5767 21.8623 53.5881 21.7152 53.5654 21.602C53.5428 21.4774 53.4862 21.3755 53.4069 21.2963C53.339 21.2284 53.2484 21.1831 53.1465 21.1604C53.0333 21.1378 52.8749 21.1152 52.6711 21.1152H51.9579L51.1767 24.3642H51.6635L52.0145 22.9152H52.0598ZM52.3541 21.568H52.4447C52.705 21.568 52.8749 21.6019 52.9541 21.6699C53.0333 21.7378 53.056 21.8736 53.0107 22.0435C52.9654 22.2133 52.8975 22.3265 52.7956 22.3831C52.6937 22.451 52.5013 22.485 52.2296 22.485H52.139L52.3541 21.568ZM54.1654 24.3642L54.5277 22.8359H55.7843L55.8975 22.3718H54.6409L54.8333 21.568H56.0786L56.1918 21.1265H54.4258L53.6447 24.3755H54.1654V24.3642ZM58.456 24.3642L57.7315 20.9793L55.3881 24.3642H55.9315L56.4975 23.5265H57.7541L57.9126 24.3642H58.456ZM57.3013 22.3491C57.3352 22.2925 57.3692 22.2359 57.4032 22.1793C57.4371 22.1227 57.4711 22.0548 57.505 21.9869C57.505 22.0661 57.5164 22.134 57.5164 22.1906C57.5164 22.2472 57.5277 22.3038 57.539 22.3491L57.6862 23.0963H56.8032L57.3013 22.3491ZM61.9654 21.3755C61.8296 21.2623 61.6937 21.1831 61.5352 21.1265C61.3767 21.0699 61.2069 21.0472 61.0258 21.0472C60.7881 21.0472 60.5616 21.0812 60.3352 21.1718C60.1201 21.251 59.905 21.3755 59.7126 21.534C59.5201 21.6925 59.3503 21.8736 59.2258 22.0887C59.09 22.3038 58.9994 22.5303 58.9428 22.768C58.8862 23.0057 58.8749 23.2321 58.9088 23.4359C58.9428 23.651 59.0107 23.8321 59.1239 23.9793C59.2484 24.1378 59.3956 24.2623 59.5767 24.3416C59.7692 24.4208 59.9843 24.4661 60.222 24.4661C60.4145 24.4661 60.5956 24.4321 60.7654 24.3869C60.9466 24.3416 61.105 24.2623 61.2749 24.1604L61.4107 23.5604C61.2296 23.6963 61.0371 23.7982 60.8447 23.8661C60.6635 23.934 60.4711 23.968 60.2899 23.968C59.9616 23.968 59.7239 23.8548 59.5654 23.6284C59.4069 23.402 59.373 23.1076 59.4635 22.7567C59.5541 22.3944 59.7239 22.1001 60.0069 21.8736C60.2786 21.6472 60.5843 21.534 60.9352 21.534C61.1164 21.534 61.2749 21.568 61.422 21.6359C61.5692 21.7038 61.6937 21.7944 61.8182 21.9189L61.9654 21.3755ZM63.6296 24.3642L63.7428 23.8887H62.4862L62.7352 22.8359H63.9918L64.105 22.3718H62.8484L63.0409 21.5567H64.2975L64.4107 21.1152H62.6447L61.8635 24.3642H63.6296Z" fill="white"/>
<path d="M52.4677 18.2849H48.9243L53.8488 0.5H57.3922L52.4677 18.2849ZM50.6224 1.06604C50.3733 0.726415 49.9997 0.556604 49.479 0.556604H30.0186L29.0563 4.03208H32.5997H46.762L45.7318 7.75661H31.5695V7.74529H28.0261L25.0941 18.3528H28.6375L30.6186 11.2321H46.5469C47.045 11.2321 47.5092 11.0623 47.9507 10.7226C48.3922 10.383 48.6752 9.96416 48.8224 9.46604L50.7922 2.34528C50.9167 1.82453 50.8714 1.40566 50.6224 1.06604ZM27.6526 0.545282H24.1092L20.1243 14.8774H5.95067L9.92425 0.545282H6.38086L1.92048 16.5868C1.78463 17.0849 1.82991 17.5038 2.07897 17.8434C2.3167 18.183 2.69029 18.3528 3.1884 18.3528H21.4601C22.1846 18.3528 22.8299 17.866 23.0224 17.1528L27.6526 0.545282Z" fill="#6D6E71"/>
<path opacity="0.2" d="M63.5053 0.533936L67.9883 9.44338L58.5581 18.3641L63.5053 0.533936Z" fill="white"/>
<path d="M60.3696 0.533936L64.8413 9.44338L55.4111 18.3641L60.3696 0.533936Z" fill="#6D6E71"/>
</svg>
