<svg width="48" height="23" viewBox="0 0 48 23" fill="none" xmlns="http://www.w3.org/2000/svg">
<g opacity="0.5" clip-path="url(#clip0_2120_31891)">
<path fill-rule="evenodd" clip-rule="evenodd" d="M16.6992 18.6249L19.0724 4.48401H22.9186L20.5454 18.6249H16.6992Z" fill="white"/>
<path fill-rule="evenodd" clip-rule="evenodd" d="M34.3767 4.81244C33.6402 4.5658 32.4945 4.23694 30.9396 4.23694C27.1753 4.23694 24.5566 6.12787 24.4748 8.92317C24.4748 10.8963 26.4388 12.0473 27.83 12.705C29.3848 13.445 29.8758 13.856 29.8758 14.5138C29.8758 15.4181 28.6483 15.8292 27.5845 15.8292C26.0296 15.8292 25.2113 15.6648 23.9838 15.0893L23.4109 14.9248L22.9199 18.049C23.8201 18.4601 25.4568 18.7889 27.1753 18.7889C31.1851 18.7889 33.8038 16.898 33.8857 14.0205C33.8857 12.3762 32.8218 11.143 30.6123 10.1564C29.303 9.49867 28.4846 9.0876 28.4846 8.42988C28.4846 7.85438 29.2211 7.19666 30.6941 7.19666C31.9217 7.19666 32.8218 7.44331 33.5583 7.68995L33.8857 7.85438L34.3767 4.81244Z" fill="white"/>
<path fill-rule="evenodd" clip-rule="evenodd" d="M44.2788 4.48401H41.251C40.3508 4.48401 39.6961 4.73065 39.287 5.63501L33.5586 18.6249H37.5685C37.5685 18.6249 38.2231 16.8984 38.3868 16.4873C38.8778 16.4873 42.724 16.4873 43.2968 16.4873C43.4605 16.9806 43.7878 18.6249 43.7878 18.6249H47.3067L44.2788 4.48401ZM39.5325 13.6098C39.8598 12.7877 41.0055 9.66353 41.0055 9.66353C41.0055 9.66353 41.3328 8.84138 41.5783 8.26588L41.8238 9.4991C41.8238 9.4991 42.5603 12.8699 42.724 13.6098H39.5325Z" fill="white"/>
<path fill-rule="evenodd" clip-rule="evenodd" d="M13.4265 4.48401L9.744 14.1031L9.33483 12.13C8.59832 9.91017 6.47064 7.44373 4.01562 6.21051L7.45265 18.6249H11.4625L17.5182 4.48401H13.4265Z" fill="white"/>
<path fill-rule="evenodd" clip-rule="evenodd" d="M6.22524 4.48572H0.0876933L0.00585938 4.81458C4.83406 5.96558 8.02558 8.76087 9.33493 12.1317L7.94375 5.71894C7.78008 4.81458 7.04358 4.48572 6.22524 4.48572Z" fill="#B3B3B3"/>
</g>
<defs>
<clipPath id="clip0_2120_31891">
<rect width="47.3" height="22" fill="white" transform="translate(0.00585938 0.5)"/>
</clipPath>
</defs>
</svg>
