<svg width="727" height="730" viewBox="0 0 727 730" fill="none" xmlns="http://www.w3.org/2000/svg">
<path d="M363.384 22.747C551.317 22.747 703.669 175.029 703.669 362.874C703.669 550.719 551.317 703.001 363.384 703.001C175.451 703.001 23.0991 550.719 23.0991 362.874C23.0991 175.029 175.451 22.747 363.384 22.747ZM363.384 0.376996C338.843 0.372432 314.363 2.83962 290.317 7.7412C243.913 17.2511 199.836 35.798 160.6 62.324C102.305 101.655 56.6728 157.04 29.2313 221.768C19.9531 243.706 12.8702 266.508 8.08634 289.84C-1.73711 338.034 -1.73711 387.713 8.08634 435.907C17.6007 482.289 36.1561 526.346 62.6945 565.564C102.05 623.835 157.469 669.446 222.235 696.871C244.183 706.145 266.996 713.225 290.339 718.006C338.555 727.825 388.257 727.825 436.474 718.006C482.877 708.497 526.954 689.95 566.191 663.424C624.489 624.086 670.121 568.693 697.559 503.957C706.837 482.019 713.92 459.217 718.704 435.885C728.528 387.691 728.528 338.012 718.704 289.818C709.19 243.436 690.634 199.38 664.096 160.161C624.74 101.891 569.321 56.279 504.555 28.854C482.607 19.5801 459.795 12.5005 436.452 7.71882C412.404 2.82477 387.925 0.36507 363.384 0.376996Z" fill="url(#paint0_linear_4003_2078)"/>
<path d="M363.385 715.975C276.068 715.859 191.906 683.331 127.225 624.7C62.5441 566.069 21.9559 485.515 13.3336 398.665C4.71135 311.814 28.6697 224.858 80.5611 154.665C132.452 84.4722 208.578 36.0457 294.17 18.7799C379.762 1.51403 468.719 16.6397 543.785 61.2226C618.85 105.806 674.674 176.668 700.426 260.063C726.178 343.458 720.023 433.441 683.154 512.557C646.286 591.672 581.333 654.28 500.895 688.236C457.392 706.635 410.622 716.069 363.385 715.975ZM363.385 46.3025C188.747 46.3025 46.6669 188.316 46.6669 362.874C46.6669 537.431 188.747 679.445 363.385 679.445C538.024 679.445 680.104 537.431 680.104 362.874C680.104 188.316 538.024 46.3025 363.385 46.3025Z" fill="#001F30"/>
<path style="mix-blend-mode:screen" d="M384.861 31.4008C387.351 19.5292 379.741 7.88772 367.864 5.39894C355.987 2.91017 344.34 10.5165 341.85 22.3882C339.36 34.2599 346.97 45.9013 358.847 48.3901C370.725 50.8789 382.371 43.2725 384.861 31.4008Z" fill="url(#paint1_radial_4003_2078)"/>
<path d="M363.384 41.5575C370.318 41.5575 375.939 35.5042 375.939 28.037C375.939 20.5699 370.318 14.5166 363.384 14.5166C356.449 14.5166 350.828 20.5699 350.828 28.037C350.828 35.5042 356.449 41.5575 363.384 41.5575Z" fill="#333333"/>
<path d="M363.384 39.6157C370.318 39.6157 375.939 33.9971 375.939 27.0662C375.939 20.1352 370.318 14.5166 363.384 14.5166C356.449 14.5166 350.828 20.1352 350.828 27.0662C350.828 33.9971 356.449 39.6157 363.384 39.6157Z" fill="white"/>
<path d="M363.384 37.2271C368.296 37.2271 372.278 32.9625 372.278 27.7019C372.278 22.4413 368.296 18.1768 363.384 18.1768C358.472 18.1768 354.49 22.4413 354.49 27.7019C354.49 32.9625 358.472 37.2271 363.384 37.2271Z" fill="#333333"/>
<path d="M363.384 35.9564C368.296 35.9564 372.278 31.9763 372.278 27.0666C372.278 22.1569 368.296 18.1768 363.384 18.1768C358.472 18.1768 354.49 22.1569 354.49 27.0666C354.49 31.9763 358.472 35.9564 363.384 35.9564Z" fill="#02E8A4"/>
<path d="M368.367 26.8433C368.949 24.0999 367.196 21.404 364.452 20.8219C361.707 20.2398 359.01 21.9918 358.428 24.7353C357.845 27.4787 359.598 30.1745 362.343 30.7567C365.087 31.3388 367.785 29.5867 368.367 26.8433Z" fill="white"/>
<path style="mix-blend-mode:screen" d="M531.288 93.8579C543.423 93.8579 553.261 84.0247 553.261 71.895C553.261 59.7652 543.423 49.9321 531.288 49.9321C519.152 49.9321 509.314 59.7652 509.314 71.895C509.314 84.0247 519.152 93.8579 531.288 93.8579Z" fill="url(#paint2_radial_4003_2078)"/>
<path d="M531.29 86.535C538.224 86.535 543.845 80.4817 543.845 73.0146C543.845 65.5474 538.224 59.4941 531.29 59.4941C524.356 59.4941 518.734 65.5474 518.734 73.0146C518.734 80.4817 524.356 86.535 531.29 86.535Z" fill="#333333"/>
<path d="M531.29 84.5933C538.224 84.5933 543.845 78.9746 543.845 72.0437C543.845 65.1128 538.224 59.4941 531.29 59.4941C524.356 59.4941 518.734 65.1128 518.734 72.0437C518.734 78.9746 524.356 84.5933 531.29 84.5933Z" fill="white"/>
<path d="M531.287 82.2046C536.199 82.2046 540.181 77.94 540.181 72.6794C540.181 67.4188 536.199 63.1543 531.287 63.1543C526.375 63.1543 522.393 67.4188 522.393 72.6794C522.393 77.94 526.375 82.2046 531.287 82.2046Z" fill="#333333"/>
<path d="M531.287 80.934C536.199 80.934 540.181 76.9538 540.181 72.0441C540.181 67.1344 536.199 63.1543 531.287 63.1543C526.375 63.1543 522.393 67.1344 522.393 72.0441C522.393 76.9538 526.375 80.934 531.287 80.934Z" fill="#02E8A4"/>
<path d="M534.879 74.3627C536.863 72.3796 536.863 69.1644 534.879 67.1813C532.895 65.1982 529.678 65.1982 527.694 67.1813C525.71 69.1644 525.71 72.3796 527.694 74.3627C529.678 76.3457 532.895 76.3457 534.879 74.3627Z" fill="white"/>
<path style="mix-blend-mode:screen" d="M654.202 216.703C666.337 216.703 676.175 206.869 676.175 194.74C676.175 182.61 666.337 172.777 654.202 172.777C642.066 172.777 632.229 182.61 632.229 194.74C632.229 206.869 642.066 216.703 654.202 216.703Z" fill="url(#paint3_radial_4003_2078)"/>
<path d="M654.204 209.386C661.138 209.386 666.759 203.332 666.759 195.865C666.759 188.398 661.138 182.345 654.204 182.345C647.27 182.345 641.648 188.398 641.648 195.865C641.648 203.332 647.27 209.386 654.204 209.386Z" fill="#333333"/>
<path d="M654.204 207.438C661.138 207.438 666.759 201.819 666.759 194.888C666.759 187.957 661.138 182.339 654.204 182.339C647.27 182.339 641.648 187.957 641.648 194.888C641.648 201.819 647.27 207.438 654.204 207.438Z" fill="white"/>
<path d="M654.203 205.049C659.115 205.049 663.097 200.785 663.097 195.524C663.097 190.264 659.115 185.999 654.203 185.999C649.291 185.999 645.309 190.264 645.309 195.524C645.309 200.785 649.291 205.049 654.203 205.049Z" fill="#333333"/>
<path d="M654.203 203.779C659.115 203.779 663.097 199.799 663.097 194.889C663.097 189.979 659.115 185.999 654.203 185.999C649.291 185.999 645.309 189.979 645.309 194.889C645.309 199.799 649.291 203.779 654.203 203.779Z" fill="#02E8A4"/>
<path d="M657.795 197.207C659.779 195.224 659.779 192.009 657.795 190.026C655.811 188.043 652.594 188.043 650.61 190.026C648.626 192.009 648.626 195.224 650.61 197.207C652.594 199.19 655.811 199.19 657.795 197.207Z" fill="white"/>
<path style="mix-blend-mode:screen" d="M699.192 384.537C711.327 384.537 721.165 374.704 721.165 362.574C721.165 350.444 711.327 340.611 699.192 340.611C687.056 340.611 677.219 350.444 677.219 362.574C677.219 374.704 687.056 384.537 699.192 384.537Z" fill="url(#paint4_radial_4003_2078)"/>
<path d="M699.192 377.212C706.126 377.212 711.748 371.159 711.748 363.692C711.748 356.225 706.126 350.171 699.192 350.171C692.258 350.171 686.637 356.225 686.637 363.692C686.637 371.159 692.258 377.212 699.192 377.212Z" fill="#333333"/>
<path d="M708.07 371.602C712.973 366.701 712.973 358.755 708.07 353.854C703.166 348.953 695.217 348.953 690.314 353.854C685.41 358.755 685.41 366.701 690.314 371.602C695.217 376.503 703.166 376.503 708.07 371.602Z" fill="white"/>
<path d="M699.191 372.884C704.103 372.884 708.085 368.62 708.085 363.359C708.085 358.099 704.103 353.834 699.191 353.834C694.279 353.834 690.297 358.099 690.297 363.359C690.297 368.62 694.279 372.884 699.191 372.884Z" fill="#333333"/>
<path d="M705.478 369.014C708.952 365.542 708.952 359.914 705.478 356.442C702.005 352.97 696.374 352.97 692.9 356.442C689.427 359.914 689.427 365.542 692.9 369.014C696.374 372.486 702.005 372.486 705.478 369.014Z" fill="#02E8A4"/>
<path d="M699.192 366.531C701.997 366.531 704.272 364.258 704.272 361.453C704.272 358.649 701.997 356.375 699.192 356.375C696.386 356.375 694.111 358.649 694.111 361.453C694.111 364.258 696.386 366.531 699.192 366.531Z" fill="white"/>
<path style="mix-blend-mode:screen" d="M654.202 552.363C666.337 552.363 676.175 542.53 676.175 530.4C676.175 518.271 666.337 508.438 654.202 508.438C642.066 508.438 632.229 518.271 632.229 530.4C632.229 542.53 642.066 552.363 654.202 552.363Z" fill="url(#paint5_radial_4003_2078)"/>
<path d="M654.204 545.038C661.138 545.038 666.759 538.985 666.759 531.518C666.759 524.051 661.138 517.998 654.204 517.998C647.27 517.998 641.648 524.051 641.648 531.518C641.648 538.985 647.27 545.038 654.204 545.038Z" fill="#333333"/>
<path d="M654.204 543.097C661.138 543.097 666.759 537.478 666.759 530.547C666.759 523.616 661.138 517.998 654.204 517.998C647.27 517.998 641.648 523.616 641.648 530.547C641.648 537.478 647.27 543.097 654.204 543.097Z" fill="white"/>
<path d="M654.203 540.71C659.115 540.71 663.097 536.445 663.097 531.185C663.097 525.924 659.115 521.66 654.203 521.66C649.291 521.66 645.309 525.924 645.309 531.185C645.309 536.445 649.291 540.71 654.203 540.71Z" fill="#333333"/>
<path d="M654.203 539.439C659.115 539.439 663.097 535.459 663.097 530.55C663.097 525.64 659.115 521.66 654.203 521.66C649.291 521.66 645.309 525.64 645.309 530.55C645.309 535.459 649.291 539.439 654.203 539.439Z" fill="#02E8A4"/>
<path d="M654.201 534.358C657.007 534.358 659.282 532.084 659.282 529.28C659.282 526.475 657.007 524.202 654.201 524.202C651.396 524.202 649.121 526.475 649.121 529.28C649.121 532.084 651.396 534.358 654.201 534.358Z" fill="white"/>
<path style="mix-blend-mode:screen" d="M531.288 675.214C543.423 675.214 553.261 665.381 553.261 653.251C553.261 641.122 543.423 631.289 531.288 631.289C519.152 631.289 509.314 641.122 509.314 653.251C509.314 665.381 519.152 675.214 531.288 675.214Z" fill="url(#paint6_radial_4003_2078)"/>
<path d="M531.29 667.895C538.224 667.895 543.845 661.842 543.845 654.375C543.845 646.908 538.224 640.854 531.29 640.854C524.356 640.854 518.734 646.908 518.734 654.375C518.734 661.842 524.356 667.895 531.29 667.895Z" fill="#333333"/>
<path d="M531.29 665.954C538.224 665.954 543.845 660.335 543.845 653.404C543.845 646.473 538.224 640.854 531.29 640.854C524.356 640.854 518.734 646.473 518.734 653.404C518.734 660.335 524.356 665.954 531.29 665.954Z" fill="white"/>
<path d="M531.287 663.561C536.199 663.561 540.181 659.296 540.181 654.036C540.181 648.775 536.199 644.511 531.287 644.511C526.375 644.511 522.393 648.775 522.393 654.036C522.393 659.296 526.375 663.561 531.287 663.561Z" fill="#333333"/>
<path d="M531.287 662.29C536.199 662.29 540.181 658.31 540.181 653.401C540.181 648.491 536.199 644.511 531.287 644.511C526.375 644.511 522.393 648.491 522.393 653.401C522.393 658.31 526.375 662.29 531.287 662.29Z" fill="#02E8A4"/>
<path d="M531.287 657.217C534.093 657.217 536.368 654.943 536.368 652.139C536.368 649.334 534.093 647.061 531.287 647.061C528.482 647.061 526.207 649.334 526.207 652.139C526.207 654.943 528.482 657.217 531.287 657.217Z" fill="white"/>
<path style="mix-blend-mode:screen" d="M378.917 713.757C387.498 705.18 387.498 691.274 378.917 682.697C370.336 674.12 356.423 674.12 347.842 682.697C339.261 691.274 339.261 705.18 347.842 713.757C356.423 722.334 370.336 722.334 378.917 713.757Z" fill="url(#paint7_radial_4003_2078)"/>
<path d="M363.382 712.871C370.316 712.871 375.937 706.818 375.937 699.351C375.937 691.884 370.316 685.831 363.382 685.831C356.447 685.831 350.826 691.884 350.826 699.351C350.826 706.818 356.447 712.871 363.382 712.871Z" fill="#333333"/>
<path d="M363.382 710.93C370.316 710.93 375.937 705.311 375.937 698.38C375.937 691.449 370.316 685.831 363.382 685.831C356.447 685.831 350.826 691.449 350.826 698.38C350.826 705.311 356.447 710.93 363.382 710.93Z" fill="white"/>
<path d="M363.382 708.538C368.294 708.538 372.276 704.273 372.276 699.012C372.276 693.752 368.294 689.487 363.382 689.487C358.47 689.487 354.488 693.752 354.488 699.012C354.488 704.273 358.47 708.538 363.382 708.538Z" fill="#333333"/>
<path d="M363.382 707.267C368.294 707.267 372.276 703.287 372.276 698.377C372.276 693.467 368.294 689.487 363.382 689.487C358.47 689.487 354.488 693.467 354.488 698.377C354.488 703.287 358.47 707.267 363.382 707.267Z" fill="#02E8A4"/>
<path d="M368.365 698.199C368.947 695.455 367.195 692.76 364.45 692.177C361.705 691.595 359.008 693.347 358.426 696.091C357.843 698.834 359.596 701.53 362.341 702.112C365.086 702.694 367.783 700.942 368.365 698.199Z" fill="white"/>
<path style="mix-blend-mode:screen" d="M195.483 675.214C207.618 675.214 217.456 665.381 217.456 653.251C217.456 641.122 207.618 631.289 195.483 631.289C183.347 631.289 173.51 641.122 173.51 653.251C173.51 665.381 183.347 675.214 195.483 675.214Z" fill="url(#paint8_radial_4003_2078)"/>
<path d="M195.481 667.895C202.415 667.895 208.037 661.842 208.037 654.375C208.037 646.908 202.415 640.854 195.481 640.854C188.547 640.854 182.926 646.908 182.926 654.375C182.926 661.842 188.547 667.895 195.481 667.895Z" fill="#333333"/>
<path d="M195.481 665.954C202.415 665.954 208.037 660.335 208.037 653.404C208.037 646.473 202.415 640.854 195.481 640.854C188.547 640.854 182.926 646.473 182.926 653.404C182.926 660.335 188.547 665.954 195.481 665.954Z" fill="white"/>
<path d="M195.484 663.561C200.396 663.561 204.378 659.296 204.378 654.036C204.378 648.775 200.396 644.511 195.484 644.511C190.572 644.511 186.59 648.775 186.59 654.036C186.59 659.296 190.572 663.561 195.484 663.561Z" fill="#333333"/>
<path d="M195.484 662.29C200.396 662.29 204.378 658.31 204.378 653.401C204.378 648.491 200.396 644.511 195.484 644.511C190.572 644.511 186.59 648.491 186.59 653.401C186.59 658.31 190.572 662.29 195.484 662.29Z" fill="#02E8A4"/>
<path d="M195.483 657.217C198.289 657.217 200.563 654.943 200.563 652.139C200.563 649.334 198.289 647.061 195.483 647.061C192.677 647.061 190.402 649.334 190.402 652.139C190.402 654.943 192.677 657.217 195.483 657.217Z" fill="white"/>
<path style="mix-blend-mode:screen" d="M72.5649 552.361C84.7003 552.361 94.5379 542.528 94.5379 530.398C94.5379 518.269 84.7003 508.436 72.5649 508.436C60.4295 508.436 50.5918 518.269 50.5918 530.398C50.5918 542.528 60.4295 552.361 72.5649 552.361Z" fill="url(#paint9_radial_4003_2078)"/>
<path d="M72.5632 545.036C79.4974 545.036 85.1186 538.983 85.1186 531.516C85.1186 524.049 79.4974 517.996 72.5632 517.996C65.6291 517.996 60.0078 524.049 60.0078 531.516C60.0078 538.983 65.6291 545.036 72.5632 545.036Z" fill="#333333"/>
<path d="M72.5632 543.095C79.4974 543.095 85.1186 537.476 85.1186 530.545C85.1186 523.614 79.4974 517.996 72.5632 517.996C65.6291 517.996 60.0078 523.614 60.0078 530.545C60.0078 537.476 65.6291 543.095 72.5632 543.095Z" fill="white"/>
<path d="M72.5639 540.708C77.4759 540.708 81.4578 536.443 81.4578 531.183C81.4578 525.922 77.4759 521.658 72.5639 521.658C67.6519 521.658 63.6699 525.922 63.6699 531.183C63.6699 536.443 67.6519 540.708 72.5639 540.708Z" fill="#333333"/>
<path d="M72.5639 539.437C77.4759 539.437 81.4578 535.457 81.4578 530.548C81.4578 525.638 77.4759 521.658 72.5639 521.658C67.6519 521.658 63.6699 525.638 63.6699 530.548C63.6699 535.457 67.6519 539.437 72.5639 539.437Z" fill="#02E8A4"/>
<path d="M72.5647 534.356C75.3705 534.356 77.6451 532.082 77.6451 529.278C77.6451 526.473 75.3705 524.2 72.5647 524.2C69.7589 524.2 67.4844 526.473 67.4844 529.278C67.4844 532.082 69.7589 534.356 72.5647 534.356Z" fill="white"/>
<path style="mix-blend-mode:screen" d="M27.5746 384.537C39.71 384.537 49.5477 374.704 49.5477 362.574C49.5477 350.444 39.71 340.611 27.5746 340.611C15.4392 340.611 5.60156 350.444 5.60156 362.574C5.60156 374.704 15.4392 384.537 27.5746 384.537Z" fill="url(#paint10_radial_4003_2078)"/>
<path d="M27.573 377.214C34.5071 377.214 40.1284 371.161 40.1284 363.694C40.1284 356.227 34.5071 350.173 27.573 350.173C20.6388 350.173 15.0176 356.227 15.0176 363.694C15.0176 371.161 20.6388 377.214 27.573 377.214Z" fill="#333333"/>
<path d="M39.8053 365.55C41.3793 358.8 37.1807 352.053 30.4276 350.48C23.6744 348.907 16.924 353.103 15.35 359.853C13.776 366.603 17.9745 373.351 24.7277 374.924C31.4808 376.497 38.2313 372.301 39.8053 365.55Z" fill="white"/>
<path d="M27.5756 372.884C32.4876 372.884 36.4696 368.62 36.4696 363.359C36.4696 358.099 32.4876 353.834 27.5756 353.834C22.6636 353.834 18.6816 358.099 18.6816 363.359C18.6816 368.62 22.6636 372.884 27.5756 372.884Z" fill="#333333"/>
<path d="M36.2371 364.755C37.3563 359.974 34.3863 355.192 29.6035 354.073C24.8207 352.955 20.0362 355.923 18.917 360.704C17.7979 365.484 20.7679 370.267 25.5507 371.385C30.3335 372.504 35.118 369.535 36.2371 364.755Z" fill="#02E8A4"/>
<path d="M27.5745 366.531C30.3803 366.531 32.6548 364.258 32.6548 361.453C32.6548 358.649 30.3803 356.375 27.5745 356.375C24.7687 356.375 22.4941 358.649 22.4941 361.453C22.4941 364.258 24.7687 366.531 27.5745 366.531Z" fill="white"/>
<path style="mix-blend-mode:screen" d="M72.5649 216.703C84.7003 216.703 94.5379 206.869 94.5379 194.74C94.5379 182.61 84.7003 172.777 72.5649 172.777C60.4295 172.777 50.5918 182.61 50.5918 194.74C50.5918 206.869 60.4295 216.703 72.5649 216.703Z" fill="url(#paint11_radial_4003_2078)"/>
<path d="M72.5632 209.386C79.4974 209.386 85.1186 203.332 85.1186 195.865C85.1186 188.398 79.4974 182.345 72.5632 182.345C65.6291 182.345 60.0078 188.398 60.0078 195.865C60.0078 203.332 65.6291 209.386 72.5632 209.386Z" fill="#333333"/>
<path d="M72.5632 207.436C79.4974 207.436 85.1186 201.817 85.1186 194.886C85.1186 187.956 79.4974 182.337 72.5632 182.337C65.6291 182.337 60.0078 187.956 60.0078 194.886C60.0078 201.817 65.6291 207.436 72.5632 207.436Z" fill="white"/>
<path d="M72.5639 205.049C77.4759 205.049 81.4578 200.785 81.4578 195.524C81.4578 190.264 77.4759 185.999 72.5639 185.999C67.6519 185.999 63.6699 190.264 63.6699 195.524C63.6699 200.785 67.6519 205.049 72.5639 205.049Z" fill="#333333"/>
<path d="M72.5639 203.779C77.4759 203.779 81.4578 199.799 81.4578 194.889C81.4578 189.979 77.4759 185.999 72.5639 185.999C67.6519 185.999 63.6699 189.979 63.6699 194.889C63.6699 199.799 67.6519 203.779 72.5639 203.779Z" fill="#02E8A4"/>
<path d="M77.4673 194.921C78.1935 192.212 76.5851 189.427 73.8749 188.702C71.1647 187.976 68.379 189.583 67.6528 192.292C66.9266 195.001 68.535 197.786 71.2451 198.512C73.9553 199.237 76.7411 197.63 77.4673 194.921Z" fill="white"/>
<path style="mix-blend-mode:screen" d="M195.483 93.8579C207.618 93.8579 217.456 84.0247 217.456 71.895C217.456 59.7652 207.618 49.9321 195.483 49.9321C183.347 49.9321 173.51 59.7652 173.51 71.895C173.51 84.0247 183.347 93.8579 195.483 93.8579Z" fill="url(#paint12_radial_4003_2078)"/>
<path d="M195.481 86.535C202.415 86.535 208.037 80.4817 208.037 73.0146C208.037 65.5474 202.415 59.4941 195.481 59.4941C188.547 59.4941 182.926 65.5474 182.926 73.0146C182.926 80.4817 188.547 86.535 195.481 86.535Z" fill="#333333"/>
<path d="M195.481 84.5933C202.415 84.5933 208.037 78.9746 208.037 72.0437C208.037 65.1128 202.415 59.4941 195.481 59.4941C188.547 59.4941 182.926 65.1128 182.926 72.0437C182.926 78.9746 188.547 84.5933 195.481 84.5933Z" fill="white"/>
<path d="M195.484 82.2046C200.396 82.2046 204.378 77.94 204.378 72.6794C204.378 67.4188 200.396 63.1543 195.484 63.1543C190.572 63.1543 186.59 67.4188 186.59 72.6794C186.59 77.94 190.572 82.2046 195.484 82.2046Z" fill="#333333"/>
<path d="M195.484 80.934C200.396 80.934 204.378 76.9538 204.378 72.0441C204.378 67.1344 200.396 63.1543 195.484 63.1543C190.572 63.1543 186.59 67.1344 186.59 72.0441C186.59 76.9538 190.572 80.934 195.484 80.934Z" fill="#02E8A4"/>
<path d="M200.428 71.9501C201.076 69.2214 199.388 66.4844 196.658 65.8369C193.928 65.1893 191.19 66.8764 190.542 69.6051C189.894 72.3338 191.582 75.0708 194.312 75.7184C197.042 76.366 199.78 74.6788 200.428 71.9501Z" fill="white"/>
<defs>
<linearGradient id="paint0_linear_4003_2078" x1="0.325392" y1="362.755" x2="726.228" y2="362.755" gradientUnits="userSpaceOnUse">
<stop stop-color="#FFF8C1"/>
<stop offset="0.0001" stop-color="#C2E8FD"/>
<stop offset="0.3123" stop-color="#919191"/>
<stop offset="0.7592" stop-color="#DDDDDD"/>
<stop offset="1" stop-color="white"/>
</linearGradient>
<radialGradient id="paint1_radial_4003_2078" cx="0" cy="0" r="1" gradientUnits="userSpaceOnUse" gradientTransform="translate(363.353 26.9213) scale(21.9731 21.9629)">
<stop stop-color="#FCEE21"/>
<stop offset="1"/>
</radialGradient>
<radialGradient id="paint2_radial_4003_2078" cx="0" cy="0" r="1" gradientUnits="userSpaceOnUse" gradientTransform="translate(531.292 71.8905) scale(21.9731 21.9629)">
<stop stop-color="#FCEE21"/>
<stop offset="1"/>
</radialGradient>
<radialGradient id="paint3_radial_4003_2078" cx="0" cy="0" r="1" gradientUnits="userSpaceOnUse" gradientTransform="translate(654.202 194.74) scale(21.9731 21.9629)">
<stop stop-color="#FCEE21"/>
<stop offset="1"/>
</radialGradient>
<radialGradient id="paint4_radial_4003_2078" cx="0" cy="0" r="1" gradientUnits="userSpaceOnUse" gradientTransform="translate(699.192 362.57) scale(21.9731 21.9629)">
<stop stop-color="#FCEE21"/>
<stop offset="1"/>
</radialGradient>
<radialGradient id="paint5_radial_4003_2078" cx="0" cy="0" r="1" gradientUnits="userSpaceOnUse" gradientTransform="translate(654.202 530.4) scale(21.9731 21.9629)">
<stop stop-color="#FCEE21"/>
<stop offset="1"/>
</radialGradient>
<radialGradient id="paint6_radial_4003_2078" cx="0" cy="0" r="1" gradientUnits="userSpaceOnUse" gradientTransform="translate(531.292 653.251) scale(21.9731 21.9629)">
<stop stop-color="#FCEE21"/>
<stop offset="1"/>
</radialGradient>
<radialGradient id="paint7_radial_4003_2078" cx="0" cy="0" r="1" gradientUnits="userSpaceOnUse" gradientTransform="translate(363.383 698.228) scale(21.9731 21.9629)">
<stop stop-color="#FCEE21"/>
<stop offset="1"/>
</radialGradient>
<radialGradient id="paint8_radial_4003_2078" cx="0" cy="0" r="1" gradientUnits="userSpaceOnUse" gradientTransform="translate(195.483 653.251) scale(21.9731 21.9629)">
<stop stop-color="#FCEE21"/>
<stop offset="1"/>
</radialGradient>
<radialGradient id="paint9_radial_4003_2078" cx="0" cy="0" r="1" gradientUnits="userSpaceOnUse" gradientTransform="translate(72.5693 530.398) scale(21.9731 21.9629)">
<stop stop-color="#FCEE21"/>
<stop offset="1"/>
</radialGradient>
<radialGradient id="paint10_radial_4003_2078" cx="0" cy="0" r="1" gradientUnits="userSpaceOnUse" gradientTransform="translate(27.5746 362.57) scale(21.9731 21.9629)">
<stop stop-color="#FCEE21"/>
<stop offset="1"/>
</radialGradient>
<radialGradient id="paint11_radial_4003_2078" cx="0" cy="0" r="1" gradientUnits="userSpaceOnUse" gradientTransform="translate(72.5693 194.74) scale(21.9731 21.9629)">
<stop stop-color="#FCEE21"/>
<stop offset="1"/>
</radialGradient>
<radialGradient id="paint12_radial_4003_2078" cx="0" cy="0" r="1" gradientUnits="userSpaceOnUse" gradientTransform="translate(195.483 71.8905) scale(21.9731 21.9629)">
<stop stop-color="#FCEE21"/>
<stop offset="1"/>
</radialGradient>
</defs>
</svg>
