<svg width="31" height="31" viewBox="0 0 31 31" fill="none" xmlns="http://www.w3.org/2000/svg">
<g clip-path="url(#clip0_2002_256)">
<path d="M15.0086 30.0212C23.2987 30.0212 30.0192 23.3007 30.0192 15.0106C30.0192 6.72047 23.2987 0 15.0086 0C6.71851 0 -0.00195312 6.72047 -0.00195312 15.0106C-0.00195312 23.3007 6.71851 30.0212 15.0086 30.0212Z" fill="url(#paint0_linear_2002_256)"/>
<path d="M10.1577 16.1079L11.9386 21.0371C11.9386 21.0371 12.1613 21.4983 12.3997 21.4983C12.6381 21.4983 16.1842 17.8092 16.1842 17.8092L20.1276 10.1926L10.2213 14.8355L10.1577 16.1079Z" fill="#C8DAEA"/>
<path d="M12.518 17.3721L12.1762 21.0054C12.1762 21.0054 12.0331 22.1187 13.1461 21.0054C14.2591 19.8921 15.3245 19.0336 15.3245 19.0336" fill="#A9C6D8"/>
<path d="M10.1913 16.2837L6.52793 15.0901C6.52793 15.0901 6.09012 14.9125 6.23109 14.5097C6.26011 14.4267 6.31866 14.356 6.49378 14.2345C7.30548 13.6687 21.5176 8.56052 21.5176 8.56052C21.5176 8.56052 21.9189 8.4253 22.1556 8.51524C22.2141 8.53337 22.2668 8.56672 22.3082 8.61188C22.3497 8.65705 22.3783 8.71241 22.3914 8.7723C22.4169 8.87808 22.4276 8.98691 22.4231 9.09565C22.422 9.18972 22.4106 9.2769 22.402 9.41363C22.3154 10.8102 19.7251 21.2336 19.7251 21.2336C19.7251 21.2336 19.5701 21.8435 19.0149 21.8644C18.8784 21.8688 18.7424 21.8457 18.6151 21.7964C18.4878 21.7472 18.3717 21.6728 18.2737 21.5777C17.1841 20.6404 13.4179 18.1094 12.5857 17.5527C12.5669 17.5399 12.5511 17.5233 12.5393 17.5039C12.5276 17.4844 12.5201 17.4627 12.5174 17.4402C12.5058 17.3815 12.5696 17.3088 12.5696 17.3088C12.5696 17.3088 19.1274 11.4797 19.3019 10.8678C19.3154 10.8204 19.2644 10.797 19.1959 10.8177C18.7603 10.978 11.2097 15.7462 10.3764 16.2725C10.3164 16.2906 10.253 16.2945 10.1913 16.2837Z" fill="white"/>
</g>
<defs>
<linearGradient id="paint0_linear_2002_256" x1="30.0192" y1="15.0106" x2="-0.00195312" y2="15.0106" gradientUnits="userSpaceOnUse">
<stop stop-color="#00EC9E"/>
<stop offset="1" stop-color="#8E6EFA"/>
</linearGradient>
<clipPath id="clip0_2002_256">
<rect width="30.0212" height="30.0212" fill="white"/>
</clipPath>
</defs>
</svg>
