<svg width="31" height="31" viewBox="0 0 31 31" fill="none" xmlns="http://www.w3.org/2000/svg">
<g clip-path="url(#clip0_2002_264)">
<path d="M15.7076 30.0212C23.9977 30.0212 30.7182 23.3007 30.7182 15.0106C30.7182 6.72047 23.9977 0 15.7076 0C7.41749 0 0.697021 6.72047 0.697021 15.0106C0.697021 23.3007 7.41749 30.0212 15.7076 30.0212Z" fill="url(#paint0_linear_2002_264)"/>
<path d="M6.25122 23.2962L6.32657 23.5089C6.31692 23.4846 6.28936 23.4101 6.25122 23.2962ZM9.23314 18.475C9.36547 17.3319 9.81483 16.6918 10.6616 16.0357C11.8732 15.1471 13.3867 15.6498 13.3867 15.6498V12.6678C13.7546 12.658 14.1227 12.6808 14.4867 12.7358V16.5733C14.4867 16.5733 12.9736 16.0706 11.762 16.9597C10.9157 17.6154 10.4654 18.2558 10.3336 19.399C10.3294 20.0197 10.4411 20.8311 10.9552 21.5327C10.8281 21.4647 10.6985 21.3873 10.5665 21.3003C9.43393 20.5068 9.22763 19.3163 9.23314 18.475ZM20.7358 7.15427C19.9024 6.20134 19.5872 5.23923 19.4732 4.56335H20.5217C20.5217 4.56335 20.3127 6.33551 21.8362 8.07826L21.8574 8.10169C21.4468 7.83219 21.0702 7.51408 20.7358 7.15427ZM25.7867 9.85592V13.6162C25.7867 13.6162 24.4488 13.5615 23.4586 13.2987C22.0761 12.9311 21.1875 12.3674 21.1875 12.3674C21.1875 12.3674 20.5736 11.9653 20.524 11.9373V19.7022C20.524 20.1346 20.4105 21.2143 20.0646 22.1149C19.6129 23.293 18.9159 24.0662 18.7877 24.2243C18.7877 24.2243 17.94 25.2696 16.4444 25.9735C15.0964 26.6085 13.9128 26.5924 13.559 26.6084C13.559 26.6084 11.513 26.693 9.67193 25.4446C9.27381 25.1695 8.90218 24.8578 8.56187 24.5138L8.57106 24.5206C10.4126 25.769 12.4581 25.6845 12.4581 25.6845C12.8124 25.6684 13.996 25.6845 15.3436 25.0495C16.8377 24.3456 17.6868 23.3003 17.6868 23.3003C17.8136 23.1423 18.5139 22.369 18.9637 21.1904C19.3087 20.2904 19.4231 19.2102 19.4231 18.7778V11.0138C19.4728 11.0423 20.0861 11.4443 20.0861 11.4443C20.0861 11.4443 20.9752 12.0085 22.3577 12.3756C23.3483 12.6384 24.6858 12.6931 24.6858 12.6931V9.74657C25.1435 9.85363 25.5336 9.88257 25.7867 9.85592Z" fill="#EE1D52"/>
<path d="M24.6885 9.74657V12.6922C24.6885 12.6922 23.351 12.6375 22.3603 12.3747C20.9778 12.0071 20.0888 11.4434 20.0888 11.4434C20.0888 11.4434 19.4754 11.0413 19.4257 11.0129V18.7787C19.4257 19.2111 19.3123 20.2913 18.9663 21.1914C18.5146 22.3699 17.8176 23.1432 17.6894 23.3012C17.6894 23.3012 16.8413 24.3465 15.3462 25.0504C13.9986 25.6854 12.815 25.6693 12.4607 25.6854C12.4607 25.6854 10.4152 25.7699 8.57366 24.5216L8.56447 24.5147C8.37004 24.3182 8.18703 24.1108 8.01633 23.8935C7.42867 23.1459 7.06845 22.2619 6.97794 22.0097C6.97778 22.0086 6.97778 22.0075 6.97794 22.0065C6.83229 21.5681 6.52629 20.5155 6.5681 19.4959C6.64207 17.6971 7.24856 16.593 7.40892 16.3165C7.8336 15.5622 8.38595 14.8873 9.04139 14.3219C9.61978 13.834 10.2754 13.4458 10.9813 13.1733C11.7443 12.8532 12.5615 12.6817 13.3888 12.6678V15.6498C13.3888 15.6498 11.8754 15.149 10.6642 16.0357C9.81743 16.6918 9.36807 17.3319 9.23575 18.475C9.23023 19.3163 9.43653 20.5068 10.5682 21.3007C10.7002 21.388 10.8298 21.4655 10.9569 21.5332C11.1546 21.8013 11.3952 22.035 11.6691 22.2247C12.7745 22.9548 13.7008 23.0058 14.8853 22.5316C15.6751 22.2146 16.2697 21.5001 16.5454 20.7085C16.7186 20.2141 16.7163 19.7165 16.7163 19.2019V4.56335H19.4731C19.587 5.23923 19.9022 6.20134 20.7357 7.15427C21.07 7.51408 21.4466 7.83219 21.8572 8.10169C21.9785 8.23264 22.5988 8.88002 23.3951 9.27746C23.8068 9.48289 24.2408 9.6403 24.6885 9.74657Z" fill="white"/>
<path d="M5.8811 21.094V21.0963L5.94931 21.2903C5.94148 21.2677 5.91613 21.1991 5.8811 21.094Z" fill="#69C9D0"/>
<path d="M10.9807 13.1733C10.2748 13.4459 9.61921 13.8341 9.04082 14.322C8.38517 14.8886 7.83295 15.5649 7.4088 16.3206C7.24845 16.5963 6.64195 17.7013 6.56798 19.5001C6.52617 20.5197 6.83217 21.5723 6.97782 22.0106C6.97767 22.0117 6.97767 22.0128 6.97782 22.0139C7.06972 22.2638 7.42856 23.1478 8.01621 23.8977C8.18691 24.115 8.36993 24.3224 8.56435 24.5189C7.94141 24.088 7.38584 23.5671 6.9158 22.9732C6.33319 22.2321 5.97389 21.3573 5.88016 21.0991C5.88005 21.0972 5.88005 21.0954 5.88016 21.0935V21.0903C5.73405 20.6525 5.42713 19.5994 5.46986 18.5784C5.54384 16.7796 6.15033 15.6755 6.31068 15.3989C6.73471 14.6432 7.28694 13.9669 7.9427 13.4003C8.52097 12.9122 9.17658 12.524 9.88256 12.2516C10.3229 12.0689 10.7816 11.9341 11.2508 11.8496C11.9579 11.7262 12.6801 11.7155 13.3906 11.8179V12.6679C12.5624 12.6814 11.7445 12.853 10.9807 13.1733Z" fill="#69C9D0"/>
<path d="M19.4787 4.56336H16.7219V19.2024C16.7219 19.717 16.7219 20.2132 16.551 20.7089C16.2726 21.5001 15.6803 22.2146 14.891 22.5316C13.706 23.0076 12.7797 22.9548 11.6747 22.2247C11.4004 22.0358 11.1591 21.803 10.9607 21.5355C11.9021 22.0377 12.7448 22.029 13.7887 21.6099C14.5776 21.2929 15.1708 20.5784 15.4483 19.7868C15.622 19.2924 15.6197 18.7948 15.6197 18.2807V3.63892H19.4263C19.4263 3.63892 19.3836 4.00281 19.4787 4.56336ZM24.6918 8.93195V9.74657C24.2449 9.64013 23.8117 9.48273 23.4007 9.27746C22.6044 8.88003 21.9842 8.23264 21.8629 8.10169C22.0036 8.1941 22.1497 8.27818 22.3003 8.35348C23.2684 8.83684 24.2218 8.98111 24.6918 8.93195Z" fill="#69C9D0"/>
</g>
<defs>
<linearGradient id="paint0_linear_2002_264" x1="30.7182" y1="15.0106" x2="0.697021" y2="15.0106" gradientUnits="userSpaceOnUse">
<stop stop-color="#00EC9E"/>
<stop offset="1" stop-color="#8E6EFA"/>
</linearGradient>
<clipPath id="clip0_2002_264">
<rect width="30.0212" height="30.0212" fill="white" transform="translate(0.695068)"/>
</clipPath>
</defs>
</svg>
