<svg width="43" height="26" viewBox="0 0 43 26" fill="none" xmlns="http://www.w3.org/2000/svg">
<path d="M27.1513 2.76648H15.7773V23.0984H27.1513V2.76648Z" fill="#292929"/>
<path d="M16.5331 12.9324C16.5331 8.80159 18.4848 5.1353 21.4797 2.76645C19.2756 1.04213 16.4952 0 13.4624 0C6.27801 0 0.464844 5.78402 0.464844 12.9324C0.464844 20.0808 6.27801 25.8649 13.4624 25.8649C16.4952 25.8649 19.2756 24.8227 21.4797 23.0984C18.4806 20.763 16.5331 17.0633 16.5331 12.9324Z" fill="#313131"/>
<path d="M42.4954 12.9324C42.4954 20.0808 36.6822 25.8649 29.4978 25.8649C26.465 25.8649 23.6846 24.8227 21.4805 23.0984C24.5132 20.7254 26.4271 17.0633 26.4271 12.9324C26.4271 8.80159 24.4754 5.1353 21.4805 2.76645C23.6804 1.04213 26.4608 0 29.4936 0C36.6822 0 42.4954 5.82169 42.4954 12.9324Z" fill="#313131"/>
</svg>
