<svg width="112" height="25" viewBox="0 0 112 25" fill="none" xmlns="http://www.w3.org/2000/svg">
<path id="Vector" fill-rule="evenodd" clip-rule="evenodd" d="M0 3.98097V24.3852H5.97338V10.8426C6.17615 10.9863 9.22809 16.778 9.60307 17.5036C9.79112 17.8673 9.97136 18.1519 10.1428 18.4862C10.7197 19.6113 12.5115 23.1769 13.5282 23.9389C13.8028 24.1446 14.0855 24.388 14.4157 24.5249C16.8415 25.5304 18.9779 23.695 18.9779 21.4962V1.21226H13.0046V13.4308C12.8251 13.3036 10.8602 9.45474 10.494 8.7569C9.65594 7.15967 8.87531 5.62254 8.04749 4.02111C6.97095 1.93837 6.34201 1.08797 3.99274 0.840898C1.91863 0.622742 0 1.89327 0 3.98097ZM46.1689 16.4402C46.1689 13.5765 48.8551 12.3262 50.7954 13.2288C54.0722 14.7532 53.0249 19.7506 49.4667 19.7506C47.6251 19.7506 46.1689 18.2085 46.1689 16.4402ZM40.88 15.8986C40.88 17.4933 40.9715 18.5451 41.7088 19.9721C42.3771 21.2654 43.3521 22.4227 44.5512 23.2416C50.7682 27.4875 58.0532 22.4277 58.0532 16.6208C58.0532 14.9118 57.8815 14.1943 57.2273 12.7851C56.9803 12.2532 56.402 11.3414 55.9843 10.9179C55.7906 10.7214 55.6976 10.5788 55.4868 10.376C54.108 9.04993 52.0711 7.89334 49.4044 7.89334C48.0126 7.89334 47.0118 8.23859 46.0084 8.64103C44.7046 9.16387 43.401 10.3021 42.5598 11.3844L41.9569 12.3058C41.3964 13.2724 40.8799 14.5458 40.8799 15.8987L40.88 15.8986ZM21.7156 16.3198C21.7156 17.6065 22.0438 18.8465 22.463 19.75C22.9236 20.743 23.2765 21.1802 23.937 21.9355C27.0257 25.4678 32.4539 25.7301 36.233 22.7791C36.6071 22.4871 36.9235 22.2297 37.2569 21.9036C37.4387 21.7258 37.5027 21.6048 37.6915 21.4212C37.8392 21.2776 38.0272 21.0503 38.1426 20.8946C38.4965 20.4173 39.498 19.0004 39.5111 18.4266C39.0512 18.3229 35.9751 16.6472 35.5911 16.5607C35.2536 17.1777 34.9746 17.7727 34.4258 18.3225C32.6498 20.1015 30.505 20.9418 28.3629 19.2193C27.9475 18.8852 27.4089 17.9282 27.2446 17.4119C26.994 16.624 26.9739 15.7553 27.178 14.9229C27.367 14.152 27.7086 13.4993 28.1715 12.9948C29.1109 11.9708 30.5441 11.7502 31.8046 12.1581C32.1488 12.2694 32.473 12.3377 32.5422 12.5882C32.322 12.6451 31.6776 13.1073 31.4252 13.2532C31.0635 13.4621 30.7123 13.7082 30.3395 13.9485C29.5845 14.4354 28.8601 14.8805 28.1244 15.3571C28.4844 15.8771 28.7897 16.4054 29.1565 16.9468C29.3426 17.2214 29.4826 17.4518 29.6675 17.7165C29.7837 17.883 30.1325 18.3828 30.1778 18.5471C30.4389 18.4797 33.9575 16.0688 34.2969 15.8506C34.6398 15.63 38.1912 13.1977 38.4533 13.1301C38.4465 12.8341 38.0816 12.3476 37.906 12.0946C36.0969 9.487 33.8252 7.89355 30.1779 7.89355C25.7249 7.89355 21.7157 11.858 21.7157 16.3201L21.7156 16.3198ZM73.6711 17.2226C73.6711 19.4541 74.3046 21.4841 75.4289 22.6246C75.5854 22.7833 75.6634 22.9359 75.8387 23.0709C76.0327 23.2203 76.1607 23.3338 76.3549 23.4744C76.73 23.7461 77.0543 23.9539 77.5071 24.1655C79.4544 25.0757 82.2143 24.9856 84.2052 24.1623C85.0093 23.8298 85.7087 23.2272 86.2876 22.6255C86.5075 22.3969 86.8679 21.889 87.0288 21.597C87.7595 20.271 88.0446 18.8855 88.0446 17.2226V8.31455H82.7557V17.2226C82.7557 20.3918 80.0613 20.1143 79.3506 18.9515C79.0299 18.4267 78.9601 17.9052 78.9601 17.1022V8.31455H73.6713V17.2226H73.6711ZM102.231 6.9905V24.3852H107.769V13.0094H112V8.31465C112 8.1759 111.957 8.13404 111.813 8.13404H107.769C107.769 5.8065 108.812 6.08756 110.631 6.08756C111.22 6.08756 112 6.20246 112 5.90695V1.21215C110.01 1.21215 107.708 1.02302 106.018 1.68493C105.568 1.8608 105.356 1.95423 104.972 2.17789L104.081 2.82103C103.05 3.78159 102.231 5.06356 102.231 6.99039L102.231 6.9905ZM59.8578 12.7686C59.8578 14.8452 60.5606 15.9616 61.9729 16.9222C62.2312 17.0979 62.6034 17.3067 62.933 17.4381L65.0498 18.3397C65.7919 18.6373 65.8935 18.822 65.8935 19.2692C65.8935 20.104 64.1609 19.8711 63.0312 19.8711L60.4176 19.8709C60.1127 19.8692 59.6711 19.7774 59.6711 20.0517V24.3854H66.3911C67.8309 24.3854 69.3379 23.7687 70.079 23.0776C71.8143 21.4592 72.0357 18.3657 70.7611 16.9682L70.418 16.5779C68.4671 14.8718 65.1466 14.1238 65.1466 13.431C65.1466 12.9873 65.6181 12.6485 66.0799 12.6485H70.56V8.31487H64.8355C63.0917 8.31487 61.0996 9.33757 60.3132 10.862C60.0496 11.3731 59.8578 12.0266 59.8578 12.7688V12.7686ZM90.6579 24.3852H96.1334V18.0051C96.1334 17.2513 96.2006 16.6499 96.1949 15.958C96.1893 15.2751 96.308 14.664 96.6038 14.247C97.3201 13.2372 99.0594 13.1901 100.302 13.1901V8.31476C95.6093 8.31476 95.9863 10.5823 95.4489 10.9631V8.31476H90.6579V24.3853V24.3852Z" fill="#313131"/>
</svg>
