<svg width="59" height="28" viewBox="0 0 59 28" fill="none" xmlns="http://www.w3.org/2000/svg">
<path d="M8.46615 9.29159C7.94693 8.98539 7.42771 8.77237 6.90849 8.55936C6.17626 8.45285 5.55053 8.34635 4.83161 8.34635H0.464844V21.6597H2.86124V16.148H4.63191C5.25764 16.148 5.98987 16.0414 6.60229 15.9349C7.22801 15.8284 7.74723 15.6287 8.26645 15.3092C8.78567 15.003 9.09188 14.577 9.4114 14.0578C9.71761 13.5385 9.82411 12.8063 9.82411 12.1806C9.82411 11.5549 9.71761 10.9291 9.51791 10.4099C9.19839 10.0238 8.87886 9.5978 8.46615 9.29159ZM7.2147 13.2456L6.58897 13.8714L5.65704 14.1776C5.24433 14.2841 4.92481 14.2841 4.51209 14.2841H2.84793V10.33H4.6186C4.92481 10.33 5.35083 10.33 5.65704 10.4365C5.96325 10.4365 6.28277 10.543 6.58897 10.7427C7.2147 11.049 7.52091 11.5682 7.52091 12.3004L7.2147 13.2456ZM17.7189 13.6584C17.4127 13.2457 16.9867 12.9261 16.4675 12.7264C15.8417 12.5134 15.1095 12.4202 14.4971 12.4202C13.7649 12.4202 13.1391 12.5267 12.4202 12.7264C11.7945 12.9394 11.1688 13.3522 10.6495 13.7649L11.7945 15.1228C12.1007 14.8166 12.5267 14.6036 12.8329 14.3906C13.2456 14.1776 13.7649 14.0844 14.1909 14.0844C14.7101 14.0844 15.2293 14.1909 15.642 14.4971C16.0547 14.8033 16.2678 15.2293 16.2678 15.7486V15.9616C15.5355 15.9616 14.8166 15.9616 14.0844 16.0681C13.3521 16.1746 12.7264 16.2811 12.114 16.4808C11.5948 16.6938 11.0756 17 10.6629 17.4127C10.2501 17.8254 10.0371 18.4512 10.0371 19.0769C10.0371 19.4896 10.1436 20.0088 10.3433 20.4348C10.5563 20.7411 10.8626 21.0606 11.1688 21.2603C11.475 21.46 11.901 21.673 12.2072 21.7795C12.6199 21.886 12.9394 21.886 13.3521 21.886C13.9779 21.886 14.4971 21.7795 15.0163 21.4733C15.429 21.2603 15.8417 20.9541 16.0547 20.4348H16.1613V21.5798H18.2381V16.0681C18.2381 15.6554 18.1316 15.1361 18.0251 14.7101C18.1316 14.3906 17.9319 13.9646 17.7189 13.6584ZM16.361 18.3313C16.2544 19.4763 15.1095 20.3017 13.9646 20.2085C13.7515 20.2085 13.5518 20.2085 13.4453 20.102C13.2323 20.102 13.1391 19.9955 12.9261 19.889C12.8196 19.7825 12.6199 19.676 12.5134 19.5828C12.4069 19.3698 12.4069 19.2766 12.4069 19.0636C12.4069 18.7574 12.5134 18.4378 12.7131 18.2381C12.9261 18.0251 13.2323 17.9319 13.5385 17.8254C13.8447 17.7189 14.2708 17.6124 14.6835 17.6124H16.3476C16.361 17.6124 16.361 18.3313 16.361 18.3313ZM26.4525 12.6199H28.8488L24.5886 23.6434C24.4821 24.0561 24.2824 24.3756 24.0694 24.7883C23.8564 25.0945 23.6567 25.414 23.3371 25.6137C23.0309 25.8267 22.7114 26.0264 22.4052 26.1329C21.9925 26.2395 21.5798 26.346 21.1537 26.346H20.528C20.315 26.346 20.1153 26.2395 19.9023 26.2395L20.1153 24.2691C20.2218 24.2691 20.4215 24.3756 20.528 24.3756H20.9407C21.1537 24.3756 21.3535 24.3756 21.5665 24.2691C21.7795 24.1626 21.8727 24.1626 21.9792 23.9629C22.0857 23.8564 22.1922 23.6567 22.2854 23.5502L22.5916 22.9244L23.0043 21.7795L19.1568 12.6332H21.6463L24.1359 19.1834C24.1626 19.1701 26.4525 12.6199 26.4525 12.6199ZM52.6531 0.864258H37.8886C34.5603 0.864258 31.7512 3.56686 31.7512 7.0017V21.6597C31.7512 24.988 34.4538 27.7971 37.8886 27.7971H52.6531C55.9814 27.7971 58.7905 25.0945 58.7905 21.6597V7.0017C58.7905 3.56686 56.0879 0.864258 52.6531 0.864258ZM43.2938 7.41441L44.026 7.30791C45.171 7.2014 46.3159 7.30791 47.4609 7.52092C49.6443 7.82713 51.6146 9.29159 52.5599 11.3685L51.0022 11.9942C49.8573 9.29159 46.6355 8.98539 45.1843 8.98539V17.0932H43.4136V7.42773H43.2938V7.41441ZM37.7821 8.55936C37.7821 7.82713 38.4078 7.2014 39.1401 7.2014C39.8723 7.2014 40.498 7.82713 40.498 8.55936C40.498 9.29159 39.8723 9.91732 39.1401 9.91732C38.3013 9.81081 37.7821 9.29159 37.7821 8.55936ZM52.8661 15.9483C52.7596 16.4675 52.6531 16.9867 52.4534 17.5059C51.3084 20.315 48.4993 21.6597 44.2391 21.6597H38.1016V12.0874H39.8723V19.9955H44.3456C47.7804 19.9955 50.0703 18.9571 50.8957 16.8802C51.0022 16.574 51.1087 16.2545 51.1087 15.9483H49.6576L52.1472 12.8329L54.6368 15.9483H52.8661Z" fill="#313131"/>
</svg>
